<?xml version="1.0" encoding="UTF-8" standalone="no"?>
<!DOCTYPE svg PUBLIC "-//W3C//DTD SVG 1.1//EN" "http://www.w3.org/Graphics/SVG/1.1/DTD/svg11.dtd">

<!-- Created with Vectornator (http://vectornator.io/) -->
<svg height="100%" stroke-miterlimit="10" style="fill-rule:nonzero;clip-rule:evenodd;stroke-linecap:round;stroke-linejoin:round;" version="1.1" viewBox="0 0 450.452 289.262" width="100%" xml:space="preserve" xmlns="http://www.w3.org/2000/svg" xmlns:vectornator="http://vectornator.io" xmlns:xlink="http://www.w3.org/1999/xlink">
<metadata>
<vectornator:setting key="IsTimeLapseWatermarkDisabled" value="false"/>
<vectornator:setting key="UndoHistoryDisabled" value="true"/>
<vectornator:setting key="VNDimensionsVisible" value="true"/>
<vectornator:setting key="VNSnapToGuides" value="true"/>
<vectornator:setting key="WDCMYKEnabledKey" value="false"/>
<vectornator:setting key="WDDisplayWhiteBackground" value="false"/>
<vectornator:setting key="WDDynamicGuides" value="false"/>
<vectornator:setting key="WDGuidesVisible" value="true"/>
<vectornator:setting key="WDIsolateActiveLayer" value="false"/>
<vectornator:setting key="WDOutlineMode" value="false"/>
<vectornator:setting key="WDRulersVisible" value="true"/>
<vectornator:setting key="WDSnapToEdges" value="false"/>
<vectornator:setting key="WDSnapToGrid" value="false"/>
<vectornator:setting key="WDSnapToPoints" value="false"/>
<vectornator:setting key="WDUnits" value="Points"/>
</metadata>
<defs>
<linearGradient gradientTransform="matrix(1 0 0 1 -12.0398 0.472522)" gradientUnits="userSpaceOnUse" id="LinearGradient" x1="348.269" x2="418.126" y1="103.361" y2="101.456">
<stop offset="0" stop-color="#ff6f3c"/>
<stop offset="1" stop-color="#ff9a3c"/>
</linearGradient>
<filter color-interpolation-filters="sRGB" filterUnits="userSpaceOnUse" height="230.283" id="Filter" width="113.495" x="333.676" y="31.833">
<feDropShadow dx="0.593916" dy="0.590059" flood-color="#515b60" flood-opacity="1" in="SourceGraphic" result="Shadow" stdDeviation="1.16974"/>
</filter>
</defs>
<clipPath id="ArtboardFrame">
<rect height="289.262" width="450.452" x="0" y="0"/>
</clipPath>
<g clip-path="url(#ArtboardFrame)" id="freepik--Shadow--inject-7" vectornator:layerName="freepik--Shadow--inject-7" visibility="hidden">
<path d="M5.0206 284.344C5.0206 278.092 91.8281 273.024 198.911 273.024C305.993 273.024 392.801 278.092 392.801 284.344C392.801 290.596 305.993 295.664 198.911 295.664C91.8281 295.664 5.0206 290.596 5.0206 284.344Z" fill="#f5f5f5" fill-rule="evenodd" opacity="1" stroke="none"/>
</g>
<g id="freepik--Device--inject-7" vectornator:layerName="freepik--Device--inject-7">
<path d="M320.103 3.79556L320.103 5.51556C320.103 5.89664 319.794 6.20556 319.413 6.20556L304.783 6.20556C304.402 6.20556 304.093 5.89663 304.093 5.51556L304.093 3.79556C304.093 3.41448 304.402 3.10555 304.783 3.10555L319.413 3.10555C319.794 3.10555 320.103 3.41448 320.103 3.79556Z" fill="#263238" fill-rule="evenodd" opacity="1" stroke="none"/>
<path d="M340.523 11.0056L340.523 269.806C340.523 273.467 337.555 276.436 333.893 276.436L153.353 276.436C149.692 276.436 146.723 273.467 146.723 269.806L146.723 11.0055C146.723 7.34389 149.692 4.37554 153.353 4.37554L333.893 4.37555C337.555 4.37555 340.523 7.3439 340.523 11.0056Z" fill="#263238" fill-rule="evenodd" opacity="1" stroke="none"/>
<path d="M335.523 11.0056L335.523 269.806C335.523 273.467 332.555 276.436 328.893 276.436L153.353 276.436C149.692 276.436 146.723 273.467 146.723 269.806L146.723 11.0055C146.723 7.34389 149.692 4.37554 153.353 4.37554L328.893 4.37555C332.555 4.37555 335.523 7.3439 335.523 11.0056Z" fill="#ffffff" fill-rule="evenodd" opacity="0.2" stroke="none"/>
<path d="M235.843 9.41556C235.843 8.43249 236.64 7.63556 237.623 7.63556C238.606 7.63556 239.403 8.43249 239.403 9.41556C239.403 10.3986 238.606 11.1956 237.623 11.1956C236.64 11.1956 235.843 10.3986 235.843 9.41556Z" fill="#ffffff" fill-rule="evenodd" opacity="0.6" stroke="none"/>
<path d="M244.613 9.41556C244.613 8.92402 245.012 8.52556 245.503 8.52556C245.995 8.52556 246.393 8.92402 246.393 9.41556C246.393 9.90709 245.995 10.3056 245.503 10.3056C245.012 10.3056 244.613 9.90709 244.613 9.41556Z" fill="#ffffff" fill-rule="evenodd" opacity="0.6" stroke="none"/>
<path d="M235.653 266.706C235.653 263.69 238.098 261.246 241.113 261.246C244.129 261.246 246.573 263.69 246.573 266.706C246.573 269.721 244.129 272.166 241.113 272.166C238.098 272.166 235.653 269.721 235.653 266.706Z" fill="#ffffff" fill-rule="evenodd" opacity="1" stroke="none"/>
<path d="M330.063 14.8955L330.063 22.5858L330.063 22.5858L152.163 22.5858L152.163 22.5858L152.163 14.8955L152.163 14.8955L330.063 14.8955L330.063 14.8955Z" fill="#ff6f3c" fill-rule="evenodd" opacity="1" stroke="none"/>
<path d="M330.063 22.6459L330.063 257.726L330.063 257.726L152.163 257.726L152.163 257.726L152.163 22.6459L152.163 22.6459L330.063 22.6459L330.063 22.6459Z" fill="#ffffff" fill-rule="evenodd" opacity="0.8" stroke="none"/>
<path d="M312.293 18.6456C312.293 17.7177 313.046 16.9656 313.973 16.9656C314.901 16.9656 315.653 17.7177 315.653 18.6456C315.653 19.5734 314.901 20.3256 313.973 20.3256C313.046 20.3256 312.293 19.5734 312.293 18.6456Z" fill="#ffffff" fill-rule="evenodd" opacity="0.6" stroke="none"/>
<path d="M318.093 18.6456C318.093 17.7177 318.846 16.9656 319.773 16.9656C320.701 16.9656 321.453 17.7177 321.453 18.6456C321.453 19.5734 320.701 20.3256 319.773 20.3256C318.846 20.3256 318.093 19.5734 318.093 18.6456Z" fill="#ffffff" fill-rule="evenodd" opacity="0.6" stroke="none"/>
<path d="M323.893 18.6456C323.893 17.7177 324.646 16.9656 325.573 16.9656C326.501 16.9656 327.253 17.7177 327.253 18.6456C327.253 19.5734 326.501 20.3256 325.573 20.3256C324.646 20.3256 323.893 19.5734 323.893 18.6456Z" fill="#ffffff" fill-rule="evenodd" opacity="0.6" stroke="none"/>
<path d="M152.163 22.4556L330.063 22.4556L330.063 22.4556L330.063 33.2156L330.063 33.2156L152.163 33.2156L152.163 33.2156L152.163 22.4556L152.163 22.4556Z" fill="#000000" fill-rule="evenodd" opacity="0.2" stroke="none"/>
<path d="M324.683 30.4056L269.623 30.4056C268.204 30.4056 267.053 29.2549 267.053 27.8356L267.053 27.8356C267.053 26.4162 268.204 25.2656 269.623 25.2656L324.683 25.2656C326.103 25.2656 327.253 26.4162 327.253 27.8356L327.253 27.8356C327.253 29.2549 326.103 30.4056 324.683 30.4056Z" fill="#ffffff" fill-rule="evenodd" opacity="0.6" stroke="none"/>
<path d="M179.963 105.466C179.963 108.666 177.653 110.596 173.833 110.596L170.203 110.596L170.203 115.046L168.103 115.046L168.103 100.326L173.833 100.326C177.653 100.326 179.963 102.326 179.963 105.466ZM177.863 105.466C177.863 103.366 176.463 102.176 173.773 102.176L170.203 102.176L170.203 108.766L173.773 108.766C176.463 108.766 177.863 107.566 177.863 105.466Z" fill="#263238" fill-rule="evenodd" opacity="1" stroke="none"/>
<path d="M312.373 101.596L183.373 101.596C183.097 101.596 182.873 101.372 182.873 101.096C182.873 100.819 183.097 100.596 183.373 100.596L312.373 100.596C312.65 100.596 312.873 100.819 312.873 101.096C312.873 101.372 312.65 101.596 312.373 101.596Z" fill="#000000" fill-rule="evenodd" opacity="1" stroke="none"/>
<path d="M312.373 106.786L183.373 106.786C183.097 106.786 182.873 106.562 182.873 106.286C182.873 106.009 183.097 105.786 183.373 105.786L312.373 105.786C312.647 105.791 312.868 106.012 312.873 106.286C312.873 106.562 312.65 106.786 312.373 106.786Z" fill="#000000" fill-rule="evenodd" opacity="1" stroke="none"/>
<path d="M312.373 111.976L183.373 111.976C183.097 111.976 182.873 111.752 182.873 111.476C182.873 111.199 183.097 110.976 183.373 110.976L312.373 110.976C312.647 110.981 312.868 111.202 312.873 111.476C312.873 111.752 312.65 111.976 312.373 111.976Z" fill="#000000" fill-rule="evenodd" opacity="1" stroke="none"/>
<path d="M312.373 117.166L183.373 117.166C183.097 117.166 182.873 116.942 182.873 116.666C182.873 116.389 183.097 116.166 183.373 116.166L312.373 116.166C312.647 116.171 312.868 116.392 312.873 116.666C312.873 116.942 312.65 117.166 312.373 117.166Z" fill="#000000" fill-rule="evenodd" opacity="1" stroke="none"/>
<path d="M312.373 122.326L168.373 122.326C168.097 122.326 167.873 122.102 167.873 121.826C167.873 121.549 168.097 121.326 168.373 121.326L312.373 121.326C312.65 121.326 312.873 121.549 312.873 121.826C312.868 122.099 312.647 122.32 312.373 122.326Z" fill="#000000" fill-rule="evenodd" opacity="1" stroke="none"/>
<path d="M312.373 127.556L168.373 127.556C168.097 127.556 167.873 127.332 167.873 127.056C167.873 126.779 168.097 126.556 168.373 126.556L312.373 126.556C312.65 126.556 312.873 126.779 312.873 127.056C312.868 127.329 312.647 127.55 312.373 127.556Z" fill="#000000" fill-rule="evenodd" opacity="1" stroke="none"/>
<path d="M312.373 132.746L168.373 132.746C168.097 132.746 167.873 132.522 167.873 132.246C167.873 131.969 168.097 131.746 168.373 131.746L312.373 131.746C312.65 131.746 312.873 131.969 312.873 132.246C312.868 132.519 312.647 132.74 312.373 132.746Z" fill="#000000" fill-rule="evenodd" opacity="1" stroke="none"/>
<path d="M312.373 137.936L168.373 137.936C168.097 137.936 167.873 137.712 167.873 137.436C167.873 137.159 168.097 136.936 168.373 136.936L312.373 136.936C312.65 136.936 312.873 137.159 312.873 137.436C312.873 137.712 312.65 137.936 312.373 137.936Z" fill="#000000" fill-rule="evenodd" opacity="1" stroke="none"/>
<path d="M232.363 143.126L168.413 143.126C168.137 143.126 167.913 142.902 167.913 142.626C167.913 142.349 168.137 142.126 168.413 142.126L232.363 142.126C232.64 142.126 232.863 142.349 232.863 142.626C232.863 142.902 232.64 143.126 232.363 143.126Z" fill="#000000" fill-rule="evenodd" opacity="1" stroke="none"/>
<path d="M312.373 154.596L184.373 154.596C184.097 154.596 183.873 154.372 183.873 154.096C183.873 153.819 184.097 153.596 184.373 153.596L312.373 153.596C312.647 153.601 312.868 153.822 312.873 154.096C312.873 154.372 312.65 154.596 312.373 154.596Z" fill="#000000" fill-rule="evenodd" opacity="1" stroke="none"/>
<path d="M312.373 159.786L168.373 159.786C168.097 159.786 167.873 159.562 167.873 159.286C167.873 159.009 168.097 158.786 168.373 158.786L312.373 158.786C312.647 158.791 312.868 159.012 312.873 159.286C312.873 159.562 312.65 159.786 312.373 159.786Z" fill="#000000" fill-rule="evenodd" opacity="1" stroke="none"/>
<path d="M312.373 164.986L168.373 164.986C168.097 164.986 167.873 164.762 167.873 164.486C167.873 164.209 168.097 163.986 168.373 163.986L312.373 163.986C312.65 163.986 312.873 164.209 312.873 164.486C312.868 164.759 312.647 164.98 312.373 164.986Z" fill="#000000" fill-rule="evenodd" opacity="1" stroke="none"/>
<path d="M312.373 170.176L168.373 170.176C168.097 170.176 167.873 169.952 167.873 169.676C167.873 169.399 168.097 169.176 168.373 169.176L312.373 169.176C312.65 169.176 312.873 169.399 312.873 169.676C312.868 169.949 312.647 170.17 312.373 170.176Z" fill="#000000" fill-rule="evenodd" opacity="1" stroke="none"/>
<path d="M312.373 175.326L168.373 175.326C168.097 175.326 167.873 175.102 167.873 174.826C167.873 174.549 168.097 174.326 168.373 174.326L312.373 174.326C312.65 174.326 312.873 174.549 312.873 174.826C312.873 175.102 312.65 175.326 312.373 175.326Z" fill="#000000" fill-rule="evenodd" opacity="1" stroke="none"/>
<path d="M312.373 180.556L168.373 180.556C168.097 180.556 167.873 180.332 167.873 180.056C167.873 179.779 168.097 179.556 168.373 179.556L312.373 179.556C312.65 179.556 312.873 179.779 312.873 180.056C312.873 180.332 312.65 180.556 312.373 180.556Z" fill="#000000" fill-rule="evenodd" opacity="1" stroke="none"/>
<path d="M312.373 185.746L168.373 185.746C168.097 185.746 167.873 185.522 167.873 185.246C167.873 184.969 168.097 184.746 168.373 184.746L312.373 184.746C312.65 184.746 312.873 184.969 312.873 185.246C312.873 185.522 312.65 185.746 312.373 185.746Z" fill="#000000" fill-rule="evenodd" opacity="1" stroke="none"/>
<path d="M312.373 190.936L168.373 190.936C168.097 190.936 167.873 190.712 167.873 190.436C167.873 190.159 168.097 189.936 168.373 189.936L312.373 189.936C312.647 189.941 312.868 190.162 312.873 190.436C312.873 190.712 312.65 190.936 312.373 190.936Z" fill="#000000" fill-rule="evenodd" opacity="1" stroke="none"/>
<path d="M282.363 196.126L168.413 196.126C168.137 196.126 167.913 195.902 167.913 195.626C167.913 195.349 168.137 195.126 168.413 195.126L282.413 195.126C282.69 195.126 282.913 195.349 282.913 195.626C282.914 195.767 282.855 195.903 282.75 195.998C282.645 196.093 282.504 196.14 282.363 196.126Z" fill="#000000" fill-rule="evenodd" opacity="1" stroke="none"/>
<path d="M312.373 208.606L184.373 208.606C184.097 208.606 183.873 208.382 183.873 208.106C183.873 207.829 184.097 207.606 184.373 207.606L312.373 207.606C312.65 207.606 312.873 207.829 312.873 208.106C312.868 208.379 312.647 208.6 312.373 208.606Z" fill="#000000" fill-rule="evenodd" opacity="1" stroke="none"/>
<path d="M312.373 213.796L168.373 213.796C168.097 213.796 167.873 213.572 167.873 213.296C167.873 213.019 168.097 212.796 168.373 212.796L312.373 212.796C312.65 212.796 312.873 213.019 312.873 213.296C312.873 213.572 312.65 213.796 312.373 213.796Z" fill="#000000" fill-rule="evenodd" opacity="1" stroke="none"/>
<path d="M312.373 218.986L168.373 218.986C168.097 218.986 167.873 218.762 167.873 218.486C167.873 218.209 168.097 217.986 168.373 217.986L312.373 217.986C312.65 217.986 312.873 218.209 312.873 218.486C312.873 218.762 312.65 218.986 312.373 218.986Z" fill="#000000" fill-rule="evenodd" opacity="1" stroke="none"/>
<path d="M272.363 224.176L168.413 224.176C168.137 224.176 167.913 223.952 167.913 223.676C167.913 223.399 168.137 223.176 168.413 223.176L272.413 223.176C272.69 223.176 272.913 223.399 272.913 223.676C272.913 223.952 272.69 224.176 272.413 224.176L272.363 224.176Z" fill="#000000" fill-rule="evenodd" opacity="1" stroke="none"/>
<path d="M325.573 33.2156L330.073 33.2156L330.073 33.2156L330.073 257.736L330.073 257.736L325.573 257.736L325.573 257.736L325.573 33.2156L325.573 33.2156Z" fill="#000000" fill-rule="evenodd" opacity="0.4" stroke="none"/>
<path d="M327.823 71.2556L327.823 71.2556C329.066 71.2556 330.073 72.2629 330.073 73.5056L330.073 95.9055C330.073 97.1482 329.066 98.1555 327.823 98.1555L327.823 98.1555C326.581 98.1555 325.573 97.1482 325.573 95.9055L325.573 73.5056C325.573 72.2629 326.581 71.2556 327.823 71.2556Z" fill="#ffffff" fill-rule="evenodd" opacity="0.3" stroke="none"/>
<path d="M338.933 61.4156L340.223 61.4156C340.814 61.4156 341.293 61.8946 341.293 62.4856L341.293 86.9855C341.293 87.5765 340.814 88.0556 340.223 88.0556L338.933 88.0556C338.342 88.0556 337.863 87.5765 337.863 86.9855L337.863 62.4856C337.863 61.8946 338.342 61.4156 338.933 61.4156Z" fill="#263238" fill-rule="evenodd" opacity="1" stroke="none"/>
<path d="M338.933 31.4156L340.223 31.4156C340.814 31.4156 341.293 31.8946 341.293 32.4856L341.293 56.9855C341.293 57.5765 340.814 58.0556 340.223 58.0556L338.933 58.0556C338.342 58.0556 337.863 57.5765 337.863 56.9855L337.863 32.4856C337.863 31.8946 338.342 31.4156 338.933 31.4156Z" fill="#263238" fill-rule="evenodd" opacity="1" stroke="none"/>
<path d="M338.933 61.4156L340.223 61.4156C340.814 61.4156 341.293 61.8946 341.293 62.4856L341.293 86.9855C341.293 87.5765 340.814 88.0556 340.223 88.0556L338.933 88.0556C338.342 88.0556 337.863 87.5765 337.863 86.9855L337.863 62.4856C337.863 61.8946 338.342 61.4156 338.933 61.4156Z" fill="#ffffff" fill-rule="evenodd" opacity="0.2" stroke="none"/>
<path d="M338.933 31.4156L340.223 31.4156C340.814 31.4156 341.293 31.8946 341.293 32.4856L341.293 56.9855C341.293 57.5765 340.814 58.0556 340.223 58.0556L338.933 58.0556C338.342 58.0556 337.863 57.5765 337.863 56.9855L337.863 32.4856C337.863 31.8946 338.342 31.4156 338.933 31.4156Z" fill="#ffffff" fill-rule="evenodd" opacity="0.2" stroke="none"/>
<path d="M178.477 52.5405C178.477 47.8032 182.317 43.9628 187.055 43.9628C191.792 43.9628 195.632 47.8032 195.632 52.5405C195.632 57.2779 191.792 61.1183 187.055 61.1183C182.317 61.1183 178.477 57.2779 178.477 52.5405Z" fill="#ff6f3c" fill-rule="evenodd" opacity="1" stroke="none"/>
<path d="M168.841 39.8762L313.163 39.8762L313.163 39.8762L313.163 96.2145L313.163 96.2145L168.841 96.2145L168.841 96.2145L168.841 39.8762L168.841 39.8762Z" fill="none" fill-rule="evenodd" opacity="1" stroke="#263238" stroke-linecap="butt" stroke-linejoin="miter" stroke-width="1"/>
<path d="M168.373 95.9765L207.465 67.3786L227.011 76.003L267.524 44.6621L312.81 80.6983L312.81 95.9765L168.373 95.9765Z" fill="#ff6f3c" fill-rule="evenodd" opacity="1" stroke="none"/>
<path d="M397.286 215.078" fill="#ffffff" fill-rule="evenodd" opacity="0.2" stroke="none"/>
</g>
<g id="freepik--Character--inject-7" vectornator:layerName="freepik--Character--inject-7">
<path d="M125.293 227.656L20.2034 227.656L4.20341 144.956C3.37043 140.662 4.49958 136.22 7.28212 132.846C10.0647 129.471 14.2095 127.516 18.5834 127.516L93.8234 127.516C100.841 127.517 106.872 132.495 108.203 139.386L125.293 227.656Z" fill="#ff6f3c" fill-rule="evenodd" opacity="1" stroke="none"/>
<path d="M50.0534 227.656L20.2034 227.656L4.20341 144.956C3.37043 140.662 4.49958 136.22 7.28212 132.846C10.0647 129.471 14.2095 127.516 18.5834 127.516L18.5834 127.516C25.5996 127.521 31.6281 132.498 32.9634 139.386L50.0534 227.656Z" fill="#ff6f3c" fill-rule="evenodd" opacity="1" stroke="none"/>
<path d="M125.293 227.656L20.2034 227.656L4.20341 144.956C3.37043 140.662 4.49958 136.22 7.28212 132.846C10.0647 129.471 14.2095 127.516 18.5834 127.516L93.8234 127.516C100.841 127.517 106.872 132.495 108.203 139.386L125.293 227.656Z" fill="#ffffff" fill-rule="evenodd" opacity="0.2" stroke="none"/>
<path d="M125.293 227.496L50.0534 227.496L32.9634 139.326C31.627 132.444 25.583 127.488 18.5734 127.526L93.8134 127.526C100.821 127.489 106.861 132.446 108.193 139.326L125.293 227.496Z" fill="#ffffff" fill-rule="evenodd" opacity="0.2" stroke="none"/>
<path d="M89.2534 118.196C89.2534 118.196 85.3034 133.676 74.0634 131.256C62.8234 128.836 62.4534 114.086 62.4534 114.086C62.4534 114.086 60.7234 118.666 61.1234 121.166C59.9061 118.968 59.8835 116.304 61.0634 114.086C61.0634 114.086 58.0634 115.676 58.0634 118.196C57.3433 116.272 58.1274 114.11 59.9134 113.096C59.9134 113.096 53.2134 114.616 55.9134 105.376C58.6134 96.1356 67.2634 101.086 66.3534 106.556C68.52 104.488 71.3614 103.273 74.3534 103.136C79.2734 102.876 94.0834 108.866 89.2534 118.196Z" fill="#263238" fill-rule="evenodd" opacity="1" stroke="none"/>
<path d="M92.2534 138.326C97.1834 139.916 103.023 160.796 104.543 161.516C106.063 162.236 112.133 148.456 112.133 148.456L112.843 142.626L114.893 138.986C114.893 138.986 118.033 143.276 118.043 145.476C118.053 147.676 114.203 150.586 114.203 150.586C114.203 150.586 108.203 171.466 103.983 170.656C99.7634 169.846 92.1434 153.766 92.1434 153.766L92.2534 138.326Z" fill="#e4897b" fill-rule="evenodd" opacity="1" stroke="none"/>
<path d="M143.053 206.076C142.963 206.226 142.873 206.286 142.763 206.266C139.763 205.726 131.763 210.096 122.103 215.136L119.383 216.536C119.073 216.706 118.763 216.856 118.453 217.006C113.553 219.516 108.353 222.006 103.203 224.106C97.1534 226.566 91.2034 228.386 85.9234 228.776C85.2034 228.836 84.5134 228.856 83.8234 228.856C60.2234 228.856 67.9134 189.906 67.9134 189.906L96.1034 187.746L99.4334 193.476L101.233 196.576L105.303 195.486C107.303 194.936 110.383 194.226 113.883 193.486L114.693 193.306C115.863 193.056 117.083 192.816 118.333 192.566C127.533 190.696 138.093 188.896 142.003 188.876C144.803 188.856 144.313 204.226 143.053 206.076Z" fill="#e4897b" fill-rule="evenodd" opacity="1" stroke="none"/>
<path d="M114.423 191.976L119.893 219.086C119.893 219.086 101.063 234.386 84.8934 228.416C68.7234 222.446 73.7834 194.876 73.7834 194.876L93.6134 182.386L101.523 193.446L114.423 191.976Z" fill="#263238" fill-rule="evenodd" opacity="1" stroke="none"/>
<path d="M113.493 191.456L119.183 220.796L122.603 218.096L118.043 190.886L113.493 191.456Z" fill="#263238" fill-rule="evenodd" opacity="1" stroke="none"/>
<path d="M122.603 218.096L119.183 220.796L118.993 219.776L118.453 217.006L116.133 205.076L113.883 193.486L113.633 192.176L113.483 191.456L118.053 190.886L118.333 192.566L120.463 205.326L122.103 215.136L122.603 218.096Z" fill="#ffffff" fill-rule="evenodd" opacity="0.4" stroke="none"/>
<path d="M143.053 206.076C142.963 206.226 142.873 206.286 142.763 206.266C139.763 205.726 131.763 210.096 122.103 215.136L122.603 218.136L119.183 220.836L118.993 219.716C115.361 222.212 111.524 224.396 107.523 226.246L107.523 226.246L103.213 224.046L96.9634 220.746L99.5234 197.436L103.223 202.566C103.223 202.566 111.853 204.656 116.123 205.066L117.123 205.156C118.293 205.256 119.443 205.316 120.503 205.326C121.263 205.326 121.963 205.326 122.643 205.266C129.963 204.756 137.893 204.486 143.053 206.076Z" fill="#000000" fill-rule="evenodd" opacity="0.2" stroke="none"/>
<path d="M202.373 221.816L202.113 227.456L201.453 227.456L196.893 227.686C184.793 228.236 154.773 229.296 141.973 226.736L83.1534 227.876L96.0834 205.226L176.963 217.856L201.853 221.726L202.373 221.816Z" fill="#e4897b" fill-rule="evenodd" opacity="1" stroke="none"/>
<path d="M212.093 215.086C211.983 217.296 211.903 219.286 211.813 221.086C211.693 223.606 211.603 225.836 211.503 227.976C211.333 231.696 208.283 229.226 201.683 228.766C201.523 228.766 201.463 228.236 201.453 227.466C201.453 225.816 201.693 223.026 201.823 221.696L201.903 220.936C202.709 220.185 203.474 219.39 204.193 218.556C206.031 216.588 207.437 214.258 208.323 211.716C209.633 207.126 212.323 209.866 212.093 215.086Z" fill="#263238" fill-rule="evenodd" opacity="1" stroke="none"/>
<path d="M112.133 206.976L105.513 230.106L92.5134 228.856C92.5134 228.856 55.0834 238.746 65.5134 185.086L93.6334 182.386L101.833 203.776L112.133 206.976Z" fill="#263238" fill-rule="evenodd" opacity="1" stroke="none"/>
<path d="M110.713 205.716L103.233 230.476L107.653 230.476L114.203 206.976L110.713 205.716Z" fill="#263238" fill-rule="evenodd" opacity="1" stroke="none"/>
<path d="M110.713 205.716L103.233 230.476L107.653 230.476L114.203 206.976L110.713 205.716Z" fill="#ffffff" fill-rule="evenodd" opacity="0.4" stroke="none"/>
<path d="M211.813 221.116C211.693 223.636 211.603 225.866 211.503 228.006C211.333 231.726 208.283 229.256 201.683 228.796C201.523 228.796 201.463 228.266 201.453 227.496L196.893 227.726C190.663 224.216 181.893 220.126 176.893 217.856L201.783 221.726L201.863 220.966C202.669 220.215 203.434 219.42 204.153 218.586L211.813 221.116Z" fill="#000000" fill-rule="evenodd" opacity="0.2" stroke="none"/>
<path d="M142.013 188.876C141.013 188.876 141.683 206.076 142.763 206.266C147.353 207.096 209.963 225.576 209.963 225.576L211.783 220.086C211.783 220.086 152.273 188.816 142.013 188.876Z" fill="#e4897b" fill-rule="evenodd" opacity="1" stroke="none"/>
<path d="M209.223 226.636C208.623 226.416 211.563 219.146 211.563 219.146C211.563 219.146 217.733 216.146 220.253 212.036C222.773 207.926 224.613 211.306 222.963 216.266L218.883 228.546C217.713 232.066 215.443 228.866 209.223 226.636Z" fill="#263238" fill-rule="evenodd" opacity="1" stroke="none"/>
<path d="M65.0234 184.946L64.7434 189.216L93.8434 183.046L92.5834 178.336L65.0234 184.946Z" fill="#000000" fill-rule="evenodd" opacity="1" stroke="none"/>
<path d="M72.7858 182.242L74.1623 181.986L74.1623 181.986L75.4629 188.997L75.4629 188.997L74.0864 189.252L74.0864 189.252L72.7858 182.242L72.7858 182.242Z" fill="#263238" fill-rule="evenodd" opacity="1" stroke="none"/>
<path d="M80.2214 181.557L86.26 180.196L86.26 180.196L87.291 184.771L87.291 184.771L81.2525 186.132L81.2525 186.132L80.2214 181.557L80.2214 181.557Z" fill="#ffffff" fill-rule="evenodd" opacity="1" stroke="none"/>
<path d="M89.6465 178.061L91.023 177.806L91.023 177.806L92.3236 184.816L92.3236 184.816L90.9471 185.072L90.9471 185.072L89.6465 178.061L89.6465 178.061Z" fill="#263238" fill-rule="evenodd" opacity="1" stroke="none"/>
<path d="M92.8434 179.166L65.0334 185.086C65.0334 185.086 65.1234 169.696 62.9434 161.196C62.2334 158.436 61.3434 155.346 60.2134 151.756C59.7334 150.236 59.2134 148.636 58.6434 146.916C58.0734 145.196 57.5534 143.616 56.9234 141.826C60.6668 140.637 64.4897 139.714 68.3634 139.066C72.4511 138.342 76.5847 137.908 80.7334 137.766C86.0934 137.716 92.2534 138.326 92.2534 138.326C92.2534 138.326 93.1234 138.536 93.6734 144.216C94.1834 149.556 93.9634 159.766 92.8434 179.166Z" fill="#263238" fill-rule="evenodd" opacity="1" stroke="none"/>
<path d="M92.8434 179.166L65.0334 185.086C65.0334 185.086 65.0334 184.746 65.0334 184.146C64.9834 182.776 64.9434 180.146 64.8034 177.066C64.5934 172.066 64.1234 165.696 62.9634 161.196C62.4634 159.196 61.8634 157.086 61.1434 154.716L60.7734 153.496C60.6034 152.936 60.4334 152.356 60.2434 151.766C59.7634 150.246 59.2434 148.636 58.6634 146.916C58.0834 145.196 57.5734 143.616 56.9534 141.836C60.6918 140.641 64.5118 139.719 68.3834 139.076C72.4709 138.349 76.6044 137.911 80.7534 137.766C86.1134 137.766 92.2734 138.326 92.2734 138.326C92.2734 138.326 93.1434 138.546 93.7034 144.216C94.1834 149.556 93.9634 159.766 92.8434 179.166Z" fill="#ffffff" fill-rule="evenodd" opacity="0.8" stroke="none"/>
<path d="M78.4634 143.856C71.6634 142.986 69.6234 140.076 69.6234 140.076C72.4034 137.466 71.8934 133.606 71.1834 131.196C70.9717 130.43 70.694 129.683 70.3534 128.966L78.5234 130.496C78.3378 131.637 78.2342 132.79 78.2134 133.946C78.1811 134.795 78.2584 135.646 78.4434 136.476C78.9934 138.916 80.4434 138.946 80.4434 138.946C81.8234 141.636 78.4634 143.856 78.4634 143.856Z" fill="#e4897b" fill-rule="evenodd" opacity="1" stroke="none"/>
<path d="M78.2134 133.946C78.1811 134.795 78.2584 135.646 78.4434 136.476C75.1934 136.046 72.7334 133.476 71.1834 131.196C70.9717 130.43 70.694 129.683 70.3534 128.966L78.5234 130.496C78.3378 131.637 78.2342 132.79 78.2134 133.946Z" fill="#000000" fill-rule="evenodd" opacity="0.2" stroke="none"/>
<path d="M80.3934 107.556C87.9134 109.096 89.5134 113.616 88.4834 121.486C87.1934 131.316 83.6434 137.756 74.6534 133.766C62.4534 128.326 67.8934 105.006 80.3934 107.556Z" fill="#e4897b" fill-rule="evenodd" opacity="1" stroke="none"/>
<path d="M83.7034 120.066C84.0751 121.313 84.5955 122.512 85.2534 123.636C84.6775 124.176 83.8478 124.35 83.1034 124.086L83.7034 120.066Z" fill="#de5753" fill-rule="evenodd" opacity="1" stroke="none"/>
<path d="M76.7134 114.136C76.605 114.138 76.5016 114.09 76.4334 114.006C76.3718 113.932 76.3424 113.836 76.3518 113.74C76.3612 113.644 76.4086 113.556 76.4834 113.496C77.6074 112.722 79.0297 112.522 80.3234 112.956C80.5115 113.022 80.6133 113.225 80.5534 113.416C80.5238 113.508 80.4583 113.584 80.3717 113.627C80.2852 113.67 80.1849 113.677 80.0934 113.646C79.0363 113.29 77.8742 113.441 76.9434 114.056C76.8769 114.105 76.7965 114.133 76.7134 114.136Z" fill="#263238" fill-rule="evenodd" opacity="1" stroke="none"/>
<path d="M88.6134 115.696C88.5189 115.693 88.4291 115.654 88.3634 115.586C87.7185 114.844 86.7758 114.429 85.7934 114.456C85.6624 114.485 85.526 114.439 85.4397 114.336C85.3533 114.233 85.3313 114.091 85.3825 113.967C85.4337 113.843 85.5497 113.757 85.6834 113.746C86.8948 113.674 88.0716 114.165 88.8734 115.076C88.9412 115.143 88.9793 115.235 88.9793 115.331C88.9793 115.426 88.9412 115.518 88.8734 115.586C88.8041 115.654 88.711 115.694 88.6134 115.696Z" fill="#263238" fill-rule="evenodd" opacity="1" stroke="none"/>
<path d="M69.5834 118.556C69.5834 118.556 74.3534 113.096 74.8034 108.216C74.8034 108.216 90.9534 105.216 88.6034 120.446C88.6034 120.446 92.8034 107.306 79.9234 104.376C67.0434 101.446 63.2434 120.376 68.7734 127.376C68.7734 127.326 66.6134 121.986 69.5834 118.556Z" fill="#263238" fill-rule="evenodd" opacity="1" stroke="none"/>
<path d="M70.4834 120.396C70.7008 118.552 69.3863 116.88 67.5434 116.656C65.1634 116.436 63.0734 120.996 68.6434 123.336C69.4334 123.666 70.0734 122.946 70.4834 120.396Z" fill="#e4897b" fill-rule="evenodd" opacity="1" stroke="none"/>
<path d="M82.8934 126.326C82.2525 127.013 81.661 127.745 81.1234 128.516L80.6734 128.306C78.6734 127.306 78.0534 126.186 77.9934 125.236C77.9678 124.774 78.0571 124.314 78.2534 123.896C78.3556 123.652 78.4901 123.423 78.6534 123.216C79.6251 124.384 80.84 125.326 82.2134 125.976C82.6234 126.216 82.8934 126.326 82.8934 126.326Z" fill="#263238" fill-rule="evenodd" opacity="1" stroke="none"/>
<path d="M82.2134 125.986L81.6734 126.626C79.7734 125.686 78.5634 124.776 78.2534 123.906C78.3556 123.662 78.4901 123.433 78.6534 123.226C79.6251 124.394 80.84 125.336 82.2134 125.986Z" fill="#ffffff" fill-rule="evenodd" opacity="1" stroke="none"/>
<path d="M80.6734 128.326C78.6734 127.326 78.0534 126.206 77.9934 125.256C78.7438 125.654 79.4203 126.178 79.9934 126.806C80.3763 127.227 80.6146 127.759 80.6734 128.326Z" fill="#de5753" fill-rule="evenodd" opacity="1" stroke="none"/>
<path d="M80.1134 108.096C80.1134 108.096 74.5634 119.856 66.7934 118.096C59.0234 116.336 74.2634 103.096 74.2634 103.096C74.2634 103.096 87.9634 100.896 92.8634 108.926C97.7634 116.956 88.6034 120.406 88.6034 120.406C88.6034 120.406 91.0334 110.966 80.1134 108.096Z" fill="#263238" fill-rule="evenodd" opacity="1" stroke="none"/>
<path d="M72.6434 117.796C72.5207 117.791 72.4196 117.698 72.4046 117.576C72.3897 117.454 72.4655 117.34 72.5834 117.306C79.1034 115.656 79.9634 107.306 79.9734 107.176C79.9785 107.109 80.0099 107.048 80.0606 107.004C80.1112 106.961 80.1771 106.94 80.2434 106.946C80.3832 106.961 80.4851 107.085 80.4734 107.226C80.4734 107.306 79.5734 116.056 72.7034 117.786L72.6434 117.796Z" fill="#263238" fill-rule="evenodd" opacity="1" stroke="none"/>
<path d="M79.3034 118.926C79.3034 119.516 78.9434 119.986 78.5434 119.976C78.1434 119.966 77.8434 119.456 77.8634 118.866C77.8834 118.276 78.2334 117.796 78.6234 117.866C79.0134 117.936 79.3334 118.326 79.3034 118.926Z" fill="#263238" fill-rule="evenodd" opacity="1" stroke="none"/>
<path d="M78.4634 117.836L79.7834 117.376C79.7834 117.376 79.0934 118.446 78.4634 117.836Z" fill="#263238" fill-rule="evenodd" opacity="1" stroke="none"/>
<path d="M86.7334 119.096C86.7334 119.696 86.3634 120.166 85.9634 120.096C85.5634 120.026 85.2634 119.586 85.2934 118.986C85.3234 118.386 85.6534 117.916 86.0534 117.936C86.4534 117.956 86.7534 118.496 86.7334 119.096Z" fill="#263238" fill-rule="evenodd" opacity="1" stroke="none"/>
<path d="M85.8834 118.006L87.2034 117.546C87.2034 117.546 86.5134 118.616 85.8834 118.006Z" fill="#263238" fill-rule="evenodd" opacity="1" stroke="none"/>
<path d="M88.8334 160.236L109.103 160.236C109.685 160.211 110.18 159.802 110.313 159.236L117.463 127.586C117.544 127.345 117.5 127.081 117.345 126.88C117.19 126.68 116.946 126.569 116.693 126.586L96.4234 126.586C95.8442 126.617 95.3532 127.023 95.2134 127.586L88.0634 159.236C87.9829 159.476 88.0273 159.74 88.1818 159.941C88.3363 160.142 88.5807 160.252 88.8334 160.236Z" fill="#263238" fill-rule="evenodd" opacity="1" stroke="none"/>
<path d="M88.8334 160.236L109.103 160.236C109.685 160.211 110.18 159.802 110.313 159.236L117.463 127.586C117.544 127.345 117.5 127.081 117.345 126.88C117.19 126.68 116.946 126.569 116.693 126.586L96.4234 126.586C95.8442 126.617 95.3532 127.023 95.2134 127.586L88.0634 159.236C87.9829 159.476 88.0273 159.74 88.1818 159.941C88.3363 160.142 88.5807 160.252 88.8334 160.236Z" fill="#ffffff" fill-rule="evenodd" opacity="0.2" stroke="none"/>
<path d="M104.633 139.766C105.883 139.766 106.633 141.046 106.243 142.626C105.853 144.206 104.583 145.476 103.343 145.476C102.103 145.476 101.343 144.196 101.723 142.626C102.963 142.626 104.273 141.326 104.633 139.766Z" fill="#ffffff" fill-rule="evenodd" opacity="0.8" stroke="none"/>
<path d="M97.6334 131.756L99.7834 131.756C100.002 131.749 100.19 131.598 100.243 131.386L100.833 128.786C100.855 128.695 100.834 128.599 100.775 128.526C100.716 128.454 100.627 128.413 100.533 128.416L98.3834 128.416C98.1659 128.426 97.9798 128.575 97.9234 128.786L97.3334 131.386C97.3069 131.477 97.3268 131.575 97.3867 131.649C97.4465 131.723 97.5387 131.763 97.6334 131.756Z" fill="#000000" fill-rule="evenodd" opacity="0.2" stroke="none"/>
<path d="M99.4334 129.396C99.3734 129.656 99.5134 129.876 99.7334 129.876C99.9888 129.842 100.194 129.648 100.243 129.396C100.303 129.136 100.173 128.916 99.9534 128.916C99.6941 128.945 99.4839 129.139 99.4334 129.396Z" fill="#263238" fill-rule="evenodd" opacity="1" stroke="none"/>
<path d="M98.2334 129.396C98.1734 129.656 98.3034 129.876 98.5334 129.876C98.7888 129.842 98.9941 129.648 99.0434 129.396C99.1034 129.136 98.9734 128.916 98.7434 128.916C98.488 128.949 98.2827 129.143 98.2334 129.396Z" fill="#263238" fill-rule="evenodd" opacity="1" stroke="none"/>
<path d="M99.1234 130.776C99.0634 131.046 99.1934 131.256 99.4234 131.256C99.6803 131.225 99.887 131.03 99.9334 130.776C99.9934 130.516 99.8634 130.306 99.6334 130.306C99.3796 130.335 99.1737 130.525 99.1234 130.776Z" fill="#263238" fill-rule="evenodd" opacity="1" stroke="none"/>
<path d="M97.9634 130.776C97.9034 131.046 98.0334 131.256 98.2534 131.256C98.5141 131.229 98.7259 131.033 98.7734 130.776C98.8334 130.516 98.6934 130.306 98.4734 130.306C98.2196 130.335 98.0137 130.525 97.9634 130.776Z" fill="#263238" fill-rule="evenodd" opacity="1" stroke="none"/>
<path d="M95.2234 127.606L88.0634 159.256C87.9829 159.496 88.0273 159.76 88.1818 159.961C88.3363 160.162 88.5807 160.272 88.8334 160.256L89.6734 160.256C89.4224 160.269 89.1812 160.157 89.0291 159.956C88.877 159.756 88.8337 159.494 88.9134 159.256L96.0634 127.606C96.2003 127.041 96.6929 126.634 97.2734 126.606L96.4234 126.606C95.8454 126.635 95.3562 127.042 95.2234 127.606Z" fill="#000000" fill-rule="evenodd" opacity="0.2" stroke="none"/>
<path d="M76.7734 164.036C73.6617 169.112 69.5848 173.528 64.7734 177.036C64.5634 172.036 64.0934 165.666 62.9334 161.166C62.4334 159.166 61.8334 157.056 61.1134 154.686L60.7434 153.466C61.6156 152.388 62.7729 151.577 64.0834 151.126C65.3514 155.952 65.894 160.94 65.6934 165.926L76.7734 164.036Z" fill="#000000" fill-rule="evenodd" opacity="0.2" stroke="none"/>
<path d="M56.9634 141.836C54.9134 142.326 55.9634 167.256 59.2934 173.166C62.6234 179.076 86.0134 155.326 86.0134 155.326L84.5934 151.026C84.5934 151.026 64.0834 164.326 63.6434 164.116C63.2034 163.906 64.0934 151.116 64.0934 151.116C64.0934 151.116 63.2934 146.456 61.0934 143.816C58.8934 141.176 56.9634 141.836 56.9634 141.836Z" fill="#e4897b" fill-rule="evenodd" opacity="1" stroke="none"/>
<path d="M84.5934 151.066L88.4834 145.556L91.4834 153.416C91.4834 153.416 87.1634 157.666 85.1534 155.256L84.5934 151.066Z" fill="#e4897b" fill-rule="evenodd" opacity="1" stroke="none"/>
<path d="M94.3734 143.526L96.0034 149.756L91.4934 153.416L88.4834 145.556L94.3734 143.526Z" fill="#e4897b" fill-rule="evenodd" opacity="1" stroke="none"/>
<path d="M186.043 283.436L191.103 283.436L189.393 266.556L182.623 266.556L186.043 283.436Z" fill="#263238" fill-rule="evenodd" opacity="1" stroke="none"/>
<path d="M133.923 283.436L138.983 283.436L137.273 266.556L130.503 266.556L133.923 283.436Z" fill="#263238" fill-rule="evenodd" opacity="1" stroke="none"/>
<path d="M101.383 283.436L96.3234 283.436L98.0334 266.556L104.803 266.556L101.383 283.436Z" fill="#263238" fill-rule="evenodd" opacity="1" stroke="none"/>
<path d="M153.503 283.436L148.453 283.436L150.153 266.556L156.923 266.556L153.503 283.436Z" fill="#263238" fill-rule="evenodd" opacity="1" stroke="none"/>
<path d="M27.9034 283.436L22.8434 283.436L24.5534 266.556L31.3234 266.556L27.9034 283.436Z" fill="#263238" fill-rule="evenodd" opacity="1" stroke="none"/>
<path d="M80.0234 283.436L74.9634 283.436L76.6734 266.556L83.4434 266.556L80.0234 283.436Z" fill="#263238" fill-rule="evenodd" opacity="1" stroke="none"/>
<path d="M101.383 283.436L96.3234 283.436L98.0334 266.556L104.803 266.556L101.383 283.436Z" fill="#ffffff" fill-rule="evenodd" opacity="0.1" stroke="none"/>
<path d="M153.503 283.436L148.453 283.436L150.153 266.556L156.923 266.556L153.503 283.436Z" fill="#ffffff" fill-rule="evenodd" opacity="0.1" stroke="none"/>
<path d="M27.9034 283.436L22.8434 283.436L24.5534 266.556L31.3234 266.556L27.9034 283.436Z" fill="#ffffff" fill-rule="evenodd" opacity="0.1" stroke="none"/>
<path d="M80.0234 283.436L74.9634 283.436L76.6734 266.556L83.4434 266.556L80.0234 283.436Z" fill="#ffffff" fill-rule="evenodd" opacity="0.1" stroke="none"/>
<path d="M254.403 283.436L259.453 283.436L257.753 266.556L250.983 266.556L254.403 283.436Z" fill="#263238" fill-rule="evenodd" opacity="1" stroke="none"/>
<path d="M202.273 283.436L207.333 283.436L205.623 266.556L198.863 266.556L202.273 283.436Z" fill="#263238" fill-rule="evenodd" opacity="1" stroke="none"/>
<path d="M23.6034 226.636L187.423 226.636C191.499 226.636 194.803 229.94 194.803 234.016L194.803 262.836C194.803 266.911 191.499 270.216 187.423 270.216L23.6034 270.216C19.5275 270.216 16.2234 266.911 16.2234 262.836L16.2234 234.016C16.2234 229.94 19.5275 226.636 23.6034 226.636Z" fill="#ff6f3c" fill-rule="evenodd" opacity="1" stroke="none"/>
<path d="M23.6034 226.636L187.423 226.636C191.499 226.636 194.803 229.94 194.803 234.016L194.803 262.836C194.803 266.911 191.499 270.216 187.423 270.216L23.6034 270.216C19.5275 270.216 16.2234 266.911 16.2234 262.836L16.2234 234.016C16.2234 229.94 19.5275 226.636 23.6034 226.636Z" fill="#ffffff" fill-rule="evenodd" opacity="0.2" stroke="none"/>
<path d="M91.9634 226.636L187.423 226.636C191.499 226.636 194.803 229.94 194.803 234.016L194.803 262.836C194.803 266.911 191.499 270.216 187.423 270.216L91.9634 270.216C87.8875 270.216 84.5834 266.911 84.5834 262.836L84.5834 234.016C84.5834 229.94 87.8875 226.636 91.9634 226.636Z" fill="#ffffff" fill-rule="evenodd" opacity="0.2" stroke="none"/>
<path d="M95.3734 226.636L259.193 226.636C263.269 226.636 266.573 229.94 266.573 234.016L266.573 262.836C266.573 266.911 263.269 270.216 259.193 270.216L95.3734 270.216C91.2975 270.216 87.9934 266.911 87.9934 262.836L87.9934 234.016C87.9934 229.94 91.2975 226.636 95.3734 226.636Z" fill="#ff6f3c" fill-rule="evenodd" opacity="1" stroke="none"/>
<path d="M95.3734 226.636L259.193 226.636C263.269 226.636 266.573 229.94 266.573 234.016L266.573 262.836C266.573 266.911 263.269 270.216 259.193 270.216L95.3734 270.216C91.2975 270.216 87.9934 266.911 87.9934 262.836L87.9934 234.016C87.9934 229.94 91.2975 226.636 95.3734 226.636Z" fill="#ffffff" fill-rule="evenodd" opacity="0.2" stroke="none"/>
<path d="M163.733 226.636L259.193 226.636C263.269 226.636 266.573 229.94 266.573 234.016L266.573 262.836C266.573 266.911 263.269 270.216 259.193 270.216L163.733 270.216C159.658 270.216 156.353 266.911 156.353 262.836L156.353 234.016C156.353 229.94 159.658 226.636 163.733 226.636Z" fill="#ffffff" fill-rule="evenodd" opacity="0.2" stroke="none"/>
</g>
<g id="Layer-1" vectornator:layerName="Layer 1">
<path d="M335.421 33.5824C351.668 73.6958 504.535 84.1382 417.748 118.033C355.125 145.573 335.702 259.187 335.702 259.187C335.702 259.187 335.606 73.1131 335.421 33.5824Z" fill="url(#LinearGradient)" fill-rule="evenodd" filter="url(#Filter)" stroke="none" vectornator:shadowAngle="0.782141" vectornator:shadowColor="#515b60" vectornator:shadowOffset="0.837201" vectornator:shadowOpacity="1" vectornator:shadowRadius="2.33948"/>
</g>
</svg>
