<?xml version="1.0" encoding="UTF-8" standalone="no"?>
<!DOCTYPE svg PUBLIC "-//W3C//DTD SVG 1.1//EN" "http://www.w3.org/Graphics/SVG/1.1/DTD/svg11.dtd">

<!-- Created with Vectornator (http://vectornator.io/) -->
<svg height="100%" stroke-miterlimit="10" style="fill-rule:nonzero;clip-rule:evenodd;stroke-linecap:round;stroke-linejoin:round;" version="1.1" viewBox="0 0 563.002 451.687" width="100%" xml:space="preserve" xmlns="http://www.w3.org/2000/svg" xmlns:vectornator="http://vectornator.io" xmlns:xlink="http://www.w3.org/1999/xlink">
<metadata>
<vectornator:setting key="IsTimeLapseWatermarkDisabled" value="false"/>
<vectornator:setting key="UndoHistoryDisabled" value="true"/>
<vectornator:setting key="VNDimensionsVisible" value="true"/>
<vectornator:setting key="VNSnapToGuides" value="true"/>
<vectornator:setting key="WDCMYKEnabledKey" value="false"/>
<vectornator:setting key="WDDisplayWhiteBackground" value="false"/>
<vectornator:setting key="WDDynamicGuides" value="false"/>
<vectornator:setting key="WDGuidesVisible" value="true"/>
<vectornator:setting key="WDIsolateActiveLayer" value="false"/>
<vectornator:setting key="WDOutlineMode" value="false"/>
<vectornator:setting key="WDRulersVisible" value="true"/>
<vectornator:setting key="WDSnapToEdges" value="false"/>
<vectornator:setting key="WDSnapToGrid" value="false"/>
<vectornator:setting key="WDSnapToPoints" value="false"/>
<vectornator:setting key="WDUnits" value="Points"/>
</metadata>
<defs>
<path d="M300.23 453.71C300.23 453.71 297.66 428.14 288.06 404.06C281.95 388.73 211.21 406.32 211.21 406.32C211.21 406.32 200.04 436.05 203.11 463.71" fill-rule="evenodd" id="Fill"/>
<path d="M234.19 294C237.458 300.248 242.546 305.357 248.78 308.65C248.78 308.65 259.33 302.06 263.24 294C266.329 295.097 268.924 297.26 270.56 300.1C270.56 300.1 287.72 295.79 297.18 303.03C301.02 305.98 280.6 384.33 280.6 384.33C286.02 393.84 290.92 409.33 290.92 409.33C274.28 420.39 254.59 417.33 254.59 417.33L250.66 406.33L247.09 417.33C247.09 417.33 227.74 417.72 210.21 406.33C212.803 398.168 216.429 390.372 221 383.13C221 383.13 203.67 316 203.67 304.76C203.67 293.52 228.23 298.53 228.23 298.53C228.23 298.53 232.23 295.24 234.19 294Z" fill-rule="evenodd" id="Fill_2"/>
<path d="M209.85 298.21C209.85 298.21 198.54 299.88 197.34 314.21C195.82 332.3 202.26 368.44 205.27 375.32C208.28 382.2 221.41 383.02 226.91 378.7C232.41 374.38 237.06 350.41 237.06 350.41L240.12 351.56L241.26 338.82L229 329.49L222.64 339.37L219.05 342.84C219.05 342.84 223 325.94 217.68 315.26" fill-rule="evenodd" id="Fill_3"/>
<path d="M297.18 303.05C306.45 309.16 302.76 377.5 298.64 384.11C295.22 389.58 265.03 389.31 265.03 389.31L264.54 391.76L252.17 389.64L249.54 374.84L257.54 373.84C260.47 369.18 278.89 365.45 278.89 365.45C278.89 365.45 280.6 352.72 280.82 347.23C281.16 338.84 282.04 320.62 291.07 315.23" fill-rule="evenodd" id="Fill_4"/>
</defs>
<clipPath id="ArtboardFrame">
<rect height="451.687" width="563.002" x="0" y="0"/>
</clipPath>
<g clip-path="url(#ArtboardFrame)" id="freepik--background-simple--inject-16" vectornator:layerName="freepik--background-simple--inject-16">
<path d="M106.106 142.033C106.106 142.033 78.2259 214.033 117.406 286.533C156.586 359.033 237.286 397.333 301.876 430.083C366.466 462.833 433.536 446.883 465.406 393.243C497.276 339.603 453.566 301.313 453.506 224.823C453.446 148.333 464.956 128.083 423.506 63.4632C382.056-1.15679 280.446-15.4668 203.606 32.4632C126.766 80.3932 106.106 142.033 106.106 142.033Z" fill="#ffffff" fill-rule="evenodd" opacity="0.7" stroke="none"/>
<path d="M171.716 422.853C195.316 447.763 253.256 438.643 278.346 422.853C359.806 371.593 502.596 286.283 509.056 162.683C511.806 110.143 465.486 82.5632 446.126 74.4732C399.646 55.0332 348.646 49.2032 298.316 46.9432C245.746 44.5832 189.316 46.4232 142.006 72.0732C124.076 81.7932 107.176 94.2532 95.5759 111.263C83.8059 128.543 77.0359 149.113 75.2459 169.883C72.3459 203.383 81.3559 236.973 94.9859 267.713C108.616 298.453 126.796 326.943 143.476 356.113C154.356 375.163 151.836 401.863 171.716 422.853Z" fill="#a8cfcc" fill-rule="evenodd" opacity="1" stroke="none"/>
<path d="M133.54 447.91C157.14 472.82 215.08 463.7 240.17 447.91C321.63 396.65 464.42 311.34 470.88 187.74C473.63 135.2 427.31 107.62 407.95 99.53C361.47 80.09 310.47 74.26 260.14 72C207.57 69.64 151.14 71.48 103.83 97.13C85.9 106.85 69 119.31 57.4 136.32C45.63 153.6 38.86 174.17 37.07 194.94C34.17 228.44 43.18 262.03 56.81 292.77C70.44 323.51 88.62 352 105.3 381.17C116.18 400.22 113.66 426.92 133.54 447.91Z" fill="#ffffff" fill-rule="evenodd" opacity="0" stroke="none"/>
<path d="M497.395 89.5996C499.091 88.8569 500.647 87.9874 502.053 86.7258C499.953 87.354 497.551 87.1977 495.517 86.3595C497.617 85.7313 499.44 84.8497 501.111 83.5759C500.989 80.9207 501.803 78.3557 503.577 76.4121C506.998 72.6635 512.839 72.3964 516.588 75.817C517.143 76.3238 517.698 76.8305 517.988 77.3494C522.905 71.4039 524.828 63.9988 523.703 56.8661C525.309 57.0587 526.812 57.9213 528.061 59.0615C530.421 61.2152 531.364 64.3651 530.966 67.3101C531.841 66.0727 532.577 64.7087 532.92 63.4956C532.92 63.4956 532.92 63.4956 533.059 63.6223C536.391 66.6629 537.014 71.5568 534.782 75.1179C535.428 74.6893 536.073 74.2606 536.707 73.5665C537.087 73.15 537.467 72.7335 537.708 72.1903C539.725 75.5571 539.388 79.8298 536.601 82.8841C540.559 82.1709 544.331 80.2689 547.244 77.0757C547.751 76.5204 548.258 75.9651 548.626 75.283C547.782 80.111 545.599 84.7342 542.178 88.4827C530.65 101.117 514.029 98.4177 505.005 90.1828C504.727 89.9295 504.45 89.6761 504.172 89.4227C501.933 89.9242 499.67 89.8947 497.395 89.5996" fill="#ff3c3c" fill-rule="evenodd" opacity="1" stroke="none"/>
<path d="M479.344 291.444C480.889 291.82 482.404 292.037 484.021 291.908C482.26 291.243 480.702 289.886 479.75 288.254C481.511 288.919 483.214 289.266 485.018 289.267C486.318 287.392 488.209 286.065 490.432 285.662C494.72 284.884 498.846 287.744 499.623 292.032C499.739 292.667 499.854 293.302 499.781 293.807C506.234 292.309 511.403 288.256 514.351 282.801C515.346 283.769 515.923 285.141 516.182 286.57C516.671 289.269 515.674 291.91 513.869 293.713C515.11 293.324 516.323 292.776 517.189 292.127C517.189 292.127 517.189 292.127 517.218 292.286C517.909 296.097 515.785 299.762 512.407 301.03C513.071 301.074 513.735 301.118 514.529 300.974C515.005 300.887 515.482 300.801 515.929 300.556C515.552 303.904 513.097 306.645 509.604 307.279C512.677 308.854 516.242 309.519 519.894 308.857C520.53 308.742 521.165 308.627 521.771 308.353C518.681 311.209 514.783 313.228 510.495 314.005C496.046 316.625 486.106 306.127 484.235 295.805C484.178 295.488 484.12 295.17 484.062 294.853C482.273 294.029 480.744 292.83 479.344 291.444" fill="#ff3c3c" fill-rule="evenodd" opacity="1" stroke="none"/>
<path d="M96.8863 311.794C95.1266 312.283 93.3941 312.589 91.5324 312.501C93.5298 311.672 95.269 310.055 96.3016 308.146C94.3041 308.975 92.361 309.437 90.2887 309.505C88.7257 307.399 86.5038 305.945 83.9355 305.565C78.9823 304.832 74.3489 308.27 73.6156 313.223C73.507 313.957 73.3983 314.691 73.5003 315.269C66.0331 313.788 59.9448 309.325 56.3567 303.17C55.2493 304.318 54.638 305.915 54.3936 307.566C53.9319 310.685 55.1756 313.681 57.3161 315.685C55.8756 315.284 54.4623 314.7 53.4431 313.987C53.4431 313.987 53.4431 313.987 53.4159 314.17C52.7641 318.573 55.3397 322.704 59.267 324.035C58.506 324.11 57.7451 324.185 56.8278 324.049C56.2774 323.967 55.7271 323.886 55.2039 323.621C55.7615 327.453 58.6834 330.51 62.7193 331.108C59.2476 333.031 55.1778 333.928 50.9585 333.303C50.2246 333.195 49.4908 333.086 48.7842 332.794C52.4399 335.96 56.9924 338.134 61.9456 338.867C78.6398 341.338 89.6657 328.91 91.431 316.986C91.4853 316.619 91.5396 316.252 91.5939 315.885C93.6185 314.872 95.3306 313.439 96.8863 311.794" fill="#3c57ff" fill-rule="evenodd" opacity="1" stroke="none"/>
<path d="M64.9526 230.707C63.2294 231.312 61.521 231.733 59.6576 231.769C61.5955 230.808 63.2233 229.079 64.1265 227.105C62.1886 228.065 60.2805 228.656 58.2174 228.862C56.5178 226.864 54.204 225.562 51.6161 225.353C46.6251 224.951 42.2307 228.69 41.8286 233.681C41.769 234.42 41.7094 235.16 41.8496 235.729C34.3005 234.749 27.9287 230.701 23.9391 224.798C22.9106 226.017 22.4068 227.651 22.2728 229.315C22.0196 232.457 23.4599 235.364 25.7289 237.221C24.265 236.917 22.816 236.428 21.7515 235.785C21.7515 235.785 21.7515 235.785 21.7366 235.969C21.3792 240.406 24.2238 244.356 28.231 245.423C27.4767 245.548 26.7224 245.674 25.7981 245.599C25.2436 245.555 24.689 245.51 24.1494 245.28C24.9606 249.067 28.0795 251.923 32.1462 252.25C28.8101 254.4 24.8091 255.566 20.5575 255.224C19.8181 255.164 19.0786 255.105 18.3541 254.86C22.2124 257.776 26.8994 259.642 31.8904 260.044C48.712 261.399 58.8867 248.265 59.8548 236.25C59.8845 235.88 59.9143 235.51 59.9441 235.141C61.8969 233.996 63.5097 232.451 64.9526 230.707" fill="#3c57ff" fill-rule="evenodd" opacity="1" stroke="none"/>
<path d="M96.4175 88.4934C94.8736 88.0514 93.4343 87.4845 92.0794 86.5628C93.9577 86.8593 96.0046 86.4465 97.6561 85.4899C95.7778 85.1933 94.1088 84.6467 92.5242 83.7454C92.3207 81.4484 91.3234 79.3375 89.573 77.8721C86.1973 75.046 81.144 75.4938 78.3179 78.8695C77.8992 79.3696 77.4805 79.8697 77.2915 80.3495C72.3748 75.8079 69.8626 69.6643 70.0022 63.4014C68.6443 63.7533 67.4522 64.6691 66.5102 65.7944C64.7308 67.9198 64.286 70.7372 64.9693 73.2232C64.0737 72.2608 63.2829 71.1734 62.8467 70.1703C62.8467 70.1703 62.8467 70.1703 62.7421 70.2953C60.23 73.2959 60.262 77.5758 62.5939 80.3787C61.9891 80.085 61.3843 79.7914 60.7592 79.268C60.3841 78.954 60.009 78.64 59.7386 78.201C58.3954 81.3295 59.1804 84.9639 61.931 87.2667C58.4448 87.1126 54.9819 85.9147 52.1064 83.5073C51.6063 83.0886 51.1061 82.6699 50.7107 82.1262C51.9959 86.1793 54.4092 89.901 57.7849 92.7271C69.1622 102.252 83.1388 98.0041 89.9424 89.8774C90.1517 89.6274 90.3611 89.3773 90.5704 89.1273C92.5533 89.2988 94.4956 89.0109 96.4175 88.4934" fill="#3c57ff" fill-rule="evenodd" opacity="1" stroke="none"/>
<path d="M262.707 21.7471C261.587 21.6175 260.525 21.3893 259.481 20.9058C260.816 20.8965 262.187 20.3765 263.221 19.5252C261.886 19.5345 260.668 19.3466 259.467 18.9035C259.064 17.3358 258.132 15.9877 256.752 15.1728C254.091 13.6012 250.642 14.489 249.07 17.1502C248.837 17.5444 248.605 17.9387 248.528 18.2926C244.604 15.7089 242.162 11.7408 241.542 7.38696C240.642 7.78586 239.921 8.5565 239.397 9.44355C238.408 11.1191 238.422 13.1214 239.179 14.7651C238.449 14.2009 237.777 13.5381 237.36 12.8932C237.36 12.8932 237.36 12.8932 237.302 12.9918C235.905 15.3572 236.416 18.318 238.352 19.9928C237.899 19.8585 237.447 19.7243 236.954 19.4332C236.658 19.2586 236.363 19.084 236.125 18.8108C235.552 21.1313 236.512 23.5589 238.68 24.8395C236.248 25.1312 233.712 24.6974 231.445 23.3586C231.051 23.1258 230.657 22.8929 230.321 22.5615C231.674 25.222 233.771 27.5239 236.432 29.0955C245.401 34.3923 254.596 29.8524 258.38 23.4459C258.496 23.2487 258.613 23.0516 258.729 22.8545C260.122 22.7466 261.435 22.3253 262.707 21.7471" fill="#3c57ff" fill-rule="evenodd" opacity="1" stroke="none"/>
<path d="M301.386 24.7725C302.542 24.2658 303.605 23.6725 304.564 22.8117C303.131 23.2403 301.492 23.1337 300.104 22.5618C301.537 22.1332 302.78 21.5317 303.921 20.6626C303.838 18.8509 304.393 17.1008 305.603 15.7746C307.937 13.217 311.923 13.0347 314.481 15.3686C314.86 15.7144 315.239 16.0601 315.436 16.4142C318.791 12.3575 320.103 7.30493 319.336 2.43824C320.431 2.56969 321.457 3.15821 322.309 3.93618C323.919 5.40568 324.562 7.55485 324.291 9.56427C324.888 8.72001 325.39 7.78931 325.625 6.96163C325.625 6.96163 325.625 6.96163 325.719 7.04807C327.993 9.12266 328.418 12.4618 326.895 14.8916C327.335 14.5991 327.776 14.3067 328.208 13.833C328.467 13.5489 328.727 13.2647 328.891 12.8941C330.267 15.1912 330.037 18.1065 328.136 20.1905C330.837 19.7039 333.41 18.4061 335.398 16.2274C335.744 15.8485 336.089 15.4696 336.341 15.0043C335.765 18.2984 334.275 21.4529 331.941 24.0105C324.075 32.6307 312.735 30.7892 306.578 25.1705C306.388 24.9976 306.199 24.8247 306.009 24.6518C304.482 24.994 302.938 24.9739 301.386 24.7725" fill="#ff3c3c" fill-rule="evenodd" opacity="1" stroke="none"/>
</g>
<g id="freepik--Speech-bubbles--inject-16" vectornator:layerName="freepik--Speech-bubbles--inject-16">
<path d="M283.746 163.733C283.554 163.105 283.466 162.45 283.486 161.793C283.486 159.263 284.156 157.413 286.126 154.683C288.366 151.533 289.016 149.463 289.036 146.433C289.036 144.183 288.166 143.313 286.586 143.303C285.006 143.293 284.096 144.133 284.076 146.393L284.076 149.823L279.376 149.823L279.376 146.713C279.376 141.653 281.926 138.783 286.756 138.823C291.586 138.863 294.046 141.773 294.006 146.823C294.006 150.213 293.006 152.643 290.586 155.873C288.586 158.483 288.026 160.013 288.006 162.043C287.99 162.634 288.043 163.225 288.166 163.803L283.746 163.733ZM288.286 165.993L288.286 170.773L283.496 170.773L283.496 165.983L288.286 165.993Z" fill="#263238" fill-rule="evenodd" opacity="1" stroke="none"/>
</g>
<g id="freepik--candidate-1--inject-16" vectornator:layerName="freepik--candidate-1--inject-16">
<path d="M247.699 120.604L234.321 275.962L234.321 275.962L107.307 265.376L120.806 109.497L247.699 120.604Z" fill="#ffffff" fill-rule="evenodd" opacity="1" stroke="#263238" stroke-linecap="round" stroke-linejoin="round" stroke-width="1"/>
<path d="M120.845 109.303L247.529 120.916L247.529 120.916L245.572 144.836L245.572 144.836L118.887 133.223L118.887 133.223L120.845 109.303L120.845 109.303Z" fill="#3c57ff" fill-rule="evenodd" opacity="1" stroke="#263238" stroke-linecap="round" stroke-linejoin="round" stroke-width="1"/>
<path d="M171.696 130.673L171.696 130.673L174.406 119.133L176.476 119.313L173.026 133.453L169.666 133.163L168.666 118.643L170.946 118.843L171.696 130.673Z" fill="#263238" fill-rule="evenodd" opacity="1" stroke="none"/>
<path d="M177.056 122.823C177.256 120.533 178.576 119.333 180.786 119.523C182.996 119.713 184.086 121.123 183.886 123.423L183.246 130.863C183.046 133.163 181.726 134.363 179.516 134.173C177.306 133.983 176.216 132.563 176.406 130.273L177.056 122.823ZM178.646 130.613C178.556 131.613 178.976 132.063 179.696 132.123C180.416 132.183 180.896 131.843 180.976 130.813L181.646 123.083C181.736 122.083 181.326 121.633 180.646 121.573C179.966 121.513 179.446 121.853 179.356 122.883L178.646 130.613Z" fill="#263238" fill-rule="evenodd" opacity="1" stroke="none"/>
<path d="M184.986 120.053L191.936 120.653L191.766 122.653L189.406 122.443L188.346 134.723L186.096 134.523L187.176 122.303L184.826 122.093L184.986 120.053Z" fill="#263238" fill-rule="evenodd" opacity="1" stroke="none"/>
<path d="M194.646 126.943L197.736 127.203L197.556 129.253L194.466 128.983L194.106 133.183L197.996 133.513L197.816 135.563L191.676 135.033L192.916 120.703L199.056 121.243L198.886 123.243L194.996 122.913L194.646 126.943Z" fill="#263238" fill-rule="evenodd" opacity="1" stroke="none"/>
<path d="M241.916 156.073L232.176 268.593C232.079 269.721 231.538 270.764 230.671 271.492C229.804 272.22 228.683 272.573 227.556 272.473L115.026 262.733C112.689 262.517 110.968 260.451 111.176 258.113L120.876 145.583C121.088 143.234 123.156 141.497 125.506 141.693L238.026 151.443C239.156 151.54 240.202 152.082 240.932 152.951C241.662 153.82 242.016 154.943 241.916 156.073Z" fill="#3c57ff" fill-rule="evenodd" opacity="1" stroke="#263238" stroke-linecap="round" stroke-linejoin="round" stroke-width="1"/>
<path d="M137.476 214.093C139.476 211.933 156.616 207.193 176.216 208.883C195.816 210.573 211.906 219.633 213.786 222.553C219.016 230.673 227.346 258.723 227.346 258.723L117.586 249.213C117.586 249.213 130.516 221.403 137.476 214.093Z" fill="#263238" fill-rule="evenodd" opacity="1" stroke="none"/>
<path d="M189.086 213.363C186.918 224.373 182.977 234.957 177.416 244.703C176.187 246.882 174.824 248.983 173.336 250.993C172.062 248.686 170.949 246.294 170.006 243.833C164.376 229.313 162.666 211.073 162.666 211.073L189.086 213.363Z" fill="#ffffff" fill-rule="evenodd" opacity="1" stroke="#263238" stroke-linecap="round" stroke-linejoin="round" stroke-width="1"/>
<path d="M177.416 244.703C176.187 246.882 174.824 248.983 173.336 250.993C172.062 248.686 170.949 246.294 170.006 243.833L173.896 224.193L171.656 218.193L175.756 214.193L179.616 219.193L176.326 224.383L177.416 244.703Z" fill="#3c57ff" fill-rule="evenodd" opacity="1" stroke="#263238" stroke-linecap="round" stroke-linejoin="round" stroke-width="1"/>
<path d="M161.886 211.003L168.246 223.003L175.806 215.523L182.596 224.243L189.826 213.743C189.826 213.743 189.386 207.473 176.586 206.503C163.786 205.533 161.886 211.003 161.886 211.003Z" fill="#ffffff" fill-rule="evenodd" opacity="1" stroke="#263238" stroke-linecap="round" stroke-linejoin="round" stroke-width="1"/>
<path d="M186.806 209.853L175.806 214.193L165.986 208.193C170.406 204.853 167.076 195.623 167.076 195.623L177.446 196.523L186.346 197.293C185.639 199.067 185.152 200.921 184.896 202.813C184.176 208.303 186.806 209.853 186.806 209.853Z" fill="#ffffff" fill-rule="evenodd" opacity="1" stroke="#263238" stroke-linecap="round" stroke-linejoin="round" stroke-width="1"/>
<g opacity="0.5">
<path d="M160.176 210.083C160.176 210.083 152.986 213.513 148.546 224.133L156.546 225.843L151.486 229.843C151.486 229.843 154.926 238.383 164.486 248.323" fill="none" fill-rule="evenodd" opacity="1" stroke="#ffffff" stroke-linecap="round" stroke-linejoin="round" stroke-width="1"/>
<path d="M137.836 218.723C137.836 218.723 136.176 234.373 140.346 248.133" fill="none" fill-rule="evenodd" opacity="1" stroke="#ffffff" stroke-linecap="round" stroke-linejoin="round" stroke-width="1"/>
<path d="M133.756 233.853C136.145 236.962 138.016 240.437 139.296 244.143" fill="none" fill-rule="evenodd" opacity="1" stroke="#ffffff" stroke-linecap="round" stroke-linejoin="round" stroke-width="1"/>
<path d="M191.256 212.773C191.256 212.773 197.746 217.393 200.256 228.613L192.036 228.913L196.336 233.713C196.336 233.713 191.476 241.523 180.336 249.713" fill="none" fill-rule="evenodd" opacity="1" stroke="#ffffff" stroke-linecap="round" stroke-linejoin="round" stroke-width="1"/>
<path d="M211.816 225.133C211.816 225.133 210.756 240.833 204.286 253.673" fill="none" fill-rule="evenodd" opacity="1" stroke="#ffffff" stroke-linecap="round" stroke-linejoin="round" stroke-width="1"/>
<path d="M213.226 240.733C210.337 243.387 207.895 246.491 205.996 249.923" fill="none" fill-rule="evenodd" opacity="1" stroke="#ffffff" stroke-linecap="round" stroke-linejoin="round" stroke-width="1"/>
</g>
<path d="M186.296 197.323C185.589 199.097 185.102 200.951 184.846 202.843C182.236 204.673 178.846 206.543 176.526 205.843C172.356 204.523 168.356 198.843 168.356 198.843L177.356 196.573L186.296 197.323Z" fill="#263238" fill-rule="evenodd" opacity="1" stroke="none"/>
<path d="M191.666 184.153C191.666 184.153 193.366 182.593 194.076 183.223C195.054 184.169 195.417 185.584 195.016 186.883C194.476 188.283 192.466 190.623 192.196 192.063C191.926 193.503 190.856 195.063 189.916 194.063C188.976 193.063 191.666 184.153 191.666 184.153Z" fill="#ffffff" fill-rule="evenodd" opacity="1" stroke="#263238" stroke-linecap="round" stroke-linejoin="round" stroke-width="1"/>
<path d="M163.996 181.753C163.996 181.753 162.596 179.933 161.776 180.423C160.654 181.192 160.055 182.524 160.226 183.873C160.516 185.343 162.106 187.993 162.116 189.463C162.126 190.933 162.916 192.663 164.026 191.783C165.136 190.903 163.996 181.753 163.996 181.753Z" fill="#ffffff" fill-rule="evenodd" opacity="1" stroke="#263238" stroke-linecap="round" stroke-linejoin="round" stroke-width="1"/>
<path d="M179.176 163.423C198.696 165.113 191.236 189.803 186.926 197.843C185.406 200.663 179.156 204.263 175.986 203.983C173.046 203.733 167.176 199.323 166.226 196.463C163.336 187.763 160.586 161.813 179.176 163.423Z" fill="#ffffff" fill-rule="evenodd" opacity="1" stroke="#263238" stroke-linecap="round" stroke-linejoin="round" stroke-width="1"/>
<path d="M181.116 179.763C181.116 179.763 186.336 178.633 187.636 181.913" fill="none" fill-rule="evenodd" opacity="1" stroke="#263238" stroke-linecap="round" stroke-linejoin="round" stroke-width="1"/>
<path d="M184.506 184.373C184.456 184.973 184.106 185.433 183.736 185.373C183.366 185.313 183.096 184.833 183.146 184.233C183.196 183.633 183.546 183.173 183.916 183.233C184.286 183.293 184.556 183.773 184.506 184.373Z" fill="#263238" fill-rule="evenodd" opacity="1" stroke="none"/>
<path d="M175.176 179.253C175.176 179.253 170.226 177.253 168.386 180.253" fill="none" fill-rule="evenodd" opacity="1" stroke="#263238" stroke-linecap="round" stroke-linejoin="round" stroke-width="1"/>
<path d="M171.016 183.203C170.966 183.803 171.226 184.313 171.596 184.343C171.966 184.373 172.326 183.913 172.376 183.343C172.426 182.773 172.166 182.233 171.786 182.203C171.406 182.173 171.066 182.603 171.016 183.203Z" fill="#263238" fill-rule="evenodd" opacity="1" stroke="none"/>
<path d="M179.756 188.943C179.706 189.543 177.676 190.393 177.196 190.353C176.716 190.313 174.276 188.793 175.086 188.073C176.635 186.725 177.466 184.732 177.336 182.683" fill="#ffffff" fill-rule="evenodd" opacity="1" stroke="#263238" stroke-linecap="round" stroke-linejoin="round" stroke-width="1"/>
<path d="M186.656 166.803C181.998 168.917 176.543 168.196 172.596 164.943C171.084 165.609 169.674 166.485 168.406 167.543C167.256 168.783 167.406 175.713 167.546 177.393C167.686 179.073 165.006 180.023 164.996 184.253L164.506 185.813C164.506 185.813 162.286 178.343 163.506 172.573C164.726 166.803 170.946 164.393 170.946 164.393C170.946 164.393 174.946 160.713 179.946 161.143C185.126 161.593 187.856 166.263 187.856 166.263C187.856 166.263 198.426 171.563 190.596 188.613L190.226 186.433C190.671 184.398 190.377 182.271 189.396 180.433C188.586 179.003 190.326 173.703 190.166 171.593C190.006 169.483 186.656 166.803 186.656 166.803Z" fill="#263238" fill-rule="evenodd" opacity="1" stroke="none"/>
<path d="M171.946 193.253C175.334 194.21 178.873 194.518 182.376 194.163" fill="none" fill-rule="evenodd" opacity="1" stroke="#263238" stroke-linecap="round" stroke-linejoin="round" stroke-width="1"/>
<path d="M172.346 193.543C172.346 193.543 173.346 195.543 174.026 195.653C174.706 195.763 179.026 196.523 180.136 196.023C180.865 195.567 181.478 194.948 181.926 194.213" fill="none" fill-rule="evenodd" opacity="1" stroke="#263238" stroke-linecap="round" stroke-linejoin="round" stroke-width="1"/>
<path d="M211.426 239.123L210.716 236.303C210.419 235.143 210.598 233.912 211.211 232.883C211.825 231.855 212.824 231.113 213.986 230.823L213.986 230.823C216.344 230.226 218.751 231.606 219.426 233.943L220.516 237.693L211.426 239.123Z" fill="#999999" fill-rule="evenodd" opacity="1" stroke="#263238" stroke-linecap="round" stroke-linejoin="round" stroke-width="1"/>
<path d="M194.096 228.633C193.649 229.242 192.959 229.625 192.206 229.683C191.942 229.698 191.683 229.608 191.486 229.433L189.406 227.593C188.907 227.154 188.611 226.53 188.586 225.866C188.562 225.202 188.811 224.558 189.276 224.083L189.426 223.943C190.362 223.097 191.798 223.136 192.686 224.033L194.826 226.093C195.137 226.396 195.218 226.864 195.026 227.253C194.768 227.746 194.456 228.209 194.096 228.633Z" fill="#999999" fill-rule="evenodd" opacity="1" stroke="#263238" stroke-linecap="round" stroke-linejoin="round" stroke-width="1"/>
<path d="M202.976 259.143L198.686 231.603C198.593 231.039 198.315 230.522 197.896 230.133L194.176 226.673C193.674 226.597 193.163 226.732 192.765 227.047C192.367 227.361 192.117 227.827 192.076 228.333L195.636 231.683C195.879 231.92 196.04 232.228 196.096 232.563L200.236 258.943L202.976 259.143Z" fill="#bfbfbf" fill-rule="evenodd" opacity="1" stroke="#263238" stroke-linecap="round" stroke-linejoin="round" stroke-width="1"/>
<path d="M154.466 225.203C154.809 225.873 155.419 226.367 156.146 226.563C156.403 226.62 156.673 226.574 156.896 226.433L159.266 224.973C159.83 224.628 160.228 224.067 160.366 223.42C160.504 222.773 160.37 222.098 159.996 221.553L159.876 221.383C159.096 220.393 157.68 220.183 156.646 220.903L154.176 222.573C153.815 222.817 153.653 223.266 153.776 223.683C153.95 224.213 154.181 224.723 154.466 225.203Z" fill="#999999" fill-rule="evenodd" opacity="1" stroke="#263238" stroke-linecap="round" stroke-linejoin="round" stroke-width="1"/>
<path d="M140.466 253.733L149.466 227.343C149.642 226.804 149.994 226.339 150.466 226.023L154.746 223.263C155.255 223.272 155.738 223.493 156.077 223.872C156.417 224.252 156.583 224.756 156.536 225.263L152.456 227.963C152.174 228.149 151.963 228.423 151.856 228.743L143.176 253.943L140.466 253.733Z" fill="#bfbfbf" fill-rule="evenodd" opacity="1" stroke="#263238" stroke-linecap="round" stroke-linejoin="round" stroke-width="1"/>
<path d="M232.986 259.213L232.166 268.593C232.069 269.721 231.528 270.764 230.661 271.492C229.794 272.22 228.673 272.573 227.546 272.473L115.026 262.733C112.689 262.517 110.968 260.451 111.176 258.113L111.986 248.723L232.986 259.213Z" fill="#999999" fill-rule="evenodd" opacity="1" stroke="#263238" stroke-linecap="round" stroke-linejoin="round" stroke-width="1"/>
<path d="M210.616 248.473L208.566 240.333L214.686 235.073L222.906 237.443L225.946 244.893L221.566 249.423L210.616 248.473Z" fill="#bfbfbf" fill-rule="evenodd" opacity="1" stroke="#263238" stroke-linecap="round" stroke-linejoin="round" stroke-width="1"/>
<path d="M210.616 248.473L217.046 243.283L223.686 244.403" fill="#bfbfbf" fill-rule="evenodd" opacity="1" stroke="#263238" stroke-linecap="round" stroke-linejoin="round" stroke-width="1"/>
<path d="M217.036 243.283L215.416 237.253" fill="#bfbfbf" fill-rule="evenodd" opacity="1" stroke="#263238" stroke-linecap="round" stroke-linejoin="round" stroke-width="1"/>
<path d="M217.776 257.823L215.606 247.533C215.606 247.533 218.266 245.083 221.456 246.193L225.756 258.513L217.776 257.823Z" fill="#757575" fill-rule="evenodd" opacity="1" stroke="#263238" stroke-linecap="round" stroke-linejoin="round" stroke-width="1"/>
<path d="M137.726 232.743L138.916 230.083C139.414 228.986 139.454 227.735 139.026 226.608C138.598 225.482 137.737 224.573 136.636 224.083L136.636 224.083C134.411 223.099 131.806 224.049 130.736 226.233L129.026 229.733L137.726 232.743Z" fill="#999999" fill-rule="evenodd" opacity="1" stroke="#263238" stroke-linecap="round" stroke-linejoin="round" stroke-width="1"/>
<path d="M136.916 242.093L140.336 234.423L135.206 228.193L126.706 229.103L122.426 235.933L125.976 241.143L136.916 242.093Z" fill="#bfbfbf" fill-rule="evenodd" opacity="1" stroke="#263238" stroke-linecap="round" stroke-linejoin="round" stroke-width="1"/>
<path d="M136.916 242.093L131.486 235.873L124.746 235.833" fill="#bfbfbf" fill-rule="evenodd" opacity="1" stroke="#263238" stroke-linecap="round" stroke-linejoin="round" stroke-width="1"/>
<path d="M131.486 235.873L134.116 230.203" fill="#bfbfbf" fill-rule="evenodd" opacity="1" stroke="#263238" stroke-linecap="round" stroke-linejoin="round" stroke-width="1"/>
<path d="M128.266 250.073L132.166 240.303C132.166 240.303 129.966 237.433 126.626 237.983L120.276 249.383L128.266 250.073Z" fill="#757575" fill-rule="evenodd" opacity="1" stroke="#263238" stroke-linecap="round" stroke-linejoin="round" stroke-width="1"/>
</g>
<g id="freepik--candidate-2--inject-16" vectornator:layerName="freepik--candidate-2--inject-16">
<path d="M441.954 84.0007L451.44 241.142L322.941 249.249L322.941 249.249L313.095 92.1328L441.954 84.0007Z" fill="#ffffff" fill-rule="evenodd" opacity="1" stroke="#263238" stroke-linecap="round" stroke-linejoin="round" stroke-width="1"/>
<path d="M312.97 92.4527L441.842 84.2362L441.842 84.2362L443.248 108.201L443.248 108.201L314.376 116.418L314.376 116.418L312.97 92.4527L312.97 92.4527Z" fill="#ff3c3c" fill-rule="evenodd" opacity="1" stroke="#263238" stroke-linecap="round" stroke-linejoin="round" stroke-width="1"/>
<path d="M363.966 105.683L363.966 105.683L364.966 93.8732L367.036 93.7432L365.696 108.233L362.336 108.433L359.246 94.2232L361.516 94.0832L363.966 105.683Z" fill="#263238" fill-rule="evenodd" opacity="1" stroke="none"/>
<path d="M368.116 97.1332C367.976 94.8432 369.116 93.4532 371.316 93.3232C373.516 93.1932 374.816 94.4232 374.956 96.7132L375.416 104.183C375.556 106.473 374.416 107.863 372.216 107.993C370.016 108.123 368.706 106.893 368.566 104.593L368.116 97.1332ZM370.836 104.603C370.896 105.603 371.366 105.993 372.086 105.943C372.806 105.893 373.236 105.483 373.166 104.463L372.696 96.7132C372.636 95.7132 372.156 95.3232 371.436 95.3632C370.716 95.4032 370.296 95.8332 370.356 96.8532L370.836 104.603Z" fill="#263238" fill-rule="evenodd" opacity="1" stroke="none"/>
<path d="M375.546 93.2232L382.546 92.7932L382.666 94.8432L380.316 94.9932L381.066 107.293L378.816 107.433L378.056 95.1332L375.706 95.2732L375.546 93.2232Z" fill="#263238" fill-rule="evenodd" opacity="1" stroke="none"/>
<path d="M386.176 98.6432L389.266 98.4532L389.396 100.453L386.296 100.643L386.556 104.853L390.446 104.613L390.576 106.663L384.426 107.033L383.546 92.6832L389.696 92.3132L389.826 94.3132L385.926 94.5532L386.176 98.6432Z" fill="#263238" fill-rule="evenodd" opacity="1" stroke="none"/>
<path d="M440.176 120.483L447.086 233.213C447.228 235.566 445.438 237.588 443.086 237.733L330.356 244.633C329.224 244.704 328.111 244.323 327.262 243.572C326.412 242.822 325.895 241.765 325.826 240.633L318.896 127.943C318.825 126.812 319.206 125.699 319.957 124.849C320.707 123.999 321.764 123.483 322.896 123.413L435.626 116.503C437.98 116.349 440.016 118.129 440.176 120.483Z" fill="#ff3c3c" fill-rule="evenodd" opacity="1" stroke="#263238" stroke-linecap="round" stroke-linejoin="round" stroke-width="1"/>
<path d="M371.176 189.613C371.176 189.613 356.436 197.223 353.056 200.483C349.676 203.743 347.876 230.633 347.876 230.633L423.976 225.943C423.976 225.943 418.676 199.733 416.766 197.873C414.856 196.013 393.856 188.203 393.856 188.203L371.176 189.613Z" fill="#7f7f7f" fill-rule="evenodd" opacity="1" stroke="#263238" stroke-linecap="round" stroke-linejoin="round" stroke-width="1"/>
<path d="M389.456 140.873C390.917 141.049 392.314 141.578 393.526 142.413C395.426 143.783 400.106 147.653 399.286 158.583C398.466 169.513 405.016 173.443 405.666 178.043C406.316 182.643 403.026 183.863 399.566 183.043C396.106 182.223 391.806 188.263 382.346 188.173C372.886 188.083 372.846 183.173 369.346 183.983C365.846 184.793 365.086 186.843 362.156 184.423C359.226 182.003 360.726 177.303 363.096 171.113C365.466 164.923 360.976 153.003 366.506 145.113C372.036 137.223 385.586 137.373 389.456 140.873Z" fill="#263238" fill-rule="evenodd" opacity="1" stroke="none"/>
<path d="M393.856 188.223L384.586 207.223L371.676 188.943C371.676 188.943 374.896 187.763 375.766 185.383C376.226 184.143 375.636 180.283 374.986 176.863C374.376 173.723 373.706 170.953 373.706 170.953L390.176 172.123C389.875 174.646 389.718 177.183 389.706 179.723C389.69 181.265 389.841 182.804 390.156 184.313C391.176 188.373 393.856 188.223 393.856 188.223Z" fill="#ffffff" fill-rule="evenodd" opacity="1" stroke="#263238" stroke-linecap="round" stroke-linejoin="round" stroke-width="1"/>
<path d="M390.176 172.123C389.875 174.646 389.718 177.183 389.706 179.723C388.265 180.732 386.533 181.238 384.776 181.163C381.183 181.022 377.892 179.112 375.986 176.063L375.036 176.813C374.426 173.673 373.756 170.903 373.756 170.903L390.176 172.123Z" fill="#263238" fill-rule="evenodd" opacity="1" stroke="none"/>
<path d="M368.266 161.603C368.266 161.603 366.696 160.183 366.006 160.723C365.062 161.52 364.671 162.794 365.006 163.983C365.486 165.243 367.336 167.373 367.546 168.673C367.756 169.973 368.746 171.383 369.666 170.463C370.586 169.543 368.266 161.603 368.266 161.603Z" fill="#ffffff" fill-rule="evenodd" opacity="1" stroke="#263238" stroke-linecap="round" stroke-linejoin="round" stroke-width="1"/>
<path d="M394.646 159.993C394.646 159.993 396.036 158.383 396.786 158.843C397.818 159.513 398.362 160.726 398.176 161.943C397.856 163.253 396.276 165.593 396.226 166.943C396.176 168.293 395.366 169.783 394.346 168.943C393.326 168.103 394.646 159.993 394.646 159.993Z" fill="#ffffff" fill-rule="evenodd" opacity="1" stroke="#263238" stroke-linecap="round" stroke-linejoin="round" stroke-width="1"/>
<path d="M380.636 142.263C362.026 143.403 368.436 165.593 372.346 173.343C373.726 176.063 379.896 179.623 382.916 179.433C385.716 179.263 391.096 175.233 392.066 172.533C395.046 164.323 398.376 141.173 380.636 142.263Z" fill="#ffffff" fill-rule="evenodd" opacity="1" stroke="#263238" stroke-linecap="round" stroke-linejoin="round" stroke-width="1"/>
<path d="M378.416 157.763C378.416 157.763 373.476 156.553 372.166 159.643" fill="none" fill-rule="evenodd" opacity="1" stroke="#263238" stroke-linecap="round" stroke-linejoin="round" stroke-width="1"/>
<path d="M375.076 162.053C375.076 162.623 375.436 163.053 375.796 163.053C376.156 163.053 376.416 162.543 376.376 161.973C376.336 161.403 376.026 160.973 375.666 160.973C375.306 160.973 375.046 161.483 375.076 162.053Z" fill="#263238" fill-rule="evenodd" opacity="1" stroke="none"/>
<path d="M384.106 157.413C384.106 157.413 388.856 155.613 390.536 158.523" fill="none" fill-rule="evenodd" opacity="1" stroke="#263238" stroke-linecap="round" stroke-linejoin="round" stroke-width="1"/>
<path d="M387.946 161.263C387.946 161.843 387.716 162.323 387.356 162.343C386.996 162.363 386.676 161.923 386.646 161.343C386.616 160.763 386.876 160.293 387.226 160.273C387.576 160.253 387.906 160.693 387.946 161.263Z" fill="#263238" fill-rule="evenodd" opacity="1" stroke="none"/>
<path d="M382.676 160.793C382.136 162.283 384.406 166.533 383.676 167.303C383.19 167.787 382.549 168.084 381.866 168.143" fill="#ffffff" fill-rule="evenodd" opacity="1" stroke="#263238" stroke-linecap="round" stroke-linejoin="round" stroke-width="1"/>
<path d="M386.786 169.673C386.786 169.673 382.356 171.863 378.146 170.203" fill="#ffffff" fill-rule="evenodd" opacity="1" stroke="#263238" stroke-linecap="round" stroke-linejoin="round" stroke-width="1"/>
<path d="M387.956 147.383C387.956 147.383 375.346 153.123 370.036 161.563L369.216 165.273L366.006 160.723C366.006 160.723 361.906 141.483 377.376 139.723C392.846 137.963 398.186 145.593 396.786 158.863L394.256 162.323C394.256 162.323 391.506 150.873 387.956 147.383Z" fill="#263238" fill-rule="evenodd" opacity="1" stroke="none"/>
<path d="M398.766 190.083L406.146 200.343L395.896 199.023L399.886 203.603L386.456 224.693" fill="none" fill-rule="evenodd" opacity="1" stroke="#263238" stroke-linecap="round" stroke-linejoin="round" stroke-width="1"/>
<path d="M368.306 192.403L363.596 202.943L373.616 200.383L369.336 206.413L385.176 224.773" fill="none" fill-rule="evenodd" opacity="1" stroke="#263238" stroke-linecap="round" stroke-linejoin="round" stroke-width="1"/>
<path d="M372.686 187.173L384.376 206.053L393.376 185.913C393.376 185.913 399.796 188.083 402.536 192.473C402.536 192.473 394.346 192.063 391.536 194.263L385.696 220.533L376.176 197.053C376.176 197.053 369.316 193.893 365.046 194.773C366.764 191.525 369.429 188.875 372.686 187.173Z" fill="#bfbfbf" fill-rule="evenodd" opacity="1" stroke="#263238" stroke-linecap="round" stroke-linejoin="round" stroke-width="1"/>
<path d="M414.176 201.123C414.176 201.123 408.946 210.473 408.716 226.903" fill="none" fill-rule="evenodd" opacity="1" stroke="#263238" stroke-linecap="round" stroke-linejoin="round" stroke-width="1"/>
<path d="M354.796 203.493C354.796 203.493 360.526 210.353 362.576 229.723" fill="none" fill-rule="evenodd" opacity="1" stroke="#263238" stroke-linecap="round" stroke-linejoin="round" stroke-width="1"/>
<path d="M422.176 207.113L421.056 204.433C420.097 202.127 421.19 199.481 423.496 198.523L423.496 198.523C425.739 197.592 428.316 198.605 429.326 200.813L430.956 204.363L422.176 207.113Z" fill="#999999" fill-rule="evenodd" opacity="1" stroke="#263238" stroke-linecap="round" stroke-linejoin="round" stroke-width="1"/>
<path d="M403.526 199.293C403.171 199.96 402.543 200.438 401.806 200.603C401.547 200.657 401.278 200.607 401.056 200.463L398.726 198.943C398.171 198.58 397.79 198.005 397.671 197.353C397.552 196.701 397.705 196.029 398.096 195.493C398.132 195.437 398.172 195.383 398.216 195.333C399.023 194.367 400.443 194.196 401.456 194.943L403.866 196.663C404.223 196.914 404.377 197.367 404.246 197.783C404.057 198.309 403.816 198.815 403.526 199.293Z" fill="#999999" fill-rule="evenodd" opacity="1" stroke="#263238" stroke-linecap="round" stroke-linejoin="round" stroke-width="1"/>
<path d="M416.796 228.163L408.496 201.553C408.325 201.006 407.972 200.533 407.496 200.213L403.276 197.343C402.769 197.342 402.284 197.551 401.938 197.921C401.591 198.291 401.413 198.787 401.446 199.293L405.446 202.083C405.721 202.28 405.924 202.561 406.026 202.883L414.026 228.333L416.796 228.163Z" fill="#bfbfbf" fill-rule="evenodd" opacity="1" stroke="#263238" stroke-linecap="round" stroke-linejoin="round" stroke-width="1"/>
<path d="M363.826 201.723C364.26 202.339 364.937 202.74 365.686 202.823C365.948 202.841 366.207 202.755 366.406 202.583L368.536 200.793C369.045 200.368 369.356 199.751 369.396 199.088C369.436 198.426 369.2 197.777 368.746 197.293L368.616 197.153C367.7 196.281 366.261 196.281 365.346 197.153L363.156 199.153C362.834 199.448 362.741 199.918 362.926 200.313C363.171 200.816 363.473 201.289 363.826 201.723Z" fill="#999999" fill-rule="evenodd" opacity="1" stroke="#263238" stroke-linecap="round" stroke-linejoin="round" stroke-width="1"/>
<path d="M354.176 232.003L359.176 204.573C359.278 204.011 359.567 203.5 359.996 203.123L363.826 199.763C364.329 199.699 364.837 199.846 365.228 200.17C365.618 200.494 365.857 200.966 365.886 201.473L362.246 204.733C361.994 204.958 361.825 205.261 361.766 205.593L356.926 231.833L354.176 232.003Z" fill="#bfbfbf" fill-rule="evenodd" opacity="1" stroke="#263238" stroke-linecap="round" stroke-linejoin="round" stroke-width="1"/>
<path d="M446.486 223.813L447.066 233.213C447.208 235.566 445.418 237.588 443.066 237.733L330.336 244.633C329.204 244.704 328.091 244.323 327.242 243.572C326.392 242.822 325.875 241.765 325.806 240.633L325.236 231.233L446.486 223.813Z" fill="#999999" fill-rule="evenodd" opacity="1" stroke="#263238" stroke-linecap="round" stroke-linejoin="round" stroke-width="1"/>
<path d="M422.786 216.483L419.556 208.733L424.846 202.633L433.316 203.763L437.426 210.693L433.746 215.813L422.786 216.483Z" fill="#bfbfbf" fill-rule="evenodd" opacity="1" stroke="#263238" stroke-linecap="round" stroke-linejoin="round" stroke-width="1"/>
<path d="M422.786 216.483L428.376 210.413L435.106 210.533" fill="#bfbfbf" fill-rule="evenodd" opacity="1" stroke="#263238" stroke-linecap="round" stroke-linejoin="round" stroke-width="1"/>
<path d="M428.376 210.413L425.886 204.673" fill="#bfbfbf" fill-rule="evenodd" opacity="1" stroke="#263238" stroke-linecap="round" stroke-linejoin="round" stroke-width="1"/>
<path d="M431.236 224.683L427.576 214.813C427.576 214.813 429.846 212.003 433.176 212.633L439.236 224.193L431.236 224.683Z" fill="#757575" fill-rule="evenodd" opacity="1" stroke="#263238" stroke-linecap="round" stroke-linejoin="round" stroke-width="1"/>
<path d="M348.376 211.643L349.156 208.843C349.482 207.689 349.335 206.453 348.747 205.408C348.16 204.363 347.181 203.595 346.026 203.273L346.026 203.273C343.677 202.616 341.232 203.945 340.506 206.273L339.326 209.943L348.376 211.643Z" fill="#999999" fill-rule="evenodd" opacity="1" stroke="#263238" stroke-linecap="round" stroke-linejoin="round" stroke-width="1"/>
<path d="M348.946 221.003L351.206 212.913L345.216 207.503L336.936 209.663L333.716 217.043L337.976 221.673L348.946 221.003Z" fill="#bfbfbf" fill-rule="evenodd" opacity="1" stroke="#263238" stroke-linecap="round" stroke-linejoin="round" stroke-width="1"/>
<path d="M348.946 221.003L342.656 215.663L335.986 216.603" fill="#bfbfbf" fill-rule="evenodd" opacity="1" stroke="#263238" stroke-linecap="round" stroke-linejoin="round" stroke-width="1"/>
<path d="M342.656 215.653L344.426 209.663" fill="#bfbfbf" fill-rule="evenodd" opacity="1" stroke="#263238" stroke-linecap="round" stroke-linejoin="round" stroke-width="1"/>
<path d="M341.556 230.173L343.986 219.943C343.986 219.943 341.386 217.423 338.166 218.463L333.566 230.673L341.556 230.173Z" fill="#757575" fill-rule="evenodd" opacity="1" stroke="#263238" stroke-linecap="round" stroke-linejoin="round" stroke-width="1"/>
</g>
<g clip-path="url(#ArtboardFrame)" id="freepik--Character--inject-16" vectornator:layerName="freepik--Character--inject-16">
<path d="M276.596 202.943C276.596 202.943 261.536 198.063 253.596 207.333C245.656 216.603 250.506 235.493 254.406 249.813C258.306 264.133 257.826 270.973 252.456 273.413C252.456 273.413 264.016 274.723 265.456 260.563C265.855 263.415 265.344 266.319 263.996 268.863C263.996 268.863 271.996 268.213 271.996 247.213C271.996 226.213 276.596 202.943 276.596 202.943Z" fill="#263238" fill-rule="evenodd" opacity="1" stroke="none"/>
<path d="M260.176 208.523C260.176 208.523 254.636 210.163 253.056 219.593C251.476 229.023 262.156 249.413 260.176 263.873" fill="none" fill-rule="evenodd" opacity="0.2" stroke="#ffffff" stroke-linecap="round" stroke-linejoin="round" stroke-width="1"/>
<path d="M267.986 259.143C267.986 259.143 269.896 240.063 262.936 229.723" fill="none" fill-rule="evenodd" opacity="0.2" stroke="#ffffff" stroke-linecap="round" stroke-linejoin="round" stroke-width="1"/>
<path d="M311.456 276.943C311.456 276.943 295.156 287.303 287.746 287.303C280.336 287.303 259.686 276.723 259.686 276.723C266.206 276.033 274.446 272.603 275.976 268.723C276.786 266.723 276.266 260.133 275.596 254.333C275.456 253.153 275.306 252.003 275.166 250.923L275.166 250.923C274.666 247.143 274.166 244.293 274.166 244.293L283.706 245.743L298.706 248.033C298.706 248.033 297.796 253.373 297.396 259.033C297.396 259.593 297.326 260.153 297.296 260.713C297.127 263.299 297.211 265.894 297.546 268.463C298.806 275.353 311.456 276.943 311.456 276.943Z" fill="#ffffff" fill-rule="evenodd" opacity="1" stroke="#263238" stroke-linecap="round" stroke-linejoin="round" stroke-width="1"/>
<path d="M298.806 247.943C298.806 247.943 297.896 253.283 297.496 258.943C283.496 263.813 275.496 251.293 275.166 250.813L275.166 250.813L283.756 245.633L298.806 247.943Z" fill="#263238" fill-rule="evenodd" opacity="1" stroke="none"/>
<path d="M338.406 428.653C338.406 428.653 335.836 403.083 326.236 379.003C320.126 363.673 249.386 381.263 249.386 381.263C249.386 381.263 238.216 410.993 241.286 438.653" fill="#ffffff" fill-rule="evenodd" opacity="1" stroke="none"/>
<g opacity="0" vectornator:mask="#Fill">
<clipPath id="ClipPath">
<use overflow="#visible" xlink:href="#Fill"/>
</clipPath>
<g clip-path="url(#ClipPath)">
<path d="M298.25 440.58C293.46 432.95 288.92 426.3 288.92 426.3C288.92 426.3 279.92 428.67 279.6 424.98C279.28 421.29 274.47 420.23 274.47 420.23C267.2 426.44 240.92 439.23 238.55 438.62C236.18 438.01 242.55 429.73 242.55 429.73C230.41 428.67 214.85 414.96 214.85 414.96C210.06 418.57 209.85 430.25 208 437.37C206.15 444.49 208.79 451.62 204.62 453.99C203.863 454.425 203.187 454.986 202.62 455.65C202.12 430.57 211.23 406.32 211.23 406.32C211.23 406.32 221.39 403.79 234.35 401.49L241.28 402.82L285.35 400.93C286.567 401.66 287.522 402.755 288.08 404.06C292.632 415.879 296.038 428.109 298.25 440.58Z" fill="#ff6f3c" fill-rule="evenodd" opacity="0.4" stroke="none"/>
</g>
</g>
<path d="M338.406 428.653C338.406 428.653 335.836 403.083 326.236 379.003C320.126 363.673 249.386 381.263 249.386 381.263C249.386 381.263 238.216 410.993 241.286 438.653" fill="none" fill-rule="evenodd" opacity="1" stroke="#263238" stroke-linecap="round" stroke-linejoin="round" stroke-width="1"/>
<path d="M262.936 230.693C262.936 230.693 260.156 228.453 259.036 229.433C257.531 230.863 256.999 233.04 257.676 235.003C258.596 237.073 261.916 240.463 262.396 242.623C262.876 244.783 264.656 247.073 266.116 245.433C267.576 243.793 262.936 230.693 262.936 230.693Z" fill="#ffffff" fill-rule="evenodd" opacity="1" stroke="#263238" stroke-linecap="round" stroke-linejoin="round" stroke-width="1"/>
<path d="M307.056 225.473C307.056 225.473 309.236 222.653 310.546 223.333C312.345 224.371 313.369 226.366 313.166 228.433C312.756 230.663 310.326 234.743 310.366 236.943C310.406 239.143 309.206 241.803 307.366 240.553C305.526 239.303 307.056 225.473 307.056 225.473Z" fill="#ffffff" fill-rule="evenodd" opacity="1" stroke="#263238" stroke-linecap="round" stroke-linejoin="round" stroke-width="1"/>
<path d="M281.856 197.043C250.716 200.723 262.356 234.913 269.666 247.543C272.226 251.983 285.466 258.233 290.506 257.633C295.196 257.083 303.676 247.453 305.056 242.843C309.276 228.773 311.536 193.533 281.856 197.043Z" fill="#ffffff" fill-rule="evenodd" opacity="1" stroke="#263238" stroke-linecap="round" stroke-linejoin="round" stroke-width="1"/>
<path d="M279.606 223.273C277.446 224.963 271.196 221.723 269.286 227.033" fill="none" fill-rule="evenodd" opacity="1" stroke="#263238" stroke-linecap="round" stroke-linejoin="round" stroke-width="1"/>
<path d="M275.516 230.053C275.626 231.053 276.206 231.733 276.806 231.663C277.406 231.593 277.806 230.753 277.686 229.803C277.566 228.853 276.996 228.123 276.396 228.193C275.796 228.263 275.396 229.103 275.516 230.053Z" fill="#263238" fill-rule="evenodd" opacity="1" stroke="none"/>
<path d="M289.116 219.683C289.116 219.683 296.926 218.683 300.026 223.393" fill="none" fill-rule="evenodd" opacity="1" stroke="#263238" stroke-linecap="round" stroke-linejoin="round" stroke-width="1"/>
<path d="M296.756 226.943C296.876 227.943 296.476 228.733 295.876 228.803C295.276 228.873 294.706 228.163 294.586 227.203C294.466 226.243 294.866 225.413 295.466 225.343C296.066 225.273 296.646 225.943 296.756 226.943Z" fill="#263238" fill-rule="evenodd" opacity="1" stroke="none"/>
<path d="M287.046 227.943C286.266 230.503 290.486 234.943 289.406 236.303C288.731 237.177 288.154 238.123 287.686 239.123" fill="#ffffff" fill-rule="evenodd" opacity="1" stroke="#263238" stroke-linecap="round" stroke-linejoin="round" stroke-width="1"/>
<path d="M290.346 246.003C290.346 246.003 284.976 244.123 281.556 244.123" fill="#ffffff" fill-rule="evenodd" opacity="1" stroke="#263238" stroke-linecap="round" stroke-linejoin="round" stroke-width="1"/>
<path d="M289.586 202.473C289.586 202.473 286.306 216.303 274.446 221.473C274.446 221.473 282.276 213.843 284.316 206.853C284.316 206.853 274.136 220.083 265.316 228.033L264.256 234.153C264.256 234.153 258.836 232.443 257.256 227.013C248.986 197.573 277.956 183.253 290.816 192.363C290.816 192.363 297.556 190.733 303.736 198.363C310.846 207.183 310.456 223.273 310.456 223.273C310.456 223.273 308.986 228.153 306.406 229.123L306.336 232.553L304.646 226.973C303.004 224.173 301.832 221.122 301.176 217.943C300.176 213.573 300.966 203.283 289.586 202.473Z" fill="#263238" fill-rule="evenodd" opacity="1" stroke="none"/>
<path d="M272.366 268.943C275.634 275.191 280.721 280.3 286.956 283.593C286.956 283.593 297.506 277.003 301.416 268.943C304.504 270.04 307.1 272.203 308.736 275.043C308.736 275.043 325.896 270.733 335.356 277.973C339.196 280.923 318.776 359.273 318.776 359.273C324.196 368.783 329.096 384.273 329.096 384.273C312.456 395.333 292.766 392.273 292.766 392.273L288.836 381.273L285.266 392.273C285.266 392.273 265.916 392.663 248.386 381.273C250.979 373.112 254.605 365.315 259.176 358.073C259.176 358.073 241.846 290.943 241.846 279.703C241.846 268.463 266.406 273.473 266.406 273.473C266.406 273.473 270.406 270.183 272.366 268.943Z" fill="#ff6f3c" fill-rule="evenodd" opacity="1" stroke="none"/>
<g opacity="0" vectornator:mask="#Fill_2">
<clipPath id="ClipPath_2">
<use overflow="#visible" xlink:href="#Fill_2"/>
</clipPath>
<g clip-path="url(#ClipPath_2)">
<path d="M288.34 401.87C289.93 406.19 290.92 409.32 290.92 409.32C274.28 420.38 254.59 417.32 254.59 417.32L250.66 406.32L247.09 417.32C247.09 417.32 227.74 417.71 210.21 406.32C211.639 401.75 213.418 397.297 215.53 393C217.142 389.623 218.952 386.344 220.95 383.18C220.95 383.18 216.19 364.7 211.67 345.51C207.57 328.12 203.67 310.15 203.67 304.81C203.67 293.58 228.23 298.58 228.23 298.58C228.23 298.58 232.23 295.29 234.23 294.07C237.498 300.318 242.586 305.427 248.82 308.72C248.82 308.72 259.37 302.13 263.28 294.07C266.369 295.167 268.964 297.33 270.6 300.17C270.6 300.17 287.76 295.86 297.22 303.1C299.07 304.52 295.28 323.49 290.85 342.75C286.11 363.41 280.64 384.4 280.64 384.4C283.643 390.021 286.217 395.861 288.34 401.87Z" fill="#ffffff" fill-rule="evenodd" opacity="0.3" stroke="none"/>
<path d="M280.6 384.35C283.619 389.986 286.206 395.843 288.34 401.87C277.03 400.5 266.34 394.58 266.34 394.58L263.93 397L246.53 388.49C236.61 392.081 226.062 393.612 215.53 392.99C217.142 389.613 218.952 386.334 220.95 383.17C220.95 383.17 216.19 364.69 211.67 345.5C213.81 331.23 216.43 319.68 219.18 321.63C225.86 326.38 226.38 345.96 226.38 345.96L238.38 320.45L233.38 309.27C227.85 310.36 223.18 314.51 223.18 314.51L224.77 308.95L234.12 303.09L243.73 310.93L246.27 318.86C244.685 325.262 244.041 331.862 244.36 338.45C245.08 348.15 246.93 351.7 246.93 351.7L242.51 353L239.21 379.68L267.3 374.76C272.04 343.11 287.08 328.48 287.08 328.48C287.08 328.48 288.74 334.3 290.81 342.66C286.07 363.36 280.6 384.35 280.6 384.35Z" fill="#000000" fill-rule="evenodd" opacity="0.2" stroke="none"/>
<path d="M253.48 312.34L262.75 303.05L273.28 308.26C273.28 308.26 273.46 311.58 273.28 314.77C273.28 314.77 267.51 308.12 264.79 307.52C264.79 307.52 259.73 307.36 253.48 312.34Z" fill="#000000" fill-rule="evenodd" opacity="0.2" stroke="none"/>
</g>
</g>
<path d="M272.366 268.943C275.634 275.191 280.721 280.3 286.956 283.593C286.956 283.593 297.506 277.003 301.416 268.943C304.504 270.04 307.1 272.203 308.736 275.043C308.736 275.043 325.896 270.733 335.356 277.973C339.196 280.923 318.776 359.273 318.776 359.273C324.196 368.783 329.096 384.273 329.096 384.273C312.456 395.333 292.766 392.273 292.766 392.273L288.836 381.273L285.266 392.273C285.266 392.273 265.916 392.663 248.386 381.273C250.979 373.112 254.605 365.315 259.176 358.073C259.176 358.073 241.846 290.943 241.846 279.703C241.846 268.463 266.406 273.473 266.406 273.473C266.406 273.473 270.406 270.183 272.366 268.943Z" fill="none" fill-rule="evenodd" opacity="1" stroke="#263238" stroke-linecap="round" stroke-linejoin="round" stroke-width="1"/>
<path d="M266.406 273.473C266.406 273.473 262.546 278.473 262.936 283.853L272.286 277.993C276.761 281 280.842 284.554 284.436 288.573" fill="none" fill-rule="evenodd" opacity="1" stroke="#263238" stroke-linecap="round" stroke-linejoin="round" stroke-width="1"/>
<path d="M308.736 275.063C310.345 277.489 311.284 280.297 311.456 283.203C308.214 280.971 304.667 279.216 300.926 277.993C300.926 277.993 293.856 283.203 291.286 287.923" fill="none" fill-rule="evenodd" opacity="1" stroke="#263238" stroke-linecap="round" stroke-linejoin="round" stroke-width="1"/>
<path d="M281.556 257.673C281.556 257.673 284.056 251.673 285.136 251.003C285.956 250.493 289.826 251.543 290.976 253.303C291.606 254.303 292.136 258.953 292.136 258.953C289.586 259.273 288.796 256.313 288.796 256.313L286.956 255.773L286.366 258.773C286.366 258.773 292.836 260.903 293.686 262.273C294.226 263.143 293.776 265.193 293.776 265.193C293.776 265.193 297.186 267.553 296.776 270.083C296.343 272.574 295.115 274.858 293.276 276.593C292.196 286.023 286.956 290.673 286.956 290.673L274.446 322.163L264.556 313.863L279.436 284.863L281.556 257.673Z" fill="#ffffff" fill-rule="evenodd" opacity="1" stroke="#263238" stroke-linecap="round" stroke-linejoin="round" stroke-width="1"/>
<path d="M293.276 276.613C293.276 276.613 293.276 272.783 292.466 271.323" fill="none" fill-rule="evenodd" opacity="1" stroke="#263238" stroke-linecap="round" stroke-linejoin="round" stroke-width="1"/>
<path d="M292.876 272.483C292.876 272.483 294.786 271.563 294.946 270.753" fill="none" fill-rule="evenodd" opacity="1" stroke="#263238" stroke-linecap="round" stroke-linejoin="round" stroke-width="1"/>
<path d="M293.776 265.213C292.159 264.598 290.484 264.149 288.776 263.873" fill="none" fill-rule="evenodd" opacity="1" stroke="#263238" stroke-linecap="round" stroke-linejoin="round" stroke-width="1"/>
<path d="M248.026 273.153C248.026 273.153 236.716 274.823 235.516 289.153C233.996 307.243 240.436 343.383 243.446 350.263C246.456 357.143 259.586 357.963 265.086 353.643C270.586 349.323 275.236 325.353 275.236 325.353L278.296 326.503L279.436 313.763L267.176 304.433L260.816 314.313L257.226 317.783C257.226 317.783 261.176 300.883 255.856 290.203" fill="#ff6f3c" fill-rule="evenodd" opacity="1" stroke="none"/>
<g opacity="0" vectornator:mask="#Fill_3">
<clipPath id="ClipPath_3">
<use overflow="#visible" xlink:href="#Fill_3"/>
</clipPath>
<g clip-path="url(#ClipPath_3)">
<path d="M209.85 298.21C209.85 298.21 198.54 299.88 197.34 314.21C195.82 332.3 202.26 368.44 205.27 375.32C208.28 382.2 221.41 383.02 226.91 378.7C232.41 374.38 237.06 350.41 237.06 350.41L240.12 351.56L241.26 338.82L229 329.49L222.64 339.37L219.05 342.84C219.05 342.84 223 325.94 217.68 315.26" fill="#ffffff" fill-rule="evenodd" opacity="0.3" stroke="none"/>
<path d="M237.06 350.43C237.06 350.43 228.26 347.04 226.06 344.8L226.42 335.97" fill="none" fill-rule="evenodd" opacity="1" stroke="#263238" stroke-linecap="round" stroke-linejoin="round" stroke-width="1"/>
<path d="M219.08 342.84C219.08 342.84 210.99 347.54 210.2 354.55" fill="none" fill-rule="evenodd" opacity="1" stroke="#263238" stroke-linecap="round" stroke-linejoin="round" stroke-width="1"/>
<path d="M211.1 334.52C211.1 334.52 217.23 336.23 219.18 341.24" fill="none" fill-rule="evenodd" opacity="1" stroke="#263238" stroke-linecap="round" stroke-linejoin="round" stroke-width="1"/>
</g>
</g>
<path d="M248.026 273.153C248.026 273.153 236.716 274.823 235.516 289.153C233.996 307.243 240.436 343.383 243.446 350.263C246.456 357.143 259.586 357.963 265.086 353.643C270.586 349.323 275.236 325.353 275.236 325.353L278.296 326.503L279.436 313.763L267.176 304.433L260.816 314.313L257.226 317.783C257.226 317.783 261.176 300.883 255.856 290.203" fill="none" fill-rule="evenodd" opacity="1" stroke="#263238" stroke-linecap="round" stroke-linejoin="round" stroke-width="1"/>
<path d="M253.296 349.523C253.296 349.523 259.466 347.433 261.176 347.433C262.886 347.433 272.346 351.233 274.406 351.483C276.466 351.733 289.886 351.483 289.886 351.483L291.326 361.483C291.326 361.483 277.166 360.483 273.036 361.483C268.906 362.483 251.756 361.423 250.656 360.683C248.536 359.273 244.656 357.573 243.336 355.013C242.746 353.843 242.466 349.343 243.166 349.793C245.896 351.533 245.526 353.793 248.676 354.943C251.826 356.093 256.676 355.043 259.266 354.433C261.216 353.973 262.126 353.053 260.606 351.593C259.406 350.453 254.746 352.033 253.296 349.523Z" fill="#ffffff" fill-rule="evenodd" opacity="1" stroke="#263238" stroke-linecap="round" stroke-linejoin="round" stroke-width="1"/>
<path d="M335.356 277.993C344.626 284.103 340.936 352.443 336.816 359.053C333.396 364.523 303.206 364.253 303.206 364.253L302.716 366.703L290.346 364.583L287.716 349.783L295.716 348.783C298.646 344.123 317.066 340.393 317.066 340.393C317.066 340.393 318.776 327.663 318.996 322.173C319.336 313.783 320.216 295.563 329.246 290.173" fill="#ff6f3c" fill-rule="evenodd" opacity="1" stroke="none"/>
<g opacity="0" vectornator:mask="#Fill_4">
<clipPath id="ClipPath_4">
<use overflow="#visible" xlink:href="#Fill_4"/>
</clipPath>
<g clip-path="url(#ClipPath_4)">
<path d="M297.18 303.05C306.45 309.16 302.76 377.5 298.64 384.11C295.22 389.58 265.03 389.31 265.03 389.31L264.54 391.76L252.17 389.64L249.54 374.84L257.54 373.84C260.47 369.18 278.89 365.45 278.89 365.45C278.89 365.45 280.6 352.72 280.82 347.23C281.16 338.84 282.04 320.62 291.07 315.23" fill="#ffffff" fill-rule="evenodd" opacity="0.3" stroke="none"/>
<path d="M265 389.31C265.391 385.256 265.488 381.178 265.29 377.11L255.7 376.05L258.97 375.26" fill="none" fill-rule="evenodd" opacity="1" stroke="#263238" stroke-linecap="round" stroke-linejoin="round" stroke-width="1"/>
<path d="M278.89 365.46C278.89 365.46 286.29 363.66 290.24 366.82" fill="none" fill-rule="evenodd" opacity="1" stroke="#263238" stroke-linecap="round" stroke-linejoin="round" stroke-width="1"/>
<path d="M288.79 361.55C288.79 361.55 283.1 362.47 281.26 364.98" fill="none" fill-rule="evenodd" opacity="1" stroke="#263238" stroke-linecap="round" stroke-linejoin="round" stroke-width="1"/>
</g>
</g>
<path d="M335.356 277.993C344.626 284.103 340.936 352.443 336.816 359.053C333.396 364.523 303.206 364.253 303.206 364.253L302.716 366.703L290.346 364.583L287.716 349.783L295.716 348.783C298.646 344.123 317.066 340.393 317.066 340.393C317.066 340.393 318.776 327.663 318.996 322.173C319.336 313.783 320.216 295.563 329.246 290.173" fill="none" fill-rule="evenodd" opacity="1" stroke="#263238" stroke-linecap="round" stroke-linejoin="round" stroke-width="1"/>
<path d="M316.116 299.173C316.116 299.173 316.266 308.413 319.436 314.733" fill="none" fill-rule="evenodd" opacity="1" stroke="#263238" stroke-linecap="round" stroke-linejoin="round" stroke-width="1"/>
<path d="M261.346 295.543C261.679 300.205 260.691 304.867 258.496 308.993" fill="none" fill-rule="evenodd" opacity="1" stroke="#263238" stroke-linecap="round" stroke-linejoin="round" stroke-width="1"/>
<path d="M289.026 303.583C289.03 304.119 288.71 304.604 288.216 304.811C287.721 305.018 287.151 304.905 286.773 304.527C286.394 304.148 286.281 303.578 286.488 303.083C286.695 302.589 287.18 302.269 287.716 302.273C288.437 302.279 289.02 302.862 289.026 303.583Z" fill="#263238" fill-rule="evenodd" opacity="1" stroke="none"/>
<path d="M289.026 330.803C289.03 331.339 288.71 331.824 288.216 332.031C287.721 332.238 287.151 332.125 286.773 331.747C286.394 331.368 286.281 330.798 286.488 330.303C286.695 329.809 287.18 329.489 287.716 329.493C288.437 329.499 289.02 330.082 289.026 330.803Z" fill="#263238" fill-rule="evenodd" opacity="1" stroke="none"/>
<path d="M290.176 374.043C290.18 374.578 289.861 375.062 289.368 375.27C288.875 375.477 288.306 375.367 287.926 374.99C287.546 374.613 287.432 374.045 287.635 373.55C287.839 373.056 288.321 372.733 288.856 372.733C289.581 372.733 290.17 373.318 290.176 374.043Z" fill="#263238" fill-rule="evenodd" opacity="1" stroke="none"/>
<path d="M308.376 399.943C308.376 399.943 289.176 417.063 270.926 419.943" fill="none" fill-rule="evenodd" opacity="1" stroke="#263238" stroke-linecap="round" stroke-linejoin="round" stroke-width="1"/>
<path d="M255.886 422.343C255.886 422.343 280.756 440.013 317.776 436.843" fill="none" fill-rule="evenodd" opacity="1" stroke="#263238" stroke-linecap="round" stroke-linejoin="round" stroke-width="1"/>
<g opacity="0.2">
<path d="M286.576 194.683C286.576 194.683 276.766 213.403 263.906 219.993" fill="none" fill-rule="evenodd" opacity="1" stroke="#ffffff" stroke-linecap="round" stroke-linejoin="round" stroke-width="1"/>
<path d="M277.596 195.373C277.596 195.373 273.866 204.113 261.176 205.943" fill="none" fill-rule="evenodd" opacity="1" stroke="#ffffff" stroke-linecap="round" stroke-linejoin="round" stroke-width="1"/>
<path d="M292.936 197.553C301.008 201.501 306.944 208.789 309.176 217.493" fill="none" fill-rule="evenodd" opacity="1" stroke="#ffffff" stroke-linecap="round" stroke-linejoin="round" stroke-width="1"/>
</g>
</g>
<g id="Layer-1" vectornator:layerName="Layer 1">
<path d="M414.278 38.0984C415.709 37.4716 417.023 36.738 418.209 35.6734C416.437 36.2035 414.41 36.0716 412.694 35.3643C414.466 34.8342 416.003 34.0903 417.414 33.0155C417.311 30.775 417.998 28.6106 419.495 26.9705C422.381 23.8074 427.31 23.582 430.473 26.4684C430.942 26.896 431.41 27.3236 431.655 27.7615C435.804 22.7445 437.426 16.4959 436.478 10.4772C437.832 10.6398 439.1 11.3676 440.155 12.3298C442.146 14.1471 442.941 16.805 442.606 19.2901C443.344 18.246 443.965 17.095 444.255 16.0714C444.255 16.0714 444.255 16.0714 444.372 16.1783C447.184 18.7439 447.709 22.8736 445.826 25.8785C446.371 25.5168 446.916 25.1551 447.45 24.5693C447.771 24.2179 448.091 23.8664 448.295 23.4081C449.997 26.2491 449.712 29.8544 447.361 32.4317C450.701 31.8299 453.883 30.225 456.342 27.5305C456.769 27.0619 457.197 26.5933 457.508 26.0178C456.796 30.0918 454.953 33.9929 452.067 37.1559C442.339 47.8166 428.314 45.5392 420.7 38.5905C420.465 38.3767 420.231 38.1629 419.997 37.9491C418.108 38.3723 416.198 38.3474 414.278 38.0984" fill="#ff3c3c" fill-rule="evenodd" opacity="1" stroke="none"/>
<path d="M517.64 192.223C519.121 192.72 520.587 193.059 522.181 193.068C520.512 192.27 519.1 190.81 518.304 189.133C519.972 189.931 521.611 190.413 523.377 190.565C524.807 188.837 526.77 187.695 528.98 187.486C533.243 187.082 537.046 190.227 537.449 194.49C537.509 195.122 537.569 195.753 537.456 196.242C543.899 195.313 549.299 191.775 552.64 186.68C553.534 187.711 553.985 189.102 554.119 190.523C554.373 193.207 553.176 195.71 551.258 197.325C552.506 197.048 553.74 196.612 554.642 196.049C554.642 196.049 554.642 196.049 554.657 196.207C555.016 199.996 552.631 203.408 549.217 204.368C549.863 204.466 550.51 204.565 551.299 204.49C551.773 204.445 552.247 204.4 552.705 204.197C552.057 207.445 549.424 209.924 545.95 210.253C548.829 212.052 552.264 213.001 555.896 212.657C556.527 212.597 557.159 212.538 557.775 212.32C554.511 214.859 550.525 216.511 546.262 216.914C531.894 218.274 523.037 207.165 522.066 196.902C522.036 196.586 522.006 196.27 521.976 195.955C520.292 194.999 518.895 193.697 517.64 192.223" fill="#ff3c3c" fill-rule="evenodd" opacity="1" stroke="none"/>
<path d="M427.846 381.257C430.016 382.221 432.185 382.945 434.597 383.186C432.185 381.739 430.257 379.328 429.292 376.676C431.703 378.122 434.114 379.087 436.767 379.569C439.178 377.158 442.312 375.711 445.687 375.711C452.197 375.711 457.502 381.016 457.502 387.526C457.502 388.49 457.502 389.454 457.261 390.178C467.146 389.696 475.826 385.115 481.612 377.881C482.818 379.569 483.3 381.739 483.3 383.909C483.3 388.008 481.13 391.624 477.996 393.794C479.925 393.553 481.853 393.071 483.3 392.348C483.3 392.348 483.3 392.348 483.3 392.589C483.3 398.375 479.201 403.198 473.897 404.162C474.861 404.403 475.826 404.644 477.031 404.644C477.755 404.644 478.478 404.644 479.201 404.403C477.755 409.225 473.415 412.601 468.11 412.601C472.209 415.735 477.272 417.664 482.818 417.664C483.782 417.664 484.747 417.664 485.711 417.423C480.407 420.798 474.138 422.727 467.628 422.727C445.687 422.727 433.873 404.644 433.873 388.972C433.873 388.49 433.873 388.008 433.873 387.526C431.462 385.838 429.533 383.668 427.846 381.257" fill="#ff3c3c" fill-rule="evenodd" opacity="1" stroke="none"/>
<path d="M59.343 163.199C57.4384 162.992 55.6316 162.617 53.8521 161.807C56.1203 161.776 58.4431 160.876 60.191 159.417C57.9228 159.449 55.8501 159.144 53.8046 158.405C53.1003 155.746 51.5004 153.466 49.1459 152.098C44.6052 149.459 38.755 151.009 36.116 155.549C35.7251 156.222 35.3341 156.895 35.2091 157.497C28.5093 153.153 24.312 146.439 23.2079 139.048C21.6829 139.737 20.4669 141.055 19.5872 142.568C17.9256 145.427 17.9731 148.83 19.2798 151.614C18.0321 150.664 16.8822 149.546 16.1663 148.455C16.1663 148.455 16.1663 148.455 16.0686 148.623C13.7228 152.659 14.627 157.684 17.936 160.507C17.1655 160.284 16.3951 160.062 15.5542 159.573C15.0497 159.28 14.5451 158.986 14.1383 158.525C13.1926 162.475 14.8514 166.589 18.5513 168.739C14.4217 169.264 10.1081 168.557 6.24001 166.309C5.56731 165.918 4.8946 165.527 4.31963 164.968C6.65117 169.472 10.2418 173.359 14.7826 175.998C30.0867 184.892 45.6578 177.068 52.0109 166.137C52.2064 165.8 52.4019 165.464 52.5973 165.128C54.9633 164.928 57.1884 164.196 59.343 163.199" fill="#3c57ff" fill-rule="evenodd" opacity="1" stroke="none"/>
<path d="M171.461 44.9671C169.919 44.408 168.493 43.729 167.178 42.6946C169.07 43.1292 171.184 42.8531 172.934 41.9952C171.042 41.5607 169.381 40.8862 167.83 39.8563C167.785 37.5024 166.918 35.282 165.239 33.666C162 30.5493 156.821 30.6488 153.704 33.8878C153.243 34.3676 152.781 34.8474 152.554 35.3227C147.867 30.3501 145.742 23.9152 146.326 17.5461C144.918 17.8086 143.639 18.6574 142.6 19.737C140.638 21.7763 139.986 24.6146 140.506 27.1949C139.662 26.1515 138.933 24.9881 138.56 23.9356C138.56 23.9356 138.56 23.9356 138.445 24.0556C135.674 26.9346 135.405 31.2961 137.582 34.3155C136.987 33.9737 136.392 33.632 135.792 33.0548C135.432 32.7085 135.072 32.3622 134.828 31.8959C133.239 34.9877 133.782 38.745 136.421 41.2845C132.881 40.8816 129.438 39.4172 126.679 36.7622C126.2 36.3005 125.72 35.8388 125.355 35.2571C126.378 39.476 128.574 43.437 131.813 46.5536C142.729 57.058 157.265 53.7173 164.768 45.9199C164.999 45.68 165.229 45.4401 165.46 45.2002C167.468 45.5148 169.467 45.3586 171.461 44.9671" fill="#3c57ff" fill-rule="evenodd" opacity="1" stroke="none"/>
<path d="M197.514 391.66C195.443 392.736 193.357 393.575 191.006 393.955C193.285 392.392 195.033 389.911 195.821 387.252C193.542 388.815 191.234 389.905 188.661 390.536C186.151 388.315 182.99 387.083 179.678 387.284C173.291 387.673 168.404 393.193 168.792 399.58C168.85 400.526 168.907 401.473 169.187 402.168C159.459 402.285 150.67 398.308 144.561 391.557C143.479 393.285 143.136 395.443 143.265 397.572C143.51 401.593 145.855 405.012 149.059 406.954C147.152 406.832 145.231 406.474 143.769 405.851C143.769 405.851 143.769 405.851 143.783 406.088C144.128 411.765 148.438 416.251 153.699 416.881C152.768 417.175 151.836 417.469 150.653 417.541C149.943 417.584 149.234 417.627 148.51 417.434C150.217 422.079 154.676 425.132 159.88 424.815C156.046 428.135 151.194 430.329 145.753 430.66C144.807 430.718 143.86 430.775 142.9 430.596C148.305 433.592 154.571 435.11 160.958 434.721C182.484 433.412 192.996 414.965 192.061 399.589C192.032 399.116 192.003 398.643 191.974 398.17C194.239 396.37 196.002 394.126 197.514 391.66" fill="#3c57ff" fill-rule="evenodd" opacity="1" stroke="none"/>
</g>
</svg>
