<?xml version="1.0" encoding="UTF-8" standalone="no"?>
<!DOCTYPE svg PUBLIC "-//W3C//DTD SVG 1.1//EN" "http://www.w3.org/Graphics/SVG/1.1/DTD/svg11.dtd">

<!-- Created with Vectornator (http://vectornator.io/) -->
<svg height="100%" stroke-miterlimit="10" style="fill-rule:nonzero;clip-rule:evenodd;stroke-linecap:round;stroke-linejoin:round;" version="1.1" viewBox="0 0 1675.35 1258.87" width="100%" xml:space="preserve" xmlns="http://www.w3.org/2000/svg" xmlns:vectornator="http://vectornator.io" xmlns:xlink="http://www.w3.org/1999/xlink">
<metadata>
<vectornator:setting key="IsTimeLapseWatermarkDisabled" value="false"/>
<vectornator:setting key="UndoHistoryDisabled" value="true"/>
<vectornator:setting key="VNDimensionsVisible" value="true"/>
<vectornator:setting key="VNSnapToGuides" value="true"/>
<vectornator:setting key="WDCMYKEnabledKey" value="false"/>
<vectornator:setting key="WDDisplayWhiteBackground" value="false"/>
<vectornator:setting key="WDDynamicGuides" value="true"/>
<vectornator:setting key="WDGuidesVisible" value="true"/>
<vectornator:setting key="WDIsolateActiveLayer" value="false"/>
<vectornator:setting key="WDOutlineMode" value="false"/>
<vectornator:setting key="WDRulersVisible" value="true"/>
<vectornator:setting key="WDSnapToEdges" value="false"/>
<vectornator:setting key="WDSnapToGrid" value="false"/>
<vectornator:setting key="WDSnapToPoints" value="false"/>
<vectornator:setting key="WDUnits" value="Pixels"/>
</metadata>
<defs>
<clipPath id="TextBounds">
<rect height="179.949" width="592.527" x="564.855" y="0"/>
</clipPath>
<clipPath id="TextBounds_2">
<rect height="179.949" width="592.527" x="1108" y="760.103"/>
</clipPath>
<clipPath id="TextBounds_3">
<rect height="179.949" width="592.527" x="167.067" y="166.142"/>
</clipPath>
<clipPath id="TextBounds_4">
<rect height="179.949" width="592.527" x="6.34554" y="647.877"/>
</clipPath>
<clipPath id="TextBounds_5">
<rect height="179.949" width="592.527" x="1018.04" y="89.9743"/>
</clipPath>
<clipPath id="TextBounds_6">
<rect height="179.949" width="761.501" x="551.486" y="940.051"/>
</clipPath>
<clipPath id="TextBounds_7">
<rect height="179.949" width="592.527" x="-34.4776" y="389.534"/>
</clipPath>
<clipPath id="TextBounds_8">
<rect height="189.716" width="604.824" x="1152.7" y="326.104"/>
</clipPath>
<clipPath id="TextBounds_9">
<rect height="166" width="592.081" x="1170.44" y="546.434"/>
</clipPath>
</defs>
<g id="Layer-1" vectornator:layerName="Layer 1">
<path d="M861.118 214.886C669.487 214.886 514.138 370.234 514.138 561.866C514.138 753.498 669.487 908.846 861.118 908.846C1052.75 908.846 1208.1 753.498 1208.1 561.866C1208.1 370.234 1052.75 214.886 861.118 214.886Z" fill="none" fill-rule="evenodd" opacity="1" stroke="#000000" stroke-linecap="butt" stroke-linejoin="miter" stroke-width="45"/>
<path d="M644.256 833.93L559.624 918.561M504.423 863.36L589.055 778.729M557.621 915.375L507.593 865.347C495.275 853.03 475.308 853.03 462.99 865.347L207.945 1120.41C195.627 1132.73 195.627 1152.69 207.945 1165.01L257.973 1215.04C270.29 1227.36 290.258 1227.36 302.575 1215.04L557.637 959.978C569.939 947.676 569.939 927.693 557.621 915.375ZM435.279 893.074L482.595 940.39M387.964 940.39L435.279 987.705M340.649 987.705L387.964 1035.02M293.333 1035.02L340.649 1082.34M246.018 1082.34L293.333 1129.65" fill="none" fill-rule="evenodd" opacity="1" stroke="#000000" stroke-linecap="butt" stroke-linejoin="miter" stroke-width="45"/>
<path d="M896.19 561.878C896.19 581.373 880.389 597.173 860.895 597.173C841.4 597.173 825.6 581.373 825.6 561.878L825.6 561.878C825.6 542.384 841.4 526.584 860.895 526.584C880.389 526.584 896.19 542.384 896.19 561.878Z" fill="#ff6f3c" fill-rule="evenodd" opacity="1" stroke="#ff6f3c" stroke-linecap="round" stroke-linejoin="round" stroke-width="27"/>
<path d="M1002.07 420.7C1017.76 393.252 1015.3 367.981 995.756 355.287C989.238 351.052 981.426 349.204 972.638 349.534C925.167 351.334 847.612 416.523 785.035 512.878C731.352 595.726 707.128 666.598 707.951 714.822C708.351 738.564 713.01 759.493 726.763 768.435C746.552 781.282 767.376 771.352 790.306 761.882" fill="none" fill-rule="evenodd" opacity="1" stroke="#ff6f3c" stroke-linecap="round" stroke-linejoin="round" stroke-width="27"/>
<path d="M1060.9 620.703C1087.65 612.867 1106.83 596.244 1107.96 574.773C1110.56 525.125 999.132 475.865 863.154 468.736C850.401 468.065 837.859 467.712 825.6 467.759C707.057 468.159 616.656 503.972 614.303 548.961C613.173 570.384 626.044 581.832 649.127 597.173" fill="none" fill-rule="evenodd" opacity="1" stroke="#ff6f3c" stroke-linecap="round" stroke-linejoin="round" stroke-width="27"/>
<path d="M813.835 361.875C798.694 348.946 786.647 338.475 762.046 338.475C757.199 338.475 731.481 348.146 731.481 408.935C731.481 463.712 748.128 533.349 778.541 597.173C837.118 720.104 928.108 804.165 972.414 781.588C1010.38 755.929 979.391 628.409 955.014 561.878" fill="none" fill-rule="evenodd" opacity="1" stroke="#ff6f3c" stroke-linecap="round" stroke-linejoin="round" stroke-width="27"/>
</g>
<g id="langs" vectornator:layerName="langs">
<g fill="#000000" opacity="1" stroke="none">
<path clip-path="url(#TextBounds)" d="M683.236 54.373C682.73 55.385 682.144 56.098 681.477 56.512C680.81 56.926 680.016 57.133 679.096 57.133C678.176 57.133 677.141 56.7765 675.991 56.0635C674.841 55.3505 673.484 54.557 671.92 53.683C670.356 52.809 668.528 52.0155 666.435 51.3025C664.342 50.5895 661.869 50.233 659.017 50.233C656.441 50.233 654.199 50.5435 652.29 51.1645C650.381 51.7855 648.771 52.648 647.46 53.752C646.149 54.856 645.171 56.1785 644.527 57.7195C643.883 59.2605 643.561 60.951 643.561 62.791C643.561 65.137 644.217 67.092 645.528 68.656C646.839 70.22 648.575 71.554 650.737 72.658C652.899 73.762 655.36 74.751 658.12 75.625C660.88 76.499 663.698 77.4305 666.573 78.4195C669.448 79.4085 672.265 80.5585 675.025 81.8695C677.785 83.1805 680.246 84.8365 682.408 86.8375C684.57 88.8385 686.307 91.288 687.618 94.186C688.929 97.084 689.584 100.603 689.584 104.743C689.584 109.251 688.814 113.471 687.273 117.404C685.732 121.338 683.478 124.764 680.511 127.686C677.544 130.607 673.921 132.906 669.643 134.585C665.365 136.265 660.466 137.104 654.946 137.104C651.772 137.104 648.644 136.794 645.562 136.173C642.48 135.551 639.525 134.666 636.696 133.516C633.867 132.366 631.222 130.986 628.761 129.376C626.3 127.766 624.103 125.972 622.171 123.994L627.553 115.093C628.059 114.449 628.669 113.909 629.382 113.471C630.095 113.034 630.888 112.816 631.762 112.816C632.912 112.816 634.154 113.287 635.488 114.231C636.822 115.174 638.398 116.22 640.215 117.37C642.032 118.52 644.171 119.566 646.632 120.51C649.093 121.453 652.048 121.924 655.498 121.924C660.788 121.924 664.882 120.671 667.78 118.163C670.678 115.656 672.127 112.057 672.127 107.365C672.127 104.743 671.472 102.604 670.161 100.948C668.85 99.292 667.113 97.9005 664.951 96.7735C662.789 95.6465 660.328 94.692 657.568 93.91C654.808 93.128 652.002 92.277 649.15 91.357C646.298 90.437 643.492 89.333 640.732 88.045C637.972 86.757 635.511 85.078 633.349 83.008C631.187 80.938 629.451 78.3505 628.14 75.2455C626.829 72.1405 626.173 68.311 626.173 63.757C626.173 60.123 626.898 56.581 628.347 53.131C629.796 49.681 631.912 46.622 634.695 43.954C637.478 41.286 640.893 39.147 644.941 37.537C648.989 35.927 653.612 35.122 658.81 35.122C664.698 35.122 670.126 36.042 675.094 37.882C680.062 39.722 684.294 42.298 687.79 45.61L683.236 54.373Z" fill-rule="evenodd"/>
<path clip-path="url(#TextBounds)" d="M752.581 80.179C752.075 80.823 751.581 81.329 751.098 81.697C750.615 82.065 749.913 82.249 748.993 82.249C748.119 82.249 747.268 81.9845 746.44 81.4555C745.612 80.9265 744.623 80.3285 743.473 79.6615C742.323 78.9945 740.955 78.3965 739.368 77.8675C737.781 77.3385 735.814 77.074 733.468 77.074C730.478 77.074 727.856 77.6145 725.602 78.6955C723.348 79.7765 721.474 81.329 719.979 83.353C718.484 85.377 717.368 87.8265 716.632 90.7015C715.896 93.5765 715.528 96.831 715.528 100.465C715.528 104.237 715.931 107.595 716.736 110.539C717.541 113.483 718.702 115.955 720.22 117.957C721.738 119.958 723.578 121.475 725.74 122.51C727.902 123.546 730.34 124.063 733.054 124.063C735.768 124.063 737.965 123.73 739.644 123.062C741.323 122.395 742.737 121.66 743.887 120.855C745.037 120.049 746.038 119.314 746.889 118.647C747.74 117.979 748.694 117.646 749.752 117.646C751.132 117.646 752.167 118.175 752.857 119.233L757.756 125.443C755.87 127.651 753.823 129.502 751.615 130.998C749.407 132.493 747.119 133.688 744.75 134.585C742.381 135.483 739.931 136.115 737.401 136.483C734.871 136.851 732.364 137.035 729.88 137.035C725.51 137.035 721.393 136.219 717.529 134.585C713.665 132.952 710.296 130.572 707.421 127.444C704.546 124.316 702.269 120.487 700.59 115.956C698.911 111.424 698.071 106.261 698.071 100.465C698.071 95.267 698.819 90.4485 700.314 86.0095C701.809 81.5705 704.005 77.7295 706.903 74.4865C709.801 71.2435 713.389 68.702 717.667 66.862C721.945 65.022 726.867 64.102 732.433 64.102C737.723 64.102 742.358 64.953 746.337 66.655C750.316 68.357 753.892 70.795 757.066 73.969L752.581 80.179Z" fill-rule="evenodd"/>
<path clip-path="url(#TextBounds)" d="M786.805 65.206L786.805 136L769.762 136L769.762 65.206L786.805 65.206ZM789.358 44.575C789.358 46.047 789.059 47.427 788.461 48.715C787.863 50.003 787.07 51.13 786.081 52.096C785.092 53.062 783.93 53.8325 782.596 54.4075C781.262 54.9825 779.836 55.27 778.318 55.27C776.846 55.27 775.455 54.9825 774.144 54.4075C772.833 53.8325 771.694 53.062 770.728 52.096C769.762 51.13 768.992 50.003 768.417 48.715C767.842 47.427 767.554 46.047 767.554 44.575C767.554 43.057 767.842 41.631 768.417 40.297C768.992 38.963 769.762 37.813 770.728 36.847C771.694 35.881 772.833 35.1105 774.144 34.5355C775.455 33.9605 776.846 33.673 778.318 33.673C779.836 33.673 781.262 33.9605 782.596 34.5355C783.93 35.1105 785.092 35.881 786.081 36.847C787.07 37.813 787.863 38.963 788.461 40.297C789.059 41.631 789.358 43.057 789.358 44.575Z" fill-rule="evenodd"/>
<path clip-path="url(#TextBounds)" d="M835.312 64.102C839.774 64.102 843.88 64.815 847.629 66.241C851.378 67.667 854.609 69.7485 857.323 72.4855C860.037 75.2225 862.153 78.5805 863.671 82.5595C865.189 86.5385 865.948 91.081 865.948 96.187C865.948 97.475 865.891 98.5445 865.776 99.3955C865.661 100.247 865.454 100.913 865.155 101.397C864.856 101.88 864.453 102.224 863.947 102.431C863.441 102.639 862.797 102.742 862.015 102.742L818.269 102.742C818.775 110.01 820.73 115.346 824.134 118.75C827.538 122.154 832.046 123.856 837.658 123.856C840.418 123.856 842.799 123.534 844.8 122.89C846.801 122.246 848.549 121.533 850.044 120.751C851.539 119.969 852.85 119.256 853.977 118.612C855.104 117.968 856.196 117.646 857.254 117.646C857.944 117.646 858.542 117.784 859.048 118.06C859.554 118.336 859.991 118.727 860.359 119.233L865.327 125.443C863.441 127.651 861.325 129.502 858.979 130.998C856.633 132.493 854.184 133.688 851.631 134.585C849.078 135.483 846.479 136.115 843.834 136.483C841.189 136.851 838.624 137.035 836.14 137.035C831.218 137.035 826.641 136.219 822.409 134.585C818.177 132.952 814.497 130.538 811.369 127.34C808.241 124.143 805.78 120.188 803.986 115.472C802.192 110.757 801.295 105.295 801.295 99.085C801.295 94.255 802.077 89.7125 803.641 85.4575C805.205 81.2025 807.448 77.4995 810.369 74.3485C813.29 71.1975 816.855 68.702 821.064 66.862C825.273 65.022 830.022 64.102 835.312 64.102ZM835.657 76.315C830.689 76.315 826.802 77.718 823.996 80.524C821.19 83.33 819.396 87.309 818.614 92.461L850.63 92.461C850.63 90.253 850.331 88.1715 849.733 86.2165C849.135 84.2615 848.215 82.548 846.973 81.076C845.731 79.604 844.167 78.4425 842.281 77.5915C840.395 76.7405 838.187 76.315 835.657 76.315Z" fill-rule="evenodd"/>
<path clip-path="url(#TextBounds)" d="M879.817 136L879.817 65.206L890.236 65.206C892.444 65.206 893.893 66.241 894.583 68.311L895.756 73.9C897.182 72.428 898.689 71.094 900.276 69.898C901.863 68.702 903.542 67.667 905.313 66.793C907.084 65.919 908.981 65.252 911.005 64.792C913.029 64.332 915.237 64.102 917.629 64.102C921.493 64.102 924.92 64.7575 927.91 66.0685C930.9 67.3795 933.396 69.2195 935.397 71.5885C937.398 73.9575 938.916 76.7865 939.951 80.0755C940.986 83.3645 941.503 86.987 941.503 90.943L941.503 136L924.46 136L924.46 90.943C924.46 86.619 923.46 83.2725 921.459 80.9035C919.458 78.5345 916.456 77.35 912.454 77.35C909.51 77.35 906.75 78.017 904.174 79.351C901.598 80.685 899.16 82.502 896.86 84.802L896.86 136L879.817 136Z" fill-rule="evenodd"/>
<path clip-path="url(#TextBounds)" d="M1008.02 80.179C1007.51 80.823 1007.02 81.329 1006.54 81.697C1006.05 82.065 1005.35 82.249 1004.43 82.249C1003.56 82.249 1002.71 81.9845 1001.88 81.4555C1001.05 80.9265 1000.06 80.3285 998.911 79.6615C997.761 78.9945 996.393 78.3965 994.806 77.8675C993.219 77.3385 991.252 77.074 988.906 77.074C985.916 77.074 983.294 77.6145 981.04 78.6955C978.786 79.7765 976.912 81.329 975.417 83.353C973.922 85.377 972.806 87.8265 972.07 90.7015C971.334 93.5765 970.966 96.831 970.966 100.465C970.966 104.237 971.369 107.595 972.174 110.539C972.979 113.483 974.14 115.955 975.658 117.957C977.176 119.958 979.016 121.475 981.178 122.51C983.34 123.546 985.778 124.063 988.492 124.063C991.206 124.063 993.403 123.73 995.082 123.062C996.761 122.395 998.175 121.66 999.325 120.855C1000.48 120.049 1001.48 119.314 1002.33 118.647C1003.18 117.979 1004.13 117.646 1005.19 117.646C1006.57 117.646 1007.61 118.175 1008.3 119.233L1013.19 125.443C1011.31 127.651 1009.26 129.502 1007.05 130.998C1004.85 132.493 1002.56 133.688 1000.19 134.585C997.819 135.483 995.369 136.115 992.839 136.483C990.309 136.851 987.802 137.035 985.318 137.035C980.948 137.035 976.831 136.219 972.967 134.585C969.103 132.952 965.734 130.572 962.859 127.444C959.984 124.316 957.707 120.487 956.028 115.956C954.349 111.424 953.509 106.261 953.509 100.465C953.509 95.267 954.257 90.4485 955.752 86.0095C957.247 81.5705 959.443 77.7295 962.341 74.4865C965.239 71.2435 968.827 68.702 973.105 66.862C977.383 65.022 982.305 64.102 987.871 64.102C993.161 64.102 997.796 64.953 1001.77 66.655C1005.75 68.357 1009.33 70.795 1012.5 73.969L1008.02 80.179Z" fill-rule="evenodd"/>
<path clip-path="url(#TextBounds)" d="M1053.35 64.102C1057.81 64.102 1061.92 64.815 1065.67 66.241C1069.42 67.667 1072.65 69.7485 1075.36 72.4855C1078.08 75.2225 1080.19 78.5805 1081.71 82.5595C1083.23 86.5385 1083.99 91.081 1083.99 96.187C1083.99 97.475 1083.93 98.5445 1083.82 99.3955C1083.7 100.247 1083.49 100.913 1083.19 101.397C1082.9 101.88 1082.49 102.224 1081.99 102.431C1081.48 102.639 1080.84 102.742 1080.06 102.742L1036.31 102.742C1036.82 110.01 1038.77 115.346 1042.17 118.75C1045.58 122.154 1050.09 123.856 1055.7 123.856C1058.46 123.856 1060.84 123.534 1062.84 122.89C1064.84 122.246 1066.59 121.533 1068.08 120.751C1069.58 119.969 1070.89 119.256 1072.02 118.612C1073.14 117.968 1074.24 117.646 1075.29 117.646C1075.98 117.646 1076.58 117.784 1077.09 118.06C1077.59 118.336 1078.03 118.727 1078.4 119.233L1083.37 125.443C1081.48 127.651 1079.37 129.502 1077.02 130.998C1074.67 132.493 1072.22 133.688 1069.67 134.585C1067.12 135.483 1064.52 136.115 1061.87 136.483C1059.23 136.851 1056.66 137.035 1054.18 137.035C1049.26 137.035 1044.68 136.219 1040.45 134.585C1036.22 132.952 1032.54 130.538 1029.41 127.34C1026.28 124.143 1023.82 120.188 1022.03 115.472C1020.23 110.757 1019.34 105.295 1019.34 99.085C1019.34 94.255 1020.12 89.7125 1021.68 85.4575C1023.25 81.2025 1025.49 77.4995 1028.41 74.3485C1031.33 71.1975 1034.89 68.702 1039.1 66.862C1043.31 65.022 1048.06 64.102 1053.35 64.102ZM1053.7 76.315C1048.73 76.315 1044.84 77.718 1042.04 80.524C1039.23 83.33 1037.44 87.309 1036.65 92.461L1068.67 92.461C1068.67 90.253 1068.37 88.1715 1067.77 86.2165C1067.18 84.2615 1066.26 82.548 1065.01 81.076C1063.77 79.604 1062.21 78.4425 1060.32 77.5915C1058.44 76.7405 1056.23 76.315 1053.7 76.315Z" fill-rule="evenodd"/>
</g>
<g fill="#000000" opacity="1" stroke="none">
<path clip-path="url(#TextBounds_2)" d="M1247.22 872.574C1248.23 872.574 1249.11 872.965 1249.84 873.747L1257.16 881.682C1253.11 886.696 1248.13 890.537 1242.22 893.205C1236.31 895.873 1229.21 897.207 1220.93 897.207C1213.53 897.207 1206.87 895.942 1200.96 893.412C1195.05 890.882 1190 887.363 1185.81 882.855C1181.63 878.347 1178.42 872.965 1176.19 866.709C1173.96 860.453 1172.84 853.622 1172.84 846.216C1172.84 838.718 1174.08 831.852 1176.57 825.619C1179.05 819.386 1182.55 814.016 1187.05 809.508C1191.56 805 1196.96 801.492 1203.23 798.985C1209.51 796.478 1216.45 795.225 1224.04 795.225C1231.44 795.225 1237.92 796.409 1243.46 798.778C1249 801.147 1253.75 804.287 1257.71 808.197L1251.5 816.822C1251.13 817.374 1250.66 817.857 1250.09 818.271C1249.51 818.685 1248.72 818.892 1247.7 818.892C1246.65 818.892 1245.57 818.478 1244.46 817.65C1243.36 816.822 1241.95 815.925 1240.25 814.959C1238.55 813.993 1236.4 813.096 1233.8 812.268C1231.2 811.44 1227.9 811.026 1223.9 811.026C1219.21 811.026 1214.9 811.842 1210.96 813.475C1207.03 815.108 1203.65 817.443 1200.82 820.479C1197.99 823.515 1195.78 827.206 1194.2 831.553C1192.61 835.9 1191.81 840.788 1191.81 846.216C1191.81 851.828 1192.61 856.819 1194.2 861.189C1195.78 865.559 1197.93 869.239 1200.65 872.229C1203.36 875.219 1206.56 877.507 1210.24 879.094C1213.92 880.681 1217.87 881.475 1222.11 881.475C1224.64 881.475 1226.92 881.337 1228.97 881.061C1231.02 880.785 1232.9 880.348 1234.63 879.75C1236.35 879.152 1237.99 878.381 1239.53 877.438C1241.07 876.495 1242.6 875.334 1244.12 873.954C1244.58 873.54 1245.06 873.206 1245.57 872.953C1246.07 872.7 1246.62 872.574 1247.22 872.574Z" fill-rule="evenodd"/>
<path clip-path="url(#TextBounds_2)" d="M1288.35 825.309L1288.35 896.103L1271.3 896.103L1271.3 825.309L1288.35 825.309ZM1290.9 804.678C1290.9 806.15 1290.6 807.53 1290 808.818C1289.4 810.106 1288.61 811.233 1287.62 812.199C1286.63 813.165 1285.47 813.935 1284.14 814.51C1282.8 815.085 1281.38 815.373 1279.86 815.373C1278.39 815.373 1277 815.085 1275.68 814.51C1274.37 813.935 1273.23 813.165 1272.27 812.199C1271.3 811.233 1270.53 810.106 1269.96 808.818C1269.38 807.53 1269.09 806.15 1269.09 804.678C1269.09 803.16 1269.38 801.734 1269.96 800.4C1270.53 799.066 1271.3 797.916 1272.27 796.95C1273.23 795.984 1274.37 795.213 1275.68 794.638C1277 794.063 1278.39 793.776 1279.86 793.776C1281.38 793.776 1282.8 794.063 1284.14 794.638C1285.47 795.213 1286.63 795.984 1287.62 796.95C1288.61 797.916 1289.4 799.066 1290 800.4C1290.6 801.734 1290.9 803.16 1290.9 804.678Z" fill-rule="evenodd"/>
<path clip-path="url(#TextBounds_2)" d="M1336.85 824.205C1341.31 824.205 1345.42 824.918 1349.17 826.344C1352.92 827.77 1356.15 829.851 1358.86 832.588C1361.58 835.325 1363.69 838.683 1365.21 842.662C1366.73 846.641 1367.49 851.184 1367.49 856.29C1367.49 857.578 1367.43 858.647 1367.32 859.498C1367.2 860.349 1366.99 861.016 1366.7 861.499C1366.4 861.982 1365.99 862.327 1365.49 862.534C1364.98 862.741 1364.34 862.845 1363.56 862.845L1319.81 862.845C1320.32 870.113 1322.27 875.449 1325.67 878.853C1329.08 882.257 1333.59 883.959 1339.2 883.959C1341.96 883.959 1344.34 883.637 1346.34 882.993C1348.34 882.349 1350.09 881.636 1351.58 880.854C1353.08 880.072 1354.39 879.359 1355.52 878.715C1356.64 878.071 1357.74 877.749 1358.79 877.749C1359.48 877.749 1360.08 877.887 1360.59 878.163C1361.09 878.439 1361.53 878.83 1361.9 879.336L1366.87 885.546C1364.98 887.754 1362.87 889.605 1360.52 891.1C1358.17 892.595 1355.72 893.791 1353.17 894.688C1350.62 895.585 1348.02 896.218 1345.37 896.586C1342.73 896.954 1340.16 897.138 1337.68 897.138C1332.76 897.138 1328.18 896.321 1323.95 894.688C1319.72 893.055 1316.04 890.64 1312.91 887.443C1309.78 884.246 1307.32 880.29 1305.53 875.575C1303.73 870.86 1302.84 865.398 1302.84 859.188C1302.84 854.358 1303.62 849.815 1305.18 845.56C1306.75 841.305 1308.99 837.602 1311.91 834.451C1314.83 831.3 1318.4 828.805 1322.6 826.965C1326.81 825.125 1331.56 824.205 1336.85 824.205ZM1337.2 836.418C1332.23 836.418 1328.34 837.821 1325.54 840.627C1322.73 843.433 1320.94 847.412 1320.15 852.564L1352.17 852.564C1352.17 850.356 1351.87 848.274 1351.27 846.319C1350.68 844.364 1349.76 842.651 1348.51 841.179C1347.27 839.707 1345.71 838.545 1343.82 837.694C1341.94 836.843 1339.73 836.418 1337.2 836.418Z" fill-rule="evenodd"/>
<path clip-path="url(#TextBounds_2)" d="M1381.36 896.103L1381.36 825.309L1391.78 825.309C1393.98 825.309 1395.43 826.344 1396.12 828.414L1397.3 834.003C1398.72 832.531 1400.23 831.197 1401.82 830.001C1403.4 828.805 1405.08 827.77 1406.85 826.896C1408.62 826.022 1410.52 825.355 1412.55 824.895C1414.57 824.435 1416.78 824.205 1419.17 824.205C1423.03 824.205 1426.46 824.86 1429.45 826.171C1432.44 827.482 1434.94 829.322 1436.94 831.691C1438.94 834.06 1440.46 836.889 1441.49 840.178C1442.53 843.467 1443.04 847.09 1443.04 851.046L1443.04 896.103L1426 896.103L1426 851.046C1426 846.722 1425 843.375 1423 841.006C1421 838.637 1418 837.453 1413.99 837.453C1411.05 837.453 1408.29 838.12 1405.71 839.454C1403.14 840.788 1400.7 842.605 1398.4 844.905L1398.4 896.103L1381.36 896.103Z" fill-rule="evenodd"/>
<path clip-path="url(#TextBounds_2)" d="M1509.56 840.282C1509.05 840.926 1508.56 841.432 1508.08 841.8C1507.59 842.168 1506.89 842.352 1505.97 842.352C1505.1 842.352 1504.25 842.087 1503.42 841.558C1502.59 841.029 1501.6 840.431 1500.45 839.764C1499.3 839.097 1497.93 838.499 1496.35 837.97C1494.76 837.441 1492.79 837.177 1490.45 837.177C1487.46 837.177 1484.83 837.717 1482.58 838.798C1480.33 839.879 1478.45 841.432 1476.96 843.456C1475.46 845.48 1474.35 847.929 1473.61 850.804C1472.87 853.679 1472.51 856.934 1472.51 860.568C1472.51 864.34 1472.91 867.698 1473.71 870.642C1474.52 873.586 1475.68 876.058 1477.2 878.059C1478.72 880.06 1480.56 881.578 1482.72 882.613C1484.88 883.648 1487.32 884.166 1490.03 884.166C1492.75 884.166 1494.94 883.832 1496.62 883.165C1498.3 882.498 1499.72 881.762 1500.87 880.957C1502.02 880.152 1503.02 879.416 1503.87 878.749C1504.72 878.082 1505.67 877.749 1506.73 877.749C1508.11 877.749 1509.15 878.278 1509.84 879.336L1514.73 885.546C1512.85 887.754 1510.8 889.605 1508.59 891.1C1506.39 892.595 1504.1 893.791 1501.73 894.688C1499.36 895.585 1496.91 896.218 1494.38 896.586C1491.85 896.954 1489.34 897.138 1486.86 897.138C1482.49 897.138 1478.37 896.321 1474.51 894.688C1470.64 893.055 1467.27 890.675 1464.4 887.547C1461.52 884.419 1459.25 880.589 1457.57 876.058C1455.89 871.527 1455.05 866.364 1455.05 860.568C1455.05 855.37 1455.8 850.551 1457.29 846.112C1458.79 841.673 1460.98 837.832 1463.88 834.589C1466.78 831.346 1470.37 828.805 1474.65 826.965C1478.92 825.125 1483.85 824.205 1489.41 824.205C1494.7 824.205 1499.34 825.056 1503.32 826.758C1507.29 828.46 1510.87 830.898 1514.04 834.072L1509.56 840.282Z" fill-rule="evenodd"/>
<path clip-path="url(#TextBounds_2)" d="M1543.78 825.309L1543.78 896.103L1526.74 896.103L1526.74 825.309L1543.78 825.309ZM1546.34 804.678C1546.34 806.15 1546.04 807.53 1545.44 808.818C1544.84 810.106 1544.05 811.233 1543.06 812.199C1542.07 813.165 1540.91 813.935 1539.57 814.51C1538.24 815.085 1536.81 815.373 1535.3 815.373C1533.82 815.373 1532.43 815.085 1531.12 814.51C1529.81 813.935 1528.67 813.165 1527.71 812.199C1526.74 811.233 1525.97 810.106 1525.4 808.818C1524.82 807.53 1524.53 806.15 1524.53 804.678C1524.53 803.16 1524.82 801.734 1525.4 800.4C1525.97 799.066 1526.74 797.916 1527.71 796.95C1528.67 795.984 1529.81 795.213 1531.12 794.638C1532.43 794.063 1533.82 793.776 1535.3 793.776C1536.81 793.776 1538.24 794.063 1539.57 794.638C1540.91 795.213 1542.07 795.984 1543.06 796.95C1544.05 797.916 1544.84 799.066 1545.44 800.4C1546.04 801.734 1546.34 803.16 1546.34 804.678Z" fill-rule="evenodd"/>
<path clip-path="url(#TextBounds_2)" d="M1618.51 896.103L1610.85 896.103C1609.24 896.103 1607.98 895.861 1607.06 895.378C1606.14 894.895 1605.45 893.918 1604.99 892.446L1603.47 887.409C1601.67 889.019 1599.92 890.433 1598.19 891.652C1596.47 892.871 1594.68 893.895 1592.84 894.723C1591 895.551 1589.05 896.172 1586.98 896.586C1584.91 897 1582.61 897.207 1580.08 897.207C1577.09 897.207 1574.33 896.804 1571.8 895.999C1569.27 895.194 1567.09 893.987 1565.28 892.377C1563.46 890.767 1562.05 888.766 1561.03 886.374C1560.02 883.982 1559.52 881.199 1559.52 878.025C1559.52 875.357 1560.22 872.723 1561.62 870.124C1563.02 867.525 1565.36 865.179 1568.62 863.086C1571.89 860.993 1576.24 859.257 1581.66 857.877C1587.09 856.497 1593.83 855.715 1601.88 855.531L1601.88 851.391C1601.88 846.653 1600.88 843.145 1598.88 840.868C1596.88 838.591 1593.97 837.453 1590.15 837.453C1587.39 837.453 1585.09 837.775 1583.25 838.419C1581.41 839.063 1579.81 839.787 1578.46 840.592C1577.1 841.397 1575.85 842.122 1574.7 842.766C1573.55 843.41 1572.28 843.732 1570.9 843.732C1569.75 843.732 1568.76 843.433 1567.93 842.835C1567.11 842.237 1566.44 841.501 1565.93 840.627L1562.83 835.176C1570.97 827.724 1580.79 823.998 1592.29 823.998C1596.43 823.998 1600.12 824.676 1603.37 826.033C1606.61 827.39 1609.36 829.276 1611.61 831.691C1613.86 834.106 1615.58 836.993 1616.75 840.351C1617.92 843.709 1618.51 847.389 1618.51 851.391L1618.51 896.103ZM1585.39 885.477C1587.14 885.477 1588.75 885.316 1590.22 884.994C1591.69 884.672 1593.08 884.189 1594.4 883.545C1595.71 882.901 1596.97 882.107 1598.19 881.164C1599.41 880.221 1600.64 879.106 1601.88 877.818L1601.88 865.881C1596.91 866.111 1592.76 866.536 1589.43 867.157C1586.09 867.778 1583.41 868.572 1581.39 869.538C1579.36 870.504 1577.93 871.631 1577.08 872.919C1576.23 874.207 1575.8 875.61 1575.8 877.128C1575.8 880.118 1576.69 882.257 1578.46 883.545C1580.23 884.833 1582.54 885.477 1585.39 885.477Z" fill-rule="evenodd"/>
</g>
<g fill="#000000" opacity="1" stroke="none">
<path clip-path="url(#TextBounds_3)" d="M449.53 261.984L439.18 263.64L439.18 189.258L424.69 189.258L424.69 265.986L381.496 272.886L383.704 286.962L424.69 280.476L424.69 316.218L439.18 316.218L439.18 278.13L451.876 276.06L449.53 261.984ZM397.918 196.296L387.706 206.232C397.918 213.132 405.784 219.756 411.304 225.966L421.24 215.892C414.892 209.406 407.026 202.92 397.918 196.296ZM393.778 228.036L383.566 237.972C393.778 245.424 401.782 252.462 407.302 258.81L417.652 248.46C411.028 241.698 403.162 234.936 393.778 228.036ZM326.572 224.448L326.572 238.386L345.892 238.386C340.786 251.772 332.92 263.778 322.156 274.266L328.504 290.412C336.232 280.752 342.718 269.988 347.686 258.396L347.686 316.08L362.176 316.08L362.176 257.154C366.04 261.294 370.594 266.814 375.976 273.576L384.118 261.432C376.666 254.67 369.352 248.598 362.176 243.078L362.176 238.386L379.288 238.386L379.288 224.448L362.176 224.448L362.176 206.37C368.248 205.266 373.906 203.886 379.426 202.506L374.32 188.982C360.244 193.122 344.374 195.744 326.572 197.124L329.47 210.648C335.68 210.096 341.752 209.406 347.686 208.578L347.686 224.448L326.572 224.448Z" fill-rule="evenodd"/>
<path clip-path="url(#TextBounds_3)" d="M585.736 215.478L560.758 215.478C565.312 209.544 569.728 202.23 574.144 193.674L559.24 188.154C555.238 197.814 550.546 206.922 545.026 215.478L523.912 215.478L535.366 209.682C531.226 201.54 526.81 194.088 522.394 187.326L509.284 193.674C513.838 200.022 518.116 207.336 522.118 215.478L494.794 215.478L503.074 211.338C498.658 203.61 494.242 196.572 489.55 190.224L476.44 196.572C480.994 202.092 485.272 208.44 489.412 215.478L465.124 215.478L465.124 249.84L479.338 249.84L479.338 229.278L571.384 229.278L571.384 249.84L585.736 249.84L585.736 215.478ZM488.032 236.73L488.032 249.426L541.852 249.426C536.332 252.186 529.018 255.36 519.91 259.224L519.91 269.436L465.952 269.436L465.952 282.96L519.91 282.96L519.91 298.278C519.91 301.59 518.53 303.384 515.908 303.384C509.974 303.384 504.454 303.246 499.486 302.97L503.074 316.08L520.738 316.08C529.846 316.08 534.4 311.664 534.4 303.108L534.4 282.96L585.322 282.96L585.322 269.436L534.4 269.436L534.4 265.572C544.888 260.328 554.41 254.946 562.966 249.426L562.966 236.73L488.032 236.73Z" fill-rule="evenodd"/>
</g>
<g fill="#000000" opacity="1" stroke="none">
<path clip-path="url(#TextBounds_4)" d="M235.817 783.877L235.817 706.321L250.307 706.321L250.307 691.279L162.815 691.279L162.815 706.321L216.359 706.321L216.359 738.751C216.359 747.445 211.667 754.897 202.283 754.897C195.521 754.897 190.829 750.895 190.829 743.995C190.829 734.197 200.075 731.023 207.389 733.507L206.009 716.671C187.241 713.635 170.819 723.985 170.819 743.995C170.819 760.417 183.101 771.319 198.833 771.319C207.527 771.319 213.047 768.145 215.807 765.523L216.359 765.523L216.359 783.877L235.817 783.877Z" fill-rule="evenodd"/>
<path clip-path="url(#TextBounds_4)" d="M217.187 684.655L229.193 672.787C222.845 665.197 204.491 650.431 176.201 650.431C152.465 650.431 137.147 661.747 137.147 682.171L137.147 691.279L122.657 691.279L122.657 706.321L137.147 706.321L137.147 783.877L156.605 783.877L156.605 706.321L171.095 706.321L171.095 691.279L156.605 691.279L156.605 682.171C156.605 672.097 163.091 666.991 175.925 666.991C195.521 666.991 209.183 675.547 217.187 684.655Z" fill-rule="evenodd"/>
<path clip-path="url(#TextBounds_4)" d="M285.773 796.435L304.955 787.189L285.083 774.217L285.083 773.665C295.295 774.079 305.507 767.455 305.507 754.897C305.507 743.719 296.261 737.785 286.877 735.715L286.877 735.163L318.065 735.163L318.065 783.877L337.661 783.877L337.661 706.321L352.151 706.321L352.151 691.279L242.027 691.279L242.027 706.321L318.065 706.321L318.065 719.983L266.729 719.983L261.071 732.127L261.071 733.507C278.045 737.647 286.601 745.651 286.601 752.413C286.601 759.313 282.047 762.625 275.147 762.625C273.629 762.625 272.111 762.349 270.731 762.073L255.689 749.101C250.169 751.999 247.961 756.001 247.961 760.969C247.961 769.249 254.861 775.459 266.729 776.149L285.773 796.435Z" fill-rule="evenodd"/>
<path clip-path="url(#TextBounds_4)" d="M377.819 706.321L392.309 706.321L392.309 691.279L343.871 691.279L343.871 706.321L358.361 706.321L358.361 783.877L377.819 783.877L377.819 706.321Z" fill-rule="evenodd"/>
<path clip-path="url(#TextBounds_4)" d="M405.005 760.969L414.113 756.553L414.113 741.373L434.813 741.373L434.813 783.877L454.271 783.877L454.271 706.321L468.761 706.321L468.761 691.279L384.029 691.279L384.029 706.321L434.813 706.321L434.813 724.675L402.935 724.675L389.549 734.197C389.549 749.101 396.725 757.243 405.005 760.969Z" fill-rule="evenodd"/>
</g>
<g fill="#000000" opacity="1" stroke="none">
<path clip-path="url(#TextBounds_5)" d="M1347.26 225.974L1357.03 188.509C1358.83 181.636 1359.72 176.897 1359.72 174.292C1359.72 168.946 1355.17 161.758 1346.05 152.729L1361.61 143.7C1366.55 147.833 1370.78 153.47 1374.28 160.613C1381.47 149.338 1390.09 143.7 1400.15 143.7C1407.75 143.7 1413.81 146.586 1418.35 152.359C1422.88 158.131 1425.58 166.408 1426.43 177.189L1428.72 206.029L1422.12 225.974L1383.17 225.974L1389.84 206.029L1411.07 206.029L1409.52 185.342C1408.44 170.878 1403.7 163.645 1395.3 163.645C1390.45 163.645 1386.37 166.06 1383.07 170.889C1379.77 175.718 1376.62 183.86 1373.61 195.315L1365.52 225.974L1347.26 225.974Z" fill-rule="evenodd"/>
<path clip-path="url(#TextBounds_5)" d="M1308.18 225.974L1308.18 165.262L1267.07 165.262L1273.74 145.317L1343.15 145.317L1336.48 165.262L1325.63 165.262L1325.63 225.974L1308.18 225.974Z" fill-rule="evenodd"/>
<path clip-path="url(#TextBounds_5)" d="M1176.51 237.968L1183.25 217.821C1190.44 217.821 1198.16 216.608 1206.43 214.182L1191.94 149.562L1208.65 143.7L1222.74 206.501C1229.79 201.155 1234.7 194.507 1237.46 186.555C1240.22 178.604 1241.6 167.216 1241.6 152.392L1241.6 145.317L1260.33 145.317L1260.33 150.303C1260.33 167.508 1257.7 181.861 1252.42 193.361C1247.14 204.861 1238.82 214.407 1227.45 221.999C1211.5 232.645 1194.52 237.968 1176.51 237.968Z" fill-rule="evenodd"/>
</g>
<g fill="#000000" opacity="1" stroke="none">
<path clip-path="url(#TextBounds_6)" d="M641.195 1060.73L681.146 1060.73L681.146 1076.05L622.634 1076.05L622.634 976.277L641.195 976.277L641.195 1060.73Z" fill-rule="evenodd"/>
<path clip-path="url(#TextBounds_6)" d="M748.49 1076.05L740.831 1076.05C739.221 1076.05 737.956 1075.81 737.036 1075.33C736.116 1074.84 735.426 1073.87 734.966 1072.39L733.448 1067.36C731.654 1068.97 729.894 1070.38 728.169 1071.6C726.444 1072.82 724.662 1073.84 722.822 1074.67C720.982 1075.5 719.027 1076.12 716.957 1076.53C714.887 1076.95 712.587 1077.16 710.057 1077.16C707.067 1077.16 704.307 1076.75 701.777 1075.95C699.247 1075.14 697.073 1073.94 695.256 1072.33C693.439 1070.72 692.025 1068.71 691.013 1066.32C690.001 1063.93 689.495 1061.15 689.495 1057.97C689.495 1055.31 690.196 1052.67 691.599 1050.07C693.002 1047.47 695.337 1045.13 698.603 1043.03C701.869 1040.94 706.216 1039.21 711.644 1037.83C717.072 1036.45 723.811 1035.66 731.861 1035.48L731.861 1031.34C731.861 1026.6 730.86 1023.09 728.859 1020.82C726.858 1018.54 723.949 1017.4 720.131 1017.4C717.371 1017.4 715.071 1017.72 713.231 1018.37C711.391 1019.01 709.792 1019.74 708.435 1020.54C707.078 1021.35 705.825 1022.07 704.675 1022.71C703.525 1023.36 702.26 1023.68 700.88 1023.68C699.73 1023.68 698.741 1023.38 697.913 1022.78C697.085 1022.19 696.418 1021.45 695.912 1020.58L692.807 1015.12C700.949 1007.67 710.77 1003.95 722.27 1003.95C726.41 1003.95 730.101 1004.62 733.344 1005.98C736.587 1007.34 739.336 1009.22 741.59 1011.64C743.844 1014.05 745.557 1016.94 746.73 1020.3C747.903 1023.66 748.49 1027.34 748.49 1031.34L748.49 1076.05ZM715.37 1065.43C717.118 1065.43 718.728 1065.26 720.2 1064.94C721.672 1064.62 723.063 1064.14 724.374 1063.49C725.685 1062.85 726.95 1062.06 728.169 1061.11C729.388 1060.17 730.619 1059.05 731.861 1057.77L731.861 1045.83C726.893 1046.06 722.741 1046.48 719.406 1047.11C716.071 1047.73 713.392 1048.52 711.368 1049.49C709.344 1050.45 707.906 1051.58 707.055 1052.87C706.204 1054.16 705.779 1055.56 705.779 1057.08C705.779 1060.07 706.664 1062.21 708.435 1063.49C710.206 1064.78 712.518 1065.43 715.37 1065.43Z" fill-rule="evenodd"/>
<path clip-path="url(#TextBounds_6)" d="M833.912 1019.06C833.452 1019.79 832.969 1020.31 832.463 1020.61C831.957 1020.91 831.313 1021.06 830.531 1021.06C829.703 1021.06 828.817 1020.83 827.874 1020.37C826.931 1019.91 825.839 1019.39 824.597 1018.82C823.355 1018.24 821.94 1017.72 820.353 1017.26C818.766 1016.8 816.892 1016.57 814.73 1016.57C811.372 1016.57 808.727 1017.29 806.795 1018.71C804.863 1020.14 803.897 1022 803.897 1024.3C803.897 1025.82 804.391 1027.1 805.38 1028.13C806.369 1029.17 807.68 1030.07 809.313 1030.86C810.946 1031.64 812.798 1032.34 814.868 1032.96C816.938 1033.58 819.054 1034.26 821.216 1035C823.378 1035.73 825.494 1036.57 827.564 1037.51C829.634 1038.46 831.485 1039.65 833.118 1041.1C834.751 1042.55 836.062 1044.29 837.051 1046.31C838.04 1048.34 838.535 1050.77 838.535 1053.63C838.535 1057.03 837.914 1060.17 836.672 1063.04C835.43 1065.92 833.613 1068.4 831.221 1070.5C828.829 1072.59 825.873 1074.22 822.354 1075.4C818.835 1076.57 814.799 1077.16 810.245 1077.16C807.807 1077.16 805.426 1076.94 803.103 1076.5C800.78 1076.06 798.549 1075.45 796.41 1074.67C794.271 1073.89 792.293 1072.97 790.476 1071.91C788.659 1070.85 787.061 1069.7 785.681 1068.46L789.614 1061.98C790.12 1061.19 790.718 1060.6 791.408 1060.18C792.098 1059.77 792.972 1059.56 794.03 1059.56C795.088 1059.56 796.088 1059.86 797.031 1060.46C797.974 1061.06 799.067 1061.7 800.309 1062.39C801.551 1063.08 803.011 1063.72 804.69 1064.32C806.369 1064.92 808.497 1065.22 811.073 1065.22C813.097 1065.22 814.833 1064.98 816.282 1064.49C817.731 1064.01 818.927 1063.38 819.87 1062.6C820.813 1061.81 821.503 1060.91 821.94 1059.87C822.377 1058.84 822.596 1057.77 822.596 1056.66C822.596 1055.01 822.101 1053.65 821.112 1052.59C820.123 1051.53 818.812 1050.61 817.179 1049.83C815.546 1049.05 813.683 1048.35 811.59 1047.73C809.497 1047.11 807.358 1046.43 805.173 1045.69C802.988 1044.96 800.849 1044.09 798.756 1043.1C796.663 1042.11 794.8 1040.86 793.167 1039.34C791.534 1037.83 790.223 1035.96 789.234 1033.75C788.245 1031.55 787.751 1028.88 787.751 1025.75C787.751 1022.85 788.326 1020.09 789.476 1017.47C790.626 1014.85 792.316 1012.56 794.547 1010.6C796.778 1008.65 799.561 1007.09 802.896 1005.91C806.231 1004.74 810.084 1004.15 814.454 1004.15C819.33 1004.15 823.769 1004.96 827.771 1006.57C831.773 1008.18 835.108 1010.29 837.776 1012.92L833.912 1019.06Z" fill-rule="evenodd"/>
<path clip-path="url(#TextBounds_6)" d="M901.946 1020.23C901.44 1020.87 900.945 1021.38 900.462 1021.75C899.979 1022.12 899.278 1022.3 898.358 1022.3C897.484 1022.3 896.633 1022.04 895.805 1021.51C894.977 1020.98 893.988 1020.38 892.838 1019.71C891.688 1019.05 890.319 1018.45 888.732 1017.92C887.145 1017.39 885.179 1017.13 882.833 1017.13C879.843 1017.13 877.221 1017.67 874.967 1018.75C872.713 1019.83 870.838 1021.38 869.343 1023.4C867.848 1025.43 866.733 1027.88 865.997 1030.75C865.261 1033.63 864.893 1036.88 864.893 1040.52C864.893 1044.29 865.295 1047.65 866.1 1050.59C866.905 1053.53 868.067 1056.01 869.585 1058.01C871.103 1060.01 872.943 1061.53 875.105 1062.56C877.267 1063.6 879.705 1064.11 882.419 1064.11C885.133 1064.11 887.329 1063.78 889.008 1063.11C890.687 1062.45 892.102 1061.71 893.252 1060.91C894.402 1060.1 895.402 1059.36 896.253 1058.7C897.104 1058.03 898.059 1057.7 899.117 1057.7C900.497 1057.7 901.532 1058.23 902.222 1059.28L907.121 1065.49C905.235 1067.7 903.188 1069.55 900.98 1071.05C898.772 1072.54 896.483 1073.74 894.114 1074.64C891.745 1075.53 889.296 1076.17 886.766 1076.53C884.236 1076.9 881.729 1077.09 879.245 1077.09C874.875 1077.09 870.758 1076.27 866.894 1074.64C863.03 1073 859.66 1070.62 856.785 1067.5C853.91 1064.37 851.633 1060.54 849.954 1056.01C848.275 1051.48 847.436 1046.31 847.436 1040.52C847.436 1035.32 848.183 1030.5 849.678 1026.06C851.173 1021.62 853.37 1017.78 856.268 1014.54C859.166 1011.29 862.754 1008.75 867.032 1006.91C871.31 1005.07 876.232 1004.15 881.798 1004.15C887.088 1004.15 891.722 1005 895.701 1006.71C899.68 1008.41 903.257 1010.85 906.431 1014.02L901.946 1020.23Z" fill-rule="evenodd"/>
<path clip-path="url(#TextBounds_6)" d="M936.17 1005.26L936.17 1076.05L919.127 1076.05L919.127 1005.26L936.17 1005.26ZM938.723 984.626C938.723 986.098 938.424 987.478 937.826 988.766C937.228 990.054 936.434 991.181 935.445 992.147C934.456 993.113 933.295 993.884 931.961 994.459C930.627 995.034 929.201 995.321 927.683 995.321C926.211 995.321 924.819 995.034 923.508 994.459C922.197 993.884 921.059 993.113 920.093 992.147C919.127 991.181 918.356 990.054 917.781 988.766C917.206 987.478 916.919 986.098 916.919 984.626C916.919 983.108 917.206 981.682 917.781 980.348C918.356 979.014 919.127 977.864 920.093 976.898C921.059 975.932 922.197 975.162 923.508 974.587C924.819 974.012 926.211 973.724 927.683 973.724C929.201 973.724 930.627 974.012 931.961 974.587C933.295 975.162 934.456 975.932 935.445 976.898C936.434 977.864 937.228 979.014 937.826 980.348C938.424 981.682 938.723 983.108 938.723 984.626Z" fill-rule="evenodd"/>
<path clip-path="url(#TextBounds_6)" d="M984.677 1004.15C989.139 1004.15 993.244 1004.87 996.993 1006.29C1000.74 1007.72 1003.97 1009.8 1006.69 1012.54C1009.4 1015.27 1011.52 1018.63 1013.04 1022.61C1014.55 1026.59 1015.31 1031.13 1015.31 1036.24C1015.31 1037.53 1015.26 1038.6 1015.14 1039.45C1015.03 1040.3 1014.82 1040.96 1014.52 1041.45C1014.22 1041.93 1013.82 1042.28 1013.31 1042.48C1012.81 1042.69 1012.16 1042.79 1011.38 1042.79L967.634 1042.79C968.14 1050.06 970.095 1055.4 973.499 1058.8C976.903 1062.21 981.411 1063.91 987.023 1063.91C989.783 1063.91 992.163 1063.59 994.164 1062.94C996.165 1062.3 997.913 1061.58 999.408 1060.8C1000.9 1060.02 1002.21 1059.31 1003.34 1058.66C1004.47 1058.02 1005.56 1057.7 1006.62 1057.7C1007.31 1057.7 1007.91 1057.84 1008.41 1058.11C1008.92 1058.39 1009.36 1058.78 1009.72 1059.28L1014.69 1065.49C1012.81 1067.7 1010.69 1069.55 1008.34 1071.05C1006 1072.54 1003.55 1073.74 1001 1074.64C998.442 1075.53 995.843 1076.17 993.198 1076.53C990.553 1076.9 987.989 1077.09 985.505 1077.09C980.583 1077.09 976.006 1076.27 971.774 1074.64C967.542 1073 963.862 1070.59 960.734 1067.39C957.606 1064.19 955.145 1060.24 953.351 1055.52C951.557 1050.81 950.66 1045.35 950.66 1039.14C950.66 1034.31 951.442 1029.76 953.006 1025.51C954.57 1021.25 956.812 1017.55 959.733 1014.4C962.654 1011.25 966.219 1008.75 970.428 1006.91C974.637 1005.07 979.387 1004.15 984.677 1004.15ZM985.022 1016.37C980.054 1016.37 976.167 1017.77 973.361 1020.58C970.555 1023.38 968.761 1027.36 967.979 1032.51L999.995 1032.51C999.995 1030.3 999.696 1028.22 999.098 1026.27C998.5 1024.31 997.58 1022.6 996.338 1021.13C995.096 1019.66 993.532 1018.49 991.646 1017.64C989.76 1016.79 987.552 1016.37 985.022 1016.37Z" fill-rule="evenodd"/>
<path clip-path="url(#TextBounds_6)" d="M1029.18 1076.05L1029.18 1005.26L1039.6 1005.26C1041.81 1005.26 1043.26 1006.29 1043.95 1008.36L1045.12 1013.95C1046.55 1012.48 1048.05 1011.15 1049.64 1009.95C1051.23 1008.75 1052.91 1007.72 1054.68 1006.84C1056.45 1005.97 1058.35 1005.3 1060.37 1004.84C1062.39 1004.38 1064.6 1004.15 1066.99 1004.15C1070.86 1004.15 1074.28 1004.81 1077.27 1006.12C1080.26 1007.43 1082.76 1009.27 1084.76 1011.64C1086.76 1014.01 1088.28 1016.84 1089.32 1020.13C1090.35 1023.42 1090.87 1027.04 1090.87 1030.99L1090.87 1076.05L1073.82 1076.05L1073.82 1030.99C1073.82 1026.67 1072.82 1023.32 1070.82 1020.95C1068.82 1018.59 1065.82 1017.4 1061.82 1017.4C1058.87 1017.4 1056.11 1018.07 1053.54 1019.4C1050.96 1020.74 1048.52 1022.55 1046.22 1024.85L1046.22 1076.05L1029.18 1076.05Z" fill-rule="evenodd"/>
<path clip-path="url(#TextBounds_6)" d="M1157.38 1020.23C1156.88 1020.87 1156.38 1021.38 1155.9 1021.75C1155.42 1022.12 1154.72 1022.3 1153.8 1022.3C1152.92 1022.3 1152.07 1022.04 1151.24 1021.51C1150.41 1020.98 1149.43 1020.38 1148.28 1019.71C1147.13 1019.05 1145.76 1018.45 1144.17 1017.92C1142.58 1017.39 1140.62 1017.13 1138.27 1017.13C1135.28 1017.13 1132.66 1017.67 1130.4 1018.75C1128.15 1019.83 1126.28 1021.38 1124.78 1023.4C1123.29 1025.43 1122.17 1027.88 1121.43 1030.75C1120.7 1033.63 1120.33 1036.88 1120.33 1040.52C1120.33 1044.29 1120.73 1047.65 1121.54 1050.59C1122.34 1053.53 1123.5 1056.01 1125.02 1058.01C1126.54 1060.01 1128.38 1061.53 1130.54 1062.56C1132.7 1063.6 1135.14 1064.11 1137.86 1064.11C1140.57 1064.11 1142.77 1063.78 1144.45 1063.11C1146.13 1062.45 1147.54 1061.71 1148.69 1060.91C1149.84 1060.1 1150.84 1059.36 1151.69 1058.7C1152.54 1058.03 1153.5 1057.7 1154.55 1057.7C1155.93 1057.7 1156.97 1058.23 1157.66 1059.28L1162.56 1065.49C1160.67 1067.7 1158.63 1069.55 1156.42 1071.05C1154.21 1072.54 1151.92 1073.74 1149.55 1074.64C1147.18 1075.53 1144.73 1076.17 1142.2 1076.53C1139.67 1076.9 1137.17 1077.09 1134.68 1077.09C1130.31 1077.09 1126.2 1076.27 1122.33 1074.64C1118.47 1073 1115.1 1070.62 1112.22 1067.5C1109.35 1064.37 1107.07 1060.54 1105.39 1056.01C1103.71 1051.48 1102.87 1046.31 1102.87 1040.52C1102.87 1035.32 1103.62 1030.5 1105.12 1026.06C1106.61 1021.62 1108.81 1017.78 1111.71 1014.54C1114.6 1011.29 1118.19 1008.75 1122.47 1006.91C1126.75 1005.07 1131.67 1004.15 1137.24 1004.15C1142.53 1004.15 1147.16 1005 1151.14 1006.71C1155.12 1008.41 1158.69 1010.85 1161.87 1014.02L1157.38 1020.23Z" fill-rule="evenodd"/>
<path clip-path="url(#TextBounds_6)" d="M1202.72 1004.15C1207.18 1004.15 1211.28 1004.87 1215.03 1006.29C1218.78 1007.72 1222.01 1009.8 1224.73 1012.54C1227.44 1015.27 1229.56 1018.63 1231.08 1022.61C1232.59 1026.59 1233.35 1031.13 1233.35 1036.24C1233.35 1037.53 1233.3 1038.6 1233.18 1039.45C1233.07 1040.3 1232.86 1040.96 1232.56 1041.45C1232.26 1041.93 1231.86 1042.28 1231.35 1042.48C1230.85 1042.69 1230.2 1042.79 1229.42 1042.79L1185.67 1042.79C1186.18 1050.06 1188.13 1055.4 1191.54 1058.8C1194.94 1062.21 1199.45 1063.91 1205.06 1063.91C1207.82 1063.91 1210.2 1063.59 1212.2 1062.94C1214.21 1062.3 1215.95 1061.58 1217.45 1060.8C1218.94 1060.02 1220.25 1059.31 1221.38 1058.66C1222.51 1058.02 1223.6 1057.7 1224.66 1057.7C1225.35 1057.7 1225.95 1057.84 1226.45 1058.11C1226.96 1058.39 1227.4 1058.78 1227.76 1059.28L1232.73 1065.49C1230.85 1067.7 1228.73 1069.55 1226.38 1071.05C1224.04 1072.54 1221.59 1073.74 1219.04 1074.64C1216.48 1075.53 1213.88 1076.17 1211.24 1076.53C1208.59 1076.9 1206.03 1077.09 1203.54 1077.09C1198.62 1077.09 1194.05 1076.27 1189.81 1074.64C1185.58 1073 1181.9 1070.59 1178.77 1067.39C1175.65 1064.19 1173.18 1060.24 1171.39 1055.52C1169.6 1050.81 1168.7 1045.35 1168.7 1039.14C1168.7 1034.31 1169.48 1029.76 1171.05 1025.51C1172.61 1021.25 1174.85 1017.55 1177.77 1014.4C1180.69 1011.25 1184.26 1008.75 1188.47 1006.91C1192.68 1005.07 1197.43 1004.15 1202.72 1004.15ZM1203.06 1016.37C1198.09 1016.37 1194.21 1017.77 1191.4 1020.58C1188.59 1023.38 1186.8 1027.36 1186.02 1032.51L1218.03 1032.51C1218.03 1030.3 1217.74 1028.22 1217.14 1026.27C1216.54 1024.31 1215.62 1022.6 1214.38 1021.13C1213.14 1019.66 1211.57 1018.49 1209.69 1017.64C1207.8 1016.79 1205.59 1016.37 1203.06 1016.37Z" fill-rule="evenodd"/>
</g>
<g fill="#000000" opacity="1" stroke="none">
<path clip-path="url(#TextBounds_7)" d="M117.054 525.534L117.054 481.263L78.1743 481.263L78.1743 525.534L57.4204 525.534L57.4204 426.481L78.1743 426.481L78.1743 464.148L117.054 464.148L117.054 426.481L137.741 426.481L137.741 525.534L117.054 525.534Z" fill-rule="evenodd"/>
<path clip-path="url(#TextBounds_7)" d="M190.097 479.713C190.771 479.623 191.501 479.489 192.287 479.309C193.073 479.129 193.803 478.826 194.477 478.399C195.151 477.973 195.712 477.389 196.162 476.647C196.611 475.906 196.835 474.907 196.835 473.649C196.835 472.436 196.645 471.324 196.263 470.313C195.881 469.303 195.241 468.427 194.342 467.686C193.444 466.944 192.242 466.372 190.737 465.967C189.232 465.563 187.357 465.361 185.111 465.361C182.55 465.361 180.495 465.619 178.945 466.136C177.396 466.652 176.171 467.371 175.273 468.292C174.375 469.213 173.723 470.291 173.319 471.526C172.915 472.762 172.623 474.076 172.443 475.468L153.374 475.468C153.374 474.57 153.52 473.323 153.812 471.728C154.104 470.134 154.643 468.393 155.429 466.506C156.215 464.62 157.315 462.71 158.73 460.779C160.146 458.847 162.01 457.084 164.323 455.489C166.637 453.894 169.456 452.581 172.78 451.547C176.104 450.514 180.08 449.975 184.707 449.93C191.265 449.93 196.577 450.593 200.643 451.918C204.708 453.243 207.875 454.973 210.144 457.106C212.412 459.24 213.939 461.621 214.726 464.249C215.512 466.877 215.905 469.494 215.905 472.099L215.905 511.046C215.905 513.248 216.028 515.056 216.275 516.471C216.522 517.886 216.848 519.009 217.252 519.84C217.657 520.671 218.117 521.277 218.634 521.659C219.15 522.041 219.701 522.322 220.285 522.501L220.285 525.534L199.194 525.534C198.834 524.68 198.441 523.546 198.015 522.131C197.588 520.716 197.375 518.998 197.375 516.976C195.892 518.503 194.443 519.918 193.028 521.221C191.613 522.524 190.03 523.658 188.278 524.624C186.526 525.59 184.504 526.353 182.213 526.915C179.922 527.477 177.16 527.757 173.925 527.757C170.646 527.757 167.625 527.274 164.862 526.309C162.1 525.343 159.708 523.916 157.686 522.03C155.665 520.143 154.092 517.785 152.969 514.955C151.846 512.124 151.285 508.845 151.285 505.117C151.285 502.107 151.756 499.311 152.7 496.728C153.643 494.144 154.979 491.876 156.709 489.922C158.438 487.968 160.55 486.351 163.043 485.07C165.536 483.79 168.333 482.925 171.432 482.476L190.097 479.713ZM176.216 513.674C177.384 514.034 178.642 514.213 179.99 514.213C180.708 514.213 181.629 514.135 182.752 513.978C183.875 513.82 185.066 513.517 186.324 513.068C187.582 512.619 188.839 512.001 190.097 511.215C191.355 510.429 192.478 509.407 193.466 508.149C194.455 506.891 195.263 505.353 195.892 503.533C196.521 501.714 196.835 499.569 196.835 497.098L196.835 489.686C195.667 490.315 194.5 490.888 193.332 491.404C192.164 491.921 190.614 492.359 188.682 492.718L183.628 493.662C181.427 494.066 179.496 494.538 177.833 495.077C176.171 495.616 174.79 496.323 173.689 497.199C172.589 498.075 171.758 499.142 171.196 500.4C170.635 501.658 170.354 503.23 170.354 505.117C170.354 506.689 170.601 508.048 171.095 509.193C171.589 510.339 172.274 511.282 173.15 512.023C174.026 512.765 175.048 513.315 176.216 513.674Z" fill-rule="evenodd"/>
<path clip-path="url(#TextBounds_7)" d="M263.544 506.195L278.571 452.086L298.988 452.086L273.719 524.321C272.282 528.543 270.979 532.216 269.811 535.338C268.643 538.46 267.486 541.155 266.341 543.424C265.195 545.692 263.982 547.557 262.702 549.017C261.422 550.477 259.928 551.633 258.221 552.487C256.514 553.34 254.515 553.936 252.224 554.272C249.933 554.609 247.215 554.778 244.071 554.778C242.813 554.778 241.634 554.744 240.533 554.677C239.433 554.609 238.119 554.508 236.591 554.373L236.591 538.943C237.355 539.033 238.298 539.123 239.421 539.212C240.544 539.302 241.488 539.347 242.251 539.347C244.273 539.347 245.98 538.965 247.373 538.202C248.765 537.438 249.877 536.528 250.708 535.473C251.539 534.417 252.134 533.328 252.494 532.205C252.853 531.082 253.033 530.138 253.033 529.374L226.147 452.086L247.507 452.086L263.275 506.195L263.544 506.195Z" fill-rule="evenodd"/>
<path clip-path="url(#TextBounds_7)" d="M383.755 525.534L358.891 525.534L337.329 494.538L329.647 502.287L329.647 525.534L310.578 525.534L310.578 452.086L329.647 452.086L329.647 479.983L357.139 452.086L382.475 452.086L352.153 482.611L383.755 525.534Z" fill-rule="evenodd"/>
<path clip-path="url(#TextBounds_7)" d="M427.891 479.713C428.565 479.623 429.295 479.489 430.081 479.309C430.867 479.129 431.597 478.826 432.271 478.399C432.945 477.973 433.506 477.389 433.956 476.647C434.405 475.906 434.629 474.907 434.629 473.649C434.629 472.436 434.438 471.324 434.057 470.313C433.675 469.303 433.035 468.427 432.136 467.686C431.238 466.944 430.036 466.372 428.531 465.967C427.026 465.563 425.151 465.361 422.905 465.361C420.344 465.361 418.289 465.619 416.739 466.136C415.189 466.652 413.965 467.371 413.067 468.292C412.168 469.213 411.517 470.291 411.113 471.526C410.708 472.762 410.417 474.076 410.237 475.468L391.167 475.468C391.167 474.57 391.313 473.323 391.605 471.728C391.897 470.134 392.437 468.393 393.223 466.506C394.009 464.62 395.109 462.71 396.524 460.779C397.939 458.847 399.804 457.084 402.117 455.489C404.431 453.894 407.25 452.581 410.574 451.547C413.898 450.514 417.874 449.975 422.5 449.93C429.059 449.93 434.371 450.593 438.437 451.918C442.502 453.243 445.669 454.973 447.937 457.106C450.206 459.24 451.733 461.621 452.52 464.249C453.306 466.877 453.699 469.494 453.699 472.099L453.699 511.046C453.699 513.248 453.822 515.056 454.069 516.471C454.316 517.886 454.642 519.009 455.046 519.84C455.451 520.671 455.911 521.277 456.428 521.659C456.944 522.041 457.495 522.322 458.079 522.501L458.079 525.534L436.988 525.534C436.628 524.68 436.235 523.546 435.809 522.131C435.382 520.716 435.168 518.998 435.168 516.976C433.686 518.503 432.237 519.918 430.822 521.221C429.407 522.524 427.824 523.658 426.072 524.624C424.32 525.59 422.298 526.353 420.007 526.915C417.716 527.477 414.954 527.757 411.719 527.757C408.44 527.757 405.419 527.274 402.656 526.309C399.894 525.343 397.501 523.916 395.48 522.03C393.458 520.143 391.886 517.785 390.763 514.955C389.64 512.124 389.079 508.845 389.079 505.117C389.079 502.107 389.55 499.311 390.494 496.728C391.437 494.144 392.773 491.876 394.503 489.922C396.232 487.968 398.344 486.351 400.837 485.07C403.33 483.79 406.126 482.925 409.226 482.476L427.891 479.713ZM414.01 513.674C415.178 514.034 416.436 514.213 417.784 514.213C418.502 514.213 419.423 514.135 420.546 513.978C421.669 513.82 422.86 513.517 424.118 513.068C425.375 512.619 426.633 512.001 427.891 511.215C429.149 510.429 430.272 509.407 431.26 508.149C432.249 506.891 433.057 505.353 433.686 503.533C434.315 501.714 434.629 499.569 434.629 497.098L434.629 489.686C433.461 490.315 432.293 490.888 431.125 491.404C429.958 491.921 428.408 492.359 426.476 492.718L421.422 493.662C419.221 494.066 417.29 494.538 415.627 495.077C413.965 495.616 412.584 496.323 411.483 497.199C410.383 498.075 409.552 499.142 408.99 500.4C408.429 501.658 408.148 503.23 408.148 505.117C408.148 506.689 408.395 508.048 408.889 509.193C409.383 510.339 410.068 511.282 410.944 512.023C411.82 512.765 412.842 513.315 414.01 513.674Z" fill-rule="evenodd"/>
</g>
<g fill="#000000" opacity="1" stroke="none">
<path clip-path="url(#TextBounds_8)" d="M1584.28 419.534L1574.74 438.5L1523.83 443.865L1506.42 443.865L1506.42 424.088L1529.38 424.088C1523.6 415.604 1520.71 409.864 1520.71 406.869C1520.71 401.837 1524.02 396.149 1530.63 389.807C1537.24 383.464 1543.42 380.292 1549.16 380.292C1553.86 380.292 1558.59 382.788 1563.35 387.779C1568.11 392.77 1570.83 397.782 1571.49 402.814C1570.91 402.107 1569.08 400.724 1566 398.665C1562.93 396.607 1559.58 395.577 1555.96 395.577C1549.14 395.536 1542.48 397.033 1536 400.069L1535.93 400.443C1535.93 401.317 1536.98 403.303 1539.08 406.401C1541.18 409.5 1543.15 411.84 1544.98 413.42C1546.81 414.959 1549.26 416.82 1552.34 419.004C1555.42 421.187 1557.48 422.445 1558.52 422.778L1584.28 419.534Z" fill-rule="evenodd"/>
<path clip-path="url(#TextBounds_8)" d="M1510.17 443.865L1460.63 443.865L1460.63 424.088L1487.15 424.088L1487.15 362.824L1500.25 351.532L1500.25 424.088L1510.17 424.088L1510.17 443.865Z" fill-rule="evenodd"/>
<path clip-path="url(#TextBounds_8)" d="M1460.01 443.865C1458.22 452.724 1453.86 461.489 1446.94 470.161C1440.01 478.833 1430.79 483.169 1419.27 483.169C1413.86 483.169 1407.37 480.756 1399.8 475.932C1395.52 472.937 1391.94 470.13 1389.07 467.509C1386.2 464.889 1383.6 461.708 1381.28 457.964C1384.6 458.755 1389.03 460.023 1394.56 461.77C1400.18 463.35 1405.04 464.161 1409.16 464.203C1417.69 464.161 1426.05 462.248 1434.24 458.463C1442.44 454.679 1447.63 450.187 1449.84 444.988C1449.38 445.029 1448.95 445.061 1448.56 445.081C1448.16 445.102 1447.78 445.113 1447.41 445.113C1441.08 445.113 1434.3 443.906 1427.07 441.494C1419.83 439.082 1416.21 435.9 1416.21 431.949C1416.21 419.929 1418.92 409.074 1424.32 399.383C1429.44 391.106 1434.39 386.968 1439.17 386.968C1444.7 386.968 1449.8 391.668 1454.46 401.067C1458.41 408.928 1460.69 416.602 1461.32 424.088L1465.37 424.088L1465.37 443.865L1460.01 443.865ZM1449.15 424.151C1449.11 422.57 1447.82 420.064 1445.28 416.633C1442.75 413.202 1440.54 410.976 1438.67 409.958C1436.8 408.939 1435.01 408.429 1433.31 408.429C1432.39 408.429 1431.49 408.741 1430.59 409.365C1429.7 409.989 1428.89 410.8 1428.16 411.798C1427.43 412.796 1426.86 413.898 1426.44 415.104C1426.03 416.311 1425.82 417.434 1425.82 418.473C1425.82 420.511 1428.69 422.248 1434.43 423.683C1440.17 425.118 1443.93 425.835 1445.72 425.835C1448.01 425.835 1449.15 425.274 1449.15 424.151Z" fill-rule="evenodd"/>
<path clip-path="url(#TextBounds_8)" d="M1386.02 424.525L1377.84 444.114C1375.18 443.865 1372.29 443.678 1369.17 443.553C1366.05 443.428 1362.58 443.158 1358.75 442.742C1342.53 441.91 1334.4 442.825 1334.36 445.487L1334.92 447.795C1335.09 448.294 1335.36 449.365 1335.73 451.008C1336.11 452.651 1336.84 455.51 1337.92 459.586C1339.21 465.409 1340.11 470.65 1340.63 475.308C1341.15 479.966 1341.37 484.125 1341.29 487.785C1341.29 492.277 1339.66 497.351 1336.42 503.008C1335.71 495.521 1334.82 488.492 1333.74 481.921C1332.66 475.349 1331.39 469.173 1329.93 463.392C1328.52 459.441 1327.55 456.093 1327.03 453.348C1326.51 450.603 1326.25 448.44 1326.25 446.859C1328.33 435.422 1331.05 428.746 1334.42 426.833C1336.34 425.793 1340.73 425.232 1347.62 425.149C1354.5 425.066 1359.21 425.024 1361.75 425.024C1362.66 425.024 1363.35 425.107 1363.81 425.274L1350.21 407.868L1332.8 416.851L1332.93 414.293C1332.97 412.879 1336.29 407.888 1342.91 399.321C1347.69 394.496 1352.14 392.084 1356.26 392.084C1359.96 392.084 1363.27 394.142 1366.18 398.26C1368.67 402.336 1371.27 406.745 1373.98 411.486C1375.39 414.772 1376.66 417.434 1377.78 419.472C1378.9 421.509 1381.65 423.194 1386.02 424.525Z" fill-rule="evenodd"/>
</g>
<g fill="#000000" opacity="1" stroke="none">
<path clip-path="url(#TextBounds_9)" d="M1368.81 600.807C1368.31 601.819 1367.72 602.532 1367.05 602.946C1366.39 603.36 1365.59 603.567 1364.67 603.567C1363.75 603.567 1362.72 603.211 1361.57 602.498C1360.42 601.785 1359.06 600.991 1357.5 600.117C1355.93 599.243 1354.1 598.45 1352.01 597.737C1349.92 597.024 1347.45 596.667 1344.59 596.667C1342.02 596.667 1339.78 596.978 1337.87 597.599C1335.96 598.22 1334.35 599.082 1333.04 600.186C1331.73 601.29 1330.75 602.613 1330.1 604.154C1329.46 605.695 1329.14 607.385 1329.14 609.225C1329.14 611.571 1329.79 613.526 1331.1 615.09C1332.42 616.654 1334.15 617.988 1336.31 619.092C1338.48 620.196 1340.94 621.185 1343.7 622.059C1346.46 622.933 1349.27 623.865 1352.15 624.854C1355.02 625.843 1357.84 626.993 1360.6 628.304C1363.36 629.615 1365.82 631.271 1367.98 633.272C1370.15 635.273 1371.88 637.722 1373.19 640.62C1374.51 643.518 1375.16 647.037 1375.16 651.177C1375.16 655.685 1374.39 659.906 1372.85 663.839C1371.31 667.772 1369.05 671.199 1366.09 674.12C1363.12 677.041 1359.5 679.341 1355.22 681.02C1350.94 682.699 1346.04 683.538 1340.52 683.538C1337.35 683.538 1334.22 683.228 1331.14 682.607C1328.06 681.986 1325.1 681.1 1322.27 679.95C1319.44 678.8 1316.8 677.42 1314.34 675.81C1311.88 674.2 1309.68 672.406 1307.75 670.428L1313.13 661.527C1313.64 660.883 1314.25 660.343 1314.96 659.906C1315.67 659.469 1316.46 659.25 1317.34 659.25C1318.49 659.25 1319.73 659.722 1321.06 660.665C1322.4 661.608 1323.97 662.654 1325.79 663.804C1327.61 664.954 1329.75 666.001 1332.21 666.944C1334.67 667.887 1337.62 668.358 1341.07 668.358C1346.36 668.358 1350.46 667.105 1353.36 664.598C1356.25 662.091 1357.7 658.491 1357.7 653.799C1357.7 651.177 1357.05 649.038 1355.74 647.382C1354.43 645.726 1352.69 644.335 1350.53 643.208C1348.37 642.081 1345.9 641.126 1343.14 640.344C1340.38 639.562 1337.58 638.711 1334.73 637.791C1331.87 636.871 1329.07 635.767 1326.31 634.479C1323.55 633.191 1321.09 631.512 1318.93 629.442C1316.76 627.372 1315.03 624.785 1313.72 621.68C1312.41 618.575 1311.75 614.745 1311.75 610.191C1311.75 606.557 1312.47 603.015 1313.92 599.565C1315.37 596.115 1317.49 593.056 1320.27 590.388C1323.05 587.72 1326.47 585.581 1330.52 583.971C1334.57 582.361 1339.19 581.556 1344.39 581.556C1350.27 581.556 1355.7 582.476 1360.67 584.316C1365.64 586.156 1369.87 588.732 1373.37 592.044L1368.81 600.807Z" fill-rule="evenodd"/>
<path clip-path="url(#TextBounds_9)" d="M1443.88 682.434L1436.23 682.434C1434.62 682.434 1433.35 682.193 1432.43 681.71C1431.51 681.227 1430.82 680.249 1430.36 678.777L1428.84 673.74C1427.05 675.35 1425.29 676.765 1423.56 677.984C1421.84 679.203 1420.06 680.226 1418.22 681.054C1416.38 681.882 1414.42 682.503 1412.35 682.917C1410.28 683.331 1407.98 683.538 1405.45 683.538C1402.46 683.538 1399.7 683.136 1397.17 682.331C1394.64 681.526 1392.47 680.318 1390.65 678.708C1388.83 677.098 1387.42 675.097 1386.41 672.705C1385.4 670.313 1384.89 667.53 1384.89 664.356C1384.89 661.688 1385.59 659.055 1386.99 656.456C1388.4 653.857 1390.73 651.511 1394 649.418C1397.26 647.325 1401.61 645.588 1407.04 644.208C1412.47 642.828 1419.21 642.046 1427.26 641.862L1427.26 637.722C1427.26 632.984 1426.26 629.477 1424.25 627.2C1422.25 624.923 1419.34 623.784 1415.53 623.784C1412.77 623.784 1410.47 624.106 1408.63 624.75C1406.79 625.394 1405.19 626.119 1403.83 626.924C1402.47 627.729 1401.22 628.453 1400.07 629.097C1398.92 629.741 1397.65 630.063 1396.27 630.063C1395.12 630.063 1394.14 629.764 1393.31 629.166C1392.48 628.568 1391.81 627.832 1391.31 626.958L1388.2 621.507C1396.34 614.055 1406.16 610.329 1417.66 610.329C1421.8 610.329 1425.5 611.008 1428.74 612.365C1431.98 613.722 1434.73 615.608 1436.98 618.023C1439.24 620.438 1440.95 623.324 1442.13 626.682C1443.3 630.04 1443.88 633.72 1443.88 637.722L1443.88 682.434ZM1410.76 671.808C1412.51 671.808 1414.12 671.647 1415.59 671.325C1417.07 671.003 1418.46 670.52 1419.77 669.876C1421.08 669.232 1422.35 668.439 1423.56 667.496C1424.78 666.553 1426.01 665.437 1427.26 664.149L1427.26 652.212C1422.29 652.442 1418.14 652.868 1414.8 653.489C1411.47 654.11 1408.79 654.903 1406.76 655.869C1404.74 656.835 1403.3 657.962 1402.45 659.25C1401.6 660.538 1401.17 661.941 1401.17 663.459C1401.17 666.449 1402.06 668.588 1403.83 669.876C1405.6 671.164 1407.91 671.808 1410.76 671.808Z" fill-rule="evenodd"/>
<path clip-path="url(#TextBounds_9)" d="M1478.8 611.64L1478.8 682.434L1461.76 682.434L1461.76 611.64L1478.8 611.64ZM1481.35 591.009C1481.35 592.481 1481.05 593.861 1480.45 595.149C1479.86 596.437 1479.06 597.564 1478.07 598.53C1477.09 599.496 1475.92 600.267 1474.59 600.842C1473.26 601.417 1471.83 601.704 1470.31 601.704C1468.84 601.704 1467.45 601.417 1466.14 600.842C1464.83 600.267 1463.69 599.496 1462.72 598.53C1461.76 597.564 1460.99 596.437 1460.41 595.149C1459.84 593.861 1459.55 592.481 1459.55 591.009C1459.55 589.491 1459.84 588.065 1460.41 586.731C1460.99 585.397 1461.76 584.247 1462.72 583.281C1463.69 582.315 1464.83 581.545 1466.14 580.97C1467.45 580.395 1468.84 580.107 1470.31 580.107C1471.83 580.107 1473.26 580.395 1474.59 580.97C1475.92 581.545 1477.09 582.315 1478.07 583.281C1479.06 584.247 1479.86 585.397 1480.45 586.731C1481.05 588.065 1481.35 589.491 1481.35 591.009Z" fill-rule="evenodd"/>
<path clip-path="url(#TextBounds_9)" d="M1498.05 682.434L1498.05 611.64L1508.47 611.64C1510.68 611.64 1512.13 612.675 1512.82 614.745L1513.99 620.334C1515.41 618.862 1516.92 617.528 1518.51 616.332C1520.1 615.136 1521.77 614.101 1523.55 613.227C1525.32 612.353 1527.21 611.686 1529.24 611.226C1531.26 610.766 1533.47 610.536 1535.86 610.536C1539.73 610.536 1543.15 611.192 1546.14 612.503C1549.13 613.814 1551.63 615.654 1553.63 618.023C1555.63 620.392 1557.15 623.221 1558.18 626.51C1559.22 629.799 1559.74 633.421 1559.74 637.377L1559.74 682.434L1542.69 682.434L1542.69 637.377C1542.69 633.053 1541.69 629.707 1539.69 627.338C1537.69 624.969 1534.69 623.784 1530.69 623.784C1527.74 623.784 1524.98 624.451 1522.41 625.785C1519.83 627.119 1517.39 628.936 1515.09 631.236L1515.09 682.434L1498.05 682.434Z" fill-rule="evenodd"/>
<path clip-path="url(#TextBounds_9)" d="M1618.52 625.44C1618.06 626.176 1617.58 626.694 1617.07 626.993C1616.57 627.292 1615.92 627.441 1615.14 627.441C1614.31 627.441 1613.43 627.211 1612.49 626.751C1611.54 626.291 1610.45 625.774 1609.21 625.199C1607.97 624.624 1606.55 624.106 1604.97 623.646C1603.38 623.186 1601.5 622.956 1599.34 622.956C1595.98 622.956 1593.34 623.669 1591.41 625.095C1589.47 626.521 1588.51 628.384 1588.51 630.684C1588.51 632.202 1589 633.479 1589.99 634.514C1590.98 635.549 1592.29 636.457 1593.93 637.239C1595.56 638.021 1597.41 638.723 1599.48 639.344C1601.55 639.965 1603.67 640.643 1605.83 641.379C1607.99 642.115 1610.11 642.955 1612.18 643.898C1614.25 644.841 1616.1 646.037 1617.73 647.486C1619.36 648.935 1620.67 650.671 1621.66 652.695C1622.65 654.719 1623.15 657.157 1623.15 660.009C1623.15 663.413 1622.53 666.553 1621.28 669.428C1620.04 672.303 1618.22 674.787 1615.83 676.88C1613.44 678.973 1610.49 680.606 1606.97 681.779C1603.45 682.952 1599.41 683.538 1594.86 683.538C1592.42 683.538 1590.04 683.32 1587.72 682.883C1585.39 682.446 1583.16 681.836 1581.02 681.054C1578.88 680.272 1576.91 679.352 1575.09 678.294C1573.27 677.236 1571.67 676.086 1570.29 674.844L1574.23 668.358C1574.73 667.576 1575.33 666.978 1576.02 666.564C1576.71 666.15 1577.58 665.943 1578.64 665.943C1579.7 665.943 1580.7 666.242 1581.64 666.84C1582.59 667.438 1583.68 668.082 1584.92 668.772C1586.16 669.462 1587.62 670.106 1589.3 670.704C1590.98 671.302 1593.11 671.601 1595.68 671.601C1597.71 671.601 1599.45 671.36 1600.89 670.877C1602.34 670.394 1603.54 669.761 1604.48 668.979C1605.43 668.197 1606.12 667.289 1606.55 666.254C1606.99 665.219 1607.21 664.149 1607.21 663.045C1607.21 661.389 1606.71 660.032 1605.72 658.974C1604.74 657.916 1603.42 656.996 1601.79 656.214C1600.16 655.432 1598.3 654.731 1596.2 654.11C1594.11 653.489 1591.97 652.81 1589.79 652.074C1587.6 651.338 1585.46 650.476 1583.37 649.487C1581.28 648.498 1579.41 647.244 1577.78 645.726C1576.15 644.208 1574.84 642.345 1573.85 640.137C1572.86 637.929 1572.36 635.261 1572.36 632.133C1572.36 629.235 1572.94 626.475 1574.09 623.853C1575.24 621.231 1576.93 618.943 1579.16 616.988C1581.39 615.033 1584.17 613.469 1587.51 612.296C1590.84 611.123 1594.7 610.536 1599.07 610.536C1603.94 610.536 1608.38 611.341 1612.38 612.951C1616.38 614.561 1619.72 616.677 1622.39 619.299L1618.52 625.44Z" fill-rule="evenodd"/>
</g>
</g>
</svg>
