<?xml version="1.0" encoding="UTF-8" standalone="no"?>
<!DOCTYPE svg PUBLIC "-//W3C//DTD SVG 1.1//EN" "http://www.w3.org/Graphics/SVG/1.1/DTD/svg11.dtd">

<!-- Created with Vectornator (http://vectornator.io/) -->
<svg height="100%" stroke-miterlimit="10" style="fill-rule:nonzero;clip-rule:evenodd;stroke-linecap:round;stroke-linejoin:round;" version="1.1" viewBox="0 0 2116.08 1616.75" width="100%" xml:space="preserve" xmlns="http://www.w3.org/2000/svg" xmlns:vectornator="http://vectornator.io" xmlns:xlink="http://www.w3.org/1999/xlink">
<metadata>
<vectornator:setting key="IsTimeLapseWatermarkDisabled" value="false"/>
<vectornator:setting key="UndoHistoryDisabled" value="true"/>
<vectornator:setting key="VNDimensionsVisible" value="true"/>
<vectornator:setting key="VNSnapToGuides" value="true"/>
<vectornator:setting key="WDCMYKEnabledKey" value="false"/>
<vectornator:setting key="WDDisplayWhiteBackground" value="false"/>
<vectornator:setting key="WDDynamicGuides" value="false"/>
<vectornator:setting key="WDGuidesVisible" value="true"/>
<vectornator:setting key="WDIsolateActiveLayer" value="false"/>
<vectornator:setting key="WDOutlineMode" value="false"/>
<vectornator:setting key="WDRulersVisible" value="true"/>
<vectornator:setting key="WDSnapToEdges" value="false"/>
<vectornator:setting key="WDSnapToGrid" value="false"/>
<vectornator:setting key="WDSnapToPoints" value="false"/>
<vectornator:setting key="WDUnits" value="Points"/>
</metadata>
<defs>
<linearGradient gradientTransform="matrix(567.109 445.558 -445.557 567.11 1679.31 1202.49)" gradientUnits="userSpaceOnUse" id="LinearGradient" x1="0" x2="1" y1="0" y2="0">
<stop offset="0" stop-color="#82b5b2"/>
<stop offset="0.57" stop-color="#9ac1bb"/>
<stop offset="0.8" stop-color="#ced9cf"/>
<stop offset="1" stop-color="#fff1e2"/>
</linearGradient>
</defs>
<g id="Untitled" vectornator:layerName="Untitled">
<g opacity="1">
<g opacity="1">
<path d="M1150.13 918.096L1906.23 918.096L1906.23 918.096L1906.23 1530.22L1906.23 1530.22L1150.13 1530.22L1150.13 1530.22L1150.13 918.096L1150.13 918.096Z" fill="#155263" fill-opacity="0.485688" fill-rule="evenodd" opacity="1" stroke="none"/>
<path d="M1368.51 1198.85L1250.11 1198.85L1250.11 1455.94L1368.51 1455.94L1368.51 1198.85ZM1832.93 1211.05L1714.54 1211.05L1714.54 1455.94L1832.93 1455.94L1832.93 1211.05ZM1678.13 1142.45L1559.72 1142.45L1559.72 1455.94L1678.13 1455.94L1678.13 1142.45ZM1523.32 1054.67L1404.91 1054.67L1404.91 1455.94L1523.32 1455.94L1523.32 1054.67ZM1799.62 1170.72L1746.31 1170.72L1746.31 1199.84L1799.62 1199.84L1799.62 1170.72ZM1333.69 1159.4L1280.38 1159.4L1280.38 1188.51L1333.69 1188.51L1333.69 1159.4ZM1645.58 1104.9L1592.27 1104.9L1592.27 1134.02L1645.58 1134.02L1645.58 1104.9ZM1488.85 1015.1L1435.56 1015.1L1435.56 1044.22L1488.85 1044.22L1488.85 1015.1Z" fill="#155263" fill-opacity="0.485688" fill-rule="evenodd" opacity="1" stroke="none"/>
</g>
<path d="M1591.63 1409.54L1824.28 1157.99C1827.6 1154.4 1833.18 1154.22 1836.72 1157.6C1840.25 1160.99 1840.42 1166.66 1837.1 1170.25L1597.21 1429.64C1595.41 1431.57 1592.86 1432.6 1590.27 1432.44C1587.66 1432.28 1585.24 1430.94 1583.71 1428.8L1417.01 1197.7L1239.04 1438.39C1236.12 1442.34 1230.61 1443.14 1226.72 1440.17C1222.84 1437.2 1222.05 1431.59 1224.98 1427.64L1410.06 1177.31C1411.73 1175.04 1414.36 1173.72 1417.14 1173.73C1419.92 1173.75 1422.53 1175.11 1424.19 1177.39L1591.63 1409.54Z" fill="#155263" fill-opacity="0.485688" fill-rule="evenodd" opacity="1" stroke="none"/>
</g>
<path d="M1477.62 345.344C1476.7 342.756 1476.2 339.969 1476.2 337.066C1476.2 323.46 1487.24 312.414 1500.85 312.414C1514.45 312.414 1525.5 323.46 1525.5 337.066C1525.5 350.671 1514.45 361.718 1500.85 361.718C1497.54 361.718 1494.39 361.065 1491.5 359.883L1244.78 648.37C1246.36 651.621 1247.25 655.271 1247.25 659.127C1247.25 672.733 1236.2 683.779 1222.6 683.779C1208.99 683.779 1197.95 672.733 1197.95 659.127C1197.95 658.454 1197.97 657.787 1198.03 657.127L1174.53 640.819C1170.35 644.063 1165.11 645.996 1159.42 645.996C1156.66 645.996 1154.01 645.543 1151.54 644.709L902.296 973.175C903.056 975.555 903.466 978.085 903.466 980.715C903.466 994.315 892.426 1005.37 878.816 1005.37C865.206 1005.37 854.166 994.315 854.166 980.715C854.166 979.385 854.266 978.085 854.466 976.825L700.836 822.845C697.406 824.655 693.496 825.685 689.346 825.685C686.866 825.685 684.466 825.315 682.206 824.625L414.667 1241.13C416.85 1244.81 418.104 1249.1 418.104 1253.69C418.104 1267.29 407.058 1278.34 393.452 1278.34C379.846 1278.34 368.8 1267.29 368.8 1253.69C368.8 1240.08 379.846 1229.03 393.452 1229.03C395.13 1229.03 396.768 1229.2 398.353 1229.52L666.956 811.355C665.506 808.215 664.696 804.715 664.696 801.035C664.696 787.425 675.746 776.375 689.346 776.375C702.956 776.375 714.006 787.425 714.006 801.035C714.006 803.085 713.746 805.085 713.276 806.995L865.746 959.815C869.536 957.435 874.016 956.065 878.816 956.065C882.306 956.065 885.626 956.785 888.636 958.095L1136.77 631.089C1135.48 628.101 1134.76 624.805 1134.76 621.344C1134.76 607.738 1145.81 596.692 1159.42 596.692C1173.02 596.692 1184.07 607.738 1184.07 621.344C1184.07 621.919 1184.05 622.49 1184.01 623.056L1207.7 639.493C1211.84 636.345 1217 634.475 1222.6 634.475C1225 634.475 1227.32 634.819 1229.51 635.458L1477.62 345.344Z" fill="#000000" fill-opacity="0.651277" fill-rule="evenodd" opacity="1" stroke="none"/>
<g opacity="1">
<path d="M200.318 135.691L983.721 135.691L983.721 135.691L983.721 727.47L983.721 727.47L200.318 727.47L200.318 727.47L200.318 135.691L200.318 135.691Z" fill="#155263" fill-opacity="0.505778" fill-rule="evenodd" opacity="1" stroke="none"/>
<path d="M357.503 235.697L304.198 235.697L304.198 669.83L357.503 669.83L357.503 235.697ZM463.269 196.947L409.965 196.947L409.965 669.6L463.269 669.6L463.269 196.947ZM569.037 296.138L515.733 296.138L515.733 669.35L569.037 669.35L569.037 296.138ZM674.807 234.564L621.499 234.564L621.499 669.077L674.807 669.077L674.807 234.564ZM780.577 355.292L727.272 355.292L727.272 668.781L780.577 668.781L780.577 355.292ZM886.334 442.916L833.029 442.916L833.029 668.458L886.334 668.458L886.334 442.916Z" fill="#155263" fill-opacity="0.505778" fill-rule="evenodd" opacity="1" stroke="none"/>
</g>
<path d="M1096.32 1345.35L989.817 1345.35L989.817 1203.7L916.925 1203.7L1043.07 1020.78L1169.21 1203.7L1096.32 1203.7L1096.32 1345.35Z" fill="#ff6f3c" fill-rule="evenodd" opacity="1" stroke="none"/>
<path d="M1673.53 163.218L1780.03 163.218L1780.03 304.87L1852.93 304.87L1726.78 487.791L1600.64 304.87L1673.53 304.87L1673.53 163.218Z" fill="#ff9a3c" fill-rule="evenodd" opacity="1" stroke="none"/>
<g opacity="1">
<path d="M1230.89 820.985C1230.89 721.269 1310.36 640.433 1408.39 640.433C1506.42 640.433 1585.89 721.269 1585.89 820.985C1585.89 920.7 1506.42 1001.54 1408.39 1001.54C1310.36 1001.54 1230.89 920.7 1230.89 820.985Z" fill="#ff9a3c" fill-opacity="0.690887" fill-rule="evenodd" opacity="1" stroke="none"/>
<g opacity="1">
<path d="M1366.95 697.809L1360.42 700.177L1357.19 690.959L1368.58 686.828C1371.28 685.849 1374.18 687.124 1375.07 689.669L1380.53 705.259C1390.65 702.067 1400.75 700.114 1410.81 699.396C1423.66 698.475 1436.47 699.567 1449.23 702.669C1450.67 703.012 1451.84 703.964 1452.45 705.251C1453.05 706.543 1453.03 708.047 1452.39 709.382L1438.01 738.949C1436.93 741.174 1434.37 742.389 1431.95 741.823C1419.43 738.896 1406.59 738.999 1393.45 742.121L1411.66 794.071C1462.01 786.447 1492.08 799.573 1502.63 831.713C1508.43 849.145 1506.65 865.976 1497.34 882.128C1488.97 897.263 1475.2 910.047 1455.93 920.356L1465.32 947.144C1466.21 949.685 1464.76 952.532 1462.06 953.511L1450.88 957.566L1447.65 948.358L1453.97 946.065L1444.78 919.859C1443.97 917.525 1445.12 914.899 1447.47 913.734C1466.65 904.204 1480.32 892.286 1488.38 877.73C1496.27 864.034 1497.74 849.826 1492.84 835.086C1483.35 806.17 1455.06 796.583 1408.79 804.472C1406.35 804.88 1404.02 803.58 1403.25 801.374L1381.94 740.59C1381.5 739.32 1381.64 737.905 1382.31 736.674C1382.98 735.453 1384.14 734.522 1385.51 734.124C1400.9 729.552 1415.93 728.63 1430.57 731.345L1440.48 710.982C1430.72 709.126 1420.93 708.534 1411.1 709.246C1400.37 710.009 1389.62 712.311 1378.81 716.131C1376.13 717.08 1373.26 715.802 1372.37 713.271L1366.95 697.809ZM1442.86 883.08C1449.23 878.485 1453.4 873.752 1455.15 868.733C1456.22 865.517 1456.65 862.175 1456.45 858.717L1466.7 857.762C1466.95 862.446 1466.35 866.971 1464.89 871.407C1462.02 879.631 1454.75 887.596 1442.67 894.919C1441.33 895.724 1439.72 895.933 1438.26 895.472C1436.82 895.007 1435.69 893.928 1435.21 892.54L1423.79 859.962L1433.52 856.431L1442.86 883.08ZM1343.9 772.061C1344.14 767.275 1345.16 763.001 1346.88 759.235C1346.92 759.143 1346.97 759.045 1347.02 758.953C1351.15 751.181 1357.26 745.347 1365.31 741.461C1366.63 740.826 1368.16 740.749 1369.5 741.242C1370.83 741.745 1371.86 742.783 1372.31 744.083L1381.67 770.762L1371.93 774.293L1364.56 753.257C1361.08 755.828 1358.29 759.069 1356.19 762.986C1354.97 765.69 1354.32 768.759 1354.14 772.188C1354.14 772.276 1354.13 772.369 1354.12 772.462C1353.73 776.088 1354.36 780.086 1355.89 784.449L1346.16 787.98C1344.13 782.199 1343.42 776.886 1343.9 772.061Z" fill="#ff9a3c" fill-opacity="0.690887" fill-rule="evenodd" opacity="1" stroke="none"/>
<path d="M1360.19 804.66C1353.58 801.219 1348.86 795.691 1346.16 787.98L1355.89 784.449C1357.75 789.738 1360.88 793.597 1365.42 795.947L1365.58 796.033C1369.21 798.091 1374.2 798.946 1380.53 798.825L1371.93 774.293L1381.67 770.762L1392.45 801.519C1392.95 802.947 1392.72 804.551 1391.82 805.862C1390.94 807.159 1389.49 808.032 1387.9 808.197C1375.62 809.473 1366.42 808.14 1360.19 804.66Z" fill="#ff9a3c" fill-opacity="0.690887" fill-rule="evenodd" opacity="1" stroke="none"/>
<path d="M1425.79 834.38L1433.52 856.431L1423.79 859.962L1414.1 832.317C1413.62 830.968 1413.8 829.461 1414.58 828.192C1415.36 826.919 1416.66 826.015 1418.15 825.721C1432.47 822.889 1443 823.745 1449.79 827.531L1449.94 827.631C1456.7 831.75 1461.45 837.622 1464.14 845.284C1465.64 849.568 1466.48 853.735 1466.7 857.762L1456.45 858.717C1456.28 855.515 1455.59 852.212 1454.4 848.814C1452.47 843.309 1449.1 839.069 1444.27 836.093C1440.01 833.752 1433.85 833.302 1425.79 834.38Z" fill="#ff9a3c" fill-opacity="0.690887" fill-rule="evenodd" opacity="1" stroke="none"/>
<path d="M1394.82 839.587C1346.26 846.466 1317.5 833.495 1307.77 802.424C1301.67 783.778 1302.87 767.037 1311.02 752.203C1318.49 738.629 1331.93 726.57 1351.58 716.247L1345.97 700.224C1345.07 697.679 1346.53 694.825 1349.21 693.852L1357.19 690.959L1360.42 700.177L1357.32 701.302L1362.74 716.764C1363.56 719.108 1362.4 721.749 1360.03 722.908C1340.55 732.493 1327.13 743.596 1320.04 756.504C1313.13 769.076 1312.41 783.269 1317.59 799.14C1326.3 826.972 1353.31 836.381 1397.75 829.232C1400.17 828.842 1402.48 830.138 1403.24 832.324L1425.58 896.033C1426.03 897.333 1425.88 898.777 1425.18 900.017C1424.47 901.262 1423.26 902.177 1421.85 902.555C1409.29 905.892 1398.06 907.055 1388.21 906.109C1379.68 905.652 1371.66 904.153 1364.14 901.607L1350.71 923.242C1361.83 926.022 1373.6 927.503 1385.99 927.708C1400.39 927.813 1414.63 925.401 1428.73 920.487C1431.41 919.558 1434.27 920.831 1435.15 923.352L1444.34 949.558L1447.65 948.358L1450.88 957.566L1442.69 960.534C1440.01 961.508 1437.11 960.239 1436.22 957.698L1426.98 931.344C1413.26 935.611 1399.41 937.68 1385.4 937.576C1369.7 937.322 1354.99 935.13 1341.23 931.03C1339.79 930.599 1338.64 929.54 1338.12 928.161C1337.6 926.786 1337.77 925.225 1338.58 923.922L1357.73 893.101C1359.07 890.913 1361.89 889.971 1364.25 890.924C1371.96 894.022 1380.34 895.79 1389.34 896.264L1389.58 896.277C1396.89 896.992 1405.03 896.346 1414.02 894.383L1394.82 839.587Z" fill="#ff9a3c" fill-opacity="0.690887" fill-rule="evenodd" opacity="1" stroke="none"/>
</g>
</g>
<g opacity="1">
<path d="M1445.83 1024.15C1432.65 1026.91 1418.98 1028.37 1404.99 1028.37C1393.39 1028.37 1384 1018.8 1384 1007.01C1384 995.23 1393.39 985.662 1404.99 985.662C1493.14 985.662 1564.71 912.865 1564.71 823.2C1564.71 733.532 1493.14 660.735 1404.99 660.735C1393.39 660.735 1384 651.168 1384 639.383C1384 627.6 1393.39 618.031 1404.99 618.031C1516.31 618.031 1606.69 709.964 1606.69 823.2C1606.69 907.127 1557.03 979.35 1486 1011.11L1617.59 1326.85C1622.12 1337.7 1617.14 1350.25 1606.47 1354.84C1595.8 1359.44 1583.47 1354.37 1578.94 1343.52L1445.83 1024.15Z" fill="#dc5d3c" fill-rule="evenodd" opacity="1" stroke="none"/>
<path d="M1404.99 985.658C1316.84 985.658 1245.27 912.861 1245.27 823.196C1245.27 733.533 1316.84 660.736 1404.99 660.736C1416.57 660.736 1425.98 651.168 1425.98 639.384C1425.98 627.599 1416.57 618.032 1404.99 618.032C1293.67 618.032 1203.29 709.963 1203.29 823.196C1203.29 936.428 1293.67 1028.36 1404.99 1028.36C1416.57 1028.36 1425.98 1018.79 1425.98 1007.01C1425.98 995.226 1416.57 985.658 1404.99 985.658Z" fill="#dc5d3c" fill-rule="evenodd" opacity="1" stroke="none"/>
</g>
<g opacity="1">
<path d="M1687.63 1093.72C1687.63 1093.72 1676.33 1050.56 1680.07 995.537C1685.34 918.15 1734.03 850.811 1805.09 822.626C1876.13 794.448 1956.79 810.486 2012.17 863.809C2024.96 876.18 2036.62 890.712 2046.43 907.807C2094.66 991.881 2110.3 1084.56 2069.68 1176.14C2069.68 1176.14 2095.86 1350.99 2058.15 1477.04C2039.13 1540.35 1985.15 1586.25 1920.54 1594.1C1918.36 1594.39 1916.17 1594.65 1913.95 1594.91C1854.94 1602.08 1797.06 1574.58 1764.57 1523.96C1701.32 1425.39 1604.04 1273.79 1604.04 1273.79C1604.04 1273.79 1548.99 1278.66 1527.73 1280.55C1520.12 1281.24 1513.31 1275.78 1512.19 1268.1C1511.57 1263.49 1512.99 1258.42 1519.46 1254.12C1519.46 1254.12 1512.62 1254.07 1507.27 1252.75C1498.82 1250.68 1495.44 1243.33 1495.07 1235.45C1494.73 1228.05 1496.88 1219.49 1506.79 1214.48L1506.79 1214.48C1494.31 1216.86 1482.21 1208.76 1479.46 1196.17C1479.34 1195.66 1479.24 1195.18 1479.14 1194.72C1478.13 1190.15 1478.78 1185.36 1480.94 1181.22C1482.99 1177.28 1486.52 1172.97 1492.55 1170.37C1492.55 1170.37 1486.67 1168.52 1480.32 1166.51C1471.15 1163.62 1464.9 1155 1464.9 1145.23L1464.9 1145.21C1464.9 1136.55 1470.04 1128.73 1477.92 1125.42C1495.04 1118.2 1523.02 1106.43 1523.02 1106.43C1523.02 1106.43 1486.99 1059.7 1501.97 1045.97C1504.63 1043.53 1510.58 1042.11 1528.05 1057.24C1534.65 1062.96 1560.27 1070.26 1592.69 1065.73C1592.69 1065.73 1635.11 1065.47 1687.63 1093.72ZM1726.62 590.829C1781.73 590.829 1826.48 636.347 1826.48 692.415C1826.48 748.481 1781.73 794.001 1726.62 794.001C1671.49 794.001 1626.74 748.481 1626.74 692.415C1626.74 636.347 1671.49 590.829 1726.62 590.829Z" fill="#a8cfcc" fill-rule="evenodd" opacity="1" stroke="none"/>
<path d="M1600.66 1274.1L1622.54 1271.59C1625.41 1271.26 1628.01 1273.37 1628.34 1276.3C1628.67 1279.23 1626.59 1281.87 1623.71 1282.2L1610.4 1283.72L1604.04 1273.79L1600.66 1274.1ZM1497.75 1245.62L1560.97 1239.68C1563.86 1239.4 1566.41 1241.57 1566.68 1244.5C1566.95 1247.44 1564.83 1250.04 1561.94 1250.31L1519.16 1254.32C1519.25 1254.26 1519.35 1254.19 1519.46 1254.12C1519.46 1254.12 1512.62 1254.07 1507.27 1252.75C1502.75 1251.64 1499.68 1249.03 1497.75 1245.62ZM1486.41 1208.5C1486.88 1208.22 1487.42 1208 1487.99 1207.87L1546.55 1195.03C1549.37 1194.4 1552.17 1196.25 1552.78 1199.13C1553.39 1202 1551.59 1204.84 1548.76 1205.47L1506.13 1214.82C1506.34 1214.7 1506.56 1214.58 1506.79 1214.48L1506.79 1214.48C1499.18 1215.93 1491.71 1213.49 1486.41 1208.5ZM1475.82 1164.51L1538.3 1144.93C1541.07 1144.07 1544.01 1145.64 1544.86 1148.46C1545.71 1151.27 1544.15 1154.26 1541.38 1155.13L1492.04 1170.6C1492.21 1170.52 1492.38 1170.44 1492.55 1170.37C1492.55 1170.37 1486.67 1168.52 1480.32 1166.51C1478.74 1166.01 1477.23 1165.34 1475.82 1164.51ZM1516.68 1097.53L1538.54 1088.34C1541.21 1087.2 1544.28 1088.5 1545.4 1091.22C1546.5 1093.96 1545.23 1097.08 1542.55 1098.2L1523 1106.42C1522.83 1106.19 1520.18 1102.74 1516.68 1097.53Z" fill="#82b5b2" fill-rule="evenodd" opacity="1" stroke="none"/>
<path d="M1687.14 1091.7C1685 1082.6 1676.8 1043.59 1680.07 995.537C1685.34 918.15 1734.03 850.811 1805.09 822.626C1876.13 794.448 1956.79 810.486 2012.17 863.809C2024.96 876.18 2036.62 890.712 2046.43 907.807C2094.66 991.881 2110.3 1084.56 2069.68 1176.14C2069.68 1176.14 2095.86 1350.99 2058.15 1477.04C2039.13 1540.35 1985.15 1586.25 1920.54 1594.1C1918.36 1594.39 1916.17 1594.65 1913.95 1594.91C1854.94 1602.08 1797.06 1574.58 1764.57 1523.96L1721.27 1456.47L1868.51 1281.44C1791.53 1159.56 1707.7 1104.1 1687.14 1091.7Z" fill="url(#LinearGradient)" fill-rule="evenodd" opacity="1" stroke="none"/>
<path d="M1867.94 1280.56C1868.2 1280.81 1868.45 1281.12 1868.66 1281.44L1963.77 1427.46C1965.37 1429.93 1964.71 1433.24 1962.3 1434.87C1959.88 1436.5 1956.63 1435.82 1955.03 1433.36L1861.5 1289.77L1868.51 1281.44L1867.94 1280.56ZM2070.6 1182.89L2070.84 1184.78L2070.55 1185.4C2070.55 1185.4 2049.54 1066.45 2019.41 975.52C2018.69 973.638 2019.53 971.516 2021.31 970.662C2023.09 969.795 2025.23 970.489 2026.22 972.237C2042.26 1003.93 2064.26 1051.37 2088.65 1115.22C2088.3 1117.11 2087.93 1119.01 2087.54 1120.89L2087.53 1120.95L2087.34 1121.83L2087.33 1121.91L2087.13 1122.81L2087.12 1122.86C2086.72 1124.74 2086.29 1126.63 2085.85 1128.49L2085.83 1128.56L2085.62 1129.41L2085.6 1129.55L2085.4 1130.38L2085.35 1130.54L2085.15 1131.35L2085.11 1131.5L2084.9 1132.34L2084.89 1132.39C2084.57 1133.62 2084.25 1134.85 2083.92 1136.09L2083.89 1136.17L2083.68 1136.95L2083.62 1137.18L2083.42 1137.9L2083.34 1138.18L2083.14 1138.89L2083.06 1139.18L2082.87 1139.88L2082.79 1140.17L2082.58 1140.88L2082.51 1141.12L2082.29 1141.87C2082.2 1142.19 2082.11 1142.51 2082 1142.83L2081.75 1143.65L2081.71 1143.79L2081.52 1144.45L2081.41 1144.8L2081.21 1145.42L2081.1 1145.82L2080.91 1146.4L2080.78 1146.83L2080.6 1147.4L2080.45 1147.84L2080.27 1148.42L2080.13 1148.86L2079.94 1149.42L2079.8 1149.87L2079.61 1150.43L2079.43 1150.97L2079.3 1151.39L2079.13 1151.87L2078.96 1152.39L2078.79 1152.9L2078.6 1153.42L2078.43 1153.92L2078.25 1154.44L2078.08 1154.93L2077.9 1155.46L2077.73 1155.94L2077.53 1156.49L2077.36 1156.96L2077.16 1157.53L2077 1157.97L2076.75 1158.64L2076.62 1158.99L2076.26 1159.99L2076.12 1160.32L2075.88 1161L2075.72 1161.42L2075.49 1162.02L2075.32 1162.46L2075.1 1163.04L2074.93 1163.48L2074.71 1164.07L2074.54 1164.51L2074.3 1165.11L2074.13 1165.53L2073.87 1166.18L2073.72 1166.54L2073.38 1167.38L2073.32 1167.55L2072.9 1168.57L2072.78 1168.88L2072.48 1169.58L2072.32 1169.98L2072.06 1170.61L2071.89 1171.02L2071.62 1171.62L2071.45 1172.05L2071.19 1172.67L2071.01 1173.08L2070.75 1173.71L2070.57 1174.09L2070.27 1174.79L2070.13 1175.11L2069.68 1176.14L2069.76 1176.67L2069.77 1176.84L2069.85 1177.34L2069.88 1177.58L2069.98 1178.28L2070.02 1178.55L2070.14 1179.5L2070.18 1179.78L2070.35 1180.98L2070.38 1181.22L2070.57 1182.74L2070.6 1182.89ZM1736.85 1128.04C1736.85 1128.04 1731.85 1088.74 1725.12 973.238C1724.97 970.662 1726.71 969.862 1727.67 969.648C1729.37 969.261 1730.67 970.382 1730.83 971.37L1758.97 1147.66C1751.19 1140.38 1743.79 1133.86 1736.85 1128.04Z" fill="#28625e" fill-rule="evenodd" opacity="1" stroke="none"/>
<path d="M1648.82 628.743C1667.13 605.629 1695.18 590.829 1726.62 590.829C1781.73 590.829 1826.48 636.347 1826.48 692.415C1826.48 724.137 1812.16 752.484 1789.74 771.116L1754.88 735.897C1758.59 735.627 1762.42 734.627 1766.13 732.83C1779.27 726.47 1782.64 709.748 1777.59 698.953C1772.52 688.159 1757.76 684.559 1744.64 690.919C1736.13 695.045 1733.55 705.152 1731.94 712.725L1648.82 628.743Z" fill="#000000" fill-rule="evenodd" opacity="1" stroke="none"/>
</g>
<g opacity="1">
<path d="M591.635 728.824C591.635 629.109 671.105 548.273 769.137 548.273C867.168 548.273 946.638 629.109 946.638 728.824C946.638 828.54 867.168 909.375 769.137 909.375C671.105 909.375 591.635 828.54 591.635 728.824Z" fill="#a8cfcc" fill-rule="evenodd" opacity="1" stroke="none"/>
<path d="M596.138 688.273C597.422 687.688 598.99 687.349 600.886 687.69C604.622 688.36 607.278 691.614 607.387 695.327C608.629 697.569 611.982 703.429 615.981 708.952C625.423 722 641.352 740.741 663.406 759.869C673.508 715.905 692.846 679.246 714.231 649.854C682.652 625.07 665.282 602.24 661.753 597.88C658.985 594.469 659.47 589.42 662.816 586.608C666.174 583.797 671.133 584.283 673.902 587.693C677.273 591.85 693.817 613.583 723.914 637.175C764.925 586.015 809.348 560.546 809.348 560.546C813.127 558.377 817.929 559.739 820.067 563.589C822.206 567.438 820.867 572.326 817.076 574.496C817.076 574.496 775.29 598.461 736.548 646.587C766.552 667.807 807.354 688.864 859.229 698.642C864.805 660.147 862.771 624.382 858.849 597.874C858.206 593.503 861.171 589.422 865.461 588.763C869.764 588.105 873.779 591.119 874.422 595.489C878.541 623.329 880.601 660.799 874.75 701.175C894.941 703.967 916.693 705.03 940.006 703.782C941.935 703.68 943.719 704.287 945.149 705.378C945.648 709.262 946.015 713.183 946.278 717.137C944.926 718.659 943.011 719.659 940.833 719.774C916.273 721.088 893.353 719.955 872.06 716.989C864.438 756.045 848.957 796.933 820.539 833.849C849.114 838.066 880.365 838.32 914.187 832.849C909.779 839.201 904.964 845.259 899.808 850.971C866.97 854.628 836.572 853.173 808.692 848.142C789.63 869.521 765.713 889.204 735.852 905.952C735.747 906.019 735.629 906.072 735.511 906.126C732.284 905.499 729.096 904.778 725.934 903.977C725.645 903.617 725.383 903.23 725.16 902.803C723.061 898.933 724.452 894.062 728.256 891.927C753.17 877.941 773.702 861.794 790.548 844.285C743.816 832.862 704.864 811.598 674.203 788.802C670.766 814.733 670.779 843.031 675.607 873.697C676.027 876.393 675.069 878.996 673.259 880.757C668.405 877.581 663.721 874.178 659.208 870.548C654.485 836.799 655.272 805.81 659.916 777.608C622.704 746.889 600.347 715.849 594.064 704.153C593.842 703.741 593.637 703.343 593.447 702.959C594.149 697.993 595.049 693.093 596.138 688.273ZM726.839 659.281C705.389 688.811 686.103 726.087 677.116 771.147C708.944 795.967 751.071 819.69 802.736 830.647C832.754 794.372 848.799 753.49 856.526 714.452C801.582 704.149 758.444 681.763 726.839 659.281ZM600.819 703.471C600.452 703.535 600.078 703.571 599.7 703.581C599.322 703.589 598.939 703.57 598.553 703.521C599.374 703.629 600.128 703.601 600.819 703.471Z" fill="#82b5b2" fill-rule="evenodd" opacity="1" stroke="none"/>
</g>
<path d="M163.236 1069.86C163.236 1069.86-97.6227 859.912 83.5748 611.248C102.861 584.784 219.887 430.526 386.186 325.971C392.679 321.875 401.038 322.556 406.81 327.648C410.49 330.976 412.883 336.058 410.51 343.861C410.51 343.861 436.247 338.155 434.473 363.305C434.473 363.305 464.61 355.084 465.657 386.662C465.657 386.662 515.481 324.56 537.188 297.503C542.877 290.413 552.822 288.647 560.535 293.361C560.537 293.362 560.537 293.362 560.538 293.362C564.038 295.501 566.558 298.967 567.544 302.997C568.529 307.027 567.898 311.291 565.79 314.848C473.17 470.877 374.716 614.028 275.966 756.528C275.966 756.528 357.424 840.348 399.4 870.521C416.445 882.759 586.773 991.013 611.404 1050.29C611.404 1050.29 613.481 1036.71 615.847 1021.24C619.946 994.416 639.384 972.691 665.23 965.992C682.757 961.454 699.026 957.237 699.026 957.237C699.026 957.237 728.099 952.193 752.855 952.393C769.071 952.513 783.398 963.122 788.514 978.763L788.514 978.763C790.863 985.982 789.879 993.896 785.812 1000.27C783.516 1003.89 781.482 1007.07 781.482 1007.07C781.482 1007.07 787.321 1009.08 792.739 1010.95C798.512 1012.94 803.169 1017.33 805.57 1023.03L805.57 1023.03C810.241 1034.13 808.233 1046.98 800.401 1056.07C797.961 1058.91 796.15 1061.01 796.15 1061.01L797.921 1061.01C807.157 1061.01 815.462 1066.72 818.913 1075.45L818.913 1075.45C823.649 1087.43 819.818 1101.15 809.611 1108.82C807.079 1110.72 805.321 1112.05 805.321 1112.05C808.522 1110.94 811.513 1113.19 813.612 1118.32C817.771 1128.48 813.953 1140.21 804.901 1146.23C790.784 1155.61 772.154 1167.99 772.154 1167.99C767.969 1255.58 757.565 1350.05 708.695 1462.64C693.948 1496.5 664.941 1521.73 629.78 1531.3C629.754 1531.33 629.728 1531.33 629.702 1531.34C556.101 1551.36 478.968 1514.91 446.54 1444.8C430.973 1411.1 414.346 1369.57 399.4 1320.66C399.4 1320.66 337.528 1328.88 275.966 1297.17C202.009 1259.09 128.5 1172.75 163.236 1069.86Z" fill="#ff6f3c" fill-rule="evenodd" opacity="1" stroke="none"/>
<path d="M51.9972 926.837C59.7667 902.576 86.8848 848.089 173.001 853.213C173.001 853.213 203.544 762.622 300.12 780.848C327.514 808.019 371.919 850.771 399.4 870.521C416.445 882.759 586.773 991.013 611.404 1050.29L611.689 1048.44C627.584 1095.89 656.453 1197.74 641.942 1307.96C641.942 1307.96 584.759 1346.86 529.141 1297.99C529.141 1297.99 476.491 1369.04 400.346 1323.73C400.029 1322.7 399.714 1321.69 399.4 1320.66C399.4 1320.66 337.528 1328.88 275.966 1297.17C202.009 1259.09 128.5 1172.75 163.236 1069.86C163.236 1069.86 94.3722 1014.43 51.9972 926.837ZM414.025 846.901L436.433 861.087C428.351 857.337 420.826 852.559 414.025 846.901Z" fill="#fd9500" fill-rule="evenodd" opacity="1" stroke="none"/>
<path d="M634.11 1282.32L621.397 1428.37C621.141 1431.31 623.277 1433.91 626.162 1434.16C629.047 1434.43 631.591 1432.25 631.853 1429.32L644.553 1283.27C644.816 1280.33 642.677 1277.73 639.791 1277.48C636.904 1277.21 634.359 1279.39 634.11 1282.32Z" fill="#fd9500" fill-rule="evenodd" opacity="1" stroke="none"/>
<path d="M361.643 1320.88C357.171 1267.44 369.115 1223.99 377.101 1201.84C377.741 1200.29 379.36 1199.44 380.971 1199.77C382.581 1200.1 383.738 1201.54 383.735 1203.21C385.282 1246.65 396.524 1305.17 400.148 1323.09C399.897 1322.28 399.648 1321.48 399.4 1320.66C399.4 1320.66 384.319 1322.66 361.643 1320.88ZM126.873 1034.87C145.864 1010.9 164.638 992.762 182.116 979.03C209.031 957.878 232.871 947.175 249.679 941.704C251.624 941.263 253.603 942.304 254.383 944.159C255.162 946.027 254.519 948.189 252.856 949.31C202.003 984.701 173.001 1045.99 163.187 1069.82C162.225 1069.03 147.041 1056.63 126.873 1034.87Z" fill="#e15d33" fill-rule="evenodd" opacity="1" stroke="none"/>
<path d="M805.426 1112.01C808.601 1111 811.539 1113.25 813.612 1118.32C813.73 1118.6 813.835 1118.89 813.94 1119.17C804.245 1125.33 783.162 1137.5 763.902 1140.21C761.029 1140.61 758.379 1138.57 757.985 1135.66C757.578 1132.74 759.586 1130.04 762.459 1129.64C778.412 1127.4 795.678 1118.02 805.426 1112.01ZM796.163 1061.01L797.921 1061.01C802.198 1061.01 806.278 1062.24 809.768 1064.42C803.983 1068.72 780.931 1085.06 756.778 1090.9C753.957 1091.58 751.137 1089.81 750.454 1086.94C749.785 1084.08 751.53 1081.2 754.351 1080.52C770.842 1076.51 786.77 1067.23 796.163 1061.01ZM781.548 1007.09L791.991 1010.7C782.375 1023.33 764.335 1042.12 739.211 1047.25C736.377 1047.84 733.609 1045.95 733.032 1043.07C732.468 1040.18 734.304 1037.36 737.151 1036.79C757.578 1032.61 772.666 1018.14 781.548 1007.09Z" fill="#fd9500" fill-rule="evenodd" opacity="1" stroke="none"/>
<path d="M711.332 971.903C711.332 971.903 693.424 975.92 674.545 973.185C671.671 972.771 669.021 974.813 668.601 977.722C668.195 980.644 670.202 983.34 673.062 983.754C693.857 986.77 713.588 982.339 713.588 982.339C716.409 981.699 718.207 978.843 717.577 975.974C716.96 973.091 714.153 971.276 711.332 971.903Z" fill="#fd9500" fill-rule="evenodd" opacity="1" stroke="none"/>
<path d="M462.757 373.495C464.401 376.839 465.473 381.143 465.657 386.662L473.577 376.79C473.424 377.074 473.24 377.348 473.03 377.608L453.394 401.794C451.549 404.066 448.239 404.387 446.006 402.511C443.773 400.635 443.457 397.268 445.302 394.996L462.757 373.495ZM431.816 350.149C433.77 353.128 434.89 357.344 434.474 363.283L422.3 377.461C420.396 379.68 417.078 379.909 414.896 377.971C412.714 376.033 412.49 372.658 414.395 370.439L431.816 350.149ZM409.236 330.431C411.377 333.635 412.301 337.973 410.51 343.861L410.511 343.861C403.941 350.161 396.363 357.472 396.363 357.472C394.261 359.499 390.937 359.409 388.944 357.271C386.951 355.134 387.039 351.752 389.141 349.725C389.141 349.725 402.559 336.783 409.236 330.431Z" fill="#fd9500" fill-rule="evenodd" opacity="1" stroke="none"/>
<path d="M275.966 756.528C275.966 756.528 241.333 721.743 220.82 701.14C219.411 699.724 219.197 697.513 220.309 695.854C221.418 694.195 223.546 693.551 225.391 694.314C252.462 705.52 298.39 724.53 298.39 724.53L275.966 756.528Z" fill="#fd9500" fill-rule="evenodd" opacity="1" stroke="none"/>
<g opacity="1">
<path d="M694.423 984.436L702.386 925.024C689.66 920.54 677.197 914.695 665.166 907.408C655.208 901.389 651.928 888.271 657.845 878.143C663.775 868.014 676.672 864.691 686.616 870.709C762.382 916.549 860.478 891.181 905.544 814.118C950.596 737.052 925.669 637.274 849.903 591.441C839.945 585.417 836.666 572.303 842.596 562.175C848.512 552.046 861.409 548.713 871.367 554.737C967.048 612.618 998.522 738.623 941.622 835.946C899.443 908.089 820.476 944.347 743.464 934.712L738.281 973.359C728.783 977.937 713.039 983.862 694.423 984.436Z" fill="#000000" fill-rule="evenodd" opacity="1" stroke="none"/>
<path d="M686.625 870.707C610.861 824.874 585.931 725.096 630.99 648.029C676.047 570.966 774.141 545.608 849.905 591.441C859.862 597.464 872.755 594.131 878.677 584.003C884.599 573.874 881.322 560.76 871.365 554.737C775.687 496.858 651.808 528.879 594.906 626.201C538.004 723.523 569.487 849.531 665.166 907.411C675.122 913.434 688.016 910.101 693.937 899.973C699.859 889.845 696.582 876.73 686.625 870.707Z" fill="#000000" fill-rule="evenodd" opacity="1" stroke="none"/>
</g>
<path d="M376.005 765.544C376.005 707.571 422.208 660.574 479.203 660.574C536.197 660.574 582.4 707.571 582.4 765.544C582.4 823.518 536.197 870.515 479.203 870.515C422.208 870.515 376.005 823.518 376.005 765.544Z" fill="#ff6f3c" fill-rule="evenodd" opacity="1" stroke="none"/>
<path d="M443.319 807.007C424.704 810.273 404.893 810.736 384.346 806.926C378.98 794.228 376.005 780.237 376.005 765.544C376.005 707.61 422.247 660.574 479.203 660.574C524.603 660.574 563.196 690.459 576.985 731.92C572.66 751.659 540.188 791.083 473.483 799.119C475.641 793.505 475.817 786.683 473.494 780.049C468.937 767.03 456.473 759.633 445.68 763.541C434.886 767.45 429.823 781.195 434.381 794.215C436.251 799.555 439.45 803.951 443.319 807.007Z" fill="#000000" fill-rule="evenodd" opacity="1" stroke="none"/>
<path d="M444.402 581.616C444.402 542.079 475.912 510.028 514.782 510.028C553.651 510.028 585.161 542.079 585.161 581.616C585.161 621.154 553.651 653.205 514.782 653.205C475.912 653.205 444.402 621.154 444.402 581.616Z" fill="#000000" fill-rule="evenodd" opacity="1" stroke="none"/>
<path d="M1261.29 354.348C1223.31 427.549 1147.7 477.47 1060.72 477.47C935.584 477.47 833.972 374.121 833.972 246.823C833.972 169.359 871.599 100.765 929.299 58.9841L1060.72 246.823L1261.29 354.348Z" fill="#ff6f3c" fill-rule="evenodd" opacity="1" stroke="none"/>
<path d="M1060.72 246.823L929.301 58.984C962.205 35.0551 1001.68 19.9058 1044.43 16.8365L1060.72 246.823Z" fill="#ff9a3c" fill-rule="evenodd" opacity="1" stroke="none"/>
<path d="M1050.33 16.4441L1060.72 16.1773C1124.47 16.1773 1182.12 42.994 1223.3 86.1798L1060.72 246.823L1044.43 16.8365L1047.5 16.5976L1050.33 16.4441Z" fill="#a8cfcc" fill-rule="evenodd" opacity="1" stroke="none"/>
<path d="M1284.58 72.6677C1324.31 114.171 1348.76 170.859 1348.76 233.311C1348.76 272.137 1339.3 308.735 1322.57 340.835L1122 233.311L1284.58 72.6677Z" fill="#155263" fill-rule="evenodd" opacity="1" stroke="none"/>
</g>
</svg>
