<?xml version="1.0" encoding="UTF-8" standalone="no"?>
<!DOCTYPE svg PUBLIC "-//W3C//DTD SVG 1.1//EN" "http://www.w3.org/Graphics/SVG/1.1/DTD/svg11.dtd">

<!-- Created with Vectornator (http://vectornator.io/) -->
<svg height="100%" stroke-miterlimit="10" style="fill-rule:nonzero;clip-rule:evenodd;stroke-linecap:round;stroke-linejoin:round;" version="1.1" viewBox="0 0 460.215 543.428" width="100%" xml:space="preserve" xmlns="http://www.w3.org/2000/svg" xmlns:vectornator="http://vectornator.io" xmlns:xlink="http://www.w3.org/1999/xlink">
<metadata>
<vectornator:setting key="IsTimeLapseWatermarkDisabled" value="false"/>
<vectornator:setting key="UndoHistoryDisabled" value="true"/>
<vectornator:setting key="VNDimensionsVisible" value="true"/>
<vectornator:setting key="VNSnapToGuides" value="true"/>
<vectornator:setting key="WDCMYKEnabledKey" value="false"/>
<vectornator:setting key="WDDisplayWhiteBackground" value="false"/>
<vectornator:setting key="WDDynamicGuides" value="false"/>
<vectornator:setting key="WDGuidesVisible" value="true"/>
<vectornator:setting key="WDIsolateActiveLayer" value="false"/>
<vectornator:setting key="WDOutlineMode" value="false"/>
<vectornator:setting key="WDRulersVisible" value="true"/>
<vectornator:setting key="WDSnapToEdges" value="false"/>
<vectornator:setting key="WDSnapToGrid" value="false"/>
<vectornator:setting key="WDSnapToPoints" value="false"/>
<vectornator:setting key="WDUnits" value="Points"/>
</metadata>
<defs/>
<g id="Untitled" vectornator:layerName="Untitled">
<path d="M221.791 367.375C224.213 368.558 226.744 369.582 229.385 370.445L210.432 370.445L212.1 367.375L221.791 367.375Z" fill="#155263" fill-rule="evenodd" opacity="1" stroke="none"/>
<path d="M297.931 390.315L200.525 390.315L204.994 383.42L297.932 383.42L297.931 390.315Z" fill="#155263" fill-rule="evenodd" opacity="1" stroke="none"/>
<path d="M330.671 391.655C321.949 391.655 314.679 385.409 313.171 377.116C319.148 376.577 325.124 375.768 330.886 374.53C337.078 373.237 342.679 370.87 347.202 367.315C348.011 369.362 348.495 371.569 348.495 373.885C348.495 383.741 340.472 391.655 330.671 391.655L330.671 391.655Z" fill="#155263" fill-rule="evenodd" opacity="1" stroke="none"/>
<path d="M297.931 424.935L150.121 424.935L160.191 411.958L297.931 411.958L297.931 424.935Z" fill="#155263" fill-rule="evenodd" opacity="1" stroke="none"/>
<path d="M297.931 444.805L135.321 444.805L140.759 437.86L297.939 437.86L297.931 444.805Z" fill="#155263" fill-rule="evenodd" opacity="1" stroke="none"/>
<path d="M330.671 446.145C320.871 446.145 312.847 438.231 312.847 428.43C312.847 418.524 320.871 410.606 330.671 410.606C340.472 410.606 348.495 418.52 348.495 428.43C348.495 438.231 340.472 446.145 330.671 446.145Z" fill="#155263" fill-rule="evenodd" opacity="1" stroke="none"/>
<path d="M80.3413 472.745C80.3413 470.538 82.1733 468.706 84.3804 468.706C86.5875 468.706 88.4195 470.538 88.4195 472.745L88.4195 486.206L363.25 486.206L363.25 363.866C363.25 361.659 365.082 359.827 367.289 359.827C369.496 359.827 371.328 361.659 371.328 363.866L371.328 508.386C371.328 522.171 360.074 533.425 346.289 533.425L105.429 533.425C91.5887 533.425 80.3897 522.171 80.3897 508.386L80.3897 472.741L80.3413 472.745ZM105.376 525.405L346.236 525.405C355.607 525.405 363.197 517.811 363.197 508.444L363.197 494.284L88.4173 494.284L88.4173 508.444C88.4173 517.76 96.0657 525.405 105.378 525.405L105.376 525.405Z" fill="#155263" fill-rule="evenodd" opacity="1" stroke="none"/>
<path d="M19.6013 451.425L80.3393 390.741L80.3393 36.5408C80.3393 22.7008 91.5933 11.5018 105.378 11.5018L346.228 11.5018C360.068 11.5018 371.267 22.7558 371.267 36.5408L371.267 74.0178C384.568 81.0178 397.06 90.0648 408.205 101.264C467.865 161.034 467.975 257.794 408.315 317.564C353.553 372.271 267.835 376.849 207.905 331.455L193.096 346.264L194.549 347.717C196.111 349.279 196.111 351.861 194.549 353.424L58.0488 489.874C57.2402 490.683 56.2168 491.058 55.1933 491.058C54.1698 491.058 53.1464 490.683 52.3378 489.874L19.5998 457.136C18.8459 456.382 18.4162 455.359 18.4162 454.28C18.4162 453.206 18.8498 452.183 19.6037 451.429L19.6013 451.425ZM127.451 343.575L121.315 343.575L121.315 336.63L134.401 336.63L147.323 323.708L121.315 323.708L121.315 310.728L168.917 310.728L178.069 301.575C173.975 296.138 170.26 290.536 166.975 284.72L121.315 284.72L121.315 277.775L163.26 277.775C161.158 273.521 159.221 269.212 157.553 264.853L121.315 264.853L121.315 251.876L153.139 251.876C150.662 243.313 148.994 234.646 148.022 225.868L121.26 225.868L121.26 218.923L147.428 218.923C147.158 214.614 147.103 210.305 147.158 206.001L121.26 206.001L121.26 193.024L147.967 193.024C148.881 184.246 150.604 175.524 153.03 167.016L121.206 167.016L121.206 160.07L155.183 160.07C156.69 155.707 158.358 151.402 160.245 147.148L121.151 147.148L121.151 134.113L166.811 134.113C171.928 125.066 178.065 116.453 185.174 108.375L88.2522 108.375L88.2522 382.665L127.451 343.575ZM363.241 36.5448C363.241 27.1737 355.648 19.5838 346.28 19.5838L287.643 19.5838L279.245 33.2088C275.37 39.5643 268.69 43.3338 261.261 43.3338L190.183 43.3338C182.968 43.3338 176.292 39.5643 172.308 33.2088L164.015 19.5838L105.378 19.5838C96.0068 19.5838 88.4169 27.1776 88.4169 36.5448L88.4169 100.244L192.977 100.244C198.254 95.0758 203.801 90.2829 209.614 86.0288L153.239 86.0288C151.032 86.0288 149.2 84.1968 149.2 81.9897C149.2 79.7827 151.032 77.9506 153.239 77.9506L221.786 77.9506C231.157 72.349 240.954 67.8806 251.079 64.4896L109.409 64.4896C107.202 64.4896 105.37 62.6576 105.37 60.4505C105.37 58.2434 107.202 56.4114 109.409 56.4114C109.409 56.4114 296.199 56.5208 296.419 56.5208C319.196 55.9817 342.028 60.5052 363.189 70.0368L363.185 36.5448L363.241 36.5448ZM382.464 291.775C428.019 246.33 427.909 172.505 382.464 127.065C337.019 81.6198 263.194 81.5098 217.754 127.065C172.199 172.51 172.309 246.335 217.754 291.775C263.199 337.22 337.024 337.33 382.464 291.775ZM201.594 326.345C198.309 323.544 195.079 320.638 191.958 317.568C188.833 314.443 185.981 311.212 183.18 307.931L169.02 322.091L187.434 340.505L201.594 326.345ZM159.215 323.704L158.786 323.704L147.048 335.442L175.263 361.29L186.033 350.52L159.215 323.704ZM55.1853 481.314L169.505 366.994L155.396 354.072L41.6763 467.792L55.1853 481.314Z" fill="#155263" fill-rule="evenodd" opacity="1" stroke="none"/>
<path d="M215.981 159.685C217.704 157.962 220.02 156.993 222.497 156.939L254.157 156.829L254.102 144.227C254.048 132.434 263.633 122.797 275.426 122.743L329.864 122.529C341.657 122.474 351.294 132.06 351.348 143.853L351.403 156.455L383.063 156.345L383.118 156.345C388.18 156.345 392.325 160.439 392.325 165.552L392.539 223.974C392.539 228.712 388.985 232.591 384.411 233.126L384.571 271.466C384.571 273.838 383.657 276.045 381.985 277.713C380.317 279.381 378.11 280.298 375.739 280.298L230.789 280.892L230.734 280.892C228.363 280.892 226.156 279.978 224.543 278.306C222.875 276.638 221.957 274.431 221.957 272.06L221.797 233.72C219.75 233.505 217.812 232.642 216.304 231.134C214.527 229.412 213.558 227.095 213.558 224.619L213.343 166.197C213.293 163.779 214.261 161.462 215.984 159.685L215.981 159.685ZM333.041 143.908C333.041 142.291 331.534 140.783 329.916 140.783L275.478 140.998C273.861 140.998 272.353 142.505 272.353 144.123L272.408 156.725L333.092 156.455L333.041 143.908ZM230.731 272.818L375.741 272.224C376.116 272.224 376.495 271.849 376.495 271.47L376.335 233.24L359.644 233.295L359.699 248.158C359.699 249.775 358.406 251.064 356.793 251.119L349.632 251.173C348.015 251.173 346.726 249.88 346.671 248.267L346.617 233.404L313.769 233.514L313.878 259.143C313.878 261.779 311.777 263.936 309.085 263.936L297.347 263.99C294.71 263.99 292.554 261.889 292.554 259.197L292.445 233.568L254.484 233.728L254.538 248.591C254.538 250.209 253.245 251.498 251.632 251.552L244.472 251.607C242.855 251.607 241.566 250.314 241.511 248.701L241.456 233.838L229.878 233.893L230.039 272.123C229.98 272.384 230.41 272.818 230.734 272.818L230.731 272.818ZM221.954 225.431C222.114 225.591 222.384 225.755 222.763 225.755L225.724 225.755L380.263 225.111L383.224 225.111C383.869 225.111 384.353 224.571 384.353 223.982L384.244 201.853L221.414 201.853L221.523 224.685C221.633 225.001 221.797 225.271 221.957 225.431L221.954 225.431Z" fill="#ff5d00" fill-rule="evenodd" opacity="1" stroke="none"/>
</g>
</svg>
