<?xml version="1.0" encoding="UTF-8" standalone="no"?>
<!DOCTYPE svg PUBLIC "-//W3C//DTD SVG 1.1//EN" "http://www.w3.org/Graphics/SVG/1.1/DTD/svg11.dtd">

<!-- Created with Vectornator (http://vectornator.io/) -->
<svg height="100%" stroke-miterlimit="10" style="fill-rule:nonzero;clip-rule:evenodd;stroke-linecap:round;stroke-linejoin:round;" version="1.1" viewBox="0 0 476.57 235.735" width="100%" xml:space="preserve" xmlns="http://www.w3.org/2000/svg" xmlns:vectornator="http://vectornator.io" xmlns:xlink="http://www.w3.org/1999/xlink">
<metadata>
<vectornator:setting key="IsTimeLapseWatermarkDisabled" value="false"/>
<vectornator:setting key="UndoHistoryDisabled" value="true"/>
<vectornator:setting key="VNDimensionsVisible" value="true"/>
<vectornator:setting key="VNSnapToGuides" value="true"/>
<vectornator:setting key="WDCMYKEnabledKey" value="false"/>
<vectornator:setting key="WDDisplayWhiteBackground" value="true"/>
<vectornator:setting key="WDDynamicGuides" value="true"/>
<vectornator:setting key="WDGuidesVisible" value="true"/>
<vectornator:setting key="WDIsolateActiveLayer" value="false"/>
<vectornator:setting key="WDOutlineMode" value="false"/>
<vectornator:setting key="WDRulersVisible" value="true"/>
<vectornator:setting key="WDSnapToEdges" value="false"/>
<vectornator:setting key="WDSnapToGrid" value="false"/>
<vectornator:setting key="WDSnapToPoints" value="false"/>
<vectornator:setting key="WDUnits" value="Points"/>
</metadata>
<defs>
<clipPath id="TextBounds">
<rect height="60.9998" width="312.75" x="40" y="54.6792"/>
</clipPath>
<clipPath id="TextBounds_2">
<rect height="60.9998" width="331.7" x="120.928" y="104.918"/>
</clipPath>
<clipPath id="TextBounds_3">
<rect height="60.9998" width="125.5" x="201.206" y="155.418"/>
</clipPath>
</defs>
<g id="hex-old" vectornator:layerName="hex-old" visibility="hidden">
<path d="M33.8677 231.975L9.37897 189.125L33.8677 146.275L82.8346 146.275L107.323 189.125L82.8346 231.975L55.3698 231.975L33.8677 231.975Z" fill="none" fill-rule="evenodd" opacity="1" stroke="#ff6f3c" stroke-linecap="round" stroke-linejoin="round" stroke-width="4"/>
<path d="M33.8677 326.699L9.37897 283.849L33.8677 240.999L82.8346 240.999L107.323 283.849L82.8346 326.699L55.3698 326.699L33.8677 326.699Z" fill="none" fill-rule="evenodd" opacity="1" stroke="#ffc93c" stroke-linecap="round" stroke-linejoin="round" stroke-width="4"/>
<path d="M33.8677 421.423L9.37897 378.573L33.8677 335.723L82.8346 335.723L107.323 378.573L82.8346 421.423L55.3698 421.423L33.8677 421.423Z" fill="none" fill-rule="evenodd" opacity="1" stroke="#155263" stroke-linecap="round" stroke-linejoin="round" stroke-width="4"/>
<path d="M33.8677 516.148L9.37897 473.298L33.8677 430.448L82.8346 430.448L107.323 473.298L82.8346 516.148L55.3698 516.148L33.8677 516.148Z" fill="none" fill-rule="evenodd" opacity="1" stroke="#155263" stroke-linecap="round" stroke-linejoin="round" stroke-width="4"/>
<path d="M115.281 90.04L90.7922 47.19L115.281 4.34L164.248 4.34L188.737 47.19L164.248 90.04L136.783 90.04L115.281 90.04Z" fill="none" fill-rule="evenodd" opacity="1" stroke="#155263" stroke-linecap="round" stroke-linejoin="round" stroke-width="4"/>
<path d="M115.281 279.489L90.7922 236.639L115.281 193.789L164.248 193.789L188.737 236.639L164.248 279.489L136.783 279.489L115.281 279.489Z" fill="none" fill-rule="evenodd" opacity="1" stroke="#ffc93c" stroke-linecap="round" stroke-linejoin="round" stroke-width="4"/>
<path d="M115.281 374.213L90.7922 331.363L115.281 288.513L164.248 288.513L188.737 331.363L164.248 374.213L136.783 374.213L115.281 374.213Z" fill="none" fill-rule="evenodd" opacity="1" stroke="#155263" stroke-linecap="round" stroke-linejoin="round" stroke-width="4"/>
<path d="M115.281 468.937L90.7922 426.087L115.281 383.237L164.248 383.237L188.737 426.087L164.248 468.937L136.783 468.937L115.281 468.937Z" fill="none" fill-rule="evenodd" opacity="1" stroke="#155263" stroke-linecap="round" stroke-linejoin="round" stroke-width="4"/>
<path d="M196.55 42.7279L172.061-0.122065L196.55-42.9721L245.517-42.9721L270.006-0.122065L245.517 42.7279L218.052 42.7279L196.55 42.7279Z" fill="none" fill-rule="evenodd" opacity="1" stroke="#155263" stroke-linecap="round" stroke-linejoin="round" stroke-width="4"/>
<path d="M196.55 137.452L172.061 94.6023L196.55 51.7523L245.517 51.7523L270.006 94.6023L245.517 137.452L218.052 137.452L196.55 137.452Z" fill="none" fill-rule="evenodd" opacity="1" stroke="#ff6f3c" stroke-linecap="round" stroke-linejoin="round" stroke-width="4"/>
<path d="M196.55 326.901L172.061 284.051L196.55 241.201L245.517 241.201L270.006 284.051L245.517 326.901L218.052 326.901L196.55 326.901Z" fill="none" fill-rule="evenodd" opacity="1" stroke="#155263" stroke-linecap="round" stroke-linejoin="round" stroke-width="4"/>
<path d="M196.55 421.625L172.061 378.775L196.55 335.925L245.517 335.925L270.006 378.775L245.517 421.625L218.052 421.625L196.55 421.625Z" fill="none" fill-rule="evenodd" opacity="1" stroke="#ff6f3c" stroke-linecap="round" stroke-linejoin="round" stroke-width="4"/>
<path d="M277.963-4.48248L253.475-47.3325L277.963-90.1825L326.93-90.1825L351.419-47.3325L326.93-4.48248L299.466-4.48248L277.963-4.48248Z" fill="none" fill-rule="evenodd" opacity="1" stroke="#155263" stroke-linecap="round" stroke-linejoin="round" stroke-width="4"/>
<path d="M277.963 90.2419L253.475 47.3919L277.963 4.54186L326.93 4.54186L351.419 47.3919L326.93 90.2419L299.466 90.2419L277.963 90.2419Z" fill="none" fill-rule="evenodd" opacity="1" stroke="#ff6f3c" stroke-linecap="round" stroke-linejoin="round" stroke-width="4"/>
<path d="M277.963 184.966L253.475 142.116L277.963 99.2662L326.93 99.2662L351.419 142.116L326.93 184.966L299.466 184.966L277.963 184.966Z" fill="none" fill-rule="evenodd" opacity="1" stroke="#ffc93c" stroke-linecap="round" stroke-linejoin="round" stroke-width="4"/>
<path d="M277.963 279.691L253.475 236.841L277.963 193.991L326.93 193.991L351.419 236.841L326.93 279.691L299.466 279.691L277.963 279.691Z" fill="none" fill-rule="evenodd" opacity="1" stroke="#155263" stroke-linecap="round" stroke-linejoin="round" stroke-width="4"/>
<path d="M277.963 374.415L253.475 331.565L277.963 288.715L326.93 288.715L351.419 331.565L326.93 374.415L299.466 374.415L277.963 374.415Z" fill="none" fill-rule="evenodd" opacity="1" stroke="#ff6f3c" stroke-linecap="round" stroke-linejoin="round" stroke-width="4"/>
<path d="M360.142 43.22L335.653 0.370016L360.142-42.48L409.109-42.48L433.598 0.370016L409.109 43.22L381.644 43.22L360.142 43.22Z" fill="none" fill-rule="evenodd" opacity="1" stroke="#ff6f3c" stroke-linecap="round" stroke-linejoin="round" stroke-width="4"/>
<path d="M360.142 137.944L335.653 95.0944L360.142 52.2444L409.109 52.2444L433.598 95.0944L409.109 137.944L381.644 137.944L360.142 137.944Z" fill="none" fill-rule="evenodd" opacity="1" stroke="#ffc93c" stroke-linecap="round" stroke-linejoin="round" stroke-width="4"/>
<path d="M360.142 232.669L335.653 189.819L360.142 146.969L409.109 146.969L433.598 189.819L409.109 232.669L381.644 232.669L360.142 232.669Z" fill="none" fill-rule="evenodd" opacity="1" stroke="#155263" stroke-linecap="round" stroke-linejoin="round" stroke-width="4"/>
<path d="M360.142 327.393L335.653 284.543L360.142 241.693L409.109 241.693L433.598 284.543L409.109 327.393L381.644 327.393L360.142 327.393Z" fill="none" fill-rule="evenodd" opacity="1" stroke="#ff6f3c" stroke-linecap="round" stroke-linejoin="round" stroke-width="4"/>
<path d="M360.142 422.117L335.653 379.267L360.142 336.417L409.109 336.417L433.598 379.267L409.109 422.117L381.644 422.117L360.142 422.117Z" fill="none" fill-rule="evenodd" opacity="1" stroke="#155263" stroke-linecap="round" stroke-linejoin="round" stroke-width="4"/>
<path d="M441.555-3.9904L417.067-46.8404L441.555-89.6904L490.522-89.6904L515.011-46.8404L490.522-3.9904L463.058-3.9904L441.555-3.9904Z" fill="none" fill-rule="evenodd" opacity="1" stroke="#155263" stroke-linecap="round" stroke-linejoin="round" stroke-width="4"/>
<path d="M441.555 90.7339L417.067 47.8839L441.555 5.03394L490.522 5.03394L515.011 47.8839L490.522 90.7339L463.058 90.7339L441.555 90.7339Z" fill="none" fill-rule="evenodd" opacity="1" stroke="#ffc93c" stroke-linecap="round" stroke-linejoin="round" stroke-width="4"/>
<path d="M441.555 185.458L417.067 142.608L441.555 99.7583L490.522 99.7583L515.011 142.608L490.522 185.458L463.058 185.458L441.555 185.458Z" fill="none" fill-rule="evenodd" opacity="1" stroke="#155263" stroke-linecap="round" stroke-linejoin="round" stroke-width="4"/>
<path d="M441.555 280.183L417.067 237.333L441.555 194.483L490.522 194.483L515.011 237.333L490.522 280.183L463.058 280.183L441.555 280.183Z" fill="none" fill-rule="evenodd" opacity="1" stroke="#ff6f3c" stroke-linecap="round" stroke-linejoin="round" stroke-width="4"/>
<path d="M441.555 374.907L417.067 332.057L441.555 289.207L490.522 289.207L515.011 332.057L490.522 374.907L463.058 374.907L441.555 374.907Z" fill="none" fill-rule="evenodd" opacity="1" stroke="#155263" stroke-linecap="round" stroke-linejoin="round" stroke-width="4"/>
</g>
<g id="flusk" vectornator:layerName="flusk">
<g opacity="1">
<path d="M449.951 146.845L452.673 150.047L452.673 150.047L452.673 150.047C456.793 154.923 462.376 162.778 465.636 170.632C467.586 175.342 468.741 180.103 468.331 184.39C467.894 189.151 465.661 193.206 460.784 195.85C458.359 197.172 455.292 198.109 451.48 198.558C451.352 198.571 451.236 198.584 451.121 198.584L451.121 198.584L404.662 198.584L358.204 198.584C358.012 198.584 357.832 198.571 357.639 198.532C353.879 198.07 350.863 197.146 348.476 195.85C343.522 193.168 341.302 189.087 340.891 184.274C340.532 179.975 341.751 175.162 343.779 170.401C345.446 166.516 347.671 162.619 349.998 159.068" fill="none" fill-rule="evenodd" opacity="1" stroke="#ffc93c" stroke-linecap="butt" stroke-linejoin="round" stroke-width="0.5"/>
<path d="M384.318 105.38L384.616 77.6512C384.526 77.2149 384.411 76.7785 384.295 76.355C384.142 75.8021 383.97 75.2543 383.782 74.7123C382.806 71.9017 381.305 69.1039 379.264 66.4217C378.186 64.9971 378.481 62.9694 379.893 61.9042C380.483 61.4679 381.164 61.2497 381.844 61.2497L381.844 61.2497L427.468 61.2497C429.253 61.2517 430.7 62.6985 430.702 64.4838C430.702 65.3565 430.355 66.1522 429.791 66.7297C428.495 68.2056 427.429 69.874 426.57 71.7092C425.697 73.5444 425.017 75.5593 424.478 77.7411L424.561 105.263" fill="none" fill-rule="evenodd" opacity="1" stroke="#ffc93c" stroke-linecap="round" stroke-linejoin="round" stroke-width="0.5"/>
<path d="M344.493 159.055C340.76 163.927 336.402 170.487 333.653 176.894C331.626 181.656 330.42 186.452 330.779 190.751C331.19 195.564 333.389 199.657 338.343 202.339C340.73 203.636 343.75 204.54 347.511 205.002C347.703 205.04 347.893 205.062 348.086 205.062L394.528 205.062L441.001 205.062C441.117 205.062 441.236 205.045 441.364 205.032C445.176 204.583 448.227 203.661 450.653 202.339C454.248 200.39 461.699 196.59 465.629 191.72C464.439 193.134 462.195 194.856 460.335 195.865C457.909 197.187 454.858 198.108 451.046 198.557C450.918 198.57 450.799 198.588 450.683 198.588L404.21 198.588L357.767 198.588C357.575 198.588 357.385 198.566 357.193 198.527C353.432 198.065 350.412 197.161 348.025 195.865C345.802 194.661 344.333 193.038 343.201 191.316C341.811 189.201 340.995 186.875 340.711 184.245C340.55 182.315 340.87 180.348 341.25 178.305C341.716 175.799 342.366 173.192 343.483 170.569C345.207 166.551 347.375 162.61 349.788 158.965" fill="#ffc93c" fill-rule="evenodd" opacity="1" stroke="none"/>
<path d="M384.413 105.584L384.362 102.848L384.647 77.6493C384.557 77.2362 384.258 75.8722 384.143 75.4712C383.989 74.9476 383.839 74.331 383.618 73.831C382.436 71.1614 381.117 68.5948 379.076 66.0549C378.583 65.4381 378.525 64.7117 378.586 63.9953C378.655 63.1839 379.464 62.027 380.166 61.4816C378.038 62.5795 370.305 67.6778 369.779 68.0462C368.367 69.0548 368.065 70.9661 369.144 72.315C371.184 74.8549 372.676 77.5037 373.652 80.1651C373.84 80.6782 374.013 81.1886 374.166 81.7122C374.282 82.1132 374.409 82.5309 374.499 82.9441C374.499 82.9441 374.445 103.475 374.466 110.518C374.468 111.325 373.997 113.025 376.263 111.422C378.518 109.827 384.413 105.584 384.413 105.584Z" fill="#ffc93c" fill-rule="evenodd" opacity="1" stroke="none"/>
</g>
<g opacity="1">
<path d="M348.91 182.392C349.286 182.559 349.663 182.684 350.081 182.726C349.663 182.475 349.328 182.057 349.161 181.598C349.579 181.848 349.997 182.016 350.457 182.099C350.875 181.681 351.419 181.43 352.004 181.43C353.133 181.43 354.052 182.35 354.052 183.479C354.052 183.646 354.052 183.813 354.011 183.939C355.725 183.855 357.23 183.061 358.233 181.807C358.442 182.099 358.526 182.475 358.526 182.852C358.526 183.562 358.149 184.189 357.606 184.566C357.94 184.524 358.275 184.44 358.526 184.315C358.526 184.315 358.526 184.315 358.526 184.357C358.526 185.36 357.815 186.196 356.895 186.363C357.062 186.405 357.23 186.447 357.439 186.447C357.564 186.447 357.689 186.447 357.815 186.405C357.564 187.241 356.812 187.827 355.892 187.827C356.602 188.37 357.48 188.705 358.442 188.705C358.609 188.705 358.776 188.705 358.944 188.663C358.024 189.248 356.937 189.582 355.808 189.582C352.004 189.582 349.955 186.447 349.955 183.73C349.955 183.646 349.955 183.562 349.955 183.479C349.537 183.186 349.203 182.81 348.91 182.392" fill="#ff6f3c" fill-rule="evenodd" opacity="1" stroke="none"/>
<path d="M380.918 170.977C380.918 168.247 378.706 166.036 375.977 166.036C373.247 166.036 371.036 168.247 371.036 170.977C371.036 173.443 372.843 175.487 375.205 175.858L375.205 172.405L373.95 172.405L373.95 170.977L375.205 170.977L375.205 169.888C375.205 168.65 375.942 167.966 377.071 167.966C377.612 167.966 378.177 168.062 378.177 168.062L378.177 169.278L377.554 169.278C376.94 169.278 376.749 169.658 376.749 170.049L376.749 170.977L378.119 170.977L377.9 172.405L376.749 172.405L376.749 175.858C379.111 175.487 380.918 173.443 380.918 170.977Z" fill="#ff6f3c" fill-rule="evenodd" opacity="1" stroke="none"/>
<path d="M383.21 186.012C383.21 188.324 381.627 189.969 379.289 189.969C377.048 189.969 375.238 188.159 375.238 185.917C375.238 183.676 377.048 181.866 379.289 181.866C380.38 181.866 381.299 182.266 382.006 182.926L380.903 183.987C379.461 182.595 376.779 183.64 376.779 185.917C376.779 187.33 377.907 188.476 379.289 188.476C380.893 188.476 381.495 187.326 381.589 186.729L379.289 186.729L379.289 185.336L383.146 185.336C383.184 185.543 383.21 185.743 383.21 186.012Z" fill="#ff6f3c" fill-rule="evenodd" opacity="1" stroke="none"/>
<path d="M407.912 178.105L400.205 178.105C399.852 178.105 399.565 178.358 399.565 178.669L399.565 185.354C399.565 185.665 399.852 185.917 400.205 185.917L407.912 185.917C408.265 185.917 408.554 185.665 408.554 185.354L408.554 178.669C408.554 178.358 408.265 178.105 407.912 178.105ZM402.282 184.801L400.949 184.801L400.949 181.073L402.284 181.073L402.284 184.801L402.282 184.801ZM401.615 180.564C401.188 180.564 400.843 180.262 400.843 179.893C400.843 179.523 401.188 179.221 401.615 179.221C402.041 179.221 402.388 179.523 402.388 179.893C402.388 180.264 402.043 180.564 401.615 180.564ZM407.276 184.801L405.944 184.801L405.944 182.988C405.944 182.555 405.934 181.999 405.251 181.999C404.557 181.999 404.451 182.47 404.451 182.957L404.451 184.801L403.118 184.801L403.118 181.073L404.397 181.073L404.397 181.582L404.415 181.582C404.593 181.289 405.029 180.981 405.677 180.981C407.025 180.981 407.276 181.753 407.276 182.758C407.276 182.758 407.276 184.801 407.276 184.801Z" fill="#ff6f3c" fill-rule="evenodd" opacity="1" stroke="none"/>
<path d="M358.046 167.941C358.299 167.941 358.501 167.738 358.501 167.491C358.501 167.239 358.299 167.036 358.046 167.036C357.798 167.036 357.597 167.239 357.597 167.491C357.597 167.74 357.8 167.941 358.046 167.941ZM352.517 167.036C352.517 169.54 354.546 171.569 357.05 171.569C359.554 171.569 361.583 169.54 361.583 167.036C361.583 164.531 359.554 162.502 357.05 162.502C354.546 162.502 352.517 164.531 352.517 167.036ZM354.935 166.283C355.107 166.283 355.259 166.354 355.37 166.465C355.78 166.182 356.332 165.999 356.944 165.979L356.626 164.548L355.613 164.776C355.613 165.025 355.41 165.226 355.164 165.226C354.911 165.226 354.708 165.019 354.708 164.771C354.708 164.522 354.911 164.316 355.164 164.316C355.341 164.316 355.493 164.422 355.568 164.568L356.686 164.319C356.741 164.305 356.798 164.345 356.812 164.4L357.162 165.979C357.768 166.005 358.315 166.186 358.725 166.469C358.836 166.352 358.993 166.283 359.165 166.283C359.803 166.283 360.011 167.14 359.428 167.431C359.448 167.522 359.459 167.617 359.459 167.714C359.459 168.675 358.377 169.454 357.046 169.454C355.71 169.454 354.628 168.675 354.628 167.714C354.628 167.617 354.639 167.516 354.663 167.425C354.091 167.133 354.301 166.283 354.935 166.283ZM356.195 168.407C356.527 168.739 357.586 168.734 357.906 168.407C357.946 168.366 358.017 168.366 358.057 168.407C358.103 168.452 358.103 168.524 358.057 168.564C357.641 168.981 356.461 168.981 356.043 168.564C355.997 168.524 355.997 168.452 356.043 168.407C356.083 168.366 356.154 168.366 356.195 168.407ZM356.054 167.036C356.302 167.036 356.504 167.239 356.504 167.491C356.504 167.74 356.301 167.941 356.054 167.941C355.802 167.941 355.599 167.738 355.599 167.491C355.599 167.239 355.8 167.036 356.054 167.036Z" fill="#ff6f3c" fill-rule="evenodd" opacity="1" stroke="none"/>
<path d="M425.322 169.337C425.166 168.71 424.869 168.237 424.238 168.237L423.424 168.237L423.424 169.199C423.424 169.946 422.791 170.576 422.068 170.576L419.901 170.576C419.308 170.576 418.817 171.083 418.817 171.678L418.817 173.744C418.817 174.332 419.328 174.678 419.901 174.846C420.587 175.047 421.246 175.083 422.068 174.846C422.614 174.688 423.152 174.369 423.152 173.744L423.152 172.918L420.986 172.918L420.986 172.642L424.238 172.642C424.869 172.642 425.103 172.201 425.322 171.542C425.549 170.862 425.539 170.208 425.322 169.337ZM422.204 173.468C422.43 173.468 422.612 173.653 422.612 173.88C422.612 174.109 422.43 174.294 422.204 174.294C421.981 174.294 421.796 174.107 421.796 173.88C421.798 173.651 421.981 173.468 422.204 173.468ZM419.801 170.304L421.969 170.304C422.572 170.304 423.053 169.806 423.053 169.201L423.053 167.133C423.053 166.545 422.557 166.104 421.969 166.005C421.242 165.885 420.453 165.891 419.801 166.007C418.884 166.169 418.717 166.508 418.717 167.135L418.717 167.961L420.887 167.961L420.887 168.237L417.903 168.237C417.272 168.237 416.72 168.617 416.548 169.337C416.349 170.164 416.341 170.679 416.548 171.542C416.702 172.183 417.069 172.642 417.7 172.642L418.445 172.642L418.445 171.651C418.445 170.935 419.064 170.304 419.801 170.304ZM419.665 167.409C419.44 167.409 419.257 167.225 419.257 166.997C419.259 166.768 419.44 166.583 419.665 166.583C419.888 166.583 420.073 166.77 420.073 166.997C420.073 167.225 419.89 167.409 419.665 167.409Z" fill="#ff6f3c" fill-rule="evenodd" opacity="1" stroke="none"/>
<path d="M437.384 185.917C437.384 188.403 435.37 190.417 432.884 190.417C432.42 190.417 431.973 190.347 431.553 190.216C431.736 189.917 432.01 189.427 432.111 189.037C432.166 188.826 432.391 187.966 432.391 187.966C432.538 188.245 432.966 188.483 433.421 188.483C434.779 188.483 435.757 187.235 435.757 185.683C435.757 184.197 434.543 183.085 432.982 183.085C431.041 183.085 430.008 184.388 430.008 185.809C430.008 186.469 430.36 187.291 430.921 187.552C431.006 187.592 431.052 187.574 431.072 187.492C431.086 187.431 431.162 187.124 431.197 186.983C431.208 186.937 431.202 186.897 431.166 186.854C430.983 186.627 430.834 186.213 430.834 185.827C430.834 184.834 431.585 183.874 432.866 183.874C433.971 183.874 434.746 184.627 434.746 185.705C434.746 186.923 434.131 187.766 433.331 187.766C432.89 187.766 432.558 187.402 432.665 186.954C432.792 186.418 433.037 185.841 433.037 185.455C433.037 185.11 432.852 184.821 432.467 184.821C432.015 184.821 431.652 185.288 431.652 185.914C431.652 186.313 431.787 186.582 431.787 186.582C431.787 186.582 431.342 188.465 431.26 188.817C431.17 189.205 431.206 189.753 431.244 190.109C429.571 189.454 428.384 187.824 428.384 185.917C428.384 183.432 430.398 181.417 432.884 181.417C435.37 181.417 437.384 183.432 437.384 185.917Z" fill="#ff6f3c" fill-rule="evenodd" opacity="1" stroke="none"/>
<path d="M402.386 166.412C402.386 164.252 399.772 162.502 396.55 162.502C393.328 162.502 390.714 164.252 390.714 166.412C390.714 168.336 392.789 169.935 395.523 170.259L395.523 171.502L397.514 171.502L397.514 170.267C398.002 170.213 398.471 170.118 398.908 169.988L399.714 171.502L401.964 171.502L400.61 169.218C401.705 168.507 402.386 167.513 402.386 166.412ZM393.008 166.703C393.008 165.226 394.995 164.031 397.444 164.031C399.893 164.031 401.701 164.849 401.701 166.703C401.701 167.71 401.169 168.411 400.289 168.841C400.24 168.808 400.194 168.782 400.16 168.766C399.955 168.662 399.602 168.555 399.602 168.555C399.602 168.555 401.341 168.427 401.341 166.693C401.341 164.959 399.521 164.927 399.521 164.927L395.523 164.927L395.523 169.112C394.035 168.68 393.008 167.764 393.008 166.703ZM397.53 167.472L397.53 166.356C398.692 166.356 399.294 166.219 399.294 166.904C399.294 167.637 398.527 167.472 397.53 167.472ZM397.512 168.929L398.047 168.929C398.264 168.929 398.426 169.164 398.529 169.315C398.205 169.353 397.866 169.371 397.512 169.373C397.512 169.373 397.512 168.929 397.512 168.929Z" fill="#ff6f3c" fill-rule="evenodd" opacity="1" stroke="none"/>
<path d="M435.069 163.464C435.446 163.631 435.822 163.757 436.24 163.798C435.822 163.548 435.487 163.129 435.32 162.67C435.738 162.92 436.156 163.088 436.616 163.171C437.034 162.753 437.578 162.502 438.163 162.502C439.292 162.502 440.211 163.422 440.211 164.551C440.211 164.718 440.211 164.885 440.17 165.011C441.884 164.927 443.389 164.133 444.392 162.879C444.601 163.171 444.685 163.548 444.685 163.924C444.685 164.634 444.308 165.262 443.765 165.638C444.099 165.596 444.434 165.512 444.685 165.387C444.685 165.387 444.685 165.387 444.685 165.429C444.685 166.432 443.974 167.268 443.054 167.435C443.221 167.477 443.389 167.519 443.598 167.519C443.723 167.519 443.849 167.519 443.974 167.477C443.723 168.313 442.971 168.899 442.051 168.899C442.762 169.442 443.64 169.777 444.601 169.777C444.768 169.777 444.936 169.777 445.103 169.735C444.183 170.32 443.096 170.655 441.967 170.655C438.163 170.655 436.114 167.519 436.114 164.802C436.114 164.718 436.114 164.634 436.114 164.551C435.696 164.258 435.362 163.882 435.069 163.464" fill="#ff6f3c" fill-rule="evenodd" opacity="1" stroke="none"/>
<path d="M454.656 176.049L454.652 176.247C454.196 176.26 453.923 176.503 453.748 176.899C453.343 177.836 452.075 180.786 451.233 182.707L451.012 182.707L449.686 179.58C449.16 180.61 448.58 181.685 448.079 182.707C448.075 182.712 447.837 182.707 447.837 182.702C447.077 180.926 446.28 179.162 445.519 177.38C445.334 176.948 444.719 176.247 444.295 176.252C444.295 176.201 444.29 176.09 444.29 176.022L446.912 176.022L446.912 176.247C446.601 176.265 446.057 176.462 446.211 176.801C446.565 177.606 447.888 180.692 448.245 181.475C448.488 180.994 449.181 179.706 449.464 179.162C449.239 178.704 448.515 176.993 448.285 176.571C448.128 176.282 447.7 176.256 447.381 176.252L447.381 176.027L449.689 176.031L449.689 176.244C449.375 176.253 449.072 176.37 449.213 176.666C449.519 177.314 449.709 177.769 449.992 178.362C450.083 178.187 450.554 177.238 450.771 176.729C450.915 176.396 450.708 176.266 450.146 176.253C450.151 176.195 450.146 176.086 450.151 176.033C450.87 176.028 451.95 176.028 452.145 176.023L452.145 176.244C451.78 176.256 451.403 176.451 451.204 176.757L450.245 178.746C450.348 179.006 451.27 181.058 451.366 181.284L453.348 176.707C453.209 176.333 452.758 176.252 452.583 176.248L452.583 176.023L454.653 176.041C454.653 176.041 454.656 176.049 454.656 176.049Z" fill="#ff6f3c" fill-rule="evenodd" opacity="1" stroke="none"/>
<path d="M399.565 100.961C399.565 103.273 397.982 104.918 395.644 104.918C393.403 104.918 391.593 103.108 391.593 100.866C391.593 98.6252 393.403 96.8152 395.644 96.8152C396.735 96.8152 397.653 97.2154 398.361 97.8754L397.258 98.9356C395.816 97.5438 393.133 98.5892 393.133 100.866C393.133 102.279 394.262 103.425 395.644 103.425C397.248 103.425 397.849 102.275 397.944 101.678L395.644 101.678L395.644 100.285L399.501 100.285C399.539 100.492 399.565 100.692 399.565 100.961Z" fill="#ff6f3c" fill-rule="evenodd" opacity="1" stroke="none"/>
<path d="M404.581 48.608C404.958 48.7753 405.334 48.9007 405.752 48.9425C405.334 48.6916 404.999 48.2736 404.832 47.8137C405.25 48.0646 405.668 48.2318 406.128 48.3154C406.546 47.8973 407.09 47.6465 407.675 47.6465C408.804 47.6465 409.724 48.5662 409.724 49.695C409.724 49.8622 409.724 50.0294 409.682 50.1549C411.396 50.0712 412.901 49.2769 413.904 48.0228C414.113 48.3154 414.197 48.6916 414.197 49.0679C414.197 49.7786 413.821 50.4057 413.277 50.782C413.612 50.7401 413.946 50.6565 414.197 50.5311C414.197 50.5311 414.197 50.5311 414.197 50.5729C414.197 51.5763 413.486 52.4124 412.566 52.5796C412.734 52.6214 412.901 52.6632 413.11 52.6632C413.235 52.6632 413.361 52.6632 413.486 52.6214C413.235 53.4575 412.483 54.0428 411.563 54.0428C412.274 54.5863 413.152 54.9208 414.113 54.9208C414.28 54.9208 414.448 54.9208 414.615 54.8789C413.695 55.4642 412.608 55.7987 411.479 55.7987C407.675 55.7987 405.627 52.6632 405.627 49.9458C405.627 49.8622 405.627 49.7786 405.627 49.695C405.208 49.4024 404.874 49.0261 404.581 48.608" fill="#ff6f3c" fill-rule="evenodd" opacity="1" stroke="none"/>
<path d="M403.221 85.4987C403.598 85.6659 403.974 85.7913 404.392 85.8331C403.974 85.5823 403.64 85.1642 403.472 84.7044C403.89 84.9552 404.308 85.1224 404.768 85.206C405.186 84.788 405.73 84.5371 406.315 84.5371C407.444 84.5371 408.364 85.4569 408.364 86.5856C408.364 86.7529 408.364 86.9201 408.322 87.0455C410.036 86.9619 411.541 86.1676 412.544 84.9134C412.753 85.206 412.837 85.5823 412.837 85.9585C412.837 86.6692 412.461 87.2963 411.917 87.6726C412.252 87.6308 412.586 87.5472 412.837 87.4217C412.837 87.4217 412.837 87.4217 412.837 87.4636C412.837 88.4669 412.126 89.303 411.206 89.4702C411.374 89.5121 411.541 89.5539 411.75 89.5539C411.875 89.5539 412.001 89.5539 412.126 89.5121C411.875 90.3482 411.123 90.9335 410.203 90.9335C410.914 91.4769 411.792 91.8114 412.753 91.8114C412.92 91.8114 413.088 91.8114 413.255 91.7696C412.335 92.3549 411.248 92.6893 410.119 92.6893C406.315 92.6893 404.267 89.5539 404.267 86.8365C404.267 86.7529 404.267 86.6692 404.267 86.5856C403.849 86.293 403.514 85.9167 403.221 85.4987" fill="#ff6f3c" fill-rule="evenodd" opacity="1" stroke="none"/>
<path d="M402.795 73.763C402.638 73.1358 402.342 72.6629 401.711 72.6629L400.897 72.6629L400.897 73.6249C400.897 74.3719 400.263 75.0011 399.541 75.0011L397.373 75.0011C396.781 75.0011 396.289 75.5085 396.289 76.1032L396.289 78.1694C396.289 78.758 396.801 79.103 397.373 79.2715C398.059 79.4724 398.719 79.509 399.541 79.2715C400.087 79.1132 400.625 78.7945 400.625 78.1694L400.625 77.3433L398.459 77.3433L398.459 77.0673L401.711 77.0673C402.342 77.0673 402.575 76.6268 402.795 75.9672C403.022 75.2873 403.012 74.6337 402.795 73.763ZM399.677 77.8934C399.902 77.8934 400.085 78.0781 400.085 78.3054C400.085 78.5347 399.902 78.7194 399.677 78.7194C399.454 78.7194 399.269 78.5327 399.269 78.3054C399.271 78.076 399.454 77.8934 399.677 77.8934ZM397.274 74.7291L399.441 74.7291C400.044 74.7291 400.525 74.2318 400.525 73.627L400.525 71.5587C400.525 70.9701 400.03 70.5297 399.441 70.4302C398.715 70.3105 397.925 70.3166 397.274 70.4323C396.356 70.5946 396.19 70.9336 396.19 71.5608L396.19 72.3868L398.36 72.3868L398.36 72.6629L395.376 72.6629C394.745 72.6629 394.193 73.0424 394.02 73.763C393.821 74.589 393.813 75.1046 394.02 75.9672C394.174 76.6086 394.542 77.0673 395.173 77.0673L395.918 77.0673L395.918 76.0768C395.918 75.3603 396.537 74.7291 397.274 74.7291ZM397.138 71.8348C396.913 71.8348 396.73 71.6501 396.73 71.4228C396.732 71.1934 396.913 71.0087 397.138 71.0087C397.361 71.0087 397.546 71.1954 397.546 71.4228C397.546 71.6501 397.363 71.8348 397.138 71.8348Z" fill="#ff6f3c" fill-rule="evenodd" opacity="1" stroke="none"/>
<path d="M418.272 72.6165C418.272 75.1024 416.258 77.1165 413.772 77.1165C413.307 77.1165 412.861 77.0457 412.44 76.9151C412.623 76.6157 412.897 76.1258 412.999 75.7357C413.053 75.5252 413.278 74.6651 413.278 74.6651C413.425 74.9445 413.853 75.1822 414.309 75.1822C415.666 75.1822 416.644 73.9338 416.644 72.3824C416.644 70.8963 415.43 69.784 413.87 69.784C411.928 69.784 410.896 71.0869 410.896 72.5076C410.896 73.1681 411.248 73.9901 411.808 74.2514C411.894 74.2913 411.939 74.2732 411.959 74.1915C411.973 74.1298 412.05 73.8232 412.084 73.6816C412.095 73.6363 412.09 73.5963 412.053 73.5528C411.87 73.326 411.721 72.9123 411.721 72.5258C411.721 71.5332 412.472 70.5734 413.754 70.5734C414.859 70.5734 415.633 71.3264 415.633 72.4042C415.633 73.6217 415.018 74.4655 414.218 74.4655C413.777 74.4655 413.445 74.1008 413.552 73.6526C413.679 73.1173 413.924 72.5403 413.924 72.1538C413.924 71.809 413.739 71.5205 413.354 71.5205C412.902 71.5205 412.54 71.9869 412.54 72.6129C412.54 73.0121 412.674 73.2806 412.674 73.2806C412.674 73.2806 412.229 75.1641 412.148 75.5161C412.057 75.9044 412.093 76.4524 412.131 76.808C410.458 76.153 409.272 74.5236 409.272 72.6165C409.272 70.1306 411.286 68.1165 413.772 68.1165C416.258 68.1165 418.272 70.1306 418.272 72.6165Z" fill="#ff6f3c" fill-rule="evenodd" opacity="1" stroke="none"/>
<path d="M390.422 43.9105L382.715 43.9105C382.362 43.9105 382.075 44.1634 382.075 44.4738L382.075 51.1594C382.075 51.4697 382.362 51.7226 382.715 51.7226L390.422 51.7226C390.776 51.7226 391.065 51.4697 391.065 51.1594L391.065 44.4738C391.065 44.1634 390.776 43.9105 390.422 43.9105ZM384.792 50.6066L383.459 50.6066L383.459 46.8784L384.794 46.8784L384.794 50.6066L384.792 50.6066ZM384.126 46.3692C383.698 46.3692 383.353 46.0676 383.353 45.6979C383.353 45.3282 383.698 45.0265 384.126 45.0265C384.551 45.0265 384.898 45.3282 384.898 45.6979C384.898 46.0693 384.553 46.3692 384.126 46.3692ZM389.786 50.6066L388.454 50.6066L388.454 48.7931C388.454 48.3606 388.444 47.8044 387.762 47.8044C387.067 47.8044 386.961 48.2752 386.961 48.7617L386.961 50.6066L385.629 50.6066L385.629 46.8784L386.907 46.8784L386.907 47.3876L386.925 47.3876C387.104 47.0946 387.539 46.786 388.187 46.786C389.536 46.786 389.786 47.5585 389.786 48.5629C389.786 48.5629 389.786 50.6066 389.786 50.6066Z" fill="#ff6f3c" fill-rule="evenodd" opacity="1" stroke="none"/>
<path d="M405.578 36.1012C405.83 36.1012 406.033 35.8983 406.033 35.6515C406.033 35.3993 405.83 35.1964 405.578 35.1964C405.329 35.1964 405.128 35.3993 405.128 35.6515C405.128 35.9001 405.331 36.1012 405.578 36.1012ZM400.048 35.1964C400.048 37.7007 402.077 39.7297 404.581 39.7297C407.086 39.7297 409.115 37.7007 409.115 35.1964C409.115 32.692 407.086 30.663 404.581 30.663C402.077 30.663 400.048 32.692 400.048 35.1964ZM402.466 34.4432C402.638 34.4432 402.79 34.5145 402.902 34.626C403.311 34.3427 403.863 34.1599 404.475 34.1398L404.157 32.7085L403.145 32.937C403.145 33.1856 402.942 33.3867 402.695 33.3867C402.443 33.3867 402.24 33.1801 402.24 32.9315C402.24 32.6829 402.443 32.4763 402.695 32.4763C402.872 32.4763 403.024 32.5824 403.099 32.7286L404.218 32.48C404.272 32.4654 404.329 32.5056 404.344 32.5604L404.693 34.1398C405.3 34.1654 405.846 34.3464 406.256 34.6297C406.367 34.5127 406.525 34.4432 406.696 34.4432C407.334 34.4432 407.543 35.3005 406.96 35.5912C406.98 35.6826 406.991 35.7776 406.991 35.8745C406.991 36.836 405.909 37.6148 404.578 37.6148C403.242 37.6148 402.159 36.836 402.159 35.8745C402.159 35.7776 402.17 35.6771 402.194 35.5857C401.622 35.2932 401.832 34.4432 402.466 34.4432ZM403.726 36.5673C404.059 36.9 405.117 36.8945 405.437 36.5673C405.477 36.5271 405.548 36.5271 405.589 36.5673C405.634 36.613 405.634 36.6843 405.589 36.7245C405.172 37.1413 403.993 37.1413 403.574 36.7245C403.528 36.6843 403.528 36.613 403.574 36.5673C403.614 36.5271 403.686 36.5271 403.726 36.5673ZM403.585 35.1964C403.834 35.1964 404.035 35.3993 404.035 35.6515C404.035 35.9001 403.832 36.1012 403.585 36.1012C403.333 36.1012 403.13 35.8983 403.13 35.6515C403.13 35.3993 403.331 35.1964 403.585 35.1964Z" fill="#ff6f3c" fill-rule="evenodd" opacity="1" stroke="none"/>
<path d="M386.57 30.6929C386.57 27.9635 384.358 25.7521 381.629 25.7521C378.9 25.7521 376.688 27.9635 376.688 30.6929C376.688 33.1589 378.495 35.203 380.857 35.5739L380.857 32.1211L379.602 32.1211L379.602 30.6929L380.857 30.6929L380.857 29.6043C380.857 28.3661 381.594 27.6822 382.723 27.6822C383.264 27.6822 383.829 27.7786 383.829 27.7786L383.829 28.9939L383.206 28.9939C382.592 28.9939 382.401 29.3748 382.401 29.7655L382.401 30.6929L383.771 30.6929L383.552 32.1211L382.401 32.1211L382.401 35.5739C384.763 35.203 386.57 33.1589 386.57 30.6929Z" fill="#ff6f3c" fill-rule="evenodd" opacity="1" stroke="none"/>
<path d="M364.825 22.6554C364.825 24.9668 363.242 26.6118 360.905 26.6118C358.664 26.6118 356.854 24.8019 356.854 22.5606C356.854 20.3194 358.664 18.5095 360.905 18.5095C361.996 18.5095 362.914 18.9097 363.621 19.5696L362.519 20.6298C361.076 19.238 358.394 20.2835 358.394 22.5606C358.394 23.9736 359.523 25.1188 360.905 25.1188C362.509 25.1188 363.11 23.9687 363.205 23.3725L360.905 23.3725L360.905 21.9791L364.762 21.9791C364.799 22.1866 364.825 22.3858 364.825 22.6554Z" fill="#ff6f3c" fill-rule="evenodd" opacity="1" stroke="none"/>
<path d="M369.521 35.3751L369.516 35.5727C369.061 35.5856 368.787 35.8286 368.612 36.2254C368.207 37.1615 366.939 40.1123 366.097 42.0331L365.877 42.0331L364.55 38.9057C364.024 39.9357 363.444 41.0111 362.944 42.0331C362.939 42.0379 362.701 42.0331 362.701 42.0282C361.941 40.2516 361.144 38.4879 360.383 36.7064C360.198 36.2739 359.583 35.5727 359.159 35.5775C359.159 35.5273 359.154 35.4156 359.154 35.3476L361.776 35.3476L361.776 35.5727C361.465 35.5905 360.921 35.7881 361.075 36.1266C361.429 36.9315 362.753 40.0183 363.109 40.8006C363.352 40.3196 364.045 39.032 364.328 38.4879C364.103 38.0295 363.379 36.3193 363.149 35.8966C362.992 35.6083 362.565 35.5824 362.246 35.5775L362.246 35.3524L364.553 35.3573L364.553 35.5694C364.239 35.5792 363.936 35.6958 364.077 35.9921C364.383 36.64 364.573 37.0951 364.856 37.6878C364.947 37.5129 365.418 36.5638 365.635 36.0553C365.779 35.7217 365.572 35.5921 365.01 35.5792C365.015 35.5209 365.01 35.4123 365.015 35.3589C365.734 35.354 366.814 35.354 367.009 35.3492L367.009 35.5694C366.644 35.5824 366.267 35.7767 366.068 36.0828L365.109 38.0716C365.213 38.3324 366.134 40.3844 366.23 40.6095L368.212 36.0326C368.073 35.6585 367.623 35.5775 367.448 35.5743L367.448 35.3492L369.517 35.367C369.517 35.367 369.521 35.3751 369.521 35.3751Z" fill="#ff6f3c" fill-rule="evenodd" opacity="1" stroke="none"/>
<path d="M347.868 15.7521C347.868 18.238 345.854 20.2521 343.368 20.2521C342.903 20.2521 342.457 20.1813 342.036 20.0507C342.219 19.7513 342.493 19.2614 342.595 18.8712C342.649 18.6608 342.874 17.8007 342.874 17.8007C343.021 18.0801 343.449 18.3178 343.905 18.3178C345.262 18.3178 346.24 17.0694 346.24 15.518C346.24 14.0319 345.026 12.9196 343.466 12.9196C341.524 12.9196 340.492 14.2224 340.492 15.6432C340.492 16.3037 340.844 17.1257 341.405 17.387C341.49 17.4269 341.535 17.4087 341.555 17.3271C341.57 17.2654 341.646 16.9587 341.68 16.8172C341.691 16.7718 341.686 16.7319 341.649 16.6884C341.466 16.4616 341.317 16.0479 341.317 15.6614C341.317 14.6688 342.069 13.7089 343.35 13.7089C344.455 13.7089 345.23 14.462 345.23 15.5398C345.23 16.7573 344.614 17.6011 343.814 17.6011C343.373 17.6011 343.041 17.2364 343.148 16.7882C343.275 16.2529 343.52 15.6759 343.52 15.2894C343.52 14.9446 343.335 14.6561 342.951 14.6561C342.499 14.6561 342.136 15.1224 342.136 15.7485C342.136 16.1476 342.27 16.4162 342.27 16.4162C342.27 16.4162 341.826 18.2997 341.744 18.6517C341.653 19.04 341.689 19.588 341.728 19.9436C340.055 19.2886 338.868 17.6591 338.868 15.7521C338.868 13.2662 340.882 11.2521 343.368 11.2521C345.854 11.2521 347.868 13.2662 347.868 15.7521Z" fill="#ff6f3c" fill-rule="evenodd" opacity="1" stroke="none"/>
<path d="M317.186 18.1375C317.562 18.3048 317.939 18.4302 318.357 18.472C317.939 18.2211 317.604 17.8031 317.437 17.3432C317.855 17.5941 318.273 17.7613 318.733 17.8449C319.151 17.4268 319.694 17.176 320.28 17.176C321.408 17.176 322.328 18.0957 322.328 19.2245C322.328 19.3917 322.328 19.5589 322.286 19.6844C324 19.6007 325.505 18.8064 326.509 17.5522C326.718 17.8449 326.801 18.2211 326.801 18.5974C326.801 19.3081 326.425 19.9352 325.882 20.3114C326.216 20.2696 326.551 20.186 326.801 20.0606C326.801 20.0606 326.801 20.0606 326.801 20.1024C326.801 21.1058 326.091 21.9419 325.171 22.1091C325.338 22.1509 325.505 22.1927 325.715 22.1927C325.84 22.1927 325.965 22.1927 326.091 22.1509C325.84 22.987 325.087 23.5723 324.168 23.5723C324.878 24.1158 325.756 24.4502 326.718 24.4502C326.885 24.4502 327.052 24.4502 327.22 24.4084C326.3 24.9937 325.213 25.3282 324.084 25.3282C320.28 25.3282 318.231 22.1927 318.231 19.4753C318.231 19.3917 318.231 19.3081 318.231 19.2245C317.813 18.9318 317.479 18.5556 317.186 18.1375" fill="#ff6f3c" fill-rule="evenodd" opacity="1" stroke="none"/>
<path d="M345.568 30.8195C345.412 30.1923 345.116 29.7194 344.485 29.7194L343.671 29.7194L343.671 30.6814C343.671 31.4284 343.037 32.0576 342.315 32.0576L340.147 32.0576C339.555 32.0576 339.063 32.565 339.063 33.1597L339.063 35.2259C339.063 35.8145 339.575 36.1595 340.147 36.328C340.833 36.5289 341.493 36.5655 342.315 36.328C342.861 36.1697 343.399 35.851 343.399 35.2259L343.399 34.3998L341.233 34.3998L341.233 34.1238L344.485 34.1238C345.116 34.1238 345.349 33.6833 345.568 33.0237C345.796 32.3437 345.786 31.6902 345.568 30.8195ZM342.451 34.9498C342.676 34.9498 342.859 35.1345 342.859 35.3619C342.859 35.5912 342.676 35.7759 342.451 35.7759C342.228 35.7759 342.043 35.5892 342.043 35.3619C342.045 35.1325 342.228 34.9498 342.451 34.9498ZM340.048 31.7856L342.215 31.7856C342.818 31.7856 343.299 31.2883 343.299 30.6835L343.299 28.6152C343.299 28.0266 342.804 27.5862 342.215 27.4867C341.489 27.367 340.699 27.3731 340.048 27.4888C339.13 27.6511 338.964 27.9901 338.964 28.6173L338.964 29.4433L341.134 29.4433L341.134 29.7194L338.15 29.7194C337.519 29.7194 336.967 30.0989 336.794 30.8195C336.595 31.6455 336.587 32.1611 336.794 33.0237C336.948 33.6651 337.316 34.1238 337.947 34.1238L338.692 34.1238L338.692 33.1333C338.692 32.4168 339.311 31.7856 340.048 31.7856ZM339.912 28.8913C339.686 28.8913 339.504 28.7066 339.504 28.4792C339.506 28.2499 339.686 28.0652 339.912 28.0652C340.135 28.0652 340.32 28.2519 340.32 28.4792C340.32 28.7066 340.137 28.8913 339.912 28.8913Z" fill="#ff6f3c" fill-rule="evenodd" opacity="1" stroke="none"/>
</g>
</g>
<g id="hex" vectornator:layerName="hex">
<path d="M196.55 232.177L172.061 189.327L196.55 146.477L245.517 146.477L270.006 189.327L245.517 232.177L218.052 232.177L196.55 232.177Z" fill="none" fill-rule="evenodd" opacity="0" stroke="#ffc93c" stroke-linecap="round" stroke-linejoin="round" stroke-width="4"/>
<path d="M115.281 184.764L90.7922 141.914L106.24 114.884L115.281 99.0643L164.248 99.0643L188.737 141.914L175.204 165.593L164.248 184.764L136.783 184.764L115.281 184.764Z" fill="none" fill-rule="evenodd" opacity="0" stroke="#ff6f3c" stroke-linecap="round" stroke-linejoin="round" stroke-width="4"/>
<path d="M82.8346 137.25C82.8346 137.25 89.2536 126.019 95.3758 115.306C101.498 104.594 107.323 94.4004 107.323 94.4004L91.957 67.5127L82.8346 51.5504L33.8677 51.5504L9.37897 94.4004L33.8677 137.25L82.8346 137.25Z" fill="none" fill-rule="evenodd" opacity="0" stroke="#155263" stroke-linecap="round" stroke-linejoin="round" stroke-width="4"/>
<path d="M91.957 59.5127L82.8346 43.5504L33.8677 43.5504L9.37897 86.4004L33.8677 129.25L82.8346 129.25C82.8346 129.25 89.2536 118.019 95.3758 107.306L95.7047 106.73" fill="none" fill-rule="evenodd" opacity="1" stroke="#155263" stroke-linecap="butt" stroke-linejoin="round" stroke-width="4"/>
<path d="M174.966 158.587L164.248 176.764L136.783 176.764L115.281 176.764L90.7922 133.914L105.853 107.56" fill="none" fill-rule="evenodd" opacity="1" stroke="#ff6f3c" stroke-linecap="butt" stroke-linejoin="round" stroke-width="4"/>
<path d="M253.771 210.237L245.517 224.177L218.052 224.177L196.55 224.177L172.061 181.327L184.646 159.306" fill="none" fill-rule="evenodd" opacity="1" stroke="#ffc93c" stroke-linecap="butt" stroke-linejoin="round" stroke-width="4"/>
</g>
<g id="Text" vectornator:layerName="Text">
<g fill="#155263" opacity="1" stroke="none">
<path clip-path="url(#TextBounds)" d="M45.15 103.629C44.35 103.629 43.7667 103.446 43.4 103.079C43.0333 102.713 42.85 102.129 42.85 101.329L42.85 95.4792C42.85 95.0459 42.9083 94.6792 43.025 94.3792C43.1417 94.0792 43.3167 93.8292 43.55 93.6292L48.55 89.4292C46.7833 88.8959 45.3917 87.9875 44.375 86.7042C43.3583 85.4209 42.85 83.5792 42.85 81.1792L42.85 75.9292C42.85 74.4292 43.1 73.0959 43.6 71.9292C44.1 70.7625 44.8167 69.7792 45.75 68.9792L52.25 63.5292C53.15 62.7959 54.2667 62.2209 55.6 61.8042C56.9333 61.3875 58.45 61.1792 60.15 61.1792L74.15 61.1792C74.95 61.1792 75.5333 61.3625 75.9 61.7292C76.2667 62.0959 76.45 62.6792 76.45 63.4792L76.45 69.4292C76.45 69.8625 76.3917 70.2292 76.275 70.5292C76.1583 70.8292 75.9833 71.0792 75.75 71.2792L71.25 75.0292C73.35 75.4959 75.0417 76.3709 76.325 77.6542C77.6083 78.9375 78.25 80.9292 78.25 83.6292L78.25 88.8792C78.25 90.3792 78 91.7125 77.5 92.8792C77 94.0459 76.2667 95.0292 75.3 95.8292L68.85 101.229C67.9167 101.996 66.7833 102.588 65.45 103.004C64.1167 103.421 62.6167 103.629 60.95 103.629L45.15 103.629ZM67.4 97.6792C70.6 97.6792 73.125 96.9209 74.975 95.4042C76.825 93.8875 77.75 91.7125 77.75 88.8792L77.75 83.6292C77.75 80.8292 77.0333 78.8292 75.6 77.6292C74.1667 76.4292 72.2833 75.6625 69.95 75.3292L62.5 74.3292C62.0667 74.2959 61.7333 74.1292 61.5 73.8292C61.2667 73.5292 61.15 73.1625 61.15 72.7292C61.15 72.2959 61.2667 71.9375 61.5 71.6542C61.7333 71.3709 62.0667 71.2292 62.5 71.2292L74.15 71.2292C74.7833 71.2292 75.2417 71.0875 75.525 70.8042C75.8083 70.5209 75.95 70.0625 75.95 69.4292L75.95 63.4792C75.95 62.8459 75.8083 62.3875 75.525 62.1042C75.2417 61.8209 74.7833 61.6792 74.15 61.6792L60.15 61.6792C56.9167 61.6792 54.3833 62.4375 52.55 63.9542C50.7167 65.4709 49.8 67.6459 49.8 70.4792L49.8 75.7292C49.8 78.5292 50.5083 80.5292 51.925 81.7292C53.3417 82.9292 55.2167 83.6959 57.55 84.0292L65.05 85.0792C65.4833 85.1125 65.8083 85.2625 66.025 85.5292C66.2417 85.7959 66.35 86.2125 66.35 86.7792C66.35 87.1792 66.2417 87.5209 66.025 87.8042C65.8083 88.0875 65.4833 88.2292 65.05 88.2292L51.6 88.2292C50.9667 88.2292 50.5083 88.3709 50.225 88.6542C49.9417 88.9375 49.8 89.3959 49.8 90.0292L49.8 95.8792C49.8 96.5125 49.9417 96.9709 50.225 97.2542C50.5083 97.5375 50.9667 97.6792 51.6 97.6792L67.4 97.6792ZM71.45 66.1792L71.45 66.6792L60.35 66.6792C58.95 66.6792 57.8333 67.0625 57 67.8292C56.1667 68.5959 55.75 69.5625 55.75 70.7292L55.75 74.8292C55.75 75.9959 55.9833 76.8125 56.45 77.2792C56.9167 77.7459 57.5333 78.0459 58.3 78.1792L68.85 80.3292C69.85 80.5292 70.675 80.9625 71.325 81.6292C71.975 82.2959 72.3 83.4959 72.3 85.2292L72.3 88.1292C72.3 89.5959 71.8 90.8042 70.8 91.7542C69.8 92.7042 68.45 93.1792 66.75 93.1792L54.3 93.1792L54.3 92.6792L66.75 92.6792C68.2833 92.6792 69.5083 92.2542 70.425 91.4042C71.3417 90.5542 71.8 89.4625 71.8 88.1292L71.8 85.2292C71.8 83.6625 71.525 82.5875 70.975 82.0042C70.425 81.4209 69.6833 81.0292 68.75 80.8292L58.2 78.6792C57.3333 78.5125 56.625 78.1709 56.075 77.6542C55.525 77.1375 55.25 76.1959 55.25 74.8292L55.25 70.7292C55.25 69.3959 55.7167 68.3042 56.65 67.4542C57.5833 66.6042 58.8167 66.1792 60.35 66.1792L71.45 66.1792Z" fill-rule="evenodd"/>
<path clip-path="url(#TextBounds)" d="M109.75 101.229C108.583 102.229 106.95 103.004 104.85 103.554C102.75 104.104 100.05 104.379 96.75 104.379C93.4833 104.379 90.8083 104.038 88.725 103.354C86.6417 102.671 85.0083 101.763 83.825 100.629C82.6417 99.4959 81.825 98.1959 81.375 96.7292C80.925 95.2625 80.7 93.7459 80.7 92.1792L80.7 76.6292C80.7 75.0959 80.9167 73.6709 81.35 72.3542C81.7833 71.0375 82.5667 69.9125 83.7 68.9792L90.2 63.5792C91.3667 62.5792 92.9917 61.8042 95.075 61.2542C97.1583 60.7042 99.8667 60.4292 103.2 60.4292C106.467 60.4292 109.142 60.6959 111.225 61.2292C113.308 61.7625 114.942 62.5042 116.125 63.4542C117.308 64.4042 118.117 65.5375 118.55 66.8542C118.983 68.1709 119.2 69.6125 119.2 71.1792L119.2 88.2292C119.2 89.7625 118.983 91.1792 118.55 92.4792C118.117 93.7792 117.333 94.8959 116.2 95.8292L109.75 101.229ZM118.7 88.2292L118.7 71.1792C118.7 69.6459 118.475 68.2542 118.025 67.0042C117.575 65.7542 116.775 64.6792 115.625 63.7792C114.475 62.8792 112.892 62.1792 110.875 61.6792C108.858 61.1792 106.3 60.9292 103.2 60.9292C100.1 60.9292 97.5333 61.1792 95.5 61.6792C93.4667 62.1792 91.875 62.8792 90.725 63.7792C89.575 64.6792 88.775 65.7542 88.325 67.0042C87.875 68.2542 87.65 69.6459 87.65 71.1792L87.65 88.2292C87.65 89.7625 87.875 91.1542 88.325 92.4042C88.775 93.6542 89.575 94.7209 90.725 95.6042C91.875 96.4875 93.4667 97.1792 95.5 97.6792C97.5333 98.1792 100.1 98.4292 103.2 98.4292C106.3 98.4292 108.858 98.1792 110.875 97.6792C112.892 97.1792 114.475 96.4875 115.625 95.6042C116.775 94.7209 117.575 93.6542 118.025 92.4042C118.475 91.1542 118.7 89.7625 118.7 88.2292ZM113.25 87.0792C113.25 89.0792 112.533 90.7042 111.1 91.9542C109.667 93.2042 107 93.8292 103.1 93.8292C99.2 93.8292 96.55 93.2042 95.15 91.9542C93.75 90.7042 93.05 89.0792 93.05 87.0792L93.05 72.3292C93.05 70.3292 93.75 68.7042 95.15 67.4542C96.55 66.2042 99.2 65.5792 103.1 65.5792C107 65.5792 109.667 66.2042 111.1 67.4542C112.533 68.7042 113.25 70.3292 113.25 72.3292L113.25 87.0792ZM93.55 87.0792C93.55 88.9459 94.2167 90.4542 95.55 91.6042C96.8833 92.7542 99.4 93.3292 103.1 93.3292C106.8 93.3292 109.333 92.7542 110.7 91.6042C112.067 90.4542 112.75 88.9459 112.75 87.0792L112.75 72.3292C112.75 70.4625 112.067 68.9542 110.7 67.8042C109.333 66.6542 106.8 66.0792 103.1 66.0792C99.4 66.0792 96.8833 66.6542 95.55 67.8042C94.2167 68.9542 93.55 70.4625 93.55 72.3292L93.55 87.0792ZM99 86.4292L99 72.9792C99 72.3459 99.25 71.8042 99.75 71.3542C100.25 70.9042 101.4 70.6792 103.2 70.6792C105 70.6792 106.15 70.9042 106.65 71.3542C107.15 71.8042 107.4 72.3459 107.4 72.9792L107.4 86.4292C107.4 87.0959 107.15 87.6542 106.65 88.1042C106.15 88.5542 105 88.7792 103.2 88.7792C101.4 88.7792 100.25 88.5542 99.75 88.1042C99.25 87.6542 99 87.0959 99 86.4292ZM99.5 86.4292C99.5 86.7625 99.5667 87.0542 99.7 87.3042C99.8333 87.5542 100.083 87.7625 100.45 87.9292L100.45 78.4292C100.45 78.0959 100.383 77.8042 100.25 77.5542C100.117 77.3042 99.8667 77.1125 99.5 76.9792L99.5 86.4292Z" fill-rule="evenodd"/>
<path clip-path="url(#TextBounds)" d="M147.55 103.629L135.35 103.629C130.983 103.629 127.758 102.496 125.675 100.229C123.592 97.9625 122.55 95.0292 122.55 91.4292L122.55 77.3792C122.55 75.5459 122.817 73.9542 123.35 72.6042C123.883 71.2542 124.667 70.1292 125.7 69.2292L132.2 63.7792C133.233 62.9125 134.55 62.2625 136.15 61.8292C137.75 61.3959 139.633 61.1792 141.8 61.1792L154 61.1792C154.8 61.1792 155.383 61.3625 155.75 61.7292C156.117 62.0959 156.3 62.6792 156.3 63.4792L156.3 69.5292C156.3 69.9625 156.242 70.3292 156.125 70.6292C156.008 70.9292 155.833 71.1792 155.6 71.3792L149.1 76.7792C148.967 76.9125 148.758 77.0292 148.475 77.1292C148.192 77.2292 147.883 77.2792 147.55 77.2792L141.4 77.2792L141.4 85.7292C141.4 86.4292 141.617 86.9209 142.05 87.2042C142.483 87.4875 143.117 87.6292 143.95 87.6292L154 87.6292C154.8 87.6292 155.383 87.8125 155.75 88.1792C156.117 88.5459 156.3 89.1292 156.3 89.9292L156.3 95.8792C156.3 96.3125 156.242 96.6792 156.125 96.9792C156.008 97.2792 155.833 97.5292 155.6 97.7292L149.1 103.129C148.967 103.263 148.758 103.379 148.475 103.479C148.192 103.579 147.883 103.629 147.55 103.629ZM154 97.6792C154.633 97.6792 155.092 97.5375 155.375 97.2542C155.658 96.9709 155.8 96.5125 155.8 95.8792L155.8 89.9292C155.8 89.2959 155.658 88.8375 155.375 88.5542C155.092 88.2709 154.633 88.1292 154 88.1292L143.95 88.1292C142.917 88.1292 142.15 87.9375 141.65 87.5542C141.15 87.1709 140.9 86.5625 140.9 85.7292L140.9 73.8292C140.9 72.9959 141.15 72.3709 141.65 71.9542C142.15 71.5375 142.917 71.3292 143.95 71.3292L154 71.3292C154.633 71.3292 155.092 71.1875 155.375 70.9042C155.658 70.6209 155.8 70.1625 155.8 69.5292L155.8 63.4792C155.8 62.8459 155.658 62.3875 155.375 62.1042C155.092 61.8209 154.633 61.6792 154 61.6792L141.8 61.6792C137.633 61.6792 134.542 62.5209 132.525 64.2042C130.508 65.8875 129.5 68.4625 129.5 71.9292L129.5 87.4792C129.5 90.9459 130.508 93.5125 132.525 95.1792C134.542 96.8459 137.633 97.6792 141.8 97.6792L154 97.6792ZM151.25 92.6792L151.25 93.1792L142.9 93.1792C139.667 93.1792 137.525 92.6792 136.475 91.6792C135.425 90.6792 134.9 89.0292 134.9 86.7292L134.9 72.7292C134.9 70.3625 135.433 68.6792 136.5 67.6792C137.567 66.6792 139.7 66.1792 142.9 66.1792L151.25 66.1792L151.25 66.6792L142.9 66.6792C139.967 66.6792 137.983 67.1375 136.95 68.0542C135.917 68.9709 135.4 70.5292 135.4 72.7292L135.4 86.7292C135.4 88.8959 135.9 90.4292 136.9 91.3292C137.9 92.2292 139.9 92.6792 142.9 92.6792L151.25 92.6792Z" fill-rule="evenodd"/>
<path clip-path="url(#TextBounds)" d="M182.3 103.629L161 103.629C160.2 103.629 159.617 103.446 159.25 103.079C158.883 102.713 158.7 102.129 158.7 101.329L158.7 95.3792C158.7 94.9459 158.758 94.5792 158.875 94.2792C158.992 93.9792 159.167 93.7292 159.4 93.5292L165.45 88.4292L165.45 77.2792L161 77.2792C160.2 77.2792 159.617 77.0959 159.25 76.7292C158.883 76.3625 158.7 75.7792 158.7 74.9792L158.7 68.9292C158.7 68.4959 158.758 68.1292 158.875 67.8292C158.992 67.5292 159.167 67.2792 159.4 67.0792L165.85 61.6292C166.017 61.4959 166.242 61.3875 166.525 61.3042C166.808 61.2209 167.117 61.1792 167.45 61.1792L188.75 61.1792C189.55 61.1792 190.133 61.3625 190.5 61.7292C190.867 62.0959 191.05 62.6792 191.05 63.4792L191.05 69.5292C191.05 69.9625 190.992 70.3292 190.875 70.6292C190.758 70.9292 190.583 71.1792 190.35 71.3792L184.4 76.3792L184.4 87.6292L188.75 87.6292C189.55 87.6292 190.133 87.8125 190.5 88.1792C190.867 88.5459 191.05 89.1292 191.05 89.9292L191.05 95.8792C191.05 96.3125 190.992 96.6792 190.875 96.9792C190.758 97.2792 190.583 97.5292 190.35 97.7292L183.85 103.129C183.717 103.263 183.508 103.379 183.225 103.479C182.942 103.579 182.633 103.629 182.3 103.629ZM167.45 97.6792L188.75 97.6792C189.383 97.6792 189.842 97.5375 190.125 97.2542C190.408 96.9709 190.55 96.5125 190.55 95.8792L190.55 89.9292C190.55 89.2959 190.408 88.8375 190.125 88.5542C189.842 88.2709 189.383 88.1292 188.75 88.1292L183.9 88.1292L183.9 71.3292L188.75 71.3292C189.383 71.3292 189.842 71.1875 190.125 70.9042C190.408 70.6209 190.55 70.1625 190.55 69.5292L190.55 63.4792C190.55 62.8459 190.408 62.3875 190.125 62.1042C189.842 61.8209 189.383 61.6792 188.75 61.6792L167.45 61.6792C166.817 61.6792 166.358 61.8209 166.075 62.1042C165.792 62.3875 165.65 62.8459 165.65 63.4792L165.65 69.5292C165.65 70.1625 165.792 70.6209 166.075 70.9042C166.358 71.1875 166.817 71.3292 167.45 71.3292L172.4 71.3292L172.4 88.1292L167.45 88.1292C166.817 88.1292 166.358 88.2709 166.075 88.5542C165.792 88.8375 165.65 89.2959 165.65 89.9292L165.65 95.8792C165.65 96.5125 165.792 96.9709 166.075 97.2542C166.358 97.5375 166.817 97.6792 167.45 97.6792ZM186.05 93.1792L170.15 93.1792L170.15 92.6792L177.9 92.6792L177.9 66.6792L170.15 66.6792L170.15 66.1792L186.05 66.1792L186.05 66.6792L178.4 66.6792L178.4 92.6792L186.05 92.6792L186.05 93.1792Z" fill-rule="evenodd"/>
<path clip-path="url(#TextBounds)" d="M206.75 82.5292L206.75 84.0792L226.25 84.0792L226.25 82.5292C226.25 81.6292 226.175 80.7959 226.025 80.0292C225.875 79.2625 225.683 78.5459 225.45 77.8792L222 69.7292C221.633 68.8625 221.25 68.1375 220.85 67.5542C220.45 66.9709 219.783 66.6792 218.85 66.6792L213.95 66.6792C212.95 66.6792 212.25 66.9709 211.85 67.5542C211.45 68.1375 211.083 68.8459 210.75 69.6792L207.55 77.8792C207.317 78.5459 207.125 79.2625 206.975 80.0292C206.825 80.7959 206.75 81.6292 206.75 82.5292ZM214.75 72.1792C214.883 71.8792 215.025 71.6625 215.175 71.5292C215.325 71.3959 215.5 71.3292 215.7 71.3292L216.95 71.3292C217.15 71.3292 217.325 71.3959 217.475 71.5292C217.625 71.6625 217.767 71.8792 217.9 72.1792L220.25 79.7792L212.4 79.7792L214.75 72.1792ZM226.25 93.1792L226.25 84.5792L206.75 84.5792L206.75 93.1792L206.25 93.1792L206.25 82.5292C206.25 81.5959 206.325 80.7375 206.475 79.9542C206.625 79.1709 206.833 78.4125 207.1 77.6792L210.3 69.4792C210.667 68.5459 211.083 67.7625 211.55 67.1292C212.017 66.4959 212.817 66.1792 213.95 66.1792L218.85 66.1792C219.95 66.1792 220.725 66.4959 221.175 67.1292C221.625 67.7625 222.05 68.5625 222.45 69.5292L225.9 77.6792C226.167 78.4125 226.375 79.1709 226.525 79.9542C226.675 80.7375 226.75 81.5959 226.75 82.5292L226.75 93.1792L226.25 93.1792ZM211.9 95.8792L211.9 88.8792L220.75 88.8792L220.75 95.8792C220.75 96.5125 220.908 96.9709 221.225 97.2542C221.542 97.5375 222.033 97.6792 222.7 97.6792L230.25 97.6792C230.883 97.6792 231.342 97.5375 231.625 97.2542C231.908 96.9709 232.05 96.5125 232.05 95.8792L232.05 82.6792C232.05 81.6792 231.892 80.5292 231.575 79.2292C231.258 77.9292 230.767 76.4125 230.1 74.6792L225.75 63.3292C225.55 62.7625 225.242 62.3459 224.825 62.0792C224.408 61.8125 223.883 61.6792 223.25 61.6792L209.8 61.6792C209.133 61.6792 208.592 61.8125 208.175 62.0792C207.758 62.3459 207.45 62.7625 207.25 63.3292L202.9 74.6792C202.233 76.4125 201.742 77.9292 201.425 79.2292C201.108 80.5292 200.95 81.6792 200.95 82.6792L200.95 95.8792C200.95 96.5125 201.092 96.9709 201.375 97.2542C201.658 97.5375 202.117 97.6792 202.75 97.6792L210.1 97.6792C210.733 97.6792 211.192 97.5375 211.475 97.2542C211.758 96.9709 211.9 96.5125 211.9 95.8792ZM205.2 103.129C205.067 103.263 204.858 103.379 204.575 103.479C204.292 103.579 203.983 103.629 203.65 103.629L196.3 103.629C195.5 103.629 194.917 103.446 194.55 103.079C194.183 102.713 194 102.129 194 101.329L194 88.1292C194 87.0959 194.158 85.9209 194.475 84.6042C194.792 83.2875 195.3 81.7292 196 79.9292L200.3 68.6292C200.4 68.3292 200.525 68.0709 200.675 67.8542C200.825 67.6375 200.983 67.4459 201.15 67.2792L201.2 67.2292L207.6 61.8792C207.867 61.6459 208.183 61.4709 208.55 61.3542C208.917 61.2375 209.333 61.1792 209.8 61.1792L223.25 61.1792C224.017 61.1792 224.642 61.3375 225.125 61.6542C225.608 61.9709 225.967 62.4625 226.2 63.1292L230.55 74.4792C231.25 76.2792 231.758 77.8375 232.075 79.1542C232.392 80.4709 232.55 81.6459 232.55 82.6792L232.55 95.8792C232.55 96.3125 232.492 96.6792 232.375 96.9792C232.258 97.2792 232.083 97.5292 231.85 97.7292L225.35 103.129C225.217 103.263 225.008 103.379 224.725 103.479C224.442 103.579 224.133 103.629 223.8 103.629L216.25 103.629C215.417 103.629 214.8 103.438 214.4 103.054C214 102.671 213.8 102.096 213.8 101.329L213.8 94.8292L212.4 94.8292L212.4 95.8792C212.4 96.3125 212.342 96.6792 212.225 96.9792C212.108 97.2792 211.933 97.5292 211.7 97.7292L205.2 103.129Z" fill-rule="evenodd"/>
<path clip-path="url(#TextBounds)" d="M264 103.629L238.55 103.629C237.75 103.629 237.167 103.446 236.8 103.079C236.433 102.713 236.25 102.129 236.25 101.329L236.25 68.9292C236.25 68.4959 236.308 68.1292 236.425 67.8292C236.542 67.5292 236.717 67.2792 236.95 67.0792L243.4 61.6292C243.567 61.4959 243.792 61.3875 244.075 61.3042C244.358 61.2209 244.667 61.1792 245 61.1792L252.75 61.1792C253.55 61.1792 254.133 61.3625 254.5 61.7292C254.867 62.0959 255.05 62.6792 255.05 63.4792L255.05 83.8292L255.15 83.7292L261.6 78.2792C261.767 78.1459 261.992 78.0375 262.275 77.9542C262.558 77.8709 262.867 77.8292 263.2 77.8292L270.45 77.8292C271.25 77.8292 271.833 78.0125 272.2 78.3792C272.567 78.7459 272.75 79.3292 272.75 80.1292L272.75 95.8792C272.75 96.3125 272.692 96.6792 272.575 96.9792C272.458 97.2792 272.283 97.5292 272.05 97.7292L265.55 103.129C265.417 103.263 265.208 103.379 264.925 103.479C264.642 103.579 264.333 103.629 264 103.629ZM270.45 97.6792C271.083 97.6792 271.542 97.5375 271.825 97.2542C272.108 96.9709 272.25 96.5125 272.25 95.8792L272.25 80.1292C272.25 79.4959 272.108 79.0375 271.825 78.7542C271.542 78.4709 271.083 78.3292 270.45 78.3292L263.2 78.3292C262.567 78.3292 262.108 78.4709 261.825 78.7542C261.542 79.0375 261.4 79.4959 261.4 80.1292L261.4 88.2292L254.55 88.2292L254.55 63.4792C254.55 62.8459 254.408 62.3875 254.125 62.1042C253.842 61.8209 253.383 61.6792 252.75 61.6792L245 61.6792C244.367 61.6792 243.908 61.8209 243.625 62.1042C243.342 62.3875 243.2 62.8459 243.2 63.4792L243.2 95.8792C243.2 96.5125 243.342 96.9709 243.625 97.2542C243.908 97.5375 244.367 97.6792 245 97.6792L270.45 97.6792ZM248.65 93.1792L248.65 66.1792L249.15 66.1792L249.15 92.6792L266.55 92.6792L266.55 82.8292L267.05 82.8292L267.05 93.1792L248.65 93.1792Z" fill-rule="evenodd"/>
<path clip-path="url(#TextBounds)" d="M303.75 103.629L278.3 103.629C277.5 103.629 276.917 103.446 276.55 103.079C276.183 102.713 276 102.129 276 101.329L276 68.9292C276 68.4959 276.058 68.1292 276.175 67.8292C276.292 67.5292 276.467 67.2792 276.7 67.0792L283.15 61.6292C283.317 61.4959 283.542 61.3875 283.825 61.3042C284.108 61.2209 284.417 61.1792 284.75 61.1792L292.5 61.1792C293.3 61.1792 293.883 61.3625 294.25 61.7292C294.617 62.0959 294.8 62.6792 294.8 63.4792L294.8 83.8292L294.9 83.7292L301.35 78.2792C301.517 78.1459 301.742 78.0375 302.025 77.9542C302.308 77.8709 302.617 77.8292 302.95 77.8292L310.2 77.8292C311 77.8292 311.583 78.0125 311.95 78.3792C312.317 78.7459 312.5 79.3292 312.5 80.1292L312.5 95.8792C312.5 96.3125 312.442 96.6792 312.325 96.9792C312.208 97.2792 312.033 97.5292 311.8 97.7292L305.3 103.129C305.167 103.263 304.958 103.379 304.675 103.479C304.392 103.579 304.083 103.629 303.75 103.629ZM310.2 97.6792C310.833 97.6792 311.292 97.5375 311.575 97.2542C311.858 96.9709 312 96.5125 312 95.8792L312 80.1292C312 79.4959 311.858 79.0375 311.575 78.7542C311.292 78.4709 310.833 78.3292 310.2 78.3292L302.95 78.3292C302.317 78.3292 301.858 78.4709 301.575 78.7542C301.292 79.0375 301.15 79.4959 301.15 80.1292L301.15 88.2292L294.3 88.2292L294.3 63.4792C294.3 62.8459 294.158 62.3875 293.875 62.1042C293.592 61.8209 293.133 61.6792 292.5 61.6792L284.75 61.6792C284.117 61.6792 283.658 61.8209 283.375 62.1042C283.092 62.3875 282.95 62.8459 282.95 63.4792L282.95 95.8792C282.95 96.5125 283.092 96.9709 283.375 97.2542C283.658 97.5375 284.117 97.6792 284.75 97.6792L310.2 97.6792ZM288.4 93.1792L288.4 66.1792L288.9 66.1792L288.9 92.6792L306.3 92.6792L306.3 82.8292L306.8 82.8292L306.8 93.1792L288.4 93.1792Z" fill-rule="evenodd"/>
<path clip-path="url(#TextBounds)" d="M332 103.629L323.9 103.629C323.067 103.629 322.475 103.446 322.125 103.079C321.775 102.713 321.6 102.129 321.6 101.329L321.6 95.0792L314.05 84.9792C313.25 83.9125 312.717 82.9792 312.45 82.1792C312.183 81.3792 312.05 80.1625 312.05 78.5292L312.05 68.9292C312.05 68.4959 312.108 68.1292 312.225 67.8292C312.342 67.5292 312.517 67.2792 312.75 67.0792L319.2 61.6292C319.367 61.4959 319.592 61.3875 319.875 61.3042C320.158 61.2209 320.467 61.1792 320.8 61.1792L328.5 61.1792C329.3 61.1792 329.883 61.3625 330.25 61.7292C330.617 62.0959 330.8 62.6792 330.8 63.4792L330.8 71.6792C330.8 71.9792 330.817 72.2792 330.85 72.5792C330.883 72.8792 330.983 73.1959 331.15 73.5292L331.75 74.3792L331.75 68.9292C331.75 68.4959 331.808 68.1292 331.925 67.8292C332.042 67.5292 332.217 67.2792 332.45 67.0792L338.9 61.6292C339.067 61.4959 339.292 61.3875 339.575 61.3042C339.858 61.2209 340.167 61.1792 340.5 61.1792L347.95 61.1792C348.75 61.1792 349.333 61.3625 349.7 61.7292C350.067 62.0959 350.25 62.6792 350.25 63.4792L350.25 73.0792C350.25 74.7125 350.117 75.9292 349.85 76.7292C349.583 77.5292 349.05 78.4625 348.25 79.5292L340.75 89.6792L340.75 95.8792C340.75 96.3125 340.692 96.6792 340.575 96.9792C340.458 97.2792 340.283 97.5292 340.05 97.7292L333.55 103.129C333.417 103.263 333.208 103.379 332.925 103.479C332.642 103.579 332.333 103.629 332 103.629ZM338.45 97.6792C339.083 97.6792 339.542 97.5375 339.825 97.2542C340.108 96.9709 340.25 96.5125 340.25 95.8792L340.25 89.5292L347.85 79.2292C348.583 78.1959 349.083 77.2959 349.35 76.5292C349.617 75.7625 349.75 74.6125 349.75 73.0792L349.75 63.4792C349.75 62.8459 349.608 62.3875 349.325 62.1042C349.042 61.8209 348.583 61.6792 347.95 61.6792L340.5 61.6792C339.867 61.6792 339.408 61.8209 339.125 62.1042C338.842 62.3875 338.7 62.8459 338.7 63.4792L338.7 71.6792C338.7 72.0125 338.683 72.3625 338.65 72.7292C338.617 73.0959 338.483 73.4459 338.25 73.7792L335.95 77.3792C335.783 77.6792 335.608 77.8959 335.425 78.0292C335.242 78.1625 335.017 78.2292 334.75 78.2292L334.25 78.2292C333.983 78.2292 333.758 78.1625 333.575 78.0292C333.392 77.8959 333.217 77.6792 333.05 77.3792L330.75 73.7792C330.517 73.4459 330.383 73.0959 330.35 72.7292C330.317 72.3625 330.3 72.0125 330.3 71.6792L330.3 63.4792C330.3 62.8459 330.158 62.3875 329.875 62.1042C329.592 61.8209 329.133 61.6792 328.5 61.6792L320.8 61.6792C320.167 61.6792 319.708 61.8209 319.425 62.1042C319.142 62.3875 319 62.8459 319 63.4792L319 73.0792C319 74.6125 319.125 75.7625 319.375 76.5292C319.625 77.2959 320.133 78.1959 320.9 79.2292L328.55 89.4792L328.55 95.8792C328.55 96.5125 328.692 96.9709 328.975 97.2542C329.258 97.5375 329.717 97.6792 330.35 97.6792L338.45 97.6792ZM335 84.6292L334.65 84.6292L334.65 93.1792L334.15 93.1792L334.15 84.6292L333.65 84.6292C332.917 84.6292 332.258 84.4625 331.675 84.1292C331.092 83.7959 330.533 83.2625 330 82.5292L325.15 75.7792C324.783 75.2792 324.567 74.6959 324.5 74.0292C324.433 73.3625 324.4 72.6625 324.4 71.9292L324.4 66.1792L324.9 66.1792L324.9 71.9292C324.9 72.6292 324.933 73.2875 325 73.9042C325.067 74.5209 325.267 75.0792 325.6 75.5792L330.45 82.3292C330.883 82.9959 331.383 83.4625 331.95 83.7292C332.517 83.9959 333.083 84.1292 333.65 84.1292L335 84.1292C335.633 84.1292 336.208 83.9875 336.725 83.7042C337.242 83.4209 337.75 82.9625 338.25 82.3292L343.25 75.5792C343.583 75.1459 343.783 74.6042 343.85 73.9542C343.917 73.3042 343.95 72.6292 343.95 71.9292L343.95 66.1792L344.45 66.1792L344.45 71.9292C344.45 72.6625 344.425 73.3542 344.375 74.0042C344.325 74.6542 344.1 75.2459 343.7 75.7792L338.7 82.5292C338.167 83.2625 337.608 83.7959 337.025 84.1292C336.442 84.4625 335.767 84.6292 335 84.6292Z" fill-rule="evenodd"/>
</g>
<g fill="#ff6f3c" opacity="1" stroke="none">
<path clip-path="url(#TextBounds_2)" d="M150.178 153.868L126.978 153.868C126.178 153.868 125.595 153.684 125.228 153.318C124.861 152.951 124.678 152.368 124.678 151.568L124.678 119.168C124.678 118.734 124.736 118.368 124.853 118.068C124.97 117.768 125.145 117.518 125.378 117.318L131.828 111.868C131.995 111.734 132.22 111.626 132.503 111.543C132.786 111.459 133.095 111.418 133.428 111.418L156.628 111.418C157.428 111.418 158.011 111.601 158.378 111.968C158.745 112.334 158.928 112.918 158.928 113.718L158.928 119.568C158.928 120.001 158.87 120.368 158.753 120.668C158.636 120.968 158.461 121.218 158.228 121.418L153.928 124.968C154.261 125.134 154.503 125.384 154.653 125.718C154.803 126.051 154.878 126.484 154.878 127.018L154.878 132.368C154.878 132.801 154.82 133.168 154.703 133.468C154.586 133.768 154.411 134.018 154.178 134.218L149.728 137.968L156.628 137.968C157.428 137.968 158.011 138.151 158.378 138.518C158.745 138.884 158.928 139.468 158.928 140.268L158.928 146.118C158.928 146.551 158.87 146.918 158.753 147.218C158.636 147.518 158.461 147.768 158.228 147.968L151.728 153.368C151.595 153.501 151.386 153.618 151.103 153.718C150.82 153.818 150.511 153.868 150.178 153.868ZM156.628 147.918C157.261 147.918 157.72 147.776 158.003 147.493C158.286 147.209 158.428 146.751 158.428 146.118L158.428 140.268C158.428 139.634 158.286 139.176 158.003 138.893C157.72 138.609 157.261 138.468 156.628 138.468L142.828 138.468L142.828 134.168L152.578 134.168C153.211 134.168 153.67 134.026 153.953 133.743C154.236 133.459 154.378 133.001 154.378 132.368L154.378 127.018C154.378 126.384 154.236 125.926 153.953 125.643C153.67 125.359 153.211 125.218 152.578 125.218L142.828 125.218L142.828 121.368L156.628 121.368C157.261 121.368 157.72 121.226 158.003 120.943C158.286 120.659 158.428 120.201 158.428 119.568L158.428 113.718C158.428 113.084 158.286 112.626 158.003 112.343C157.72 112.059 157.261 111.918 156.628 111.918L133.428 111.918C132.795 111.918 132.336 112.059 132.053 112.343C131.77 112.626 131.628 113.084 131.628 113.718L131.628 146.118C131.628 146.751 131.77 147.209 132.053 147.493C132.336 147.776 132.795 147.918 133.428 147.918L156.628 147.918ZM153.928 142.918L153.928 143.418L137.078 143.418L137.078 116.418L153.928 116.418L153.928 116.918L137.578 116.918L137.578 129.468L149.878 129.468L149.878 129.968L137.578 129.968L137.578 142.918L153.928 142.918Z" fill-rule="evenodd"/>
<path clip-path="url(#TextBounds_2)" d="M186.928 128.668C187.528 128.668 187.961 128.534 188.228 128.268C188.495 128.001 188.911 127.434 189.478 126.568L195.578 117.268C195.778 116.934 196.003 116.709 196.253 116.593C196.503 116.476 196.761 116.418 197.028 116.418L197.878 116.418C198.345 116.418 198.686 116.543 198.903 116.793C199.12 117.043 199.228 117.434 199.228 117.968L199.228 143.418L198.728 143.418L198.728 117.968C198.728 117.701 198.67 117.459 198.553 117.243C198.436 117.026 198.211 116.918 197.878 116.918L197.128 116.918C196.895 116.918 196.695 116.951 196.528 117.018C196.361 117.084 196.178 117.284 195.978 117.618L189.878 126.818C189.278 127.718 188.82 128.334 188.503 128.668C188.186 129.001 187.661 129.168 186.928 129.168C186.195 129.168 185.67 129.001 185.353 128.668C185.036 128.334 184.578 127.718 183.978 126.818L177.878 117.618C177.678 117.284 177.486 117.084 177.303 117.018C177.12 116.951 176.911 116.918 176.678 116.918L175.928 116.918C175.595 116.918 175.378 117.026 175.278 117.243C175.178 117.459 175.128 117.701 175.128 117.968L175.128 143.418L174.628 143.418L174.628 117.968C174.628 117.434 174.736 117.043 174.953 116.793C175.17 116.543 175.495 116.418 175.928 116.418L176.778 116.418C177.045 116.418 177.311 116.476 177.578 116.593C177.845 116.709 178.078 116.934 178.278 117.268L184.378 126.568C184.945 127.434 185.361 128.001 185.628 128.268C185.895 128.534 186.328 128.668 186.928 128.668ZM178.578 147.918C179.211 147.918 179.67 147.776 179.953 147.493C180.236 147.209 180.378 146.751 180.378 146.118L180.378 128.518L183.328 133.968C183.628 134.534 183.986 134.943 184.403 135.193C184.82 135.443 185.345 135.568 185.978 135.568L187.978 135.568C188.611 135.568 189.136 135.443 189.553 135.193C189.97 134.943 190.328 134.534 190.628 133.968L193.578 128.518L193.578 146.118C193.578 146.751 193.72 147.209 194.003 147.493C194.286 147.776 194.745 147.918 195.378 147.918L203.078 147.918C203.711 147.918 204.17 147.776 204.453 147.493C204.736 147.209 204.878 146.751 204.878 146.118L204.878 113.718C204.878 113.084 204.736 112.626 204.453 112.343C204.17 112.059 203.711 111.918 203.078 111.918L194.978 111.918C194.445 111.918 194.003 112.034 193.653 112.268C193.303 112.501 192.978 112.884 192.678 113.418L188.228 121.568C188.061 121.868 187.92 122.084 187.803 122.218C187.686 122.351 187.528 122.418 187.328 122.418L186.878 122.418C186.678 122.418 186.52 122.351 186.403 122.218C186.286 122.084 186.145 121.868 185.978 121.568L181.478 113.418C181.178 112.884 180.853 112.501 180.503 112.268C180.153 112.034 179.711 111.918 179.178 111.918L171.128 111.918C170.495 111.918 170.036 112.059 169.753 112.343C169.47 112.626 169.328 113.084 169.328 113.718L169.328 146.118C169.328 146.751 169.47 147.209 169.753 147.493C170.036 147.776 170.495 147.918 171.128 147.918L178.578 147.918ZM180.178 147.968L173.678 153.368C173.545 153.501 173.336 153.618 173.053 153.718C172.77 153.818 172.461 153.868 172.128 153.868L164.678 153.868C163.878 153.868 163.295 153.684 162.928 153.318C162.561 152.951 162.378 152.368 162.378 151.568L162.378 119.168C162.378 118.734 162.436 118.368 162.553 118.068C162.67 117.768 162.845 117.518 163.078 117.318L169.528 111.868C169.695 111.734 169.92 111.626 170.203 111.543C170.486 111.459 170.795 111.418 171.128 111.418L179.178 111.418C179.811 111.418 180.336 111.551 180.753 111.818C181.17 112.084 181.561 112.534 181.928 113.168L185.328 119.418L185.778 118.618C185.911 118.384 186.053 118.159 186.203 117.943C186.353 117.726 186.511 117.551 186.678 117.418L193.128 112.018C193.395 111.818 193.67 111.668 193.953 111.568C194.236 111.468 194.578 111.418 194.978 111.418L203.078 111.418C203.878 111.418 204.461 111.601 204.828 111.968C205.195 112.334 205.378 112.918 205.378 113.718L205.378 146.118C205.378 146.551 205.32 146.918 205.203 147.218C205.086 147.518 204.911 147.768 204.678 147.968L198.178 153.368C198.045 153.501 197.836 153.618 197.553 153.718C197.27 153.818 196.961 153.868 196.628 153.868L188.928 153.868C188.095 153.868 187.503 153.684 187.153 153.318C186.803 152.951 186.628 152.368 186.628 151.568L186.628 138.368L183.678 140.818C183.411 141.051 183.103 141.226 182.753 141.343C182.403 141.459 181.995 141.518 181.528 141.518L180.878 141.518L180.878 146.118C180.878 146.551 180.82 146.918 180.703 147.218C180.586 147.518 180.411 147.768 180.178 147.968Z" fill-rule="evenodd"/>
<path clip-path="url(#TextBounds_2)" d="M212.128 153.868C211.328 153.868 210.745 153.684 210.378 153.318C210.011 152.951 209.828 152.368 209.828 151.568L209.828 119.168C209.828 118.734 209.886 118.368 210.003 118.068C210.12 117.768 210.295 117.518 210.528 117.318L216.978 111.868C217.145 111.734 217.37 111.626 217.653 111.543C217.936 111.459 218.245 111.418 218.578 111.418L234.528 111.418C237.995 111.418 240.545 112.093 242.178 113.443C243.811 114.793 244.628 116.834 244.628 119.568L244.628 121.968C244.628 123.134 244.47 124.134 244.153 124.968C243.836 125.801 243.361 126.468 242.728 126.968L242.578 127.068C244.378 127.468 245.728 128.326 246.628 129.643C247.528 130.959 247.978 132.784 247.978 135.118L247.978 139.718C247.978 141.218 247.761 142.509 247.328 143.593C246.895 144.676 246.245 145.584 245.378 146.318L238.928 151.768C238.095 152.468 237.045 152.993 235.778 153.343C234.511 153.693 233.028 153.868 231.328 153.868L212.128 153.868ZM237.778 147.918C241.078 147.918 243.52 147.251 245.103 145.918C246.686 144.584 247.478 142.518 247.478 139.718L247.478 135.118C247.478 132.684 246.961 130.834 245.928 129.568C244.895 128.301 243.311 127.568 241.178 127.368C242.178 126.934 242.92 126.276 243.403 125.393C243.886 124.509 244.128 123.368 244.128 121.968L244.128 119.568C244.128 116.968 243.345 115.043 241.778 113.793C240.211 112.543 237.795 111.918 234.528 111.918L218.578 111.918C217.945 111.918 217.486 112.059 217.203 112.343C216.92 112.626 216.778 113.084 216.778 113.718L216.778 146.118C216.778 146.751 216.92 147.209 217.203 147.493C217.486 147.776 217.945 147.918 218.578 147.918L237.778 147.918ZM235.778 143.418L222.328 143.418L222.328 116.418L232.478 116.418C233.845 116.418 234.961 116.559 235.828 116.843C236.695 117.126 237.361 117.509 237.828 117.993C238.295 118.476 238.611 119.034 238.778 119.668C238.945 120.301 239.028 120.984 239.028 121.718L239.028 124.918C239.028 125.918 238.853 126.834 238.503 127.668C238.153 128.501 237.261 129.101 235.828 129.468C237.195 129.468 238.311 129.609 239.178 129.893C240.045 130.176 240.711 130.576 241.178 131.093C241.645 131.609 241.953 132.218 242.103 132.918C242.253 133.618 242.328 134.384 242.328 135.218L242.328 138.418C242.328 139.151 242.245 139.826 242.078 140.443C241.911 141.059 241.603 141.584 241.153 142.018C240.703 142.451 240.045 142.793 239.178 143.043C238.311 143.293 237.178 143.418 235.778 143.418ZM232.478 116.918L222.828 116.918L222.828 129.468L232.478 129.468C233.845 129.468 234.928 129.343 235.728 129.093C236.528 128.843 237.136 128.509 237.553 128.093C237.97 127.676 238.236 127.193 238.353 126.643C238.47 126.093 238.528 125.518 238.528 124.918L238.528 121.718C238.528 120.384 238.145 119.251 237.378 118.318C236.611 117.384 234.978 116.918 232.478 116.918ZM228.028 120.418L232.278 120.418C232.911 120.418 233.386 120.584 233.703 120.918C234.02 121.251 234.178 121.751 234.178 122.418L234.178 123.818C234.178 124.484 234.02 124.984 233.703 125.318C233.386 125.651 232.911 125.818 232.278 125.818L228.028 125.818L228.028 120.418ZM235.828 129.968L222.828 129.968L222.828 142.918L235.778 142.918C238.278 142.918 239.911 142.509 240.678 141.693C241.445 140.876 241.828 139.784 241.828 138.418L241.828 135.218C241.828 133.718 241.453 132.468 240.703 131.468C239.953 130.468 238.328 129.968 235.828 129.968ZM228.028 133.518L234.528 133.518C235.161 133.518 235.636 133.676 235.953 133.993C236.27 134.309 236.428 134.801 236.428 135.468L236.428 137.418C236.428 138.084 236.27 138.584 235.953 138.918C235.636 139.251 235.161 139.418 234.528 139.418L228.028 139.418L228.028 133.518Z" fill-rule="evenodd"/>
<path clip-path="url(#TextBounds_2)" d="M276.578 153.868L253.378 153.868C252.578 153.868 251.995 153.684 251.628 153.318C251.261 152.951 251.078 152.368 251.078 151.568L251.078 119.168C251.078 118.734 251.136 118.368 251.253 118.068C251.37 117.768 251.545 117.518 251.778 117.318L258.228 111.868C258.395 111.734 258.62 111.626 258.903 111.543C259.186 111.459 259.495 111.418 259.828 111.418L283.028 111.418C283.828 111.418 284.411 111.601 284.778 111.968C285.145 112.334 285.328 112.918 285.328 113.718L285.328 119.568C285.328 120.001 285.27 120.368 285.153 120.668C285.036 120.968 284.861 121.218 284.628 121.418L280.328 124.968C280.661 125.134 280.903 125.384 281.053 125.718C281.203 126.051 281.278 126.484 281.278 127.018L281.278 132.368C281.278 132.801 281.22 133.168 281.103 133.468C280.986 133.768 280.811 134.018 280.578 134.218L276.128 137.968L283.028 137.968C283.828 137.968 284.411 138.151 284.778 138.518C285.145 138.884 285.328 139.468 285.328 140.268L285.328 146.118C285.328 146.551 285.27 146.918 285.153 147.218C285.036 147.518 284.861 147.768 284.628 147.968L278.128 153.368C277.995 153.501 277.786 153.618 277.503 153.718C277.22 153.818 276.911 153.868 276.578 153.868ZM283.028 147.918C283.661 147.918 284.12 147.776 284.403 147.493C284.686 147.209 284.828 146.751 284.828 146.118L284.828 140.268C284.828 139.634 284.686 139.176 284.403 138.893C284.12 138.609 283.661 138.468 283.028 138.468L269.228 138.468L269.228 134.168L278.978 134.168C279.611 134.168 280.07 134.026 280.353 133.743C280.636 133.459 280.778 133.001 280.778 132.368L280.778 127.018C280.778 126.384 280.636 125.926 280.353 125.643C280.07 125.359 279.611 125.218 278.978 125.218L269.228 125.218L269.228 121.368L283.028 121.368C283.661 121.368 284.12 121.226 284.403 120.943C284.686 120.659 284.828 120.201 284.828 119.568L284.828 113.718C284.828 113.084 284.686 112.626 284.403 112.343C284.12 112.059 283.661 111.918 283.028 111.918L259.828 111.918C259.195 111.918 258.736 112.059 258.453 112.343C258.17 112.626 258.028 113.084 258.028 113.718L258.028 146.118C258.028 146.751 258.17 147.209 258.453 147.493C258.736 147.776 259.195 147.918 259.828 147.918L283.028 147.918ZM280.328 142.918L280.328 143.418L263.478 143.418L263.478 116.418L280.328 116.418L280.328 116.918L263.978 116.918L263.978 129.468L276.278 129.468L276.278 129.968L263.978 129.968L263.978 142.918L280.328 142.918Z" fill-rule="evenodd"/>
<path clip-path="url(#TextBounds_2)" d="M317.528 151.218C316.495 152.084 315.178 152.743 313.578 153.193C311.978 153.643 310.095 153.868 307.928 153.868L291.078 153.868C290.278 153.868 289.695 153.684 289.328 153.318C288.961 152.951 288.778 152.368 288.778 151.568L288.778 119.168C288.778 118.734 288.836 118.368 288.953 118.068C289.07 117.768 289.245 117.518 289.478 117.318L295.928 111.868C296.095 111.734 296.32 111.626 296.603 111.543C296.886 111.459 297.195 111.418 297.528 111.418L314.378 111.418C318.745 111.418 321.97 112.301 324.053 114.068C326.136 115.834 327.178 118.518 327.178 122.118L327.178 137.718C327.178 139.518 326.911 141.093 326.378 142.443C325.845 143.793 325.061 144.918 324.028 145.818L317.528 151.218ZM314.378 147.918C318.545 147.918 321.636 147.084 323.653 145.418C325.67 143.751 326.678 141.184 326.678 137.718L326.678 122.118C326.678 118.651 325.67 116.084 323.653 114.418C321.636 112.751 318.545 111.918 314.378 111.918L297.528 111.918C296.895 111.918 296.436 112.059 296.153 112.343C295.87 112.626 295.728 113.084 295.728 113.718L295.728 146.118C295.728 146.751 295.87 147.209 296.153 147.493C296.436 147.776 296.895 147.918 297.528 147.918L314.378 147.918ZM301.178 143.418L301.178 116.418L313.278 116.418C314.978 116.418 316.353 116.601 317.403 116.968C318.453 117.334 319.261 117.826 319.828 118.443C320.395 119.059 320.778 119.793 320.978 120.643C321.178 121.493 321.278 122.401 321.278 123.368L321.278 136.618C321.278 137.584 321.186 138.484 321.003 139.318C320.82 140.151 320.445 140.868 319.878 141.468C319.311 142.068 318.495 142.543 317.428 142.893C316.361 143.243 314.978 143.418 313.278 143.418L301.178 143.418ZM313.278 116.918L301.678 116.918L301.678 142.918L313.278 142.918C314.878 142.918 316.17 142.759 317.153 142.443C318.136 142.126 318.895 141.693 319.428 141.143C319.961 140.593 320.32 139.926 320.503 139.143C320.686 138.359 320.778 137.518 320.778 136.618L320.778 123.368C320.778 122.468 320.678 121.618 320.478 120.818C320.278 120.018 319.911 119.334 319.378 118.768C318.845 118.201 318.086 117.751 317.103 117.418C316.12 117.084 314.845 116.918 313.278 116.918ZM307.078 121.468L313.028 121.468C313.828 121.468 314.42 121.659 314.803 122.043C315.186 122.426 315.378 123.034 315.378 123.868L315.378 136.018C315.378 136.851 315.186 137.468 314.803 137.868C314.42 138.268 313.828 138.468 313.028 138.468L307.078 138.468L307.078 121.468ZM308.428 129.318C308.428 128.884 308.361 128.518 308.228 128.218C308.095 127.918 307.878 127.701 307.578 127.568L307.578 137.968L308.428 137.968L308.428 129.318Z" fill-rule="evenodd"/>
<path clip-path="url(#TextBounds_2)" d="M359.828 151.218C358.795 152.084 357.478 152.743 355.878 153.193C354.278 153.643 352.395 153.868 350.228 153.868L333.378 153.868C332.578 153.868 331.995 153.684 331.628 153.318C331.261 152.951 331.078 152.368 331.078 151.568L331.078 119.168C331.078 118.734 331.136 118.368 331.253 118.068C331.37 117.768 331.545 117.518 331.778 117.318L338.228 111.868C338.395 111.734 338.62 111.626 338.903 111.543C339.186 111.459 339.495 111.418 339.828 111.418L356.678 111.418C361.045 111.418 364.27 112.301 366.353 114.068C368.436 115.834 369.478 118.518 369.478 122.118L369.478 137.718C369.478 139.518 369.211 141.093 368.678 142.443C368.145 143.793 367.361 144.918 366.328 145.818L359.828 151.218ZM356.678 147.918C360.845 147.918 363.936 147.084 365.953 145.418C367.97 143.751 368.978 141.184 368.978 137.718L368.978 122.118C368.978 118.651 367.97 116.084 365.953 114.418C363.936 112.751 360.845 111.918 356.678 111.918L339.828 111.918C339.195 111.918 338.736 112.059 338.453 112.343C338.17 112.626 338.028 113.084 338.028 113.718L338.028 146.118C338.028 146.751 338.17 147.209 338.453 147.493C338.736 147.776 339.195 147.918 339.828 147.918L356.678 147.918ZM343.478 143.418L343.478 116.418L355.578 116.418C357.278 116.418 358.653 116.601 359.703 116.968C360.753 117.334 361.561 117.826 362.128 118.443C362.695 119.059 363.078 119.793 363.278 120.643C363.478 121.493 363.578 122.401 363.578 123.368L363.578 136.618C363.578 137.584 363.486 138.484 363.303 139.318C363.12 140.151 362.745 140.868 362.178 141.468C361.611 142.068 360.795 142.543 359.728 142.893C358.661 143.243 357.278 143.418 355.578 143.418L343.478 143.418ZM355.578 116.918L343.978 116.918L343.978 142.918L355.578 142.918C357.178 142.918 358.47 142.759 359.453 142.443C360.436 142.126 361.195 141.693 361.728 141.143C362.261 140.593 362.62 139.926 362.803 139.143C362.986 138.359 363.078 137.518 363.078 136.618L363.078 123.368C363.078 122.468 362.978 121.618 362.778 120.818C362.578 120.018 362.211 119.334 361.678 118.768C361.145 118.201 360.386 117.751 359.403 117.418C358.42 117.084 357.145 116.918 355.578 116.918ZM349.378 121.468L355.328 121.468C356.128 121.468 356.72 121.659 357.103 122.043C357.486 122.426 357.678 123.034 357.678 123.868L357.678 136.018C357.678 136.851 357.486 137.468 357.103 137.868C356.72 138.268 356.128 138.468 355.328 138.468L349.378 138.468L349.378 121.468ZM350.728 129.318C350.728 128.884 350.661 128.518 350.528 128.218C350.395 127.918 350.178 127.701 349.878 127.568L349.878 137.968L350.728 137.968L350.728 129.318Z" fill-rule="evenodd"/>
<path clip-path="url(#TextBounds_2)" d="M398.878 153.868L375.678 153.868C374.878 153.868 374.295 153.684 373.928 153.318C373.561 152.951 373.378 152.368 373.378 151.568L373.378 119.168C373.378 118.734 373.436 118.368 373.553 118.068C373.67 117.768 373.845 117.518 374.078 117.318L380.528 111.868C380.695 111.734 380.92 111.626 381.203 111.543C381.486 111.459 381.795 111.418 382.128 111.418L405.328 111.418C406.128 111.418 406.711 111.601 407.078 111.968C407.445 112.334 407.628 112.918 407.628 113.718L407.628 119.568C407.628 120.001 407.57 120.368 407.453 120.668C407.336 120.968 407.161 121.218 406.928 121.418L402.628 124.968C402.961 125.134 403.203 125.384 403.353 125.718C403.503 126.051 403.578 126.484 403.578 127.018L403.578 132.368C403.578 132.801 403.52 133.168 403.403 133.468C403.286 133.768 403.111 134.018 402.878 134.218L398.428 137.968L405.328 137.968C406.128 137.968 406.711 138.151 407.078 138.518C407.445 138.884 407.628 139.468 407.628 140.268L407.628 146.118C407.628 146.551 407.57 146.918 407.453 147.218C407.336 147.518 407.161 147.768 406.928 147.968L400.428 153.368C400.295 153.501 400.086 153.618 399.803 153.718C399.52 153.818 399.211 153.868 398.878 153.868ZM405.328 147.918C405.961 147.918 406.42 147.776 406.703 147.493C406.986 147.209 407.128 146.751 407.128 146.118L407.128 140.268C407.128 139.634 406.986 139.176 406.703 138.893C406.42 138.609 405.961 138.468 405.328 138.468L391.528 138.468L391.528 134.168L401.278 134.168C401.911 134.168 402.37 134.026 402.653 133.743C402.936 133.459 403.078 133.001 403.078 132.368L403.078 127.018C403.078 126.384 402.936 125.926 402.653 125.643C402.37 125.359 401.911 125.218 401.278 125.218L391.528 125.218L391.528 121.368L405.328 121.368C405.961 121.368 406.42 121.226 406.703 120.943C406.986 120.659 407.128 120.201 407.128 119.568L407.128 113.718C407.128 113.084 406.986 112.626 406.703 112.343C406.42 112.059 405.961 111.918 405.328 111.918L382.128 111.918C381.495 111.918 381.036 112.059 380.753 112.343C380.47 112.626 380.328 113.084 380.328 113.718L380.328 146.118C380.328 146.751 380.47 147.209 380.753 147.493C381.036 147.776 381.495 147.918 382.128 147.918L405.328 147.918ZM402.628 142.918L402.628 143.418L385.778 143.418L385.778 116.418L402.628 116.418L402.628 116.918L386.278 116.918L386.278 129.468L398.578 129.468L398.578 129.968L386.278 129.968L386.278 142.918L402.628 142.918Z" fill-rule="evenodd"/>
<path clip-path="url(#TextBounds_2)" d="M439.828 151.218C438.795 152.084 437.478 152.743 435.878 153.193C434.278 153.643 432.395 153.868 430.228 153.868L413.378 153.868C412.578 153.868 411.995 153.684 411.628 153.318C411.261 152.951 411.078 152.368 411.078 151.568L411.078 119.168C411.078 118.734 411.136 118.368 411.253 118.068C411.37 117.768 411.545 117.518 411.778 117.318L418.228 111.868C418.395 111.734 418.62 111.626 418.903 111.543C419.186 111.459 419.495 111.418 419.828 111.418L436.678 111.418C441.045 111.418 444.27 112.301 446.353 114.068C448.436 115.834 449.478 118.518 449.478 122.118L449.478 137.718C449.478 139.518 449.211 141.093 448.678 142.443C448.145 143.793 447.361 144.918 446.328 145.818L439.828 151.218ZM436.678 147.918C440.845 147.918 443.936 147.084 445.953 145.418C447.97 143.751 448.978 141.184 448.978 137.718L448.978 122.118C448.978 118.651 447.97 116.084 445.953 114.418C443.936 112.751 440.845 111.918 436.678 111.918L419.828 111.918C419.195 111.918 418.736 112.059 418.453 112.343C418.17 112.626 418.028 113.084 418.028 113.718L418.028 146.118C418.028 146.751 418.17 147.209 418.453 147.493C418.736 147.776 419.195 147.918 419.828 147.918L436.678 147.918ZM423.478 143.418L423.478 116.418L435.578 116.418C437.278 116.418 438.653 116.601 439.703 116.968C440.753 117.334 441.561 117.826 442.128 118.443C442.695 119.059 443.078 119.793 443.278 120.643C443.478 121.493 443.578 122.401 443.578 123.368L443.578 136.618C443.578 137.584 443.486 138.484 443.303 139.318C443.12 140.151 442.745 140.868 442.178 141.468C441.611 142.068 440.795 142.543 439.728 142.893C438.661 143.243 437.278 143.418 435.578 143.418L423.478 143.418ZM435.578 116.918L423.978 116.918L423.978 142.918L435.578 142.918C437.178 142.918 438.47 142.759 439.453 142.443C440.436 142.126 441.195 141.693 441.728 141.143C442.261 140.593 442.62 139.926 442.803 139.143C442.986 138.359 443.078 137.518 443.078 136.618L443.078 123.368C443.078 122.468 442.978 121.618 442.778 120.818C442.578 120.018 442.211 119.334 441.678 118.768C441.145 118.201 440.386 117.751 439.403 117.418C438.42 117.084 437.145 116.918 435.578 116.918ZM429.378 121.468L435.328 121.468C436.128 121.468 436.72 121.659 437.103 122.043C437.486 122.426 437.678 123.034 437.678 123.868L437.678 136.018C437.678 136.851 437.486 137.468 437.103 137.868C436.72 138.268 436.128 138.468 435.328 138.468L429.378 138.468L429.378 121.468ZM430.728 129.318C430.728 128.884 430.661 128.518 430.528 128.218C430.395 127.918 430.178 127.701 429.878 127.568L429.878 137.968L430.728 137.968L430.728 129.318Z" fill-rule="evenodd"/>
</g>
<g fill="#ffc93c" opacity="1" stroke="none">
<path clip-path="url(#TextBounds_3)" d="M232.706 204.368L207.256 204.368C206.456 204.368 205.873 204.184 205.506 203.818C205.14 203.451 204.956 202.868 204.956 202.068L204.956 169.668C204.956 169.234 205.015 168.868 205.131 168.568C205.248 168.268 205.423 168.018 205.656 167.818L212.106 162.368C212.273 162.234 212.498 162.126 212.781 162.043C213.065 161.959 213.373 161.918 213.706 161.918L221.456 161.918C222.256 161.918 222.84 162.101 223.206 162.468C223.573 162.834 223.756 163.418 223.756 164.218L223.756 184.568L223.856 184.468L230.306 179.018C230.473 178.884 230.698 178.776 230.981 178.693C231.265 178.609 231.573 178.568 231.906 178.568L239.156 178.568C239.956 178.568 240.54 178.751 240.906 179.118C241.273 179.484 241.456 180.068 241.456 180.868L241.456 196.618C241.456 197.051 241.398 197.418 241.281 197.718C241.165 198.018 240.99 198.268 240.756 198.468L234.256 203.868C234.123 204.001 233.915 204.118 233.631 204.218C233.348 204.318 233.04 204.368 232.706 204.368ZM239.156 198.418C239.79 198.418 240.248 198.276 240.531 197.993C240.815 197.709 240.956 197.251 240.956 196.618L240.956 180.868C240.956 180.234 240.815 179.776 240.531 179.493C240.248 179.209 239.79 179.068 239.156 179.068L231.906 179.068C231.273 179.068 230.815 179.209 230.531 179.493C230.248 179.776 230.106 180.234 230.106 180.868L230.106 188.968L223.256 188.968L223.256 164.218C223.256 163.584 223.115 163.126 222.831 162.843C222.548 162.559 222.09 162.418 221.456 162.418L213.706 162.418C213.073 162.418 212.615 162.559 212.331 162.843C212.048 163.126 211.906 163.584 211.906 164.218L211.906 196.618C211.906 197.251 212.048 197.709 212.331 197.993C212.615 198.276 213.073 198.418 213.706 198.418L239.156 198.418ZM217.356 193.918L217.356 166.918L217.856 166.918L217.856 193.418L235.256 193.418L235.256 183.568L235.756 183.568L235.756 193.918L217.356 193.918Z" fill-rule="evenodd"/>
<path clip-path="url(#TextBounds_3)" d="M256.706 183.268L256.706 184.818L276.206 184.818L276.206 183.268C276.206 182.368 276.131 181.534 275.981 180.768C275.831 180.001 275.64 179.284 275.406 178.618L271.956 170.468C271.59 169.601 271.206 168.876 270.806 168.293C270.406 167.709 269.74 167.418 268.806 167.418L263.906 167.418C262.906 167.418 262.206 167.709 261.806 168.293C261.406 168.876 261.04 169.584 260.706 170.418L257.506 178.618C257.273 179.284 257.081 180.001 256.931 180.768C256.781 181.534 256.706 182.368 256.706 183.268ZM264.706 172.918C264.84 172.618 264.981 172.401 265.131 172.268C265.281 172.134 265.456 172.068 265.656 172.068L266.906 172.068C267.106 172.068 267.281 172.134 267.431 172.268C267.581 172.401 267.723 172.618 267.856 172.918L270.206 180.518L262.356 180.518L264.706 172.918ZM276.206 193.918L276.206 185.318L256.706 185.318L256.706 193.918L256.206 193.918L256.206 183.268C256.206 182.334 256.281 181.476 256.431 180.693C256.581 179.909 256.79 179.151 257.056 178.418L260.256 170.218C260.623 169.284 261.04 168.501 261.506 167.868C261.973 167.234 262.773 166.918 263.906 166.918L268.806 166.918C269.906 166.918 270.681 167.234 271.131 167.868C271.581 168.501 272.006 169.301 272.406 170.268L275.856 178.418C276.123 179.151 276.331 179.909 276.481 180.693C276.631 181.476 276.706 182.334 276.706 183.268L276.706 193.918L276.206 193.918ZM261.856 196.618L261.856 189.618L270.706 189.618L270.706 196.618C270.706 197.251 270.865 197.709 271.181 197.993C271.498 198.276 271.99 198.418 272.656 198.418L280.206 198.418C280.84 198.418 281.298 198.276 281.581 197.993C281.865 197.709 282.006 197.251 282.006 196.618L282.006 183.418C282.006 182.418 281.848 181.268 281.531 179.968C281.215 178.668 280.723 177.151 280.056 175.418L275.706 164.068C275.506 163.501 275.198 163.084 274.781 162.818C274.365 162.551 273.84 162.418 273.206 162.418L259.756 162.418C259.09 162.418 258.548 162.551 258.131 162.818C257.715 163.084 257.406 163.501 257.206 164.068L252.856 175.418C252.19 177.151 251.698 178.668 251.381 179.968C251.065 181.268 250.906 182.418 250.906 183.418L250.906 196.618C250.906 197.251 251.048 197.709 251.331 197.993C251.615 198.276 252.073 198.418 252.706 198.418L260.056 198.418C260.69 198.418 261.148 198.276 261.431 197.993C261.715 197.709 261.856 197.251 261.856 196.618ZM255.156 203.868C255.023 204.001 254.815 204.118 254.531 204.218C254.248 204.318 253.94 204.368 253.606 204.368L246.256 204.368C245.456 204.368 244.873 204.184 244.506 203.818C244.14 203.451 243.956 202.868 243.956 202.068L243.956 188.868C243.956 187.834 244.115 186.659 244.431 185.343C244.748 184.026 245.256 182.468 245.956 180.668L250.256 169.368C250.356 169.068 250.481 168.809 250.631 168.593C250.781 168.376 250.94 168.184 251.106 168.018L251.156 167.968L257.556 162.618C257.823 162.384 258.14 162.209 258.506 162.093C258.873 161.976 259.29 161.918 259.756 161.918L273.206 161.918C273.973 161.918 274.598 162.076 275.081 162.393C275.565 162.709 275.923 163.201 276.156 163.868L280.506 175.218C281.206 177.018 281.715 178.576 282.031 179.893C282.348 181.209 282.506 182.384 282.506 183.418L282.506 196.618C282.506 197.051 282.448 197.418 282.331 197.718C282.215 198.018 282.04 198.268 281.806 198.468L275.306 203.868C275.173 204.001 274.965 204.118 274.681 204.218C274.398 204.318 274.09 204.368 273.756 204.368L266.206 204.368C265.373 204.368 264.756 204.176 264.356 203.793C263.956 203.409 263.756 202.834 263.756 202.068L263.756 195.568L262.356 195.568L262.356 196.618C262.356 197.051 262.298 197.418 262.181 197.718C262.065 198.018 261.89 198.268 261.656 198.468L255.156 203.868Z" fill-rule="evenodd"/>
<path clip-path="url(#TextBounds_3)" d="M288.506 204.368C287.706 204.368 287.123 204.184 286.756 203.818C286.39 203.451 286.206 202.868 286.206 202.068L286.206 169.668C286.206 169.234 286.265 168.868 286.381 168.568C286.498 168.268 286.673 168.018 286.906 167.818L293.356 162.368C293.523 162.234 293.748 162.126 294.031 162.043C294.315 161.959 294.623 161.918 294.956 161.918L310.906 161.918C314.373 161.918 316.923 162.593 318.556 163.943C320.19 165.293 321.006 167.334 321.006 170.068L321.006 172.468C321.006 173.634 320.848 174.634 320.531 175.468C320.215 176.301 319.74 176.968 319.106 177.468L318.956 177.568C320.756 177.968 322.106 178.826 323.006 180.143C323.906 181.459 324.356 183.284 324.356 185.618L324.356 190.218C324.356 191.718 324.14 193.009 323.706 194.093C323.273 195.176 322.623 196.084 321.756 196.818L315.306 202.268C314.473 202.968 313.423 203.493 312.156 203.843C310.89 204.193 309.406 204.368 307.706 204.368L288.506 204.368ZM314.156 198.418C317.456 198.418 319.898 197.751 321.481 196.418C323.065 195.084 323.856 193.018 323.856 190.218L323.856 185.618C323.856 183.184 323.34 181.334 322.306 180.068C321.273 178.801 319.69 178.068 317.556 177.868C318.556 177.434 319.298 176.776 319.781 175.893C320.265 175.009 320.506 173.868 320.506 172.468L320.506 170.068C320.506 167.468 319.723 165.543 318.156 164.293C316.59 163.043 314.173 162.418 310.906 162.418L294.956 162.418C294.323 162.418 293.865 162.559 293.581 162.843C293.298 163.126 293.156 163.584 293.156 164.218L293.156 196.618C293.156 197.251 293.298 197.709 293.581 197.993C293.865 198.276 294.323 198.418 294.956 198.418L314.156 198.418ZM312.156 193.918L298.706 193.918L298.706 166.918L308.856 166.918C310.223 166.918 311.34 167.059 312.206 167.343C313.073 167.626 313.74 168.009 314.206 168.493C314.673 168.976 314.99 169.534 315.156 170.168C315.323 170.801 315.406 171.484 315.406 172.218L315.406 175.418C315.406 176.418 315.231 177.334 314.881 178.168C314.531 179.001 313.64 179.601 312.206 179.968C313.573 179.968 314.69 180.109 315.556 180.393C316.423 180.676 317.09 181.076 317.556 181.593C318.023 182.109 318.331 182.718 318.481 183.418C318.631 184.118 318.706 184.884 318.706 185.718L318.706 188.918C318.706 189.651 318.623 190.326 318.456 190.943C318.29 191.559 317.981 192.084 317.531 192.518C317.081 192.951 316.423 193.293 315.556 193.543C314.69 193.793 313.556 193.918 312.156 193.918ZM308.856 167.418L299.206 167.418L299.206 179.968L308.856 179.968C310.223 179.968 311.306 179.843 312.106 179.593C312.906 179.343 313.515 179.009 313.931 178.593C314.348 178.176 314.615 177.693 314.731 177.143C314.848 176.593 314.906 176.018 314.906 175.418L314.906 172.218C314.906 170.884 314.523 169.751 313.756 168.818C312.99 167.884 311.356 167.418 308.856 167.418ZM304.406 170.918L308.656 170.918C309.29 170.918 309.765 171.084 310.081 171.418C310.398 171.751 310.556 172.251 310.556 172.918L310.556 174.318C310.556 174.984 310.398 175.484 310.081 175.818C309.765 176.151 309.29 176.318 308.656 176.318L304.406 176.318L304.406 170.918ZM312.206 180.468L299.206 180.468L299.206 193.418L312.156 193.418C314.656 193.418 316.29 193.009 317.056 192.193C317.823 191.376 318.206 190.284 318.206 188.918L318.206 185.718C318.206 184.218 317.831 182.968 317.081 181.968C316.331 180.968 314.706 180.468 312.206 180.468ZM304.406 184.018L310.906 184.018C311.54 184.018 312.015 184.176 312.331 184.493C312.648 184.809 312.806 185.301 312.806 185.968L312.806 187.918C312.806 188.584 312.648 189.084 312.331 189.418C312.015 189.751 311.54 189.918 310.906 189.918L304.406 189.918L304.406 184.018Z" fill-rule="evenodd"/>
</g>
</g>
</svg>
