<?xml version="1.0" encoding="UTF-8" standalone="no"?>
<!DOCTYPE svg PUBLIC "-//W3C//DTD SVG 1.1//EN" "http://www.w3.org/Graphics/SVG/1.1/DTD/svg11.dtd">

<!-- Created with Vectornator (http://vectornator.io/) -->
<svg height="100%" stroke-miterlimit="10" style="fill-rule:nonzero;clip-rule:evenodd;stroke-linecap:round;stroke-linejoin:round;" version="1.1" viewBox="0 0 1024 1024" width="100%" xml:space="preserve" xmlns="http://www.w3.org/2000/svg" xmlns:vectornator="http://vectornator.io" xmlns:xlink="http://www.w3.org/1999/xlink">
<metadata>
<vectornator:setting key="IsTimeLapseWatermarkDisabled" value="false"/>
<vectornator:setting key="UndoHistoryDisabled" value="true"/>
<vectornator:setting key="VNDimensionsVisible" value="true"/>
<vectornator:setting key="VNSnapToGuides" value="true"/>
<vectornator:setting key="WDCMYKEnabledKey" value="false"/>
<vectornator:setting key="WDDisplayWhiteBackground" value="true"/>
<vectornator:setting key="WDDynamicGuides" value="false"/>
<vectornator:setting key="WDGuidesVisible" value="true"/>
<vectornator:setting key="WDIsolateActiveLayer" value="false"/>
<vectornator:setting key="WDOutlineMode" value="false"/>
<vectornator:setting key="WDRulersVisible" value="true"/>
<vectornator:setting key="WDSnapToEdges" value="false"/>
<vectornator:setting key="WDSnapToGrid" value="false"/>
<vectornator:setting key="WDSnapToPoints" value="false"/>
<vectornator:setting key="WDUnits" value="Pixels"/>
</metadata>
<defs>
<clipPath id="TextBounds">
<rect height="300.999" width="190.5" x="230.96" y="504.575"/>
</clipPath>
<clipPath id="TextBounds_2">
<rect height="300.999" width="191.5" x="410.215" y="504.575"/>
</clipPath>
<clipPath id="TextBounds_3">
<rect height="300.999" width="201.75" x="587.835" y="504.575"/>
</clipPath>
</defs>
<g id="Layer-1" vectornator:layerName="Layer 1">
<path d="M798.584 704.983L811.987 720.74L811.987 720.74L811.987 720.74C832.265 744.746 859.746 783.408 875.792 822.07C885.394 845.254 891.08 868.692 889.058 889.792C886.91 913.229 875.918 933.192 851.912 946.205C839.973 952.712 824.874 957.324 806.112 959.535C805.48 959.598 804.911 959.661 804.343 959.661L804.343 959.661L575.656 959.661L346.968 959.661C346.021 959.661 345.136 959.598 344.189 959.408C325.679 957.134 310.833 952.586 299.083 946.205C274.698 933.002 263.769 912.913 261.748 889.223C259.979 868.06 265.98 844.37 275.962 820.933C284.166 801.809 295.122 782.627 306.573 765.148" fill="none" fill-rule="evenodd" opacity="1" stroke="#ffc93c" stroke-linecap="butt" stroke-linejoin="round" stroke-width="6"/>
<path d="M475.514 500.874L476.979 364.38C476.537 362.232 475.968 360.084 475.4 357.999C474.644 355.277 473.801 352.581 472.873 349.913C468.072 336.078 460.68 322.306 450.636 309.103C445.329 302.091 446.782 292.109 453.731 286.866C456.637 284.718 459.985 283.644 463.334 283.644L463.334 283.644L687.915 283.644C696.703 283.654 703.824 290.776 703.834 299.564C703.834 303.86 702.129 307.776 699.349 310.619C692.968 317.884 687.725 326.097 683.492 335.13C679.197 344.164 675.848 354.082 673.195 364.822L673.603 500.294" fill="none" fill-rule="evenodd" opacity="1" stroke="#ffc93c" stroke-linecap="round" stroke-linejoin="round" stroke-width="6"/>
<path d="M279.476 765.082C261.1 789.066 239.651 821.356 226.12 852.896C216.139 876.333 210.203 899.944 211.972 921.107C213.993 944.797 224.82 964.945 249.205 978.148C260.955 984.529 275.821 988.98 294.331 991.254C295.279 991.443 296.213 991.552 297.161 991.552L525.771 991.552L754.531 991.552C755.1 991.552 755.687 991.466 756.318 991.403C775.08 989.192 790.101 984.655 802.04 978.148C819.738 968.554 856.414 949.847 875.762 925.873C869.903 932.832 858.854 941.313 849.699 946.277C837.759 952.783 822.739 957.321 803.976 959.532C803.345 959.595 802.758 959.681 802.189 959.681L573.43 959.681L344.819 959.681C343.871 959.681 342.937 959.572 341.989 959.383C323.479 957.108 308.613 952.657 296.863 946.277C285.922 940.352 278.688 932.363 273.117 923.887C266.273 913.473 262.259 902.024 260.862 889.081C260.067 879.577 261.644 869.896 263.514 859.841C265.807 847.505 269.005 834.674 274.504 821.762C282.99 801.982 293.665 782.584 305.539 764.639" fill="#ffc93c" fill-rule="evenodd" opacity="1" stroke="none"/>
<path d="M475.979 501.879L475.73 488.408L477.133 364.37C476.691 362.336 475.219 355.623 474.651 353.649C473.895 351.071 473.154 348.036 472.065 345.575C466.249 332.434 459.755 319.8 449.71 307.298C447.283 304.261 446.995 300.686 447.296 297.159C447.637 293.165 451.62 287.47 455.076 284.786C444.601 290.19 406.536 315.286 403.945 317.099C396.996 322.064 395.511 331.472 400.817 338.112C410.862 350.615 418.207 363.653 423.008 376.754C423.936 379.28 424.784 381.792 425.54 384.369C426.109 386.343 426.736 388.399 427.178 390.433C427.178 390.433 426.914 491.496 427.017 526.163C427.028 530.138 424.709 538.505 435.864 530.614C446.961 522.763 475.979 501.879 475.979 501.879Z" fill="#ffc93c" fill-rule="evenodd" opacity="1" stroke="none"/>
<path d="M301.22 879.957C303.072 880.78 304.924 881.398 306.982 881.604C304.924 880.369 303.278 878.311 302.455 876.047C304.513 877.282 306.571 878.105 308.834 878.517C310.892 876.459 313.567 875.224 316.448 875.224C322.005 875.224 326.532 879.752 326.532 885.308C326.532 886.131 326.532 886.954 326.326 887.571C334.763 887.16 342.172 883.25 347.111 877.076C348.14 878.517 348.551 880.369 348.551 882.221C348.551 885.719 346.699 888.806 344.024 890.658C345.67 890.452 347.316 890.041 348.551 889.424C348.551 889.424 348.551 889.424 348.551 889.629C348.551 894.568 345.053 898.684 340.525 899.507C341.349 899.713 342.172 899.919 343.201 899.919C343.818 899.919 344.435 899.919 345.053 899.713C343.818 903.829 340.114 906.71 335.587 906.71C339.085 909.385 343.406 911.031 348.14 911.031C348.963 911.031 349.786 911.031 350.609 910.825C346.082 913.706 340.731 915.353 335.175 915.353C316.448 915.353 306.365 899.919 306.365 886.543C306.365 886.131 306.365 885.719 306.365 885.308C304.307 883.867 302.661 882.015 301.22 879.957" fill="#ff6f3c" fill-rule="evenodd" opacity="1" stroke="none"/>
<path d="M458.774 823.766C458.774 810.331 447.889 799.446 434.453 799.446C421.018 799.446 410.133 810.331 410.133 823.766C410.133 835.905 419.026 845.967 430.653 847.793L430.653 830.797L424.475 830.797L424.475 823.766L430.653 823.766L430.653 818.408C430.653 812.313 434.282 808.946 439.839 808.946C442.501 808.946 445.284 809.421 445.284 809.421L445.284 815.403L442.216 815.403C439.196 815.403 438.253 817.278 438.253 819.201L438.253 823.766L444.998 823.766L443.92 830.797L438.253 830.797L438.253 847.793C449.88 845.967 458.774 835.905 458.774 823.766Z" fill="#ff6f3c" fill-rule="evenodd" opacity="1" stroke="none"/>
<path d="M470.057 897.778C470.057 909.156 462.266 917.253 450.759 917.253C439.727 917.253 430.817 908.344 430.817 897.312C430.817 886.28 439.727 877.37 450.759 877.37C456.13 877.37 460.649 879.34 464.131 882.589L458.703 887.807C451.603 880.956 438.4 886.103 438.4 897.312C438.4 904.267 443.956 909.904 450.759 909.904C458.655 909.904 461.614 904.243 462.081 901.308L450.759 901.308L450.759 894.449L469.744 894.449C469.929 895.47 470.057 896.451 470.057 897.778Z" fill="#ff6f3c" fill-rule="evenodd" opacity="1" stroke="none"/>
<path d="M591.653 858.858L553.714 858.858C551.976 858.858 550.563 860.102 550.563 861.63L550.563 894.539C550.563 896.067 551.976 897.312 553.714 897.312L591.653 897.312C593.392 897.312 594.814 896.067 594.814 894.539L594.814 861.63C594.814 860.102 593.392 858.858 591.653 858.858ZM563.937 891.818L557.379 891.818L557.379 873.467L563.947 873.467L563.947 891.818L563.937 891.818ZM560.658 870.96C558.554 870.96 556.855 869.475 556.855 867.656C556.855 865.836 558.554 864.351 560.658 864.351C562.752 864.351 564.461 865.836 564.461 867.656C564.461 869.484 562.762 870.96 560.658 870.96ZM588.522 891.818L581.963 891.818L581.963 882.892C581.963 880.763 581.914 878.025 578.556 878.025C575.138 878.025 574.615 880.342 574.615 882.737L574.615 891.818L568.056 891.818L568.056 873.467L574.348 873.467L574.348 875.973L574.437 875.973C575.316 874.531 577.459 873.012 580.65 873.012C587.287 873.012 588.522 876.814 588.522 881.758C588.522 881.758 588.522 891.818 588.522 891.818Z" fill="#ff6f3c" fill-rule="evenodd" opacity="1" stroke="none"/>
<path d="M346.192 808.822C347.434 808.822 348.433 807.823 348.433 806.609C348.433 805.367 347.434 804.368 346.192 804.368C344.968 804.368 343.979 805.367 343.979 806.609C343.979 807.832 344.977 808.822 346.192 808.822ZM318.973 804.368C318.973 816.695 328.961 826.683 341.288 826.683C353.615 826.683 363.603 816.695 363.603 804.368C363.603 792.041 353.615 782.053 341.288 782.053C328.961 782.053 318.973 792.041 318.973 804.368ZM330.877 800.661C331.723 800.661 332.47 801.012 333.019 801.561C335.035 800.166 337.752 799.266 340.766 799.167L339.201 792.122L334.216 793.247C334.216 794.47 333.217 795.46 332.002 795.46C330.76 795.46 329.762 794.443 329.762 793.22C329.762 791.996 330.76 790.979 332.002 790.979C332.875 790.979 333.622 791.501 333.991 792.221L339.498 790.997C339.768 790.925 340.046 791.123 340.118 791.393L341.837 799.167C344.824 799.293 347.515 800.184 349.53 801.579C350.079 801.003 350.853 800.661 351.699 800.661C354.839 800.661 355.865 804.881 352.995 806.312C353.094 806.762 353.148 807.229 353.148 807.706C353.148 812.439 347.821 816.272 341.27 816.272C334.693 816.272 329.366 812.439 329.366 807.706C329.366 807.229 329.42 806.735 329.537 806.285C326.72 804.845 327.755 800.661 330.877 800.661ZM337.077 811.117C338.715 812.754 343.925 812.727 345.499 811.117C345.697 810.919 346.048 810.919 346.246 811.117C346.471 811.342 346.471 811.692 346.246 811.89C344.195 813.942 338.391 813.942 336.33 811.89C336.105 811.692 336.105 811.342 336.33 811.117C336.528 810.919 336.879 810.919 337.077 811.117ZM336.384 804.368C337.608 804.368 338.598 805.367 338.598 806.609C338.598 807.832 337.599 808.822 336.384 808.822C335.143 808.822 334.144 807.823 334.144 806.609C334.144 805.367 335.134 804.368 336.384 804.368Z" fill="#ff6f3c" fill-rule="evenodd" opacity="1" stroke="none"/>
<path d="M677.351 815.698C676.581 812.611 675.123 810.283 672.016 810.283L668.009 810.283L668.009 815.019C668.009 818.695 664.892 821.793 661.335 821.793L650.665 821.793C647.748 821.793 645.33 824.29 645.33 827.218L645.33 837.388C645.33 840.286 647.848 841.984 650.665 842.814C654.042 843.803 657.289 843.982 661.335 842.814C664.023 842.034 666.67 840.466 666.67 837.388L666.67 833.322L656.01 833.322L656.01 831.963L672.016 831.963C675.123 831.963 676.272 829.795 677.351 826.548C678.47 823.201 678.42 819.984 677.351 815.698ZM662.005 836.03C663.114 836.03 664.013 836.939 664.013 838.058C664.013 839.187 663.114 840.096 662.005 840.096C660.906 840.096 659.996 839.177 659.996 838.058C660.006 836.929 660.906 836.03 662.005 836.03ZM650.175 820.454L660.846 820.454C663.813 820.454 666.181 818.006 666.181 815.029L666.181 804.848C666.181 801.951 663.743 799.783 660.846 799.293C657.269 798.704 653.382 798.734 650.175 799.303C645.659 800.102 644.84 801.771 644.84 804.858L644.84 808.924L655.521 808.924L655.521 810.283L640.834 810.283C637.727 810.283 635.009 812.151 634.16 815.698C633.181 819.764 633.141 822.302 634.16 826.548C634.919 829.705 636.728 831.963 639.835 831.963L643.501 831.963L643.501 827.088C643.501 823.561 646.549 820.454 650.175 820.454ZM649.506 806.207C648.397 806.207 647.498 805.298 647.498 804.179C647.508 803.05 648.397 802.14 649.506 802.14C650.605 802.14 651.514 803.06 651.514 804.179C651.514 805.298 650.615 806.207 649.506 806.207Z" fill="#ff6f3c" fill-rule="evenodd" opacity="1" stroke="none"/>
<path d="M736.728 897.312C736.728 909.548 726.813 919.463 714.577 919.463C712.29 919.463 710.093 919.114 708.021 918.471C708.923 916.998 710.272 914.586 710.772 912.666C711.04 911.63 712.147 907.396 712.147 907.396C712.871 908.771 714.979 909.941 717.221 909.941C723.902 909.941 728.716 903.796 728.716 896.16C728.716 888.844 722.74 883.369 715.059 883.369C705.502 883.369 700.42 889.782 700.42 896.776C700.42 900.027 702.153 904.073 704.912 905.359C705.332 905.556 705.556 905.467 705.654 905.065C705.725 904.761 706.1 903.252 706.27 902.555C706.324 902.332 706.297 902.135 706.118 901.921C705.216 900.804 704.484 898.768 704.484 896.865C704.484 891.98 708.182 887.255 714.487 887.255C719.927 887.255 723.741 890.961 723.741 896.267C723.741 902.26 720.713 906.413 716.774 906.413C714.604 906.413 712.969 904.618 713.496 902.412C714.121 899.777 715.327 896.937 715.327 895.034C715.327 893.337 714.416 891.917 712.522 891.917C710.298 891.917 708.512 894.213 708.512 897.294C708.512 899.259 709.173 900.581 709.173 900.581C709.173 900.581 706.985 909.852 706.583 911.585C706.136 913.496 706.315 916.194 706.502 917.944C698.267 914.72 692.426 906.699 692.426 897.312C692.426 885.075 702.34 875.161 714.577 875.161C726.813 875.161 736.728 885.075 736.728 897.312Z" fill="#ff6f3c" fill-rule="evenodd" opacity="1" stroke="none"/>
<path d="M564.451 801.297C564.451 790.666 551.585 782.053 535.724 782.053C519.862 782.053 506.997 790.666 506.997 801.297C506.997 810.77 517.212 818.642 530.67 820.234L530.67 826.355L540.47 826.355L540.47 820.273C542.873 820.006 545.177 819.541 547.333 818.899L551.298 826.355L562.374 826.355L555.709 815.111C561.098 811.611 564.451 806.716 564.451 801.297ZM518.29 802.73C518.29 795.462 528.07 789.578 540.124 789.578C552.179 789.578 561.078 793.603 561.078 802.73C561.078 807.685 558.458 811.136 554.127 813.252C553.889 813.094 553.662 812.965 553.494 812.886C552.485 812.372 550.745 811.848 550.745 811.848C550.745 811.848 559.308 811.215 559.308 802.681C559.308 794.147 550.349 793.989 550.349 793.989L530.67 793.989L530.67 814.587C523.343 812.461 518.29 807.952 518.29 802.73ZM540.549 806.518L540.549 801.02C546.265 801.02 549.232 800.347 549.232 803.719C549.232 807.329 545.454 806.518 540.549 806.518ZM540.46 813.687L543.091 813.687C544.159 813.687 544.96 814.844 545.464 815.586C543.872 815.774 542.201 815.863 540.46 815.873C540.46 815.873 540.46 813.687 540.46 813.687Z" fill="#ff6f3c" fill-rule="evenodd" opacity="1" stroke="none"/>
<path d="M725.332 786.786C727.184 787.609 729.036 788.227 731.094 788.432C729.036 787.198 727.39 785.14 726.567 782.876C728.625 784.111 730.682 784.934 732.946 785.346C735.004 783.288 737.679 782.053 740.56 782.053C746.116 782.053 750.644 786.58 750.644 792.137C750.644 792.96 750.644 793.783 750.438 794.4C758.875 793.989 766.284 790.079 771.222 783.905C772.251 785.346 772.663 787.198 772.663 789.05C772.663 792.548 770.811 795.635 768.136 797.487C769.782 797.281 771.428 796.87 772.663 796.252C772.663 796.252 772.663 796.252 772.663 796.458C772.663 801.397 769.165 805.513 764.637 806.336C765.46 806.542 766.284 806.747 767.313 806.747C767.93 806.747 768.547 806.747 769.165 806.542C767.93 810.657 764.226 813.538 759.698 813.538C763.197 816.214 767.518 817.86 772.251 817.86C773.075 817.86 773.898 817.86 774.721 817.654C770.194 820.535 764.843 822.182 759.287 822.182C740.56 822.182 730.477 806.747 730.477 793.371C730.477 792.96 730.477 792.548 730.477 792.137C728.419 790.696 726.772 788.844 725.332 786.786" fill="#ff6f3c" fill-rule="evenodd" opacity="1" stroke="none"/>
<path d="M821.748 848.736L821.724 849.709C819.484 849.773 818.137 850.968 817.276 852.922C815.283 857.529 809.041 872.055 804.895 881.509L803.811 881.509L797.282 866.115C794.691 871.186 791.837 876.479 789.373 881.509C789.35 881.533 788.178 881.509 788.178 881.486C784.439 872.74 780.516 864.059 776.77 855.289C775.861 853.161 772.831 849.709 770.743 849.733C770.743 849.486 770.719 848.935 770.719 848.601L783.626 848.601L783.626 849.709C782.095 849.796 779.416 850.769 780.174 852.435C781.92 856.397 788.433 871.592 790.187 875.443C791.382 873.075 794.795 866.737 796.19 864.059C795.082 861.802 791.518 853.384 790.386 851.303C789.613 849.884 787.508 849.757 785.938 849.733L785.938 848.625L797.298 848.648L797.298 849.693C795.751 849.741 794.26 850.315 794.954 851.774C796.461 854.962 797.393 857.203 798.789 860.12C799.235 859.259 801.555 854.588 802.623 852.084C803.333 850.442 802.312 849.804 799.546 849.741C799.57 849.454 799.546 848.92 799.57 848.656C803.109 848.633 808.427 848.633 809.383 848.609L809.383 849.693C807.59 849.757 805.732 850.713 804.752 852.22L800.032 862.01C800.542 863.293 805.079 873.394 805.549 874.502L815.307 851.973C814.621 850.131 812.405 849.733 811.544 849.717L811.544 848.609L821.732 848.696C821.732 848.696 821.748 848.736 821.748 848.736Z" fill="#ff6f3c" fill-rule="evenodd" opacity="1" stroke="none"/>
<path d="M550.563 479.121C550.563 490.499 542.771 498.596 531.265 498.596C520.232 498.596 511.323 489.687 511.323 478.654C511.323 467.622 520.232 458.713 531.265 458.713C536.636 458.713 541.155 460.683 544.637 463.931L539.209 469.15C532.109 462.299 518.906 467.445 518.906 478.654C518.906 485.61 524.462 491.247 531.265 491.247C539.161 491.247 542.12 485.586 542.586 482.651L531.265 482.651L531.265 475.792L550.249 475.792C550.434 476.813 550.563 477.794 550.563 479.121Z" fill="#ff6f3c" fill-rule="evenodd" opacity="1" stroke="none"/>
<path d="M575.258 221.417C577.11 222.24 578.962 222.857 581.02 223.063C578.962 221.828 577.315 219.77 576.492 217.507C578.55 218.741 580.608 219.564 582.872 219.976C584.93 217.918 587.605 216.683 590.486 216.683C596.042 216.683 600.569 221.211 600.569 226.767C600.569 227.59 600.569 228.413 600.364 229.031C608.801 228.619 616.209 224.709 621.148 218.536C622.177 219.976 622.589 221.828 622.589 223.68C622.589 227.179 620.737 230.265 618.061 232.118C619.708 231.912 621.354 231.5 622.589 230.883C622.589 230.883 622.589 230.883 622.589 231.089C622.589 236.027 619.09 240.143 614.563 240.966C615.386 241.172 616.209 241.378 617.238 241.378C617.855 241.378 618.473 241.378 619.09 241.172C617.855 245.288 614.151 248.169 609.624 248.169C613.122 250.844 617.444 252.49 622.177 252.49C623 252.49 623.823 252.49 624.646 252.285C620.119 255.166 614.769 256.812 609.212 256.812C590.486 256.812 580.402 241.378 580.402 228.002C580.402 227.59 580.402 227.179 580.402 226.767C578.344 225.327 576.698 223.474 575.258 221.417" fill="#ff6f3c" fill-rule="evenodd" opacity="1" stroke="none"/>
<path d="M568.563 403.008C570.415 403.831 572.268 404.448 574.325 404.654C572.268 403.42 570.621 401.362 569.798 399.098C571.856 400.333 573.914 401.156 576.177 401.567C578.235 399.51 580.911 398.275 583.792 398.275C589.348 398.275 593.875 402.802 593.875 408.358C593.875 409.182 593.875 410.005 593.669 410.622C602.107 410.211 609.515 406.301 614.454 400.127C615.483 401.567 615.894 403.42 615.894 405.272C615.894 408.77 614.042 411.857 611.367 413.709C613.013 413.503 614.66 413.092 615.894 412.474C615.894 412.474 615.894 412.474 615.894 412.68C615.894 417.619 612.396 421.735 607.869 422.558C608.692 422.764 609.515 422.969 610.544 422.969C611.161 422.969 611.779 422.969 612.396 422.764C611.161 426.879 607.457 429.76 602.93 429.76C606.428 432.436 610.75 434.082 615.483 434.082C616.306 434.082 617.129 434.082 617.952 433.876C613.425 436.757 608.074 438.403 602.518 438.403C583.792 438.403 573.708 422.969 573.708 409.593C573.708 409.182 573.708 408.77 573.708 408.358C571.65 406.918 570.004 405.066 568.563 403.008" fill="#ff6f3c" fill-rule="evenodd" opacity="1" stroke="none"/>
<path d="M566.462 345.24C565.692 342.153 564.234 339.825 561.126 339.825L557.12 339.825L557.12 344.56C557.12 348.237 554.003 351.334 550.446 351.334L539.776 351.334C536.859 351.334 534.441 353.832 534.441 356.759L534.441 366.93C534.441 369.828 536.958 371.526 539.776 372.355C543.153 373.344 546.4 373.524 550.446 372.355C553.134 371.576 555.781 370.007 555.781 366.93L555.781 362.864L545.121 362.864L545.121 361.505L561.126 361.505C564.234 361.505 565.383 359.337 566.462 356.09C567.581 352.743 567.531 349.526 566.462 345.24ZM551.116 365.571C552.225 365.571 553.124 366.481 553.124 367.6C553.124 368.729 552.225 369.638 551.116 369.638C550.017 369.638 549.107 368.719 549.107 367.6C549.117 366.471 550.017 365.571 551.116 365.571ZM539.286 349.996L549.957 349.996C552.924 349.996 555.292 347.548 555.292 344.57L555.292 334.39C555.292 331.492 552.854 329.324 549.957 328.835C546.38 328.245 542.493 328.275 539.286 328.845C534.77 329.644 533.951 331.312 533.951 334.4L533.951 338.466L544.631 338.466L544.631 339.825L529.945 339.825C526.838 339.825 524.12 341.693 523.271 345.24C522.292 349.306 522.252 351.844 523.271 356.09C524.03 359.247 525.839 361.505 528.946 361.505L532.612 361.505L532.612 356.63C532.612 353.103 535.66 349.996 539.286 349.996ZM538.617 335.748C537.508 335.748 536.609 334.839 536.609 333.72C536.619 332.591 537.508 331.682 538.617 331.682C539.716 331.682 540.625 332.601 540.625 333.72C540.625 334.839 539.726 335.748 538.617 335.748Z" fill="#ff6f3c" fill-rule="evenodd" opacity="1" stroke="none"/>
<path d="M642.647 339.596C642.647 351.833 632.732 361.747 620.496 361.747C618.209 361.747 616.012 361.399 613.94 360.756C614.842 359.282 616.191 356.871 616.691 354.95C616.959 353.914 618.066 349.68 618.066 349.68C618.79 351.056 620.898 352.226 623.14 352.226C629.821 352.226 634.635 346.081 634.635 338.444C634.635 331.129 628.66 325.654 620.978 325.654C611.421 325.654 606.339 332.067 606.339 339.061C606.339 342.312 608.072 346.358 610.832 347.644C611.251 347.841 611.475 347.751 611.573 347.349C611.644 347.046 612.02 345.536 612.189 344.839C612.243 344.616 612.216 344.42 612.037 344.205C611.135 343.089 610.403 341.052 610.403 339.15C610.403 334.264 614.101 329.539 620.407 329.539C625.846 329.539 629.66 333.246 629.66 338.551C629.66 344.545 626.632 348.698 622.693 348.698C620.523 348.698 618.888 346.903 619.415 344.697C620.04 342.062 621.246 339.221 621.246 337.319C621.246 335.622 620.335 334.202 618.442 334.202C616.217 334.202 614.431 336.497 614.431 339.579C614.431 341.544 615.092 342.865 615.092 342.865C615.092 342.865 612.904 352.137 612.502 353.869C612.055 355.781 612.234 358.478 612.421 360.229C604.186 357.005 598.345 348.984 598.345 339.596C598.345 327.36 608.259 317.446 620.496 317.446C632.732 317.446 642.647 327.36 642.647 339.596Z" fill="#ff6f3c" fill-rule="evenodd" opacity="1" stroke="none"/>
<path d="M505.561 198.293L467.622 198.293C465.883 198.293 464.471 199.538 464.471 201.066L464.471 233.975C464.471 235.503 465.883 236.748 467.622 236.748L505.561 236.748C507.3 236.748 508.722 235.503 508.722 233.975L508.722 201.066C508.722 199.538 507.3 198.293 505.561 198.293ZM477.845 231.254L471.286 231.254L471.286 212.903L477.855 212.903L477.855 231.254L477.845 231.254ZM474.566 210.396C472.462 210.396 470.763 208.911 470.763 207.092C470.763 205.272 472.462 203.787 474.566 203.787C476.66 203.787 478.369 205.272 478.369 207.092C478.369 208.92 476.67 210.396 474.566 210.396ZM502.43 231.254L495.871 231.254L495.871 222.327C495.871 220.199 495.822 217.461 492.464 217.461C489.046 217.461 488.523 219.778 488.523 222.173L488.523 231.254L481.964 231.254L481.964 212.903L488.256 212.903L488.256 215.409L488.345 215.409C489.224 213.967 491.367 212.448 494.558 212.448C501.195 212.448 502.43 216.25 502.43 221.194C502.43 221.194 502.43 231.254 502.43 231.254Z" fill="#ff6f3c" fill-rule="evenodd" opacity="1" stroke="none"/>
<path d="M580.161 159.853C581.403 159.853 582.402 158.854 582.402 157.639C582.402 156.397 581.403 155.399 580.161 155.399C578.938 155.399 577.948 156.397 577.948 157.639C577.948 158.863 578.947 159.853 580.161 159.853ZM552.942 155.399C552.942 167.726 562.93 177.714 575.258 177.714C587.585 177.714 597.573 167.726 597.573 155.399C597.573 143.071 587.585 133.083 575.258 133.083C562.93 133.083 552.942 143.071 552.942 155.399ZM564.847 151.691C565.693 151.691 566.439 152.042 566.988 152.591C569.004 151.196 571.721 150.297 574.736 150.198L573.17 143.152L568.185 144.277C568.185 145.501 567.186 146.491 565.972 146.491C564.73 146.491 563.731 145.474 563.731 144.25C563.731 143.026 564.73 142.01 565.972 142.01C566.844 142.01 567.591 142.531 567.96 143.251L573.467 142.028C573.737 141.956 574.016 142.153 574.088 142.423L575.806 150.198C578.794 150.324 581.484 151.214 583.5 152.609C584.049 152.033 584.822 151.691 585.668 151.691C588.809 151.691 589.834 155.911 586.964 157.342C587.063 157.792 587.117 158.26 587.117 158.737C587.117 163.47 581.79 167.303 575.24 167.303C568.662 167.303 563.335 163.47 563.335 158.737C563.335 158.26 563.389 157.765 563.506 157.315C560.69 155.875 561.725 151.691 564.847 151.691ZM571.046 162.147C572.684 163.785 577.894 163.758 579.469 162.147C579.667 161.949 580.017 161.949 580.215 162.147C580.44 162.372 580.44 162.723 580.215 162.921C578.164 164.972 572.36 164.972 570.3 162.921C570.075 162.723 570.075 162.372 570.3 162.147C570.498 161.949 570.849 161.949 571.046 162.147ZM570.354 155.399C571.577 155.399 572.567 156.397 572.567 157.639C572.567 158.863 571.568 159.853 570.354 159.853C569.112 159.853 568.113 158.854 568.113 157.639C568.113 156.397 569.103 155.399 570.354 155.399Z" fill="#ff6f3c" fill-rule="evenodd" opacity="1" stroke="none"/>
<path d="M486.596 133.231C486.596 119.795 475.711 108.91 462.276 108.91C448.841 108.91 437.955 119.795 437.955 133.231C437.955 145.369 446.849 155.431 458.476 157.257L458.476 140.261L452.297 140.261L452.297 133.231L458.476 133.231L458.476 127.872C458.476 121.777 462.104 118.411 467.662 118.411C470.323 118.411 473.106 118.885 473.106 118.885L473.106 124.867L470.039 124.867C467.018 124.867 466.076 126.742 466.076 128.666L466.076 133.231L472.821 133.231L471.742 140.261L466.076 140.261L466.076 157.257C477.703 155.431 486.596 145.369 486.596 133.231Z" fill="#ff6f3c" fill-rule="evenodd" opacity="1" stroke="none"/>
<path d="M379.561 93.6666C379.561 105.045 371.77 113.142 360.263 113.142C349.231 113.142 340.321 104.232 340.321 93.2002C340.321 82.1679 349.231 73.2585 360.263 73.2585C365.634 73.2585 370.153 75.2286 373.635 78.4771L368.208 83.6957C361.107 76.8448 347.904 81.991 347.904 93.2002C347.904 100.156 353.46 105.792 360.263 105.792C368.159 105.792 371.118 100.132 371.585 97.1966L360.263 97.1966L360.263 90.3376L379.248 90.3376C379.433 91.3588 379.561 92.3398 379.561 93.6666Z" fill="#ff6f3c" fill-rule="evenodd" opacity="1" stroke="none"/>
<path d="M402.673 156.278L402.649 157.251C400.409 157.315 399.062 158.511 398.201 160.464C396.208 165.072 389.966 179.597 385.82 189.052L384.736 189.052L378.207 173.658C375.616 178.728 372.762 184.021 370.299 189.052C370.275 189.076 369.103 189.052 369.103 189.028C365.364 180.282 361.442 171.601 357.695 162.831C356.786 160.703 353.757 157.251 351.668 157.275C351.668 157.028 351.644 156.478 351.644 156.143L364.551 156.143L364.551 157.251C363.02 157.339 360.342 158.311 361.099 159.977C362.845 163.94 369.358 179.134 371.112 182.985C372.308 180.617 375.72 174.279 377.115 171.601C376.007 169.345 372.443 160.926 371.311 158.845C370.538 157.426 368.433 157.299 366.863 157.275L366.863 156.167L378.223 156.191L378.223 157.235C376.676 157.283 375.186 157.857 375.879 159.316C377.386 162.505 378.319 164.745 379.714 167.663C380.16 166.802 382.48 162.13 383.548 159.627C384.258 157.984 383.237 157.347 380.471 157.283C380.495 156.996 380.471 156.462 380.495 156.199C384.035 156.175 389.352 156.175 390.309 156.151L390.309 157.235C388.515 157.299 386.657 158.256 385.677 159.762L380.957 169.552C381.468 170.835 386.004 180.936 386.474 182.044L396.232 159.515C395.546 157.674 393.33 157.275 392.469 157.259L392.469 156.151L402.657 156.239C402.657 156.239 402.673 156.278 402.673 156.278Z" fill="#ff6f3c" fill-rule="evenodd" opacity="1" stroke="none"/>
<path d="M296.089 59.6856C296.089 71.9222 286.175 81.8365 273.938 81.8365C271.652 81.8365 269.455 81.4882 267.382 80.8451C268.284 79.3713 269.633 76.9597 270.133 75.0394C270.401 74.0033 271.509 69.7696 271.509 69.7696C272.232 71.1451 274.34 72.3152 276.582 72.3152C283.263 72.3152 288.077 66.1701 288.077 58.5334C288.077 51.2182 282.102 45.743 274.421 45.743C264.864 45.743 259.781 52.1561 259.781 59.1497C259.781 62.4009 261.514 66.447 264.274 67.7332C264.694 67.9297 264.917 67.8404 265.015 67.4384C265.087 67.1347 265.462 65.6253 265.632 64.9286C265.685 64.7053 265.659 64.5088 265.48 64.2944C264.578 63.1779 263.845 61.1415 263.845 59.239C263.845 54.3533 267.543 49.6284 273.849 49.6284C279.289 49.6284 283.102 53.3351 283.102 58.6406C283.102 64.6338 280.075 68.7871 276.136 68.7871C273.965 68.7871 272.331 66.9918 272.858 64.7857C273.483 62.1508 274.689 59.3105 274.689 57.408C274.689 55.7109 273.778 54.2908 271.884 54.2908C269.66 54.2908 267.874 56.5863 267.874 59.6677C267.874 61.6327 268.535 62.9546 268.535 62.9546C268.535 62.9546 266.346 72.2259 265.944 73.9586C265.498 75.8701 265.676 78.5675 265.864 80.3181C257.629 77.0937 251.787 69.0729 251.787 59.6856C251.787 47.449 261.702 37.5347 273.938 37.5347C286.175 37.5347 296.089 47.449 296.089 59.6856Z" fill="#ff6f3c" fill-rule="evenodd" opacity="1" stroke="none"/>
<path d="M145.061 71.4278C146.913 72.2509 148.765 72.8683 150.823 73.0741C148.765 71.8394 147.118 69.7815 146.295 67.5178C148.353 68.7526 150.411 69.5757 152.675 69.9873C154.733 67.9294 157.408 66.6947 160.289 66.6947C165.845 66.6947 170.372 71.222 170.372 76.7783C170.372 77.6014 170.372 78.4246 170.167 79.0419C178.604 78.6303 186.012 74.7204 190.951 68.5468C191.98 69.9873 192.392 71.8394 192.392 73.6914C192.392 77.1898 190.539 80.2766 187.864 82.1287C189.511 81.9229 191.157 81.5114 192.392 80.894C192.392 80.894 192.392 80.894 192.392 81.0998C192.392 86.0387 188.893 90.1544 184.366 90.9776C185.189 91.1834 186.012 91.3892 187.041 91.3892C187.658 91.3892 188.276 91.3892 188.893 91.1834C187.658 95.2991 183.954 98.1801 179.427 98.1801C182.925 100.855 187.247 102.502 191.98 102.502C192.803 102.502 193.626 102.502 194.449 102.296C189.922 105.177 184.572 106.823 179.015 106.823C160.289 106.823 150.205 91.3892 150.205 78.013C150.205 77.6014 150.205 77.1898 150.205 76.7783C148.147 75.3377 146.501 73.4857 145.061 71.4278" fill="#ff6f3c" fill-rule="evenodd" opacity="1" stroke="none"/>
<path d="M284.771 133.854C284.002 130.766 282.543 128.439 279.436 128.439L275.429 128.439L275.429 133.174C275.429 136.851 272.312 139.948 268.755 139.948L258.085 139.948C255.168 139.948 252.75 142.446 252.75 145.373L252.75 155.544C252.75 158.441 255.268 160.14 258.085 160.969C261.462 161.958 264.709 162.138 268.755 160.969C271.443 160.19 274.091 158.621 274.091 155.544L274.091 151.478L263.43 151.478L263.43 150.119L279.436 150.119C282.543 150.119 283.692 147.951 284.771 144.704C285.89 141.357 285.84 138.14 284.771 133.854ZM269.425 154.185C270.534 154.185 271.433 155.094 271.433 156.213C271.433 157.342 270.534 158.251 269.425 158.251C268.326 158.251 267.417 157.332 267.417 156.213C267.427 155.084 268.326 154.185 269.425 154.185ZM257.596 138.609L268.266 138.609C271.233 138.609 273.601 136.162 273.601 133.184L273.601 123.003C273.601 120.106 271.163 117.938 268.266 117.449C264.689 116.859 260.803 116.889 257.596 117.459C253.08 118.258 252.26 119.926 252.26 123.013L252.26 127.08L262.941 127.08L262.941 128.439L248.254 128.439C245.147 128.439 242.429 130.307 241.58 133.854C240.601 137.92 240.561 140.458 241.58 144.704C242.339 147.861 244.148 150.119 247.255 150.119L250.922 150.119L250.922 145.243C250.922 141.716 253.969 138.609 257.596 138.609ZM256.926 124.362C255.817 124.362 254.918 123.453 254.918 122.334C254.928 121.205 255.817 120.296 256.926 120.296C258.025 120.296 258.934 121.215 258.934 122.334C258.934 123.453 258.035 124.362 256.926 124.362Z" fill="#ff6f3c" fill-rule="evenodd" opacity="1" stroke="none"/>
<path clip-path="url(#TextBounds)" d="M250.71 749.325C246.71 749.325 243.793 748.409 241.96 746.575C240.127 744.742 239.21 741.825 239.21 737.825L239.21 708.575C239.21 706.409 239.502 704.575 240.085 703.075C240.668 701.575 241.543 700.325 242.71 699.325L267.71 678.325C258.877 675.659 251.918 671.117 246.835 664.7C241.752 658.284 239.21 649.075 239.21 637.075L239.21 610.825C239.21 603.325 240.46 596.659 242.96 590.825C245.46 584.992 249.043 580.075 253.71 576.075L286.21 548.825C290.71 545.159 296.293 542.284 302.96 540.2C309.627 538.117 317.21 537.075 325.71 537.075L395.71 537.075C399.71 537.075 402.627 537.992 404.46 539.825C406.293 541.659 407.21 544.575 407.21 548.575L407.21 578.325C407.21 580.492 406.918 582.325 406.335 583.825C405.752 585.325 404.877 586.575 403.71 587.575L381.21 606.325C391.71 608.659 400.168 613.034 406.585 619.45C413.002 625.867 416.21 635.825 416.21 649.325L416.21 675.575C416.21 683.075 414.96 689.742 412.46 695.575C409.96 701.409 406.293 706.325 401.46 710.325L369.21 737.325C364.543 741.159 358.877 744.117 352.21 746.2C345.543 748.284 338.043 749.325 329.71 749.325L250.71 749.325ZM361.96 719.575C377.96 719.575 390.585 715.784 399.835 708.2C409.085 700.617 413.71 689.742 413.71 675.575L413.71 649.325C413.71 635.325 410.127 625.325 402.96 619.325C395.793 613.325 386.377 609.492 374.71 607.825L337.46 602.825C335.293 602.659 333.627 601.825 332.46 600.325C331.293 598.825 330.71 596.992 330.71 594.825C330.71 592.659 331.293 590.867 332.46 589.45C333.627 588.034 335.293 587.325 337.46 587.325L395.71 587.325C398.877 587.325 401.168 586.617 402.585 585.2C404.002 583.784 404.71 581.492 404.71 578.325L404.71 548.575C404.71 545.409 404.002 543.117 402.585 541.7C401.168 540.284 398.877 539.575 395.71 539.575L325.71 539.575C309.543 539.575 296.877 543.367 287.71 550.95C278.543 558.534 273.96 569.409 273.96 583.575L273.96 609.825C273.96 623.825 277.502 633.825 284.585 639.825C291.668 645.825 301.043 649.659 312.71 651.325L350.21 656.575C352.377 656.742 354.002 657.492 355.085 658.825C356.168 660.159 356.71 662.242 356.71 665.075C356.71 667.075 356.168 668.784 355.085 670.2C354.002 671.617 352.377 672.325 350.21 672.325L282.96 672.325C279.793 672.325 277.502 673.034 276.085 674.45C274.668 675.867 273.96 678.159 273.96 681.325L273.96 710.575C273.96 713.742 274.668 716.034 276.085 717.45C277.502 718.867 279.793 719.575 282.96 719.575L361.96 719.575ZM382.21 562.075L382.21 564.575L326.71 564.575C319.71 564.575 314.127 566.492 309.96 570.325C305.793 574.159 303.71 578.992 303.71 584.825L303.71 605.325C303.71 611.159 304.877 615.242 307.21 617.575C309.543 619.909 312.627 621.409 316.46 622.075L369.21 632.825C374.21 633.825 378.335 635.992 381.585 639.325C384.835 642.659 386.46 648.659 386.46 657.325L386.46 671.825C386.46 679.159 383.96 685.2 378.96 689.95C373.96 694.7 367.21 697.075 358.71 697.075L296.46 697.075L296.46 694.575L358.71 694.575C366.377 694.575 372.502 692.45 377.085 688.2C381.668 683.95 383.96 678.492 383.96 671.825L383.96 657.325C383.96 649.492 382.585 644.117 379.835 641.2C377.085 638.284 373.377 636.325 368.71 635.325L315.96 624.575C311.627 623.742 308.085 622.034 305.335 619.45C302.585 616.867 301.21 612.159 301.21 605.325L301.21 584.825C301.21 578.159 303.543 572.7 308.21 568.45C312.877 564.2 319.043 562.075 326.71 562.075L382.21 562.075Z" fill="#155263" fill-rule="evenodd" opacity="1" stroke="none"/>
<path clip-path="url(#TextBounds_2)" d="M550.465 749.325L434.465 749.325C430.465 749.325 427.548 748.409 425.715 746.575C423.881 744.742 422.965 741.825 422.965 737.825L422.965 575.825C422.965 573.659 423.256 571.825 423.84 570.325C424.423 568.825 425.298 567.575 426.465 566.575L458.715 539.325C459.548 538.659 460.673 538.117 462.09 537.7C463.506 537.284 465.048 537.075 466.715 537.075L582.715 537.075C586.715 537.075 589.631 537.992 591.465 539.825C593.298 541.659 594.215 544.575 594.215 548.575L594.215 577.825C594.215 579.992 593.923 581.825 593.34 583.325C592.756 584.825 591.881 586.075 590.715 587.075L569.215 604.825C570.881 605.659 572.09 606.909 572.84 608.575C573.59 610.242 573.965 612.409 573.965 615.075L573.965 641.825C573.965 643.992 573.673 645.825 573.09 647.325C572.506 648.825 571.631 650.075 570.465 651.075L548.215 669.825L582.715 669.825C586.715 669.825 589.631 670.742 591.465 672.575C593.298 674.409 594.215 677.325 594.215 681.325L594.215 710.575C594.215 712.742 593.923 714.575 593.34 716.075C592.756 717.575 591.881 718.825 590.715 719.825L558.215 746.825C557.548 747.492 556.506 748.075 555.09 748.575C553.673 749.075 552.131 749.325 550.465 749.325ZM582.715 719.575C585.881 719.575 588.173 718.867 589.59 717.45C591.006 716.034 591.715 713.742 591.715 710.575L591.715 681.325C591.715 678.159 591.006 675.867 589.59 674.45C588.173 673.034 585.881 672.325 582.715 672.325L513.715 672.325L513.715 650.825L562.465 650.825C565.631 650.825 567.923 650.117 569.34 648.7C570.756 647.284 571.465 644.992 571.465 641.825L571.465 615.075C571.465 611.909 570.756 609.617 569.34 608.2C567.923 606.784 565.631 606.075 562.465 606.075L513.715 606.075L513.715 586.825L582.715 586.825C585.881 586.825 588.173 586.117 589.59 584.7C591.006 583.284 591.715 580.992 591.715 577.825L591.715 548.575C591.715 545.409 591.006 543.117 589.59 541.7C588.173 540.284 585.881 539.575 582.715 539.575L466.715 539.575C463.548 539.575 461.256 540.284 459.84 541.7C458.423 543.117 457.715 545.409 457.715 548.575L457.715 710.575C457.715 713.742 458.423 716.034 459.84 717.45C461.256 718.867 463.548 719.575 466.715 719.575L582.715 719.575ZM569.215 694.575L569.215 697.075L484.965 697.075L484.965 562.075L569.215 562.075L569.215 564.575L487.465 564.575L487.465 627.325L548.965 627.325L548.965 629.825L487.465 629.825L487.465 694.575L569.215 694.575Z" fill="#ff6f3c" fill-rule="evenodd" opacity="1" stroke="none"/>
<path clip-path="url(#TextBounds_3)" d="M739.335 749.325L612.085 749.325C608.085 749.325 605.168 748.409 603.335 746.575C601.501 744.742 600.585 741.825 600.585 737.825L600.585 575.825C600.585 573.659 600.876 571.825 601.46 570.325C602.043 568.825 602.918 567.575 604.085 566.575L636.335 539.325C637.168 538.659 638.293 538.117 639.71 537.7C641.126 537.284 642.668 537.075 644.335 537.075L683.085 537.075C687.085 537.075 690.001 537.992 691.835 539.825C693.668 541.659 694.585 544.575 694.585 548.575L694.585 650.325L695.085 649.825L727.335 622.575C728.168 621.909 729.293 621.367 730.71 620.95C732.126 620.534 733.668 620.325 735.335 620.325L771.585 620.325C775.585 620.325 778.501 621.242 780.335 623.075C782.168 624.909 783.085 627.825 783.085 631.825L783.085 710.575C783.085 712.742 782.793 714.575 782.21 716.075C781.626 717.575 780.751 718.825 779.585 719.825L747.085 746.825C746.418 747.492 745.376 748.075 743.96 748.575C742.543 749.075 741.001 749.325 739.335 749.325ZM771.585 719.575C774.751 719.575 777.043 718.867 778.46 717.45C779.876 716.034 780.585 713.742 780.585 710.575L780.585 631.825C780.585 628.659 779.876 626.367 778.46 624.95C777.043 623.534 774.751 622.825 771.585 622.825L735.335 622.825C732.168 622.825 729.876 623.534 728.46 624.95C727.043 626.367 726.335 628.659 726.335 631.825L726.335 672.325L692.085 672.325L692.085 548.575C692.085 545.409 691.376 543.117 689.96 541.7C688.543 540.284 686.251 539.575 683.085 539.575L644.335 539.575C641.168 539.575 638.876 540.284 637.46 541.7C636.043 543.117 635.335 545.409 635.335 548.575L635.335 710.575C635.335 713.742 636.043 716.034 637.46 717.45C638.876 718.867 641.168 719.575 644.335 719.575L771.585 719.575ZM662.585 697.075L662.585 562.075L665.085 562.075L665.085 694.575L752.085 694.575L752.085 645.325L754.585 645.325L754.585 697.075L662.585 697.075Z" fill="#ffc93c" fill-rule="evenodd" opacity="1" stroke="none"/>
</g>
</svg>
