<?xml version="1.0" encoding="UTF-8" standalone="no"?>
<!DOCTYPE svg PUBLIC "-//W3C//DTD SVG 1.1//EN" "http://www.w3.org/Graphics/SVG/1.1/DTD/svg11.dtd">

<!-- Created with Vectornator (http://vectornator.io/) -->
<svg height="100%" stroke-miterlimit="10" style="fill-rule:nonzero;clip-rule:evenodd;stroke-linecap:round;stroke-linejoin:round;" version="1.1" viewBox="0 0 148.44 78.933" width="100%" xml:space="preserve" xmlns="http://www.w3.org/2000/svg" xmlns:vectornator="http://vectornator.io" xmlns:xlink="http://www.w3.org/1999/xlink">
<metadata>
<vectornator:setting key="IsTimeLapseWatermarkDisabled" value="false"/>
<vectornator:setting key="UndoHistoryDisabled" value="true"/>
<vectornator:setting key="VNDimensionsVisible" value="true"/>
<vectornator:setting key="VNSnapToGuides" value="true"/>
<vectornator:setting key="WDCMYKEnabledKey" value="false"/>
<vectornator:setting key="WDDisplayWhiteBackground" value="true"/>
<vectornator:setting key="WDDynamicGuides" value="true"/>
<vectornator:setting key="WDGuidesVisible" value="true"/>
<vectornator:setting key="WDIsolateActiveLayer" value="false"/>
<vectornator:setting key="WDOutlineMode" value="false"/>
<vectornator:setting key="WDRulersVisible" value="true"/>
<vectornator:setting key="WDSnapToEdges" value="false"/>
<vectornator:setting key="WDSnapToGrid" value="false"/>
<vectornator:setting key="WDSnapToPoints" value="false"/>
<vectornator:setting key="WDUnits" value="Points"/>
</metadata>
<defs>
<clipPath id="TextBounds">
<rect height="60.9998" width="40.5" x="25.1544" y="10.1687"/>
</clipPath>
<clipPath id="TextBounds_2">
<rect height="60.9998" width="40.7" x="62.8116" y="10.1687"/>
</clipPath>
<clipPath id="TextBounds_3">
<rect height="60.9998" width="42.75" x="100.544" y="10.1687"/>
</clipPath>
</defs>
<g id="Layer-1" vectornator:layerName="Layer 1">
<path d="M0 0L148.44 0L148.44 78.933L0 78.933L0 0Z" fill="#000000" fill-rule="evenodd" opacity="0" stroke="none"/>
<path d="M68.4877 17.189L62.5038 7.78467C62.1452 7.22119 61.313 6.76441 60.6451 6.76441L25.6936 6.76441C25.0256 6.76441 24.2155 7.23452 23.8841 7.81442L6.39501 38.4165C6.06359 38.9964 6.06359 39.9366 6.39501 40.5165L23.8841 71.1185C24.2155 71.6985 25.0256 72.1686 25.6935 72.1686L60.6451 72.1686C61.313 72.1686 62.1493 71.7144 62.5131 71.1542L67.5972 63.1968" fill="none" fill-rule="evenodd" opacity="1" stroke="#ff6f3c" stroke-linecap="round" stroke-linejoin="round" stroke-width="4"/>
<g opacity="0">
<path d="M30.3044 59.1187C29.5044 59.1187 28.9211 58.9354 28.5544 58.5687C28.1877 58.202 28.0044 57.6187 28.0044 56.8187L28.0044 50.9687C28.0044 50.5354 28.0627 50.1687 28.1794 49.8687C28.2961 49.5687 28.4711 49.3187 28.7044 49.1187L33.7044 44.9187C31.9377 44.3854 30.5461 43.477 29.5294 42.1937C28.5127 40.9104 28.0044 39.0687 28.0044 36.6687L28.0044 31.4187C28.0044 29.9187 28.2544 28.5854 28.7544 27.4187C29.2544 26.252 29.9711 25.2687 30.9044 24.4687L37.4044 19.0187C38.3044 18.2854 39.4211 17.7104 40.7544 17.2937C42.0877 16.877 43.6044 16.6687 45.3044 16.6687L59.3044 16.6687C60.1044 16.6687 60.6877 16.852 61.0544 17.2187C61.4211 17.5854 61.6044 18.1687 61.6044 18.9687L61.6044 24.9187C61.6044 25.352 61.5461 25.7187 61.4294 26.0187C61.3127 26.3187 61.1377 26.5687 60.9044 26.7687L56.4044 30.5187C58.5044 30.9854 60.1961 31.8604 61.4794 33.1437C62.7627 34.427 63.4044 36.4187 63.4044 39.1187L63.4044 44.3687C63.4044 45.8687 63.1544 47.202 62.6544 48.3687C62.1544 49.5354 61.4211 50.5187 60.4544 51.3187L54.0044 56.7187C53.0711 57.4854 51.9377 58.077 50.6044 58.4937C49.2711 58.9104 47.7711 59.1187 46.1044 59.1187L30.3044 59.1187Z" fill="#ffffff" fill-rule="evenodd" opacity="1" stroke="none"/>
<path d="M52.5544 53.1687C55.7544 53.1687 58.2794 52.4104 60.1294 50.8937C61.9794 49.377 62.9044 47.202 62.9044 44.3687L62.9044 39.1187C62.9044 36.3187 62.1877 34.3187 60.7544 33.1187C59.3211 31.9187 57.4377 31.152 55.1044 30.8187L47.6544 29.8187C47.2211 29.7854 46.8877 29.6187 46.6544 29.3187C46.4211 29.0187 46.3044 28.652 46.3044 28.2187C46.3044 27.7854 46.4211 27.427 46.6544 27.1437C46.8877 26.8604 47.2211 26.7187 47.6544 26.7187L59.3044 26.7187C59.9377 26.7187 60.3961 26.577 60.6794 26.2937C60.9627 26.0104 61.1044 25.552 61.1044 24.9187L61.1044 18.9687C61.1044 18.3354 60.9627 17.877 60.6794 17.5937C60.3961 17.3104 59.9377 17.1687 59.3044 17.1687L45.3044 17.1687C42.0711 17.1687 39.5377 17.927 37.7044 19.4437C35.8711 20.9604 34.9544 23.1354 34.9544 25.9687L34.9544 31.2187C34.9544 34.0187 35.6627 36.0187 37.0794 37.2187C38.4961 38.4187 40.3711 39.1854 42.7044 39.5187L50.2044 40.5687C50.6377 40.602 50.9627 40.752 51.1794 41.0187C51.3961 41.2854 51.5044 41.702 51.5044 42.2687C51.5044 42.6687 51.3961 43.0104 51.1794 43.2937C50.9627 43.577 50.6377 43.7187 50.2044 43.7187L36.7544 43.7187C36.1211 43.7187 35.6627 43.8604 35.3794 44.1437C35.0961 44.427 34.9544 44.8854 34.9544 45.5187L34.9544 51.3687C34.9544 52.002 35.0961 52.4604 35.3794 52.7437C35.6627 53.027 36.1211 53.1687 36.7544 53.1687L52.5544 53.1687Z" fill="#ffffff" fill-rule="evenodd" opacity="1" stroke="none"/>
<path d="M56.6044 21.6687L56.6044 22.1687L45.5044 22.1687C44.1044 22.1687 42.9877 22.552 42.1544 23.3187C41.3211 24.0854 40.9044 25.052 40.9044 26.2187L40.9044 30.3187C40.9044 31.4854 41.1377 32.302 41.6044 32.7687C42.0711 33.2354 42.6877 33.5354 43.4544 33.6687L54.0044 35.8187C55.0044 36.0187 55.8294 36.452 56.4794 37.1187C57.1294 37.7854 57.4544 38.9854 57.4544 40.7187L57.4544 43.6187C57.4544 45.0854 56.9544 46.2937 55.9544 47.2437C54.9544 48.1937 53.6044 48.6687 51.9044 48.6687L39.4544 48.6687L39.4544 48.1687L51.9044 48.1687C53.4377 48.1687 54.6627 47.7437 55.5794 46.8937C56.4961 46.0437 56.9544 44.952 56.9544 43.6187L56.9544 40.7187C56.9544 39.152 56.6794 38.077 56.1294 37.4937C55.5794 36.9104 54.8377 36.5187 53.9044 36.3187L43.3544 34.1687C42.4877 34.002 41.7794 33.6604 41.2294 33.1437C40.6794 32.627 40.4044 31.6854 40.4044 30.3187L40.4044 26.2187C40.4044 24.8854 40.8711 23.7937 41.8044 22.9437C42.7377 22.0937 43.9711 21.6687 45.5044 21.6687L56.6044 21.6687Z" fill="#ffffff" fill-rule="evenodd" opacity="1" stroke="none"/>
<path d="M92.0616 59.1187L68.8616 59.1187C68.0616 59.1187 67.4782 58.9354 67.1116 58.5687C66.7449 58.202 66.5616 57.6187 66.5616 56.8187L66.5616 24.4187C66.5616 23.9854 66.6199 23.6187 66.7366 23.3187C66.8532 23.0187 67.0282 22.7687 67.2616 22.5687L73.7116 17.1187C73.8782 16.9854 74.1032 16.877 74.3866 16.7937C74.6699 16.7104 74.9782 16.6687 75.3116 16.6687L98.5116 16.6687C99.3116 16.6687 99.8949 16.852 100.262 17.2187C100.628 17.5854 100.812 18.1687 100.812 18.9687L100.812 24.8187C100.812 25.252 100.753 25.6187 100.637 25.9187C100.52 26.2187 100.345 26.4687 100.112 26.6687L95.8116 30.2187C96.1449 30.3854 96.3866 30.6354 96.5366 30.9687C96.6866 31.302 96.7616 31.7354 96.7616 32.2687L96.7616 37.6187C96.7616 38.052 96.7032 38.4187 96.5866 38.7187C96.4699 39.0187 96.2949 39.2687 96.0616 39.4687L91.6116 43.2187L98.5116 43.2187C99.3116 43.2187 99.8949 43.402 100.262 43.7687C100.628 44.1354 100.812 44.7187 100.812 45.5187L100.812 51.3687C100.812 51.802 100.753 52.1687 100.637 52.4687C100.52 52.7687 100.345 53.0187 100.112 53.2187L93.6116 58.6187C93.4782 58.752 93.2699 58.8687 92.9866 58.9687C92.7032 59.0687 92.3949 59.1187 92.0616 59.1187Z" fill="#ffffff" fill-rule="evenodd" opacity="1" stroke="none"/>
<path d="M98.5116 53.1687C99.1449 53.1687 99.6032 53.027 99.8866 52.7437C100.17 52.4604 100.312 52.002 100.312 51.3687L100.312 45.5187C100.312 44.8854 100.17 44.427 99.8866 44.1437C99.6032 43.8604 99.1449 43.7187 98.5116 43.7187L84.7116 43.7187L84.7116 39.4187L94.4616 39.4187C95.0949 39.4187 95.5532 39.277 95.8366 38.9937C96.1199 38.7104 96.2616 38.252 96.2616 37.6187L96.2616 32.2687C96.2616 31.6354 96.1199 31.177 95.8366 30.8937C95.5532 30.6104 95.0949 30.4687 94.4616 30.4687L84.7116 30.4687L84.7116 26.6187L98.5116 26.6187C99.1449 26.6187 99.6032 26.477 99.8866 26.1937C100.17 25.9104 100.312 25.452 100.312 24.8187L100.312 18.9687C100.312 18.3354 100.17 17.877 99.8866 17.5937C99.6032 17.3104 99.1449 17.1687 98.5116 17.1687L75.3116 17.1687C74.6782 17.1687 74.2199 17.3104 73.9366 17.5937C73.6532 17.877 73.5116 18.3354 73.5116 18.9687L73.5116 51.3687C73.5116 52.002 73.6532 52.4604 73.9366 52.7437C74.2199 53.027 74.6782 53.1687 75.3116 53.1687L98.5116 53.1687Z" fill="#ffffff" fill-rule="evenodd" opacity="1" stroke="none"/>
<path d="M95.8116 48.1687L95.8116 48.6687L78.9616 48.6687L78.9616 21.6687L95.8116 21.6687L95.8116 22.1687L79.4616 22.1687L79.4616 34.7187L91.7616 34.7187L91.7616 35.2187L79.4616 35.2187L79.4616 48.1687L95.8116 48.1687Z" fill="#ffffff" fill-rule="evenodd" opacity="1" stroke="none"/>
<path d="M133.044 59.1187L107.594 59.1187C106.794 59.1187 106.21 58.9354 105.844 58.5687C105.477 58.202 105.294 57.6187 105.294 56.8187L105.294 24.4187C105.294 23.9854 105.352 23.6187 105.469 23.3187C105.585 23.0187 105.76 22.7687 105.994 22.5687L112.444 17.1187C112.61 16.9854 112.835 16.877 113.119 16.7937C113.402 16.7104 113.71 16.6687 114.044 16.6687L121.794 16.6687C122.594 16.6687 123.177 16.852 123.544 17.2187C123.91 17.5854 124.094 18.1687 124.094 18.9687L124.094 39.3187L124.194 39.2187L130.644 33.7687C130.81 33.6354 131.035 33.527 131.319 33.4437C131.602 33.3604 131.91 33.3187 132.244 33.3187L139.494 33.3187C140.294 33.3187 140.877 33.502 141.244 33.8687C141.61 34.2354 141.794 34.8187 141.794 35.6187L141.794 51.3687C141.794 51.802 141.735 52.1687 141.619 52.4687C141.502 52.7687 141.327 53.0187 141.094 53.2187L134.594 58.6187C134.46 58.752 134.252 58.8687 133.969 58.9687C133.685 59.0687 133.377 59.1187 133.044 59.1187Z" fill="#ffffff" fill-rule="evenodd" opacity="1" stroke="none"/>
<path d="M139.494 53.1687C140.127 53.1687 140.585 53.027 140.869 52.7437C141.152 52.4604 141.294 52.002 141.294 51.3687L141.294 35.6187C141.294 34.9854 141.152 34.527 140.869 34.2437C140.585 33.9604 140.127 33.8187 139.494 33.8187L132.244 33.8187C131.61 33.8187 131.152 33.9604 130.869 34.2437C130.585 34.527 130.444 34.9854 130.444 35.6187L130.444 43.7187L123.594 43.7187L123.594 18.9687C123.594 18.3354 123.452 17.877 123.169 17.5937C122.885 17.3104 122.427 17.1687 121.794 17.1687L114.044 17.1687C113.41 17.1687 112.952 17.3104 112.669 17.5937C112.385 17.877 112.244 18.3354 112.244 18.9687L112.244 51.3687C112.244 52.002 112.385 52.4604 112.669 52.7437C112.952 53.027 113.41 53.1687 114.044 53.1687L139.494 53.1687Z" fill="#ffffff" fill-rule="evenodd" opacity="1" stroke="none"/>
<path d="M117.694 48.6687L117.694 21.6687L118.194 21.6687L118.194 48.1687L135.594 48.1687L135.594 38.3187L136.094 38.3187L136.094 48.6687L117.694 48.6687Z" fill="#ffffff" fill-rule="evenodd" opacity="1" stroke="none"/>
</g>
<path clip-path="url(#TextBounds)" d="M30.3044 59.1187C29.5044 59.1187 28.9211 58.9354 28.5544 58.5687C28.1877 58.202 28.0044 57.6187 28.0044 56.8187L28.0044 50.9687C28.0044 50.5354 28.0627 50.1687 28.1794 49.8687C28.2961 49.5687 28.4711 49.3187 28.7044 49.1187L33.7044 44.9187C31.9377 44.3854 30.5461 43.477 29.5294 42.1937C28.5127 40.9104 28.0044 39.0687 28.0044 36.6687L28.0044 31.4187C28.0044 29.9187 28.2544 28.5854 28.7544 27.4187C29.2544 26.252 29.9711 25.2687 30.9044 24.4687L37.4044 19.0187C38.3044 18.2854 39.4211 17.7104 40.7544 17.2937C42.0877 16.877 43.6044 16.6687 45.3044 16.6687L59.3044 16.6687C60.1044 16.6687 60.6877 16.852 61.0544 17.2187C61.4211 17.5854 61.6044 18.1687 61.6044 18.9687L61.6044 24.9187C61.6044 25.352 61.5461 25.7187 61.4294 26.0187C61.3127 26.3187 61.1377 26.5687 60.9044 26.7687L56.4044 30.5187C58.5044 30.9854 60.1961 31.8604 61.4794 33.1437C62.7627 34.427 63.4044 36.4187 63.4044 39.1187L63.4044 44.3687C63.4044 45.8687 63.1544 47.202 62.6544 48.3687C62.1544 49.5354 61.4211 50.5187 60.4544 51.3187L54.0044 56.7187C53.0711 57.4854 51.9377 58.077 50.6044 58.4937C49.2711 58.9104 47.7711 59.1187 46.1044 59.1187L30.3044 59.1187ZM52.5544 53.1687C55.7544 53.1687 58.2794 52.4104 60.1294 50.8937C61.9794 49.377 62.9044 47.202 62.9044 44.3687L62.9044 39.1187C62.9044 36.3187 62.1877 34.3187 60.7544 33.1187C59.3211 31.9187 57.4377 31.152 55.1044 30.8187L47.6544 29.8187C47.2211 29.7854 46.8877 29.6187 46.6544 29.3187C46.4211 29.0187 46.3044 28.652 46.3044 28.2187C46.3044 27.7854 46.4211 27.427 46.6544 27.1437C46.8877 26.8604 47.2211 26.7187 47.6544 26.7187L59.3044 26.7187C59.9377 26.7187 60.3961 26.577 60.6794 26.2937C60.9627 26.0104 61.1044 25.552 61.1044 24.9187L61.1044 18.9687C61.1044 18.3354 60.9627 17.877 60.6794 17.5937C60.3961 17.3104 59.9377 17.1687 59.3044 17.1687L45.3044 17.1687C42.0711 17.1687 39.5377 17.927 37.7044 19.4437C35.8711 20.9604 34.9544 23.1354 34.9544 25.9687L34.9544 31.2187C34.9544 34.0187 35.6627 36.0187 37.0794 37.2187C38.4961 38.4187 40.3711 39.1854 42.7044 39.5187L50.2044 40.5687C50.6377 40.602 50.9627 40.752 51.1794 41.0187C51.3961 41.2854 51.5044 41.702 51.5044 42.2687C51.5044 42.6687 51.3961 43.0104 51.1794 43.2937C50.9627 43.577 50.6377 43.7187 50.2044 43.7187L36.7544 43.7187C36.1211 43.7187 35.6627 43.8604 35.3794 44.1437C35.0961 44.427 34.9544 44.8854 34.9544 45.5187L34.9544 51.3687C34.9544 52.002 35.0961 52.4604 35.3794 52.7437C35.6627 53.027 36.1211 53.1687 36.7544 53.1687L52.5544 53.1687ZM56.6044 21.6687L56.6044 22.1687L45.5044 22.1687C44.1044 22.1687 42.9877 22.552 42.1544 23.3187C41.3211 24.0854 40.9044 25.052 40.9044 26.2187L40.9044 30.3187C40.9044 31.4854 41.1377 32.302 41.6044 32.7687C42.0711 33.2354 42.6877 33.5354 43.4544 33.6687L54.0044 35.8187C55.0044 36.0187 55.8294 36.452 56.4794 37.1187C57.1294 37.7854 57.4544 38.9854 57.4544 40.7187L57.4544 43.6187C57.4544 45.0854 56.9544 46.2937 55.9544 47.2437C54.9544 48.1937 53.6044 48.6687 51.9044 48.6687L39.4544 48.6687L39.4544 48.1687L51.9044 48.1687C53.4377 48.1687 54.6627 47.7437 55.5794 46.8937C56.4961 46.0437 56.9544 44.952 56.9544 43.6187L56.9544 40.7187C56.9544 39.152 56.6794 38.077 56.1294 37.4937C55.5794 36.9104 54.8377 36.5187 53.9044 36.3187L43.3544 34.1687C42.4877 34.002 41.7794 33.6604 41.2294 33.1437C40.6794 32.627 40.4044 31.6854 40.4044 30.3187L40.4044 26.2187C40.4044 24.8854 40.8711 23.7937 41.8044 22.9437C42.7377 22.0937 43.9711 21.6687 45.5044 21.6687L56.6044 21.6687Z" fill="#ff6f3c" fill-rule="evenodd" opacity="1" stroke="none"/>
<path clip-path="url(#TextBounds_2)" d="M92.0616 59.1187L68.8616 59.1187C68.0616 59.1187 67.4782 58.9354 67.1116 58.5687C66.7449 58.202 66.5616 57.6187 66.5616 56.8187L66.5616 24.4187C66.5616 23.9854 66.6199 23.6187 66.7366 23.3187C66.8532 23.0187 67.0282 22.7687 67.2616 22.5687L73.7116 17.1187C73.8782 16.9854 74.1032 16.877 74.3866 16.7937C74.6699 16.7104 74.9782 16.6687 75.3116 16.6687L98.5116 16.6687C99.3116 16.6687 99.8949 16.852 100.262 17.2187C100.628 17.5854 100.812 18.1687 100.812 18.9687L100.812 24.8187C100.812 25.252 100.753 25.6187 100.637 25.9187C100.52 26.2187 100.345 26.4687 100.112 26.6687L95.8116 30.2187C96.1449 30.3854 96.3866 30.6354 96.5366 30.9687C96.6866 31.302 96.7616 31.7354 96.7616 32.2687L96.7616 37.6187C96.7616 38.052 96.7032 38.4187 96.5866 38.7187C96.4699 39.0187 96.2949 39.2687 96.0616 39.4687L91.6116 43.2187L98.5116 43.2187C99.3116 43.2187 99.8949 43.402 100.262 43.7687C100.628 44.1354 100.812 44.7187 100.812 45.5187L100.812 51.3687C100.812 51.802 100.753 52.1687 100.637 52.4687C100.52 52.7687 100.345 53.0187 100.112 53.2187L93.6116 58.6187C93.4782 58.752 93.2699 58.8687 92.9866 58.9687C92.7032 59.0687 92.3949 59.1187 92.0616 59.1187ZM98.5116 53.1687C99.1449 53.1687 99.6032 53.027 99.8866 52.7437C100.17 52.4604 100.312 52.002 100.312 51.3687L100.312 45.5187C100.312 44.8854 100.17 44.427 99.8866 44.1437C99.6032 43.8604 99.1449 43.7187 98.5116 43.7187L84.7116 43.7187L84.7116 39.4187L94.4616 39.4187C95.0949 39.4187 95.5532 39.277 95.8366 38.9937C96.1199 38.7104 96.2616 38.252 96.2616 37.6187L96.2616 32.2687C96.2616 31.6354 96.1199 31.177 95.8366 30.8937C95.5532 30.6104 95.0949 30.4687 94.4616 30.4687L84.7116 30.4687L84.7116 26.6187L98.5116 26.6187C99.1449 26.6187 99.6032 26.477 99.8866 26.1937C100.17 25.9104 100.312 25.452 100.312 24.8187L100.312 18.9687C100.312 18.3354 100.17 17.877 99.8866 17.5937C99.6032 17.3104 99.1449 17.1687 98.5116 17.1687L75.3116 17.1687C74.6782 17.1687 74.2199 17.3104 73.9366 17.5937C73.6532 17.877 73.5116 18.3354 73.5116 18.9687L73.5116 51.3687C73.5116 52.002 73.6532 52.4604 73.9366 52.7437C74.2199 53.027 74.6782 53.1687 75.3116 53.1687L98.5116 53.1687ZM95.8116 48.1687L95.8116 48.6687L78.9616 48.6687L78.9616 21.6687L95.8116 21.6687L95.8116 22.1687L79.4616 22.1687L79.4616 34.7187L91.7616 34.7187L91.7616 35.2187L79.4616 35.2187L79.4616 48.1687L95.8116 48.1687Z" fill="#ffc93c" fill-rule="evenodd" opacity="1" stroke="none"/>
<path clip-path="url(#TextBounds_3)" d="M132.044 59.1187L106.594 59.1187C105.794 59.1187 105.21 58.9354 104.844 58.5687C104.477 58.202 104.294 57.6187 104.294 56.8187L104.294 24.4187C104.294 23.9854 104.352 23.6187 104.469 23.3187C104.585 23.0187 104.76 22.7687 104.994 22.5687L111.444 17.1187C111.61 16.9854 111.835 16.877 112.119 16.7937C112.402 16.7104 112.71 16.6687 113.044 16.6687L120.794 16.6687C121.594 16.6687 122.177 16.852 122.544 17.2187C122.91 17.5854 123.094 18.1687 123.094 18.9687L123.094 39.3187L123.194 39.2187L129.644 33.7687C129.81 33.6354 130.035 33.527 130.319 33.4437C130.602 33.3604 130.91 33.3187 131.244 33.3187L138.494 33.3187C139.294 33.3187 139.877 33.502 140.244 33.8687C140.61 34.2354 140.794 34.8187 140.794 35.6187L140.794 51.3687C140.794 51.802 140.735 52.1687 140.619 52.4687C140.502 52.7687 140.327 53.0187 140.094 53.2187L133.594 58.6187C133.46 58.752 133.252 58.8687 132.969 58.9687C132.685 59.0687 132.377 59.1187 132.044 59.1187ZM138.494 53.1687C139.127 53.1687 139.585 53.027 139.869 52.7437C140.152 52.4604 140.294 52.002 140.294 51.3687L140.294 35.6187C140.294 34.9854 140.152 34.527 139.869 34.2437C139.585 33.9604 139.127 33.8187 138.494 33.8187L131.244 33.8187C130.61 33.8187 130.152 33.9604 129.869 34.2437C129.585 34.527 129.444 34.9854 129.444 35.6187L129.444 43.7187L122.594 43.7187L122.594 18.9687C122.594 18.3354 122.452 17.877 122.169 17.5937C121.885 17.3104 121.427 17.1687 120.794 17.1687L113.044 17.1687C112.41 17.1687 111.952 17.3104 111.669 17.5937C111.385 17.877 111.244 18.3354 111.244 18.9687L111.244 51.3687C111.244 52.002 111.385 52.4604 111.669 52.7437C111.952 53.027 112.41 53.1687 113.044 53.1687L138.494 53.1687ZM116.694 48.6687L116.694 21.6687L117.194 21.6687L117.194 48.1687L134.594 48.1687L134.594 38.3187L135.094 38.3187L135.094 48.6687L116.694 48.6687Z" fill="#cfcfcf" fill-rule="evenodd" opacity="1" stroke="none"/>
</g>
</svg>
